<?xml version="1.0" encoding="utf-8"?>
<!-- Generator: Adobe Illustrator 16.0.0, SVG Export Plug-In . SVG Version: 6.00 Build 0)  -->
<!DOCTYPE svg PUBLIC "-//W3C//DTD SVG 1.1//EN" "http://www.w3.org/Graphics/SVG/1.1/DTD/svg11.dtd">
<svg version="1.1" id="Layer_1" xmlns="http://www.w3.org/2000/svg" xmlns:xlink="http://www.w3.org/1999/xlink" x="0px" y="0px"
	 width="669.841px" height="173.115px" viewBox="1.667 1.167 669.841 173.115" enable-background="new 1.667 1.167 669.841 173.115"
	 xml:space="preserve">
<g>
	<g>
		<g>
			
				<linearGradient id="SVGID_1_" gradientUnits="userSpaceOnUse" x1="495.2827" y1="500.6279" x2="495.2827" y2="592.858" gradientTransform="matrix(1 0 0 1 -392 -432)">
				<stop  offset="0" style="stop-color:#188DE9"/>
				<stop  offset="1" style="stop-color:#126BB0"/>
			</linearGradient>
			<path fill="url(#SVGID_1_)" d="M188.436,167.34l-29.993-23.396l-13.197,23.791L94.85,81.147l95.788,25.8l-19.401,19.796
				l33.66,23.779C190.955-12.345,67.387,60.67,1.667,1.167C37.895,190.463,150.96,179.865,191.326,169.562L188.436,167.34z"/>
		</g>
		<g>
			
				<linearGradient id="SVGID_2_" gradientUnits="userSpaceOnUse" x1="665.8979" y1="500.627" x2="665.8979" y2="592.8585" gradientTransform="matrix(1 0 0 1 -392 -432)">
				<stop  offset="0" style="stop-color:#188DE9"/>
				<stop  offset="1" style="stop-color:#126BB0"/>
			</linearGradient>
			<path fill="url(#SVGID_2_)" d="M227.886,51.546h16.151v50.576h59.72V51.546h16.151v115.189h-16.151V116.16h-59.72v50.575h-16.151
				V51.546L227.886,51.546z"/>
			
				<linearGradient id="SVGID_3_" gradientUnits="userSpaceOnUse" x1="743.0181" y1="500.627" x2="743.0181" y2="592.8593" gradientTransform="matrix(1 0 0 1 -392 -432)">
				<stop  offset="0" style="stop-color:#188DE9"/>
				<stop  offset="1" style="stop-color:#126BB0"/>
			</linearGradient>
			<path fill="url(#SVGID_3_)" d="M343.021,51.546h15.992v16.151h-15.992V51.546z M343.186,84.176h15.83v82.562h-15.83V84.176z"/>
			
				<linearGradient id="SVGID_4_" gradientUnits="userSpaceOnUse" x1="787.6567" y1="500.626" x2="787.6567" y2="592.8587" gradientTransform="matrix(1 0 0 1 -392 -432)">
				<stop  offset="0" style="stop-color:#188DE9"/>
				<stop  offset="1" style="stop-color:#126BB0"/>
			</linearGradient>
			<path fill="url(#SVGID_4_)" d="M382.441,98.046H371.67V85.319h11.259V61.496h15.339v23.823h19.904v12.727h-19.904v36.706
				c0,16.481,11.58,18.601,17.617,18.601c2.287,0,3.758-0.316,3.758-0.316v14.029c0,0-2.287,0.317-5.553,0.317
				c-10.6,0-31.647-3.261-31.647-30.836V98.046H382.441z"/>
			
				<linearGradient id="SVGID_5_" gradientUnits="userSpaceOnUse" x1="861.9292" y1="500.626" x2="861.9292" y2="592.8577" gradientTransform="matrix(1 0 0 1 -392 -432)">
				<stop  offset="0" style="stop-color:#188DE9"/>
				<stop  offset="1" style="stop-color:#126BB0"/>
			</linearGradient>
			<path fill="url(#SVGID_5_)" d="M461.854,65.577H422.37v-14.03h95.119v14.03h-39.482v101.158h-16.148V65.577H461.854z"/>
			
				<linearGradient id="SVGID_6_" gradientUnits="userSpaceOnUse" x1="945.395" y1="500.625" x2="945.395" y2="592.8575" gradientTransform="matrix(1 0 0 1 -392 -432)">
				<stop  offset="0" style="stop-color:#188DE9"/>
				<stop  offset="1" style="stop-color:#126BB0"/>
			</linearGradient>
			<path fill="url(#SVGID_6_)" d="M568.565,115.171h3.59v-1.46c0-13.546-7.666-18.112-18.113-18.112c-12.723,0-23,7.993-23,7.993
				l-6.531-11.581c0,0,11.912-9.794,30.838-9.794c20.885,0,32.639,11.423,32.639,32.31v52.211h-14.689v-7.838
				c0-3.752,0.328-6.524,0.328-6.524h-0.328c0,0-6.686,16.319-26.432,16.319c-14.195,0-28.062-8.65-28.062-25.129
				C518.801,116.313,554.696,115.171,568.565,115.171z M550.292,155.964c13.379,0,22.025-14.031,22.025-26.266v-2.612h-4.072
				c-11.916,0-33.451,0.812-33.451,15.664C534.793,149.44,540.014,155.964,550.292,155.964z"/>
			
				<linearGradient id="SVGID_7_" gradientUnits="userSpaceOnUse" x1="1009.0854" y1="500.627" x2="1009.0854" y2="592.8593" gradientTransform="matrix(1 0 0 1 -392 -432)">
				<stop  offset="0" style="stop-color:#188DE9"/>
				<stop  offset="1" style="stop-color:#126BB0"/>
			</linearGradient>
			<path fill="url(#SVGID_7_)" d="M609.09,51.546h15.99v16.151h-15.99V51.546z M609.252,84.176h15.828v82.562h-15.828V84.176z"/>
			
				<linearGradient id="SVGID_8_" gradientUnits="userSpaceOnUse" x1="1049.8022" y1="500.627" x2="1049.8022" y2="592.8589" gradientTransform="matrix(1 0 0 1 -392 -432)">
				<stop  offset="0" style="stop-color:#188DE9"/>
				<stop  offset="1" style="stop-color:#126BB0"/>
			</linearGradient>
			<path fill="url(#SVGID_8_)" d="M644.098,51.546h15.83v89.896c0,9.957,3.91,11.746,8.812,11.746c1.465,0,2.768-0.154,2.768-0.154
				v14.027c0,0-2.445,0.319-5.225,0.319c-8.969,0-22.188-2.446-22.188-23.165L644.098,51.546L644.098,51.546z"/>
		</g>
	</g>
</g>
</svg>
