<?xml version="1.0" encoding="utf-8"?>
<!-- Generator: Adobe Illustrator 16.0.0, SVG Export Plug-In . SVG Version: 6.00 Build 0)  -->
<!DOCTYPE svg PUBLIC "-//W3C//DTD SVG 1.1//EN" "http://www.w3.org/Graphics/SVG/1.1/DTD/svg11.dtd">
<svg version="1.1" id="Layer_1" xmlns="http://www.w3.org/2000/svg" xmlns:xlink="http://www.w3.org/1999/xlink" x="0px" y="0px"
	 width="521.4px" height="38.963px" viewBox="3.288 7.126 521.4 38.963" enable-background="new 3.288 7.126 521.4 38.963"
	 xml:space="preserve">
<g enable-background="new    ">
	<path d="M3.288,45.446V7.768h12.208c4.626,0,7.642,0.188,9.046,0.565c2.159,0.565,3.967,1.795,5.423,3.688
		c1.457,1.894,2.185,4.339,2.185,7.337c0,2.313-0.42,4.259-1.259,5.835s-1.906,2.813-3.2,3.713c-1.294,0.9-2.608,1.495-3.945,1.787
		c-1.816,0.359-4.446,0.539-7.89,0.539h-4.96v14.213H3.288z M10.895,14.142v10.691h4.164c2.998,0,5.003-0.196,6.014-0.591
		c1.011-0.395,1.803-1.011,2.377-1.851s0.861-1.816,0.861-2.93c0-1.371-0.403-2.502-1.208-3.393
		c-0.806-0.891-1.825-1.448-3.059-1.671c-0.908-0.171-2.733-0.257-5.474-0.257H10.895z"/>
	<path d="M38.395,45.446V7.768h27.937v6.374h-20.33v8.353h18.916v6.349H46.002v10.255h21.049v6.348H38.395z"/>
	<path d="M73.528,45.446V7.768H89.54c4.026,0,6.952,0.339,8.777,1.016c1.825,0.677,3.286,1.88,4.382,3.61
		c1.096,1.731,1.645,3.71,1.645,5.938c0,2.827-0.831,5.161-2.493,7.003c-1.662,1.843-4.147,3.003-7.454,3.482
		c1.645,0.96,3.003,2.014,4.074,3.161c1.071,1.148,2.514,3.188,4.331,6.117l4.601,7.351h-9.098l-5.5-8.198
		c-1.953-2.931-3.29-4.776-4.009-5.539c-0.72-0.762-1.482-1.285-2.288-1.567c-0.805-0.283-2.082-0.424-3.829-0.424h-1.542v15.729
		H73.528z M81.135,23.703h5.629c3.649,0,5.928-0.154,6.836-0.463c0.908-0.308,1.619-0.839,2.133-1.593
		c0.514-0.754,0.771-1.696,0.771-2.827c0-1.268-0.339-2.292-1.016-3.071s-1.632-1.272-2.865-1.478
		c-0.617-0.086-2.467-0.129-5.552-0.129h-5.937V23.703z"/>
	<path d="M111.565,45.446V7.768h25.83v6.374h-18.222v8.918h15.729v6.374h-15.729v16.012H111.565z"/>
	<path d="M143.667,45.446V7.768h27.937v6.374h-20.33v8.353h18.916v6.349h-18.916v10.255h21.049v6.348H143.667z"/>
	<path d="M202.881,31.594l7.377,2.339c-1.131,4.111-3.012,7.166-5.642,9.162c-2.631,1.996-5.967,2.994-10.011,2.994
		c-5.003,0-9.115-1.709-12.336-5.127c-3.221-3.419-4.832-8.092-4.832-14.021c0-6.271,1.619-11.142,4.857-14.61
		c3.238-3.47,7.496-5.205,12.773-5.205c4.608,0,8.353,1.362,11.231,4.087c1.713,1.61,2.998,3.924,3.854,6.938l-7.53,1.8
		c-0.445-1.953-1.375-3.495-2.788-4.626c-1.414-1.131-3.132-1.696-5.153-1.696c-2.793,0-5.059,1.002-6.798,3.007
		c-1.739,2.005-2.608,5.252-2.608,9.74c0,4.764,0.856,8.156,2.57,10.178c1.713,2.022,3.941,3.033,6.682,3.033
		c2.021,0,3.761-0.643,5.217-1.928C201.202,36.374,202.247,34.352,202.881,31.594z"/>
	<path d="M225.267,45.446V14.142h-11.18V7.768h29.941v6.374h-11.154v31.304H225.267z"/>
</g>
<g enable-background="new    ">
	<path d="M255.444,45.446l14.47-37.678h5.371l15.42,37.678h-5.68l-4.395-11.411h-15.756l-4.137,11.411H255.444z M266.314,29.974
		h12.773l-3.932-10.435c-1.199-3.17-2.09-5.774-2.674-7.813c-0.479,2.416-1.156,4.815-2.029,7.196L266.314,29.974z"/>
	<path d="M319.414,7.768h4.984v21.769c0,3.787-0.428,6.794-1.285,9.021c-0.855,2.228-2.402,4.039-4.639,5.436
		s-5.17,2.095-8.803,2.095c-3.529,0-6.416-0.608-8.66-1.825c-2.246-1.216-3.848-2.977-4.807-5.281
		c-0.959-2.304-1.439-5.452-1.439-9.445V7.768h4.986v21.743c0,3.272,0.305,5.685,0.912,7.234c0.607,1.552,1.654,2.746,3.137,3.586
		c1.48,0.84,3.293,1.259,5.436,1.259c3.666,0,6.279-0.83,7.838-2.492s2.34-4.858,2.34-9.587V7.768z"/>
	<path d="M332.701,45.446V7.768h12.979c2.93,0,5.166,0.18,6.707,0.54c2.16,0.497,4.002,1.396,5.527,2.698
		c1.986,1.68,3.473,3.825,4.459,6.438c0.984,2.613,1.477,5.599,1.477,8.957c0,2.861-0.334,5.396-1.002,7.607
		c-0.668,2.21-1.525,4.039-2.57,5.486c-1.045,1.448-2.189,2.588-3.43,3.419c-1.244,0.831-2.742,1.461-4.498,1.889
		c-1.758,0.429-3.775,0.643-6.053,0.643H332.701z M337.688,41h8.043c2.484,0,4.434-0.231,5.848-0.694
		c1.414-0.462,2.539-1.113,3.379-1.953c1.184-1.182,2.104-2.771,2.764-4.768c0.66-1.995,0.99-4.416,0.99-7.26
		c0-3.941-0.648-6.97-1.941-9.086c-1.293-2.115-2.865-3.533-4.717-4.253c-1.336-0.515-3.486-0.771-6.451-0.771h-7.914V41z"/>
	<path d="M371.561,45.446V7.768h4.986v37.678H371.561z"/>
	<path d="M385.439,45.446V7.768h27.242v4.446h-22.256v11.54h20.844v4.42h-20.844V41h23.131v4.446H385.439z"/>
	<path d="M420.393,45.446V7.768h5.115l19.789,29.582V7.768h4.779v37.678h-5.113l-19.791-29.607v29.607H420.393z"/>
	<path d="M485.34,32.236l4.984,1.259c-1.045,4.096-2.926,7.218-5.641,9.368c-2.717,2.15-6.035,3.226-9.959,3.226
		c-4.061,0-7.363-0.826-9.908-2.48c-2.545-1.653-4.48-4.048-5.809-7.184c-1.328-3.135-1.992-6.502-1.992-10.1
		c0-3.924,0.75-7.347,2.25-10.268c1.498-2.922,3.633-5.141,6.398-6.657c2.768-1.516,5.812-2.274,9.137-2.274
		c3.77,0,6.939,0.96,9.51,2.879s4.361,4.617,5.371,8.096l-4.908,1.156c-0.873-2.741-2.143-4.737-3.803-5.988
		c-1.662-1.25-3.754-1.876-6.271-1.876c-2.896,0-5.316,0.693-7.262,2.082c-1.943,1.388-3.311,3.251-4.098,5.59
		c-0.789,2.339-1.184,4.75-1.184,7.234c0,3.204,0.467,6.001,1.4,8.392s2.387,4.177,4.357,5.358c1.971,1.183,4.104,1.773,6.398,1.773
		c2.793,0,5.158-0.805,7.094-2.416C483.342,37.796,484.654,35.406,485.34,32.236z"/>
	<path d="M496.57,45.446V7.768h27.242v4.446h-22.256v11.54H522.4v4.42h-20.844V41h23.131v4.446H496.57z"/>
</g>
</svg>
