<?xml version="1.0" encoding="utf-8"?>
<!-- Generator: Adobe Illustrator 16.0.0, SVG Export Plug-In . SVG Version: 6.00 Build 0)  -->
<!DOCTYPE svg PUBLIC "-//W3C//DTD SVG 1.1//EN" "http://www.w3.org/Graphics/SVG/1.1/DTD/svg11.dtd">
<svg version="1.1" id="Layer_1" xmlns="http://www.w3.org/2000/svg" xmlns:xlink="http://www.w3.org/1999/xlink" x="0px" y="0px"
	 width="291.008px" height="106.66px" viewBox="0 0 291.008 106.66" enable-background="new 0 0 291.008 106.66"
	 xml:space="preserve">
<path fill="#455560" d="M287.74,70.294c-5.489,0-7.049-2.375-7.049-6.017V48.17h8.535v-8.167h-8.535V29.236l-9.43,4.232v32.817
	c0,8.391,5.79,12.623,13.73,12.623c1.188,0,2.822-0.074,3.715-0.297l2.302-8.464C289.97,70.22,288.783,70.294,287.74,70.294z
	 M144.258,41.192c0-4.68,3.118-6.165,6.53-6.165c2.75,0,6.39,2.08,8.763,4.604l6.087-7.128c-3.042-4.082-9.204-6.904-14.253-6.904
	c-10.099,0-17.374,5.866-17.374,15.592c0,18.042,22.2,12.323,22.2,22.422c0,3.116-3.043,5.865-6.531,5.865
	c-5.496,0-7.279-2.673-9.802-5.494l-6.757,6.979c4.309,5.271,9.652,7.945,16.041,7.945c9.576,0,17.299-5.939,17.299-15.223
	C166.457,43.641,144.258,49.878,144.258,41.192z M190.744,38.561c-9.95,0-18.859,8.386-18.859,20.64v32.666h9.434V74.27
	c3.114,3.045,6.307,4.382,10.909,4.382c10.396,0,19.306-8.686,19.306-20.045C211.531,47.099,201.806,38.561,190.744,38.561z
	 M192.449,70.041c-6.311,0-11.135-5.273-11.135-11.434c0-6.164,4.824-11.436,11.135-11.436c5.347,0,10.174,5.272,10.174,11.436
	C202.623,64.765,197.795,70.041,192.449,70.041z"/>
<path fill="#455560" d="M110.03,38.814c-4.604,0-7.794,1.337-10.912,4.382V25.6h-9.432v32.668c0,12.25,8.909,20.642,18.861,20.642
	c11.063,0,20.787-8.539,20.787-20.048C129.334,47.502,120.425,38.814,110.03,38.814z M110.252,70.294
	c-6.31,0-11.134-5.271-11.134-11.435c0-6.164,4.825-11.435,11.134-11.435c5.346,0,10.173,5.271,10.173,11.435
	S115.598,70.294,110.252,70.294z M30.441,46.685H9.801V25.6H0v52.715h9.801V56.117h20.64v22.198h9.799V25.6h-9.799V46.685z
	 M73.095,61.792c0,4.469-3.639,8.104-8.106,8.104c-4.468,0-8.105-3.639-8.105-8.104V38.814h-9.28v22.977
	c0,9.588,7.8,17.388,17.386,17.388c9.585,0,17.386-7.8,17.386-17.388V38.814h-9.279v22.979H73.095L73.095,61.792z"/>
<path fill="#E36F1E" d="M245.318,35.104V22.607c3.142-1.419,5.334-4.562,5.334-8.229c0-4.998-4.052-9.047-9.045-9.047
	c-4.996,0-9.043,4.049-9.043,9.047c0,3.667,2.191,6.81,5.329,8.229l-0.271,12.81c-0.625-0.414,0.111,0-0.998-0.075
	c-2.217,0.435-4.352,1.134-6.344,2.107c-4.377-3.324-22.342-16.954-32.66-24.782c0.234-0.849,0.402-1.723,0.402-2.646
	C198.023,4.486,193.535,0,187.998,0s-10.021,4.486-10.021,10.021s4.482,10.023,10.021,10.023c1.889,0,3.636-0.553,5.143-1.461
	l2.096,1.59l29.188,21.03c0,0,0.015,0.138-1.101,1.257c-4.186,4.25-6.84,9.956-6.84,16.402c0,8.173,4.236,15.175,10.502,19.483
	c1.14,0.99,1.362,0.767,1.362,0.767l-7.961,12.271c-2.681-0.153-5.364,1.072-6.911,3.496c-2.277,3.568-1.225,8.31,2.346,10.578
	c3.566,2.275,8.306,1.227,10.578-2.34c1.547-2.424,1.525-5.375,0.252-7.74l8.486-13.314c2.082,0.544,4.252,0.854,6.471,0.854
	c13.36,0,25.127-10.422,25.127-24.054C266.734,46.51,257.072,36.823,245.318,35.104z M241.607,72.582
	c-7.66,0-14.434-5.967-14.434-13.721c0-7.752,6.771-13.724,14.434-13.724s14.434,5.972,14.434,13.724
	C256.039,66.615,249.269,72.582,241.607,72.582z"/>
<g id="XMLID_1_">
	<g>
		<path fill="#FFFFFF" d="M238.584,8.571c0.021-0.76,1.351-1.34,2.971-1.29c1.608,0.04,2.909,0.69,2.892,1.45
			c-0.021,0.76-1.352,1.34-2.972,1.29C239.855,9.981,238.566,9.332,238.584,8.571z"/>
		<path fill="#FFFFFF" d="M218.994,93.891c0.539,0.53,0.039,1.899-1.121,3.03c-1.147,1.14-2.51,1.619-3.049,1.09
			c-0.529-0.54-0.029-1.899,1.129-3.04C217.105,93.832,218.464,93.351,218.994,93.891z"/>
		<path fill="#FFFFFF" d="M184.384,3.551c0.62,0.43,0.359,1.86-0.579,3.18c-0.933,1.32-2.188,2.04-2.812,1.6
			c-0.621-0.44-0.359-1.87,0.57-3.19C182.504,3.821,183.764,3.111,184.384,3.551z"/>
	</g>
</g>
</svg>
