<?xml version="1.0" encoding="utf-8"?>
<!-- Generator: Adobe Illustrator 16.0.0, SVG Export Plug-In . SVG Version: 6.00 Build 0)  -->
<!DOCTYPE svg PUBLIC "-//W3C//DTD SVG 1.1//EN" "http://www.w3.org/Graphics/SVG/1.1/DTD/svg11.dtd">
<svg version="1.1" id="Layer_1" xmlns="http://www.w3.org/2000/svg" xmlns:xlink="http://www.w3.org/1999/xlink" x="0px" y="0px"
	 width="299px" height="65.629px" viewBox="1.334 1.464 299 65.629" enable-background="new 1.334 1.464 299 65.629"
	 xml:space="preserve">
<g>
	<path fill="#030000" d="M237.528,23.431l-0.114,0.071c0.004-0.003,0.028-0.001,0.075-0.006
		C237.513,23.458,237.526,23.435,237.528,23.431z"/>
</g>
<g>
	<path fill="#030000" d="M236.087,26.085c0,0-0.004-0.001-0.004,0c-0.033,0.087-0.062,0.18-0.097,0.273
		c0.033-0.002,0.062,0.001,0.093,0.001L236.087,26.085z"/>
</g>
<g>
	<path fill="#030000" d="M254.416,53.362c-0.006,0.009-0.012,0.019-0.012,0.019l0.038-0.037
		C254.435,53.346,254.423,53.352,254.416,53.362z"/>
</g>
<g>
	<polygon fill="#030000" points="254.628,53.539 254.596,53.569 254.619,53.55 	"/>
</g>
<g>
	<path fill="#030000" d="M255.553,52.664l-0.025,0.021C255.537,52.678,255.544,52.669,255.553,52.664z"/>
</g>
<g>
	<polygon fill="#030000" points="255.705,52.895 255.701,52.898 255.701,52.898 	"/>
</g>
<g>
	<polygon fill="#030000" points="255.705,52.895 255.703,52.897 255.707,52.897 	"/>
</g>
<g>
	<path fill="#030000" d="M275.855,51.757c0,0-0.003,0.005,0,0.005c0.01,0.006,0.012,0.008,0.02,0.014L275.855,51.757z"/>
</g>
<path fill="#030000" d="M254.619,53.77c0.057,0.004,0.385,0.039,0.766,0.078c-0.307,0.286-0.463,0.43-0.797,0.743
	C254.601,54.181,254.617,53.824,254.619,53.77z"/>
<g>
	<g>
		<path fill="#030000" d="M21.494,49.375c-0.179-1.49-0.179-2.982-0.179-4.476h-0.119c-1.73,3.045-5.666,5.19-9.365,5.19
			c-7.098,0-10.497-3.996-10.497-10.916V21.46h3.937v15.45c0,6.203,1.728,9.602,7.574,9.602c0.836,0,8.47-0.535,8.47-10.736V21.46
			h3.937v21.77c0,1.492,0.178,4.116,0.298,6.145H21.494z"/>
		<path fill="#030000" d="M46.306,28.08c-1.192-2.266-3.16-3.757-6.023-3.757c-2.744,0-5.786,1.192-5.786,4.175
			c0,2.625,1.849,3.579,5.488,4.414l3.996,0.955c3.878,0.894,6.799,3.698,6.799,7.634c0,6.084-5.427,8.588-10.855,8.588
			c-4.235,0-8.113-1.489-10.737-5.428l3.4-2.324c1.611,2.504,4.056,4.174,7.337,4.174c3.221,0,6.562-1.43,6.562-4.651
			c0-2.805-2.387-3.758-5.309-4.473l-3.817-0.896c-1.909-0.479-7.158-2.03-7.158-7.337c0-5.786,5.07-8.411,10.319-8.411
			c3.876,0,7.516,1.372,9.304,5.009L46.306,28.08z"/>
		<path fill="#030000" d="M56.683,36.492c0.479,5.604,4.712,10.02,10.26,10.02c4.175,0,7.396-2.326,8.947-4.831l3.042,2.505
			c-3.28,4.174-7.396,5.904-11.989,5.904c-8.29,0-14.434-6.264-14.434-14.672c0-8.411,6.144-14.673,14.076-14.673
			c8.471,0.061,13.361,6.322,13.361,13.957v1.791H56.683z M75.651,33.27c0-5.309-3.4-8.947-9.067-8.947
			c-5.129,0-9.781,4.354-9.781,8.947H75.651z"/>
		<path fill="#030000" d="M84.539,30.167c0-2.505-0.119-4.652-0.239-8.708h3.877v5.188h0.12c1.132-2.981,4.055-5.905,8.945-5.905
			c1.135,0,2.09,0.119,2.924,0.358l-0.776,3.877c-0.477-0.179-1.192-0.299-2.266-0.299c-5.964,0-8.65,5.19-8.65,8.948v15.747h-3.935
			V30.167z"/>
		<path fill="#030000" d="M116.807,49.375h-4.414L101.06,21.46h4.712l8.888,23.5h0.119l8.886-23.5h4.472L116.807,49.375z"/>
		<path fill="#030000" d="M142.154,50.089c-8.649,0-14.792-6.264-14.792-14.673c0-8.411,6.143-14.673,14.792-14.673
			c8.71,0,14.852,6.262,14.852,14.673C157.005,43.826,150.865,50.089,142.154,50.089z M142.154,24.323
			c-6.442,0-10.499,4.832-10.499,11.094c0,6.263,4.057,11.094,10.499,11.094c6.502,0,10.559-4.831,10.559-11.094
			S148.656,24.323,142.154,24.323z"/>
		<path fill="#030000" d="M164.523,49.375h-3.939V21.46h3.939V49.375z"/>
		<path fill="#030000" d="M189.871,28.02c-1.312-2.028-3.877-3.697-6.979-3.697c-6.5-0.12-10.497,4.711-10.497,11.094
			c0,6.383,3.997,11.213,10.497,11.094c3.103,0,5.668-1.67,6.979-3.696l3.221,2.444c-2.743,3.22-6.441,4.773-10.2,4.83
			c-9.124,0.121-14.793-6.264-14.793-14.672c0-8.411,5.669-14.792,14.793-14.673c3.759,0.061,7.457,1.611,10.2,4.832L189.871,28.02z
			"/>
		<path fill="#030000" d="M198.041,36.492c0.479,5.604,4.711,10.02,10.26,10.02c4.175,0,7.396-2.326,8.947-4.831l3.041,2.505
			c-3.279,4.174-7.396,5.904-11.988,5.904c-8.293,0-14.434-6.264-14.434-14.672c0-8.411,6.141-14.673,14.076-14.673
			c8.471,0.061,13.357,6.322,13.357,13.957v1.791H198.041z M217.007,33.27c0-5.309-3.399-8.947-9.064-8.947
			c-5.133,0-9.785,4.354-9.785,8.947H217.007z"/>
	</g>
	<g>
		<path fill="#030000" d="M272.203,41.559c-0.045-0.288-0.076-0.58-0.111-0.871c-0.148-1.385-0.264-2.918-0.317-4.574
			c-0.108-5.005,0.459-9.598,0.688-11.215c0.41-2.562,1.016-5.225,1.885-7.934c0,0-7.586,14.708-0.838,31.525
			c0,0-0.805-2.679-1.328-7.019C272.194,41.529,272.203,41.559,272.203,41.559z"/>
		<path fill="#030000" d="M289.562,7.647c0,0-8.245-4.962-11.688,21.147c0,0-3.129,29.938,10.903,26.854
			c0,0-10.495,3.73-11.657-16.303C275.958,19.31,283.13,3.737,289.562,7.647z"/>
		<g>
			<g>
				<path fill="#030000" d="M290.762,28.707l-0.599-0.225l-11.951-2.656l-0.062,0.278l11.767,2.618
					c0.154-0.097,0.312-0.14,0.474-0.134c0.13,0.005,0.175,0.292,0.295,0.366L290.762,28.707z"/>
			</g>
			<g>
				<g>
					<g>
						<path id="SVGID_1_" fill="#030000" d="M277.832,41.43l11.666-3.534c-0.713-0.581-1.166-2.424-1.063-4.638
							c0.093-1.989,0.627-3.756,1.328-4.398c0.063-0.056,0.127-0.104,0.188-0.14l-11.324-2.536l-0.353-0.121
							c-0.731,4.573-1.039,9.794-0.485,15.369L277.832,41.43z"/>
					</g>
				</g>
			</g>
			<g>
				<g>
					<path fill="#030000" d="M289.949,29.066c-0.652,0.592-1.152,2.283-1.238,4.208c-0.111,2.439,0.441,4.179,1.08,4.492
						c0.063,0.026,0.127,0.043,0.188,0.047c0.146,0.008,0.298-0.06,0.448-0.194c0.65-0.597,1.148-2.287,1.234-4.209
						c0.092-1.921-0.25-3.65-0.841-4.303c-0.118-0.129-0.239-0.209-0.364-0.232c-0.021-0.001-0.041-0.005-0.062-0.006
						C290.25,28.861,290.099,28.926,289.949,29.066z"/>
				</g>
			</g>
			<g>
				<path fill="#030000" d="M290.839,29.019c0,0-0.467-0.236-1.364-0.42l0.293-0.209c0,0,0.817,0.054,1.253,0.532L290.839,29.019z"
					/>
			</g>
			<g>
				<path fill="#030000" d="M288.585,36.527l0.961,1.637l0.554-0.076C290.1,38.085,288.955,36.912,288.585,36.527z"/>
			</g>
			<g>
				<path fill="#030000" d="M289.761,28.86c-0.701,0.642-1.235,2.409-1.328,4.398c-0.102,2.214,0.352,4.057,1.064,4.638l0.276-0.085
					l0.017-0.045c-0.64-0.313-1.192-2.053-1.082-4.492c0.086-1.925,0.588-3.616,1.238-4.208c0.151-0.14,0.303-0.205,0.446-0.2
					c0.021,0.001,0.042,0.005,0.062,0.006l0.008-0.04l-0.514-0.113C289.888,28.756,289.826,28.804,289.761,28.86z"/>
			</g>
			<g>
				<path fill="#030000" d="M277.757,41.716l12.097-3.641l-0.002-0.004c-0.125-0.025-0.245-0.088-0.356-0.18l-11.813,3.555
					L277.757,41.716z"/>
			</g>
		</g>
		<path fill="#030000" d="M297.935,12.804c-2.691-8.026-7.018-10.532-10.164-11.22l-0.725-0.12l-0.508,0.071
			c-1.274,0.175-7.951,1.496-14.026,10.303c-3.015,4.369-23.128,7.462-36.472,8.016l-1.994,0.066l-0.979,1.782
			c-0.059,0.105-0.289,0.536-0.6,1.228c-1.914,0.402-3.527,1.361-4.715,2.814c-0.189,0.23-0.369,0.477-0.535,0.733
			c-1.65,2.542-2.092,6.186-1.209,9.997c0.947,4.102,4.107,5.898,7.096,6.285c0.279,0.422,0.555,0.794,0.818,1.109l1.097,1.264
			l1.438,0.072c0,0,4.42,0.195,5.248,0.233c0.299,0.065,0.842,0.263,1.074,0.587c0.227,0.314,0.25,0.98,0.068,1.828
			c-0.997,4.643-1.821,6.369-1.928,6.58l-0.121,0.219c-0.305,0.605-1.756,3.77-0.463,6.861c0.748,1.801,2.291,3.156,4.383,3.833
			L251.416,67l0.401,0.094l1.29-0.168l0.355-0.012l0.397-0.207c0.297-0.151,1.246-0.683,2.177-1.641v0.002
			c0.424-0.363,1.512-1.367,2.465-2.837c1.148-1.772,1.717-3.594,1.688-5.414c-0.026-1.506-0.456-2.913-1.282-4.2
			c1.074-2.035,1.143-4.123,0.174-5.955l-0.283-0.531c-0.104-0.194-0.196-0.373-0.28-0.534c2.047,0.407,6.562,2.028,13.479,8.344
			c1.394,2.144,5.731,7.995,11.795,8.507c0.4,0.034,0.807,0.047,1.201,0.031c0,0,0,0,0.002,0c3.111-0.107,5.971-1.657,8.496-4.604
			c0.416-0.485,0.814-1.026,1.19-1.604c2.696-4.152,4.591-10.938,5.336-19.102C300.832,28.231,300.053,19.123,297.935,12.804z
			 M229.564,35.653c-0.715-3.108-0.342-5.951,1.012-7.602c0.949-1.158,2.35-1.728,4.162-1.692c-0.32,0.934-0.636,2.033-0.857,3.239
			c-0.473,2.548-0.588,5.972,0.884,9.253c0.048,0.104,0.082,0.211,0.133,0.316C234.274,39.229,230.443,39.439,229.564,35.653z
			 M255.587,47.856l0.275,0.522c0.071,0.136,0.121,0.272,0.16,0.41c-0.008,0.363-0.249,1.319-2.244,2.498
			c-0.07-0.399-0.225-0.824-0.514-1.256c-0.686-1.025-1.585-3.887-0.559-5.859c0.426-0.826,1.125-1.399,2.098-1.727
			C253.468,43.914,254.587,45.998,255.587,47.856z M254.371,52.979c1.23,1.002,1.938,2.119,2.123,3.334
			c0.002,0.151-0.037,1.688-1.834,3.294c-0.104-0.523-0.328-1.054-0.688-1.591c-1.255-1.874-1.312-3.035-1.109-3.703L254.371,52.979
			z M296.675,28.47c0.003,0.128,0.007,0.257,0.01,0.385c0.006,0.358,0.009,0.717,0.01,1.077c0,0.139,0.001,0.278,0.001,0.416
			c-0.001,0.354-0.006,0.708-0.012,1.062c-0.003,0.143-0.005,0.287-0.009,0.43c-0.008,0.348-0.02,0.694-0.03,1.041
			c-0.006,0.153-0.013,0.305-0.019,0.458c-0.015,0.339-0.031,0.678-0.051,1.016c-0.011,0.158-0.02,0.315-0.027,0.472
			c-0.021,0.333-0.047,0.664-0.07,0.995c-0.014,0.162-0.025,0.323-0.04,0.485c-0.026,0.323-0.056,0.647-0.087,0.971
			c-0.016,0.166-0.032,0.331-0.051,0.497c-0.032,0.314-0.067,0.63-0.104,0.943c-0.021,0.169-0.04,0.336-0.062,0.502
			c-0.038,0.308-0.078,0.613-0.12,0.919c-0.022,0.17-0.05,0.34-0.074,0.51c-0.044,0.296-0.089,0.593-0.138,0.886
			c-0.026,0.172-0.057,0.344-0.084,0.514c-0.051,0.287-0.1,0.572-0.151,0.854c-0.032,0.174-0.065,0.342-0.101,0.512
			c-0.053,0.278-0.106,0.555-0.164,0.826c-0.035,0.168-0.072,0.334-0.109,0.5c-0.059,0.27-0.119,0.536-0.184,0.801
			c-0.039,0.164-0.078,0.324-0.118,0.485c-0.063,0.259-0.13,0.519-0.197,0.771c-0.042,0.16-0.088,0.312-0.132,0.47
			c-0.068,0.25-0.141,0.5-0.212,0.743c-0.046,0.15-0.095,0.298-0.142,0.447c-0.074,0.24-0.148,0.479-0.228,0.711
			c-0.048,0.146-0.099,0.281-0.147,0.422c-0.082,0.23-0.162,0.464-0.246,0.688c-0.051,0.131-0.102,0.252-0.15,0.378
			c-0.089,0.226-0.178,0.453-0.27,0.669c-0.049,0.111-0.099,0.217-0.146,0.326c-0.098,0.223-0.195,0.443-0.298,0.657
			c-0.042,0.086-0.086,0.166-0.128,0.25c-0.11,0.228-0.223,0.45-0.34,0.665c-0.023,0.044-0.049,0.083-0.072,0.126
			c-0.296,0.528-0.604,1.021-0.924,1.463c-0.113,0.164-0.236,0.31-0.356,0.459c-0.062,0.073-0.12,0.158-0.182,0.229
			c-1.231,1.435-2.522,2.398-3.861,2.908c-0.062,0.023-0.12,0.055-0.182,0.077c-0.095,0.032-0.191,0.05-0.287,0.079
			c-0.187,0.055-0.373,0.115-0.562,0.152c-0.029,0.006-0.062,0.006-0.093,0.013c-0.255,0.046-0.511,0.082-0.769,0.097
			c-0.287,0.018-0.577,0.014-0.869-0.012c-5.158-0.438-9.229-7.145-9.268-7.211l-0.01-0.016l-0.013-0.012l-0.006-0.007
			c-0.263-0.241-0.519-0.469-0.772-0.698c-5.75-5.172-10.052-7.363-12.684-8.285c-1.465-0.508-2.57-0.695-3.333-0.752
			c-0.714-0.057-1.13,0.002-1.238,0.021h-0.01l-0.001,0.002h-0.001c-0.019,0.001-0.038,0.005-0.058,0.006
			c-0.529,0.017-1.019,0.069-1.461,0.173c-0.275,0.063-0.525,0.15-0.769,0.248h-0.001c-0.911,0.36-1.594,0.941-2.016,1.758
			c-1.094,2.104-0.164,5.037,0.574,6.142c1.037,1.558,0.243,2.983,0.127,3.179c0.008-0.01,0.021-0.016,0.026-0.02l-0.039,0.039
			c0,0,0.007-0.012,0.013-0.021c-0.01,0.007-0.031,0.027-0.045,0.039l0.004,0.001c-0.004,0.005-0.009,0.01-0.014,0.012l0.001,0.002
			c-0.142,0.123-0.437,0.438-0.552,1.032c-0.04,0.203-0.04,0.423-0.031,0.644l-0.002,0.002c0,0.006,0.001,0.014,0.001,0.02
			c0.005,0.104,0.019,0.21,0.034,0.318c0.025,0.197,0.062,0.4,0.127,0.615l0.002,0.002c0.191,0.645,0.538,1.352,1.053,2.123
			c0.645,0.955,0.852,1.886,0.627,2.766c-0.025,0.098-0.074,0.18-0.109,0.271c-0.002,0.002-0.004,0.006-0.006,0.008
			c-0.149,0.397-0.356,0.759-0.604,1.057l-0.006,0.006l0.083,0.096l-0.098-0.08c-0.564,0.66-1.233,1.062-1.4,1.152l-1.223-0.299
			l-5.205-1.279c-1.047-0.343-1.748-0.934-2.092-1.75c-0.703-1.678,0.346-3.801,0.356-3.822c0.11-0.186,1.112-1.914,2.354-7.674
			c0.412-1.934,0.187-3.522-0.681-4.728c-0.81-1.13-1.989-1.657-2.786-1.897c-0.479-0.145-0.818-0.186-0.857-0.19l-4.652-0.205
			l-0.688-0.03c-0.371-0.451-0.698-0.915-0.986-1.384c-0.027-0.045-0.051-0.09-0.078-0.136c-0.107-0.18-0.214-0.362-0.312-0.545
			c-0.062-0.116-0.117-0.234-0.174-0.352c-2.201-4.467-1.289-9.391-0.26-12.517c0.062-0.187,0.124-0.367,0.186-0.54
			c0.025-0.07,0.05-0.136,0.074-0.203c0.039-0.105,0.077-0.21,0.115-0.309c0.028-0.075,0.057-0.148,0.085-0.221
			c0.033-0.084,0.065-0.165,0.097-0.244c0.028-0.07,0.059-0.141,0.086-0.207c0.029-0.072,0.059-0.138,0.086-0.205
			c0.064-0.151,0.127-0.291,0.185-0.417c0.009-0.02,0.019-0.043,0.026-0.062c0.035-0.075,0.066-0.141,0.097-0.207
			c0.011-0.023,0.022-0.047,0.034-0.069c0.027-0.06,0.055-0.115,0.078-0.165c0.01-0.019,0.019-0.036,0.025-0.053
			c0.053-0.105,0.096-0.188,0.121-0.238c0.86-0.038,8.896-0.426,17.455-1.711c4.549-0.681,8.424-1.48,11.613-2.393
			c5.318-1.519,8.738-3.353,10.207-5.484c5.336-7.735,11.089-8.697,11.497-8.755c-0.001,0-0.003,0-0.003-0.001l0,0
			c0,0,0.003,0,0.004,0.001c-0.001,0-0.001,0-0.001,0c0.387,0.086,0.764,0.208,1.133,0.363c0.125,0.052,0.242,0.127,0.364,0.187
			c0.238,0.117,0.479,0.232,0.709,0.378c0.15,0.096,0.296,0.216,0.443,0.325c0.19,0.14,0.383,0.275,0.567,0.436
			c0.16,0.14,0.313,0.303,0.469,0.458c0.161,0.161,0.322,0.318,0.478,0.495c0.162,0.183,0.314,0.387,0.47,0.587
			c0.14,0.181,0.28,0.36,0.415,0.556c0.154,0.224,0.302,0.466,0.449,0.708c0.125,0.204,0.248,0.407,0.367,0.623
			c0.143,0.26,0.279,0.535,0.416,0.813c0.113,0.233,0.227,0.467,0.336,0.712c0.127,0.287,0.248,0.584,0.367,0.887
			c0.152,0.387,0.307,0.772,0.445,1.187c0.012,0.033,0.023,0.063,0.035,0.098c0.502,1.495,0.915,3.129,1.242,4.858
			c0.005,0.021,0.01,0.042,0.013,0.062c0.075,0.397,0.144,0.8,0.21,1.206c0.007,0.046,0.016,0.091,0.023,0.137
			c0.061,0.386,0.115,0.778,0.17,1.172c0.01,0.069,0.021,0.138,0.029,0.208c0.051,0.38,0.096,0.764,0.139,1.149
			c0.009,0.087,0.02,0.172,0.029,0.26c0.039,0.375,0.074,0.753,0.107,1.133c0.009,0.1,0.02,0.199,0.027,0.299
			c0.029,0.374,0.058,0.75,0.08,1.127c0.009,0.107,0.017,0.215,0.022,0.323c0.022,0.371,0.04,0.744,0.058,1.118
			c0.004,0.118,0.01,0.235,0.016,0.353C296.658,27.736,296.667,28.103,296.675,28.47z"/>
	</g>
</g>
</svg>
