<?xml version="1.0" encoding="utf-8"?>
<!-- Generator: Adobe Illustrator 16.0.0, SVG Export Plug-In . SVG Version: 6.00 Build 0)  -->
<!DOCTYPE svg PUBLIC "-//W3C//DTD SVG 1.1//EN" "http://www.w3.org/Graphics/SVG/1.1/DTD/svg11.dtd">
<svg version="1.1" id="Layer_1" xmlns="http://www.w3.org/2000/svg" xmlns:xlink="http://www.w3.org/1999/xlink" x="0px" y="0px"
	 width="299px" height="65.629px" viewBox="1.334 1.464 299 65.629" enable-background="new 1.334 1.464 299 65.629"
	 xml:space="preserve">
<g>
	<path fill="#0097E8" d="M237.528,23.431l-0.114,0.071c0.004-0.003,0.028-0.001,0.075-0.006
		C237.513,23.458,237.526,23.435,237.528,23.431z"/>
</g>
<g>
	<path fill="#0097E8" d="M236.087,26.085c0,0-0.004-0.001-0.004,0c-0.033,0.087-0.062,0.18-0.097,0.273
		c0.033-0.002,0.062,0.001,0.093,0.001L236.087,26.085z"/>
</g>
<g>
	<path fill="#0097E8" d="M254.416,53.362c-0.006,0.009-0.012,0.019-0.012,0.019l0.038-0.037
		C254.435,53.346,254.423,53.352,254.416,53.362z"/>
</g>
<g>
	<polygon fill="#0097E8" points="254.628,53.539 254.596,53.569 254.619,53.55 	"/>
</g>
<g>
	<path fill="#0097E8" d="M255.553,52.664l-0.025,0.021C255.537,52.678,255.544,52.669,255.553,52.664z"/>
</g>
<g>
	<polygon fill="#0097E8" points="255.705,52.895 255.701,52.898 255.701,52.898 	"/>
</g>
<g>
	<polygon fill="#0097E8" points="255.705,52.895 255.703,52.897 255.707,52.897 	"/>
</g>
<g>
	<path fill="#0097E8" d="M275.855,51.757c0,0-0.003,0.005,0,0.005c0.01,0.006,0.012,0.008,0.02,0.014L275.855,51.757z"/>
</g>
<path fill="none" d="M254.619,53.77c0.057,0.004,0.385,0.039,0.766,0.078c-0.307,0.286-0.463,0.43-0.797,0.743
	C254.601,54.181,254.617,53.824,254.619,53.77z"/>
<g>
	<g>
		<path fill="#656464" d="M21.494,49.375c-0.179-1.49-0.179-2.982-0.179-4.476h-0.119c-1.73,3.045-5.666,5.19-9.365,5.19
			c-7.098,0-10.497-3.996-10.497-10.916V21.46h3.937v15.45c0,6.203,1.728,9.602,7.574,9.602c0.836,0,8.47-0.535,8.47-10.736V21.46
			h3.937v21.77c0,1.492,0.178,4.116,0.298,6.145H21.494z"/>
		<path fill="#656464" d="M46.306,28.08c-1.192-2.266-3.16-3.757-6.023-3.757c-2.744,0-5.786,1.192-5.786,4.175
			c0,2.625,1.849,3.579,5.488,4.414l3.996,0.955c3.878,0.894,6.799,3.698,6.799,7.634c0,6.084-5.427,8.588-10.855,8.588
			c-4.235,0-8.113-1.489-10.737-5.428l3.4-2.324c1.611,2.504,4.056,4.174,7.337,4.174c3.221,0,6.562-1.43,6.562-4.651
			c0-2.805-2.387-3.758-5.309-4.473l-3.817-0.896c-1.909-0.479-7.158-2.03-7.158-7.337c0-5.786,5.07-8.411,10.319-8.411
			c3.876,0,7.516,1.372,9.304,5.009L46.306,28.08z"/>
		<path fill="#656464" d="M56.683,36.492c0.479,5.604,4.712,10.02,10.26,10.02c4.175,0,7.396-2.326,8.947-4.831l3.042,2.505
			c-3.28,4.174-7.396,5.904-11.989,5.904c-8.29,0-14.434-6.264-14.434-14.672c0-8.411,6.144-14.673,14.076-14.673
			c8.471,0.061,13.361,6.322,13.361,13.957v1.791H56.683z M75.651,33.27c0-5.309-3.4-8.947-9.067-8.947
			c-5.129,0-9.781,4.354-9.781,8.947H75.651z"/>
		<path fill="#656464" d="M84.539,30.167c0-2.505-0.119-4.652-0.239-8.708h3.877v5.188h0.12c1.132-2.981,4.055-5.905,8.945-5.905
			c1.135,0,2.09,0.119,2.924,0.358l-0.776,3.877c-0.477-0.179-1.192-0.299-2.266-0.299c-5.964,0-8.65,5.19-8.65,8.948v15.747h-3.935
			V30.167z"/>
		<path fill="#F7941E" d="M116.807,49.375h-4.414L101.06,21.46h4.712l8.888,23.5h0.119l8.886-23.5h4.472L116.807,49.375z"/>
		<path fill="#F7941E" d="M142.154,50.089c-8.649,0-14.792-6.264-14.792-14.673c0-8.411,6.143-14.673,14.792-14.673
			c8.71,0,14.852,6.262,14.852,14.673C157.005,43.826,150.865,50.089,142.154,50.089z M142.154,24.323
			c-6.442,0-10.499,4.832-10.499,11.094c0,6.263,4.057,11.094,10.499,11.094c6.502,0,10.559-4.831,10.559-11.094
			S148.656,24.323,142.154,24.323z"/>
		<path fill="#F7941E" d="M164.523,49.375h-3.939V21.46h3.939V49.375z"/>
		<path fill="#F7941E" d="M189.871,28.02c-1.312-2.028-3.877-3.697-6.979-3.697c-6.5-0.12-10.497,4.711-10.497,11.094
			c0,6.383,3.997,11.213,10.497,11.094c3.103,0,5.668-1.67,6.979-3.696l3.221,2.444c-2.743,3.22-6.441,4.773-10.2,4.83
			c-9.124,0.121-14.793-6.264-14.793-14.672c0-8.411,5.669-14.792,14.793-14.673c3.759,0.061,7.457,1.611,10.2,4.832L189.871,28.02z
			"/>
		<path fill="#F7941E" d="M198.041,36.492c0.479,5.604,4.711,10.02,10.26,10.02c4.175,0,7.396-2.326,8.947-4.831l3.041,2.505
			c-3.279,4.174-7.396,5.904-11.988,5.904c-8.293,0-14.434-6.264-14.434-14.672c0-8.411,6.141-14.673,14.076-14.673
			c8.471,0.061,13.357,6.322,13.357,13.957v1.791H198.041z M217.007,33.27c0-5.309-3.399-8.947-9.064-8.947
			c-5.133,0-9.785,4.354-9.785,8.947H217.007z"/>
	</g>
	<g>
		<path fill="#FFFFFF" d="M287.73,3.792l-0.023-0.005l-0.045-0.008l-0.24-0.038l-0.217,0.031c-0.692,0.095-6.937,1.167-12.654,9.458
			c-4.233,6.136-29.534,8.525-38.053,8.879l-0.854,0.028l-0.429,0.781c-0.131,0.238-0.516,0.99-0.949,2.082
			c-1.904,0.155-3.477,0.924-4.57,2.265c-0.145,0.175-0.279,0.362-0.406,0.558c-1.346,2.069-1.699,5.167-0.938,8.458
			c0.876,3.789,4.116,4.785,6.304,4.818c0.374,0.631,0.783,1.249,1.258,1.82l0.012,0.016l0.436,0.498l0.582,0.029
			c0,0,5.215,0.231,5.389,0.242c0.269,0.041,1.688,0.323,2.469,1.41c0.58,0.807,0.715,1.956,0.4,3.415
			c-1.171,5.445-2.131,7.125-2.152,7.163c-0.017,0.025-0.037,0.061-0.037,0.061l-0.028,0.059c-0.144,0.284-1.376,2.859-0.401,5.189
			c0.367,0.885,1.207,2.069,3.117,2.688l0.047,0.015l6.519,1.604l0.052,0.012c0,0,1.021-0.131,1.023-0.132
			c0.195-0.102,1.129-0.613,1.938-1.564l-0.146,0.184c0.193-0.164,1.209-1.051,2.09-2.406c0.742-1.146,1.392-2.63,1.365-4.293
			c-0.025-1.52-0.609-2.906-1.729-4.143c0.118-0.152,0.242-0.299,0.348-0.463c0.903-1.394,1.336-3.072,0.508-4.644l-0.279-0.522
			c-1.102-2.051-1.395-2.933-1.061-3.448c0.015-0.024,0.043-0.04,0.06-0.062c0.243-0.035,0.502-0.062,0.782-0.066l0.236-0.008
			c0,0,0.039-0.012,0.071-0.024c0.706-0.049,6.317-0.108,16.411,9.172c0.805,1.272,4.923,7.349,10.423,7.812
			c2.896,0.246,5.593-1.059,8.009-3.877c0.357-0.42,0.703-0.885,1.034-1.396c2.501-3.853,4.306-10.337,5.021-18.194
			c0.793-8.681,0.049-17.482-1.984-23.545C294.535,8.047,291.529,4.623,287.73,3.792z"/>
		<path fill="#F7941E" d="M272.203,41.559c-0.045-0.288-0.076-0.58-0.111-0.871c-0.148-1.385-0.264-2.918-0.317-4.574
			c-0.108-5.005,0.459-9.598,0.688-11.215c0.41-2.562,1.016-5.225,1.885-7.934c0,0-7.586,14.708-0.838,31.525
			c0,0-0.805-2.679-1.328-7.019C272.194,41.529,272.203,41.559,272.203,41.559z"/>
		<path fill="#F7941E" d="M289.562,7.647c0,0-8.245-4.962-11.688,21.147c0,0-3.129,29.938,10.903,26.854
			c0,0-10.495,3.73-11.657-16.303C275.958,19.31,283.13,3.737,289.562,7.647z"/>
		<g>
			<g>
				<path fill="#F7941E" d="M290.762,28.707l-0.599-0.225l-11.951-2.656l-0.062,0.278l11.767,2.618
					c0.154-0.097,0.312-0.14,0.474-0.134c0.13,0.005,0.175,0.292,0.295,0.366L290.762,28.707z"/>
			</g>
			<g>
				<g>
					<g>
						<path id="SVGID_1_" fill="#F7941E" d="M277.832,41.43l11.666-3.534c-0.713-0.581-1.166-2.424-1.063-4.638
							c0.093-1.989,0.627-3.756,1.328-4.398c0.063-0.056,0.127-0.104,0.188-0.14l-11.324-2.536l-0.353-0.121
							c-0.731,4.573-1.039,9.794-0.485,15.369L277.832,41.43z"/>
					</g>
					<g>
						<defs>
							<path id="SVGID_2_" d="M277.832,41.43l11.666-3.534c-0.713-0.581-1.166-2.424-1.063-4.638
								c0.093-1.989,0.627-3.756,1.328-4.398c0.063-0.056,0.127-0.104,0.188-0.14l-11.324-2.536l-0.353-0.121
								c-0.731,4.573-1.039,9.794-0.485,15.369L277.832,41.43z"/>
						</defs>
						<clipPath id="SVGID_3_">
							<use xlink:href="#SVGID_2_"  overflow="visible"/>
						</clipPath>
						<polygon clip-path="url(#SVGID_3_)" fill="#F7941E" points="279.362,24.383 284.244,25.013 280.523,22.597 						"/>
					</g>
					<g>
						<defs>
							<path id="SVGID_4_" d="M277.832,41.43l11.666-3.534c-0.713-0.581-1.166-2.424-1.063-4.638
								c0.093-1.989,0.627-3.756,1.328-4.398c0.063-0.056,0.127-0.104,0.188-0.14l-11.324-2.536l-0.353-0.121
								c-0.731,4.573-1.039,9.794-0.485,15.369L277.832,41.43z"/>
						</defs>
						<clipPath id="SVGID_5_">
							<use xlink:href="#SVGID_4_"  overflow="visible"/>
						</clipPath>
						<polygon clip-path="url(#SVGID_5_)" fill="#F7941E" points="279.251,24.557 284.602,25.245 284.244,25.013 279.362,24.383 
													"/>
					</g>
					<g>
						<defs>
							<path id="SVGID_6_" d="M277.832,41.43l11.666-3.534c-0.713-0.581-1.166-2.424-1.063-4.638
								c0.093-1.989,0.627-3.756,1.328-4.398c0.063-0.056,0.127-0.104,0.188-0.14l-11.324-2.536l-0.353-0.121
								c-0.731,4.573-1.039,9.794-0.485,15.369L277.832,41.43z"/>
						</defs>
						<clipPath id="SVGID_7_">
							<use xlink:href="#SVGID_6_"  overflow="visible"/>
						</clipPath>
						<polygon clip-path="url(#SVGID_7_)" fill="#F7941E" points="279.139,24.728 284.958,25.479 284.602,25.245 279.251,24.557 
													"/>
					</g>
					<g>
						<defs>
							<path id="SVGID_8_" d="M277.832,41.43l11.666-3.534c-0.713-0.581-1.166-2.424-1.063-4.638
								c0.093-1.989,0.627-3.756,1.328-4.398c0.063-0.056,0.127-0.104,0.188-0.14l-11.324-2.536l-0.353-0.121
								c-0.731,4.573-1.039,9.794-0.485,15.369L277.832,41.43z"/>
						</defs>
						<clipPath id="SVGID_9_">
							<use xlink:href="#SVGID_8_"  overflow="visible"/>
						</clipPath>
						<polygon clip-path="url(#SVGID_9_)" fill="#F7941E" points="279.028,24.899 285.316,25.71 284.958,25.479 279.139,24.728 
													"/>
					</g>
					<g>
						<defs>
							<path id="SVGID_10_" d="M277.832,41.43l11.666-3.534c-0.713-0.581-1.166-2.424-1.063-4.638
								c0.093-1.989,0.627-3.756,1.328-4.398c0.063-0.056,0.127-0.104,0.188-0.14l-11.324-2.536l-0.353-0.121
								c-0.731,4.573-1.039,9.794-0.485,15.369L277.832,41.43z"/>
						</defs>
						<clipPath id="SVGID_11_">
							<use xlink:href="#SVGID_10_"  overflow="visible"/>
						</clipPath>
						<polygon clip-path="url(#SVGID_11_)" fill="#F7941E" points="278.914,25.072 285.673,25.943 285.316,25.71 279.028,24.899 
													"/>
					</g>
					<g>
						<defs>
							<path id="SVGID_12_" d="M277.832,41.43l11.666-3.534c-0.713-0.581-1.166-2.424-1.063-4.638
								c0.093-1.989,0.627-3.756,1.328-4.398c0.063-0.056,0.127-0.104,0.188-0.14l-11.324-2.536l-0.353-0.121
								c-0.731,4.573-1.039,9.794-0.485,15.369L277.832,41.43z"/>
						</defs>
						<clipPath id="SVGID_13_">
							<use xlink:href="#SVGID_12_"  overflow="visible"/>
						</clipPath>
						<polygon clip-path="url(#SVGID_13_)" fill="#F7941E" points="278.802,25.244 286.037,26.175 285.673,25.943 278.914,25.072 
													"/>
					</g>
					<g>
						<defs>
							<path id="SVGID_14_" d="M277.832,41.43l11.666-3.534c-0.713-0.581-1.166-2.424-1.063-4.638
								c0.093-1.989,0.627-3.756,1.328-4.398c0.063-0.056,0.127-0.104,0.188-0.14l-11.324-2.536l-0.353-0.121
								c-0.731,4.573-1.039,9.794-0.485,15.369L277.832,41.43z"/>
						</defs>
						<clipPath id="SVGID_15_">
							<use xlink:href="#SVGID_14_"  overflow="visible"/>
						</clipPath>
						<polygon clip-path="url(#SVGID_15_)" fill="#F7941E" points="278.693,25.417 286.391,26.407 286.037,26.175 278.802,25.244 
													"/>
					</g>
					<g>
						<defs>
							<path id="SVGID_16_" d="M277.832,41.43l11.666-3.534c-0.713-0.581-1.166-2.424-1.063-4.638
								c0.093-1.989,0.627-3.756,1.328-4.398c0.063-0.056,0.127-0.104,0.188-0.14l-11.324-2.536l-0.353-0.121
								c-0.731,4.573-1.039,9.794-0.485,15.369L277.832,41.43z"/>
						</defs>
						<clipPath id="SVGID_17_">
							<use xlink:href="#SVGID_16_"  overflow="visible"/>
						</clipPath>
						<polygon clip-path="url(#SVGID_17_)" fill="#F7941E" points="278.582,25.587 286.75,26.641 286.391,26.407 278.693,25.417 
													"/>
					</g>
					<g>
						<defs>
							<path id="SVGID_18_" d="M277.832,41.43l11.666-3.534c-0.713-0.581-1.166-2.424-1.063-4.638
								c0.093-1.989,0.627-3.756,1.328-4.398c0.063-0.056,0.127-0.104,0.188-0.14l-11.324-2.536l-0.353-0.121
								c-0.731,4.573-1.039,9.794-0.485,15.369L277.832,41.43z"/>
						</defs>
						<clipPath id="SVGID_19_">
							<use xlink:href="#SVGID_18_"  overflow="visible"/>
						</clipPath>
						<polygon clip-path="url(#SVGID_19_)" fill="#F7941E" points="278.468,25.76 287.106,26.872 286.75,26.641 278.582,25.587 
													"/>
					</g>
					<g>
						<defs>
							<path id="SVGID_20_" d="M277.832,41.43l11.666-3.534c-0.713-0.581-1.166-2.424-1.063-4.638
								c0.093-1.989,0.627-3.756,1.328-4.398c0.063-0.056,0.127-0.104,0.188-0.14l-11.324-2.536l-0.353-0.121
								c-0.731,4.573-1.039,9.794-0.485,15.369L277.832,41.43z"/>
						</defs>
						<clipPath id="SVGID_21_">
							<use xlink:href="#SVGID_20_"  overflow="visible"/>
						</clipPath>
						<polygon clip-path="url(#SVGID_21_)" fill="#F7941E" points="278.355,25.932 287.464,27.105 287.106,26.872 278.468,25.76 
													"/>
					</g>
					<g>
						<defs>
							<path id="SVGID_22_" d="M277.832,41.43l11.666-3.534c-0.713-0.581-1.166-2.424-1.063-4.638
								c0.093-1.989,0.627-3.756,1.328-4.398c0.063-0.056,0.127-0.104,0.188-0.14l-11.324-2.536l-0.353-0.121
								c-0.731,4.573-1.039,9.794-0.485,15.369L277.832,41.43z"/>
						</defs>
						<clipPath id="SVGID_23_">
							<use xlink:href="#SVGID_22_"  overflow="visible"/>
						</clipPath>
						<polygon clip-path="url(#SVGID_23_)" fill="#F7941E" points="278.246,26.104 287.822,27.338 287.464,27.105 278.355,25.932 
													"/>
					</g>
					<g>
						<defs>
							<path id="SVGID_24_" d="M277.832,41.43l11.666-3.534c-0.713-0.581-1.166-2.424-1.063-4.638
								c0.093-1.989,0.627-3.756,1.328-4.398c0.063-0.056,0.127-0.104,0.188-0.14l-11.324-2.536l-0.353-0.121
								c-0.731,4.573-1.039,9.794-0.485,15.369L277.832,41.43z"/>
						</defs>
						<clipPath id="SVGID_25_">
							<use xlink:href="#SVGID_24_"  overflow="visible"/>
						</clipPath>
						<polygon clip-path="url(#SVGID_25_)" fill="#F7941E" points="278.134,26.276 288.182,27.57 287.822,27.338 278.246,26.104 
													"/>
					</g>
					<g>
						<defs>
							<path id="SVGID_26_" d="M277.832,41.43l11.666-3.534c-0.713-0.581-1.166-2.424-1.063-4.638
								c0.093-1.989,0.627-3.756,1.328-4.398c0.063-0.056,0.127-0.104,0.188-0.14l-11.324-2.536l-0.353-0.121
								c-0.731,4.573-1.039,9.794-0.485,15.369L277.832,41.43z"/>
						</defs>
						<clipPath id="SVGID_27_">
							<use xlink:href="#SVGID_26_"  overflow="visible"/>
						</clipPath>
						<polygon clip-path="url(#SVGID_27_)" fill="#F7941E" points="278.023,26.449 288.539,27.802 288.182,27.57 278.134,26.276 
													"/>
					</g>
					<g>
						<defs>
							<path id="SVGID_28_" d="M277.832,41.43l11.666-3.534c-0.713-0.581-1.166-2.424-1.063-4.638
								c0.093-1.989,0.627-3.756,1.328-4.398c0.063-0.056,0.127-0.104,0.188-0.14l-11.324-2.536l-0.353-0.121
								c-0.731,4.573-1.039,9.794-0.485,15.369L277.832,41.43z"/>
						</defs>
						<clipPath id="SVGID_29_">
							<use xlink:href="#SVGID_28_"  overflow="visible"/>
						</clipPath>
						<polygon clip-path="url(#SVGID_29_)" fill="#F7941E" points="277.91,26.621 288.898,28.035 288.539,27.802 278.023,26.449 
													"/>
					</g>
					<g>
						<defs>
							<path id="SVGID_30_" d="M277.832,41.43l11.666-3.534c-0.713-0.581-1.166-2.424-1.063-4.638
								c0.093-1.989,0.627-3.756,1.328-4.398c0.063-0.056,0.127-0.104,0.188-0.14l-11.324-2.536l-0.353-0.121
								c-0.731,4.573-1.039,9.794-0.485,15.369L277.832,41.43z"/>
						</defs>
						<clipPath id="SVGID_31_">
							<use xlink:href="#SVGID_30_"  overflow="visible"/>
						</clipPath>
						<polygon clip-path="url(#SVGID_31_)" fill="#F7941E" points="277.798,26.792 289.255,28.268 288.898,28.035 277.91,26.621 
													"/>
					</g>
					<g>
						<defs>
							<path id="SVGID_32_" d="M277.832,41.43l11.666-3.534c-0.713-0.581-1.166-2.424-1.063-4.638
								c0.093-1.989,0.627-3.756,1.328-4.398c0.063-0.056,0.127-0.104,0.188-0.14l-11.324-2.536l-0.353-0.121
								c-0.731,4.573-1.039,9.794-0.485,15.369L277.832,41.43z"/>
						</defs>
						<clipPath id="SVGID_33_">
							<use xlink:href="#SVGID_32_"  overflow="visible"/>
						</clipPath>
						<polygon clip-path="url(#SVGID_33_)" fill="#F7941E" points="277.686,26.965 289.615,28.5 289.255,28.268 277.798,26.792 
													"/>
					</g>
					<g>
						<defs>
							<path id="SVGID_34_" d="M277.832,41.43l11.666-3.534c-0.713-0.581-1.166-2.424-1.063-4.638
								c0.093-1.989,0.627-3.756,1.328-4.398c0.063-0.056,0.127-0.104,0.188-0.14l-11.324-2.536l-0.353-0.121
								c-0.731,4.573-1.039,9.794-0.485,15.369L277.832,41.43z"/>
						</defs>
						<clipPath id="SVGID_35_">
							<use xlink:href="#SVGID_34_"  overflow="visible"/>
						</clipPath>
						<polygon clip-path="url(#SVGID_35_)" fill="#F7941E" points="277.576,27.136 289.974,28.734 289.615,28.5 277.686,26.965 
													"/>
					</g>
					<g>
						<defs>
							<path id="SVGID_36_" d="M277.832,41.43l11.666-3.534c-0.713-0.581-1.166-2.424-1.063-4.638
								c0.093-1.989,0.627-3.756,1.328-4.398c0.063-0.056,0.127-0.104,0.188-0.14l-11.324-2.536l-0.353-0.121
								c-0.731,4.573-1.039,9.794-0.485,15.369L277.832,41.43z"/>
						</defs>
						<clipPath id="SVGID_37_">
							<use xlink:href="#SVGID_36_"  overflow="visible"/>
						</clipPath>
						<polygon clip-path="url(#SVGID_37_)" fill="#F7941E" points="277.464,27.308 290.33,28.965 289.974,28.734 277.576,27.136 
													"/>
					</g>
					<g>
						<defs>
							<path id="SVGID_38_" d="M277.832,41.43l11.666-3.534c-0.713-0.581-1.166-2.424-1.063-4.638
								c0.093-1.989,0.627-3.756,1.328-4.398c0.063-0.056,0.127-0.104,0.188-0.14l-11.324-2.536l-0.353-0.121
								c-0.731,4.573-1.039,9.794-0.485,15.369L277.832,41.43z"/>
						</defs>
						<clipPath id="SVGID_39_">
							<use xlink:href="#SVGID_38_"  overflow="visible"/>
						</clipPath>
						<polygon clip-path="url(#SVGID_39_)" fill="#F7941E" points="277.352,27.48 290.689,29.198 290.33,28.965 277.464,27.308 
													"/>
					</g>
					<g>
						<defs>
							<path id="SVGID_40_" d="M277.832,41.43l11.666-3.534c-0.713-0.581-1.166-2.424-1.063-4.638
								c0.093-1.989,0.627-3.756,1.328-4.398c0.063-0.056,0.127-0.104,0.188-0.14l-11.324-2.536l-0.353-0.121
								c-0.731,4.573-1.039,9.794-0.485,15.369L277.832,41.43z"/>
						</defs>
						<clipPath id="SVGID_41_">
							<use xlink:href="#SVGID_40_"  overflow="visible"/>
						</clipPath>
						<polygon clip-path="url(#SVGID_41_)" fill="#F7941E" points="277.24,27.652 291.044,29.43 290.689,29.198 277.352,27.48 
													"/>
					</g>
					<g>
						<defs>
							<path id="SVGID_42_" d="M277.832,41.43l11.666-3.534c-0.713-0.581-1.166-2.424-1.063-4.638
								c0.093-1.989,0.627-3.756,1.328-4.398c0.063-0.056,0.127-0.104,0.188-0.14l-11.324-2.536l-0.353-0.121
								c-0.731,4.573-1.039,9.794-0.485,15.369L277.832,41.43z"/>
						</defs>
						<clipPath id="SVGID_43_">
							<use xlink:href="#SVGID_42_"  overflow="visible"/>
						</clipPath>
						<polygon clip-path="url(#SVGID_43_)" fill="#F7941E" points="277.212,27.696 277.196,27.833 291.271,29.646 291.28,29.582 
							291.044,29.43 277.24,27.652 						"/>
					</g>
					<g>
						<defs>
							<path id="SVGID_44_" d="M295.907,36.763l-2.021-12.022c-0.667,0.634-2.553,0.848-4.735,0.465
								c-1.961-0.345-3.646-1.1-4.193-1.877c-0.048-0.07-0.087-0.139-0.114-0.205l-3.957,10.91l-0.166,0.334
								c4.443,1.308,9.583,2.278,15.184,2.438L295.907,36.763z"/>
						</defs>
						<clipPath id="SVGID_45_">
							<use xlink:href="#SVGID_44_"  overflow="visible"/>
						</clipPath>
						
							<rect x="284.131" y="21.725" transform="matrix(-0.1276 0.9918 -0.9918 -0.1276 349.0845 -249.3996)" clip-path="url(#SVGID_45_)" fill="#F7941E" width="0.184" height="14.192"/>
					</g>
					<g>
						<defs>
							<path id="SVGID_46_" d="M295.627,37.015l-1.902-12.042c-0.673,0.628-2.562,0.823-4.74,0.418
								c-1.958-0.364-3.635-1.135-4.175-1.918c-0.047-0.07-0.086-0.14-0.112-0.206l-4.063,10.871l-0.168,0.332
								c4.43,1.352,9.559,2.371,15.157,2.587L295.627,37.015z"/>
						</defs>
						<clipPath id="SVGID_47_">
							<use xlink:href="#SVGID_46_"  overflow="visible"/>
						</clipPath>
						
							<rect x="284.108" y="21.909" transform="matrix(-0.1374 0.9905 -0.9905 -0.1374 351.9675 -248.5169)" clip-path="url(#SVGID_47_)" fill="#F7941E" width="0.185" height="14.194"/>
					</g>
					<g>
						<defs>
							<path id="SVGID_48_" d="M295.433,37.168l-1.898-12.042c-0.674,0.627-2.561,0.822-4.74,0.417
								c-1.957-0.365-3.634-1.137-4.174-1.919c-0.047-0.07-0.085-0.14-0.112-0.207l-4.067,10.869l-0.168,0.332
								c4.428,1.354,9.558,2.375,15.156,2.593L295.433,37.168z"/>
						</defs>
						<clipPath id="SVGID_49_">
							<use xlink:href="#SVGID_48_"  overflow="visible"/>
						</clipPath>
						
							<rect x="284.095" y="22.107" transform="matrix(-0.1374 0.9905 -0.9905 -0.1374 352.1486 -248.2776)" clip-path="url(#SVGID_49_)" fill="#F7941E" width="0.185" height="14.195"/>
					</g>
					<g>
						<defs>
							<path id="SVGID_50_" d="M295.38,37.041l-2.158-11.999c-0.66,0.642-2.543,0.877-4.73,0.519
								c-1.965-0.323-3.658-1.058-4.214-1.829c-0.048-0.069-0.089-0.138-0.117-0.204l-3.831,10.955l-0.162,0.336
								c4.458,1.257,9.608,2.167,15.21,2.264L295.38,37.041z"/>
						</defs>
						<clipPath id="SVGID_51_">
							<use xlink:href="#SVGID_50_"  overflow="visible"/>
						</clipPath>
						
							<rect x="284.051" y="22.271" transform="matrix(-0.1162 0.9932 -0.9932 -0.1162 346.3369 -249.4365)" clip-path="url(#SVGID_51_)" fill="#F7941E" width="0.185" height="14.193"/>
					</g>
					<g>
						<defs>
							<path id="SVGID_52_" d="M295.065,37.382l-1.96-12.032c-0.671,0.631-2.557,0.835-4.738,0.441
								c-1.959-0.355-3.641-1.118-4.184-1.898c-0.047-0.07-0.086-0.14-0.113-0.206l-4.012,10.89l-0.166,0.333
								c4.436,1.33,9.57,2.325,15.17,2.514L295.065,37.382z"/>
						</defs>
						<clipPath id="SVGID_53_">
							<use xlink:href="#SVGID_52_"  overflow="visible"/>
						</clipPath>
						
							<rect x="284.043" y="22.477" transform="matrix(-0.127 0.9919 -0.9919 -0.127 349.5439 -248.5081)" clip-path="url(#SVGID_53_)" fill="#F7941E" width="0.185" height="14.193"/>
					</g>
					<g>
						<defs>
							<path id="SVGID_54_" d="M294.933,37.398l-2.096-12.009c-0.662,0.638-2.547,0.864-4.732,0.495
								c-1.963-0.333-3.652-1.078-4.204-1.851c-0.048-0.069-0.088-0.139-0.116-0.205l-3.889,10.934l-0.162,0.335
								c4.449,1.28,9.596,2.217,15.195,2.344L294.933,37.398z"/>
						</defs>
						<clipPath id="SVGID_55_">
							<use xlink:href="#SVGID_54_"  overflow="visible"/>
						</clipPath>
						
							<rect x="284.003" y="22.663" transform="matrix(-0.1266 0.9919 -0.9919 -0.1266 349.589 -248.2821)" clip-path="url(#SVGID_55_)" fill="#F7941E" width="0.185" height="14.19"/>
					</g>
					<g>
						<defs>
							<path id="SVGID_56_" d="M294.531,37.824l-1.762-12.062c-0.681,0.62-2.57,0.793-4.744,0.363
								c-1.953-0.387-3.621-1.178-4.152-1.966c-0.046-0.071-0.084-0.141-0.11-0.208l-4.189,10.823l-0.172,0.33
								c4.413,1.403,9.53,2.482,15.126,2.764L294.531,37.824z"/>
						</defs>
						<clipPath id="SVGID_57_">
							<use xlink:href="#SVGID_56_"  overflow="visible"/>
						</clipPath>
						
							<rect x="283.996" y="22.838" transform="matrix(-0.1485 0.9889 -0.9889 -0.1485 355.8707 -246.5587)" clip-path="url(#SVGID_57_)" fill="#F7941E" width="0.184" height="14.195"/>
					</g>
					<g>
						<defs>
							<path id="SVGID_58_" d="M294.605,37.56l-2.217-11.987c-0.656,0.645-2.538,0.89-4.727,0.542
								c-1.967-0.313-3.664-1.04-4.224-1.808c-0.049-0.069-0.089-0.138-0.118-0.203l-3.777,10.973l-0.16,0.336
								c4.464,1.234,9.619,2.119,15.221,2.189L294.605,37.56z"/>
						</defs>
						<clipPath id="SVGID_59_">
							<use xlink:href="#SVGID_58_"  overflow="visible"/>
						</clipPath>
						
							<rect x="283.958" y="23.022" transform="matrix(-0.1055 0.9944 -0.9944 -0.1055 343.9706 -249.1684)" clip-path="url(#SVGID_59_)" fill="#F7941E" width="0.185" height="14.193"/>
					</g>
					<g>
						<defs>
							<path id="SVGID_60_" d="M294.259,37.916l-1.97-12.031c-0.669,0.631-2.556,0.837-4.737,0.445
								c-1.959-0.354-3.641-1.115-4.186-1.895c-0.047-0.07-0.086-0.14-0.113-0.206l-4.004,10.893l-0.166,0.333
								c4.438,1.328,9.572,2.318,15.172,2.503L294.259,37.916z"/>
						</defs>
						<clipPath id="SVGID_61_">
							<use xlink:href="#SVGID_60_"  overflow="visible"/>
						</clipPath>
						
							<rect x="283.945" y="23.207" transform="matrix(-0.1315 0.9913 -0.9913 -0.1315 351.4228 -247.2844)" clip-path="url(#SVGID_61_)" fill="#F7941E" width="0.186" height="14.194"/>
					</g>
					<g>
						<defs>
							<path id="SVGID_62_" d="M294.083,37.992l-2.021-12.022c-0.667,0.634-2.553,0.848-4.735,0.465
								c-1.962-0.346-3.646-1.1-4.193-1.877c-0.049-0.07-0.088-0.14-0.115-0.206l-3.957,10.911l-0.165,0.333
								c4.442,1.308,9.583,2.277,15.183,2.438L294.083,37.992z"/>
						</defs>
						<clipPath id="SVGID_63_">
							<use xlink:href="#SVGID_62_"  overflow="visible"/>
						</clipPath>
						
							<rect x="283.918" y="23.374" transform="matrix(-0.1273 0.9919 -0.9919 -0.1273 350.3872 -247.3488)" clip-path="url(#SVGID_63_)" fill="#F7941E" width="0.184" height="14.195"/>
					</g>
					<g>
						<defs>
							<path id="SVGID_64_" d="M293.874,38.144l-2.028-12.02c-0.666,0.635-2.552,0.85-4.734,0.468
								c-1.962-0.344-3.646-1.098-4.195-1.874c-0.047-0.07-0.086-0.139-0.114-0.205l-3.949,10.912l-0.165,0.333
								c4.443,1.305,9.584,2.271,15.184,2.428L293.874,38.144z"/>
						</defs>
						<clipPath id="SVGID_65_">
							<use xlink:href="#SVGID_64_"  overflow="visible"/>
						</clipPath>
						
							<rect x="283.883" y="23.581" transform="matrix(-0.1266 0.9919 -0.9919 -0.1266 350.3662 -247.1265)" clip-path="url(#SVGID_65_)" fill="#F7941E" width="0.185" height="14.194"/>
					</g>
					<g>
						<defs>
							<path id="SVGID_66_" d="M293.732,38.21L291.646,26.2c-0.664,0.638-2.549,0.862-4.734,0.491
								c-1.963-0.334-3.651-1.08-4.203-1.854c-0.048-0.069-0.088-0.139-0.116-0.205l-3.896,10.933l-0.163,0.334
								c4.45,1.284,9.596,2.224,15.196,2.354L293.732,38.21z"/>
						</defs>
						<clipPath id="SVGID_67_">
							<use xlink:href="#SVGID_66_"  overflow="visible"/>
						</clipPath>
						
							<rect x="283.883" y="23.742" transform="matrix(-0.1221 0.9925 -0.9925 -0.1221 349.249 -247.2483)" clip-path="url(#SVGID_67_)" fill="#F7941E" width="0.184" height="14.193"/>
					</g>
					<g>
						<defs>
							<path id="SVGID_68_" d="M293.393,38.505l-1.907-12.04c-0.673,0.628-2.561,0.824-4.739,0.42
								c-1.958-0.364-3.636-1.134-4.175-1.916c-0.047-0.07-0.086-0.14-0.113-0.207L278.4,35.635l-0.168,0.332
								c4.43,1.351,9.559,2.367,15.157,2.581L293.393,38.505z"/>
						</defs>
						<clipPath id="SVGID_69_">
							<use xlink:href="#SVGID_68_"  overflow="visible"/>
						</clipPath>
						
							<rect x="283.833" y="23.939" transform="matrix(-0.1363 0.9907 -0.9907 -0.1363 353.3658 -246.0118)" clip-path="url(#SVGID_69_)" fill="#F7941E" width="0.186" height="14.193"/>
					</g>
					<g>
						<defs>
							<path id="SVGID_70_" d="M293.273,38.538l-2.02-12.022c-0.668,0.634-2.553,0.848-4.736,0.465
								c-1.961-0.345-3.646-1.1-4.193-1.877c-0.047-0.07-0.087-0.139-0.115-0.205l-3.957,10.91l-0.164,0.334
								c4.443,1.309,9.582,2.277,15.183,2.438L293.273,38.538z"/>
						</defs>
						<clipPath id="SVGID_71_">
							<use xlink:href="#SVGID_70_"  overflow="visible"/>
						</clipPath>
						
							<rect x="283.824" y="24.108" transform="matrix(-0.1276 0.9918 -0.9918 -0.1276 351.1019 -246.4064)" clip-path="url(#SVGID_71_)" fill="#F7941E" width="0.184" height="14.194"/>
					</g>
					<g>
						<defs>
							<path id="SVGID_72_" d="M293.136,38.572l-2.146-12.001c-0.661,0.641-2.545,0.875-4.731,0.515
								c-1.964-0.325-3.657-1.062-4.213-1.833c-0.048-0.069-0.089-0.138-0.117-0.204l-3.841,10.952l-0.162,0.335
								c4.457,1.261,9.606,2.176,15.208,2.278L293.136,38.572z"/>
						</defs>
						<clipPath id="SVGID_73_">
							<use xlink:href="#SVGID_72_"  overflow="visible"/>
						</clipPath>
						
							<rect x="283.787" y="24.286" transform="matrix(-0.1168 0.9932 -0.9932 -0.1168 348.2143 -246.8863)" clip-path="url(#SVGID_73_)" fill="#F7941E" width="0.184" height="14.192"/>
					</g>
					<g>
						<defs>
							<path id="SVGID_74_" d="M292.831,38.854l-1.966-12.031c-0.67,0.631-2.557,0.836-4.738,0.443
								c-1.959-0.354-3.641-1.117-4.184-1.896c-0.048-0.07-0.087-0.14-0.114-0.206l-4.007,10.893l-0.166,0.333
								c4.437,1.328,9.572,2.32,15.172,2.507L292.831,38.854z"/>
						</defs>
						<clipPath id="SVGID_75_">
							<use xlink:href="#SVGID_74_"  overflow="visible"/>
						</clipPath>
						
							<rect x="283.77" y="24.477" transform="matrix(-0.137 0.9906 -0.9906 -0.137 354.0256 -245.2882)" clip-path="url(#SVGID_75_)" fill="#F7941E" width="0.185" height="14.192"/>
					</g>
					<g>
						<defs>
							<path id="SVGID_76_" d="M292.666,38.935l-2.041-12.019c-0.666,0.635-2.551,0.852-4.734,0.473
								c-1.961-0.342-3.647-1.094-4.196-1.87c-0.048-0.07-0.087-0.139-0.115-0.205l-3.938,10.917l-0.164,0.334
								c4.445,1.301,9.586,2.26,15.187,2.412L292.666,38.935z"/>
						</defs>
						<clipPath id="SVGID_77_">
							<use xlink:href="#SVGID_76_"  overflow="visible"/>
						</clipPath>
						
							<rect x="283.738" y="24.659" transform="matrix(-0.1253 0.9921 -0.9921 -0.1253 350.9062 -245.8579)" clip-path="url(#SVGID_77_)" fill="#F7941E" width="0.187" height="14.193"/>
					</g>
					<g>
						<defs>
							<path id="SVGID_78_" d="M292.384,39.178l-1.895-12.042c-0.674,0.627-2.561,0.821-4.74,0.415
								c-1.957-0.366-3.634-1.138-4.174-1.921c-0.046-0.07-0.085-0.14-0.111-0.207l-4.072,10.868l-0.168,0.332
								c4.429,1.354,9.558,2.378,15.156,2.598L292.384,39.178z"/>
						</defs>
						<clipPath id="SVGID_79_">
							<use xlink:href="#SVGID_78_"  overflow="visible"/>
						</clipPath>
						
							<rect x="283.726" y="24.843" transform="matrix(-0.1377 0.9905 -0.9905 -0.1377 354.5398 -244.7741)" clip-path="url(#SVGID_79_)" fill="#F7941E" width="0.184" height="14.196"/>
					</g>
					<g>
						<defs>
							<path id="SVGID_80_" d="M292.325,39.125l-2.147-12c-0.66,0.642-2.543,0.875-4.73,0.515c-1.965-0.325-3.657-1.062-4.213-1.833
								c-0.049-0.069-0.089-0.139-0.117-0.204l-3.842,10.952l-0.161,0.335c4.456,1.262,9.606,2.176,15.208,2.278L292.325,39.125z"/>
						</defs>
						<clipPath id="SVGID_81_">
							<use xlink:href="#SVGID_80_"  overflow="visible"/>
						</clipPath>
						
							<rect x="283.694" y="25.019" transform="matrix(-0.1168 0.9932 -0.9932 -0.1168 348.8401 -245.9739)" clip-path="url(#SVGID_81_)" fill="#F7941E" width="0.184" height="14.194"/>
					</g>
					<g>
						<defs>
							<path id="SVGID_82_" d="M291.99,39.44l-1.902-12.042c-0.673,0.628-2.561,0.823-4.74,0.419
								c-1.957-0.365-3.635-1.136-4.174-1.918c-0.047-0.07-0.086-0.14-0.113-0.207l-4.064,10.871l-0.168,0.332
								c4.43,1.352,9.561,2.371,15.158,2.587L291.99,39.44z"/>
						</defs>
						<clipPath id="SVGID_83_">
							<use xlink:href="#SVGID_82_"  overflow="visible"/>
						</clipPath>
						
							<rect x="283.681" y="25.211" transform="matrix(-0.1374 0.9905 -0.9905 -0.1374 354.7516 -244.3401)" clip-path="url(#SVGID_83_)" fill="#F7941E" width="0.185" height="14.192"/>
					</g>
					<g>
						<defs>
							<path id="SVGID_84_" d="M291.892,39.462l-2.096-12.009c-0.663,0.638-2.547,0.864-4.732,0.494
								c-1.963-0.333-3.652-1.077-4.205-1.851c-0.047-0.069-0.088-0.139-0.115-0.205l-3.889,10.934l-0.163,0.335
								c4.45,1.28,9.596,2.217,15.196,2.344L291.892,39.462z"/>
						</defs>
						<clipPath id="SVGID_85_">
							<use xlink:href="#SVGID_84_"  overflow="visible"/>
						</clipPath>
						
							<rect x="283.649" y="25.412" transform="matrix(-0.1266 0.9919 -0.9919 -0.1266 351.9183 -244.8335)" clip-path="url(#SVGID_85_)" fill="#F7941E" width="0.185" height="14.19"/>
					</g>
					<g>
						<defs>
							<path id="SVGID_86_" d="M291.593,39.73l-1.896-12.042c-0.674,0.627-2.562,0.822-4.74,0.417
								c-1.958-0.365-3.635-1.137-4.174-1.92c-0.047-0.07-0.086-0.14-0.113-0.206l-4.068,10.869l-0.168,0.332
								c4.43,1.354,9.559,2.375,15.156,2.594L291.593,39.73z"/>
						</defs>
						<clipPath id="SVGID_87_">
							<use xlink:href="#SVGID_86_"  overflow="visible"/>
						</clipPath>
						
							<rect x="283.645" y="25.592" transform="matrix(-0.1374 0.9905 -0.9905 -0.1374 355.0882 -243.8695)" clip-path="url(#SVGID_87_)" fill="#F7941E" width="0.185" height="14.194"/>
					</g>
					<g>
						<defs>
							<path id="SVGID_88_" d="M291.451,39.767l-2.02-12.022c-0.668,0.634-2.553,0.848-4.736,0.465
								c-1.961-0.346-3.646-1.1-4.193-1.877c-0.047-0.07-0.087-0.14-0.115-0.206l-3.957,10.911l-0.164,0.333
								c4.442,1.308,9.582,2.277,15.182,2.438L291.451,39.767z"/>
						</defs>
						<clipPath id="SVGID_89_">
							<use xlink:href="#SVGID_88_"  overflow="visible"/>
						</clipPath>
						
							<rect x="283.61" y="25.756" transform="matrix(-0.1276 0.9918 -0.9918 -0.1276 352.4971 -244.3338)" clip-path="url(#SVGID_89_)" fill="#F7941E" width="0.184" height="14.196"/>
					</g>
					<g>
						<defs>
							<path id="SVGID_90_" d="M291.241,39.921l-2.028-12.021c-0.666,0.635-2.552,0.85-4.735,0.468
								c-1.961-0.344-3.646-1.097-4.194-1.874c-0.047-0.069-0.087-0.139-0.115-0.205l-3.949,10.913l-0.164,0.334
								c4.443,1.305,9.583,2.27,15.184,2.428L291.241,39.921z"/>
						</defs>
						<clipPath id="SVGID_91_">
							<use xlink:href="#SVGID_90_"  overflow="visible"/>
						</clipPath>
						
							<rect x="283.575" y="25.964" transform="matrix(-0.1266 0.9919 -0.9919 -0.1266 352.3835 -244.1366)" clip-path="url(#SVGID_91_)" fill="#F7941E" width="0.185" height="14.194"/>
					</g>
					<g>
						<defs>
							<path id="SVGID_92_" d="M291.117,39.951l-2.158-11.998c-0.66,0.642-2.543,0.877-4.73,0.519
								c-1.965-0.323-3.658-1.058-4.215-1.829c-0.048-0.069-0.088-0.138-0.117-0.204l-3.831,10.955l-0.161,0.336
								c4.457,1.258,9.608,2.168,15.21,2.264L291.117,39.951z"/>
						</defs>
						<clipPath id="SVGID_93_">
							<use xlink:href="#SVGID_92_"  overflow="visible"/>
						</clipPath>
						
							<rect x="283.556" y="26.123" transform="matrix(-0.1162 0.9932 -0.9932 -0.1162 349.6094 -244.6458)" clip-path="url(#SVGID_93_)" fill="#F7941E" width="0.185" height="14.191"/>
					</g>
					<g>
						<defs>
							<path id="SVGID_94_" d="M277.832,41.43l11.666-3.534c-0.713-0.581-1.166-2.424-1.063-4.638
								c0.093-1.989,0.627-3.756,1.328-4.398c0.063-0.056,0.127-0.104,0.188-0.14l-11.324-2.536l-0.353-0.121
								c-0.731,4.573-1.039,9.794-0.485,15.369L277.832,41.43z"/>
						</defs>
						<clipPath id="SVGID_95_">
							<use xlink:href="#SVGID_94_"  overflow="visible"/>
						</clipPath>
						<polygon clip-path="url(#SVGID_95_)" fill="#F7941E" points="276.605,32.417 276.578,32.599 290.658,34.413 290.679,34.229 
													"/>
					</g>
					<g>
						<defs>
							<path id="SVGID_96_" d="M290.71,40.228l-2.158-11.999c-0.66,0.642-2.543,0.877-4.73,0.52
								c-1.965-0.323-3.658-1.058-4.214-1.829c-0.048-0.069-0.089-0.139-0.117-0.204l-3.831,10.956l-0.162,0.335
								c4.458,1.257,9.608,2.167,15.21,2.265L290.71,40.228z"/>
						</defs>
						<clipPath id="SVGID_97_">
							<use xlink:href="#SVGID_96_"  overflow="visible"/>
						</clipPath>
						
							<rect x="283.507" y="26.489" transform="matrix(-0.1159 0.9933 -0.9933 -0.1159 349.8342 -244.2094)" clip-path="url(#SVGID_97_)" fill="#F7941E" width="0.185" height="14.192"/>
					</g>
					<g>
						<defs>
							<path id="SVGID_98_" d="M290.443,40.452l-2.032-12.02c-0.667,0.635-2.552,0.851-4.735,0.47
								c-1.961-0.343-3.646-1.096-4.195-1.873c-0.047-0.07-0.086-0.139-0.115-0.206l-3.945,10.915l-0.164,0.334
								c4.443,1.303,9.584,2.268,15.184,2.423L290.443,40.452z"/>
						</defs>
						<clipPath id="SVGID_99_">
							<use xlink:href="#SVGID_98_"  overflow="visible"/>
						</clipPath>
						
							<rect x="283.49" y="26.683" transform="matrix(-0.126 0.992 -0.992 -0.126 352.8168 -243.2883)" clip-path="url(#SVGID_99_)" fill="#F7941E" width="0.186" height="14.194"/>
					</g>
					<g>
						<defs>
							<path id="SVGID_100_" d="M290.201,40.62l-1.965-12.031c-0.67,0.631-2.557,0.836-4.738,0.444
								c-1.959-0.354-3.641-1.117-4.185-1.896c-0.048-0.07-0.087-0.14-0.114-0.206l-4.006,10.892l-0.166,0.334
								c4.436,1.328,9.571,2.32,15.17,2.507L290.201,40.62z"/>
						</defs>
						<clipPath id="SVGID_101_">
							<use xlink:href="#SVGID_100_"  overflow="visible"/>
						</clipPath>
						
							<rect x="283.463" y="26.86" transform="matrix(-0.1374 0.9905 -0.9905 -0.1374 356.1374 -242.2466)" clip-path="url(#SVGID_101_)" fill="#F7941E" width="0.185" height="14.194"/>
					</g>
					<g>
						<defs>
							<path id="SVGID_102_" d="M290.072,40.705l-2.083-12.011c-0.663,0.638-2.548,0.861-4.733,0.49
								c-1.963-0.335-3.65-1.081-4.203-1.855c-0.047-0.069-0.087-0.139-0.115-0.205l-3.9,10.93l-0.162,0.335
								c4.449,1.284,9.594,2.228,15.193,2.358L290.072,40.705z"/>
						</defs>
						<clipPath id="SVGID_103_">
							<use xlink:href="#SVGID_102_"  overflow="visible"/>
						</clipPath>
						
							<rect x="283.448" y="27.059" transform="matrix(-0.1221 0.9925 -0.9925 -0.1221 352.0522 -243.0955)" clip-path="url(#SVGID_103_)" fill="#F7941E" width="0.184" height="14.19"/>
					</g>
					<g>
						<defs>
							<path id="SVGID_104_" d="M289.769,40.923l-1.902-12.042c-0.674,0.628-2.561,0.823-4.74,0.418
								c-1.957-0.364-3.635-1.135-4.175-1.918c-0.047-0.07-0.085-0.14-0.112-0.206l-4.064,10.871l-0.168,0.332
								c4.43,1.352,9.56,2.371,15.158,2.587L289.769,40.923z"/>
						</defs>
						<clipPath id="SVGID_105_">
							<use xlink:href="#SVGID_104_"  overflow="visible"/>
						</clipPath>
						
							<rect x="283.423" y="27.226" transform="matrix(-0.1374 0.9905 -0.9905 -0.1374 356.4541 -241.791)" clip-path="url(#SVGID_105_)" fill="#F7941E" width="0.185" height="14.194"/>
					</g>
					<g>
						<defs>
							<path id="SVGID_106_" d="M289.66,40.97l-2.079-12.012c-0.664,0.637-2.548,0.86-4.733,0.488
								c-1.963-0.336-3.65-1.082-4.203-1.856c-0.047-0.069-0.087-0.139-0.115-0.205l-3.902,10.93l-0.164,0.334
								c4.449,1.286,9.594,2.23,15.194,2.363L289.66,40.97z"/>
						</defs>
						<clipPath id="SVGID_107_">
							<use xlink:href="#SVGID_106_"  overflow="visible"/>
						</clipPath>
						
							<rect x="283.398" y="27.412" transform="matrix(-0.1168 0.9932 -0.9932 -0.1168 350.8862 -243.0064)" clip-path="url(#SVGID_107_)" fill="#F7941E" width="0.184" height="14.195"/>
					</g>
					<g>
						<defs>
							<path id="SVGID_108_" d="M289.431,41.134l-2.032-12.02c-0.667,0.635-2.552,0.851-4.735,0.47
								c-1.961-0.343-3.646-1.096-4.195-1.873c-0.047-0.07-0.087-0.139-0.115-0.206l-3.945,10.915l-0.164,0.333
								c4.443,1.304,9.584,2.269,15.184,2.423L289.431,41.134z"/>
						</defs>
						<clipPath id="SVGID_109_">
							<use xlink:href="#SVGID_108_"  overflow="visible"/>
						</clipPath>
						
							<rect x="283.372" y="27.598" transform="matrix(-0.126 0.992 -0.992 -0.126 353.593 -242.1402)" clip-path="url(#SVGID_109_)" fill="#F7941E" width="0.186" height="14.195"/>
					</g>
					<g>
						<defs>
							<path id="SVGID_110_" d="M289.23,41.271l-2.031-12.02c-0.667,0.635-2.553,0.851-4.735,0.47
								c-1.962-0.343-3.647-1.096-4.195-1.873c-0.048-0.07-0.087-0.139-0.115-0.206l-3.946,10.914l-0.164,0.334
								c4.443,1.305,9.584,2.268,15.185,2.424L289.23,41.271z"/>
						</defs>
						<clipPath id="SVGID_111_">
							<use xlink:href="#SVGID_110_"  overflow="visible"/>
						</clipPath>
						
							<rect x="283.349" y="27.781" transform="matrix(-0.126 0.992 -0.992 -0.126 353.7476 -241.9126)" clip-path="url(#SVGID_111_)" fill="#F7941E" width="0.186" height="14.194"/>
					</g>
					<g>
						<defs>
							<path id="SVGID_112_" d="M277.832,41.43l11.666-3.534c-0.713-0.581-1.166-2.424-1.063-4.638
								c0.093-1.989,0.627-3.756,1.328-4.398c0.063-0.056,0.127-0.104,0.188-0.14l-11.324-2.536l-0.353-0.121
								c-0.731,4.573-1.039,9.794-0.485,15.369L277.832,41.43z"/>
						</defs>
						<clipPath id="SVGID_113_">
							<use xlink:href="#SVGID_112_"  overflow="visible"/>
						</clipPath>
						<polygon clip-path="url(#SVGID_113_)" fill="#F7941E" points="276.391,34.067 276.369,34.249 290.443,36.065 290.468,35.877 
													"/>
					</g>
					<g>
						<defs>
							<path id="SVGID_114_" d="M277.832,41.43l11.666-3.534c-0.713-0.581-1.166-2.424-1.063-4.638
								c0.093-1.989,0.627-3.756,1.328-4.398c0.063-0.056,0.127-0.104,0.188-0.14l-11.324-2.536l-0.353-0.121
								c-0.731,4.573-1.039,9.794-0.485,15.369L277.832,41.43z"/>
						</defs>
						<clipPath id="SVGID_115_">
							<use xlink:href="#SVGID_114_"  overflow="visible"/>
						</clipPath>
						<polygon clip-path="url(#SVGID_115_)" fill="#F7941E" points="276.369,34.249 276.339,34.434 290.419,36.248 290.443,36.065 
													"/>
					</g>
					<g>
						<defs>
							<path id="SVGID_116_" d="M288.71,41.613l-2.207-11.989c-0.657,0.645-2.539,0.887-4.728,0.538
								c-1.966-0.315-3.662-1.043-4.222-1.812c-0.049-0.069-0.09-0.138-0.118-0.204l-3.787,10.97l-0.159,0.336
								c4.462,1.239,9.615,2.129,15.217,2.203L288.71,41.613z"/>
						</defs>
						<clipPath id="SVGID_117_">
							<use xlink:href="#SVGID_116_"  overflow="visible"/>
						</clipPath>
						
							<rect x="283.279" y="28.341" transform="matrix(-0.1069 0.9943 -0.9943 -0.1069 348.9016 -242.519)" clip-path="url(#SVGID_117_)" fill="#F7941E" width="0.183" height="14.195"/>
					</g>
					<g>
						<defs>
							<path id="SVGID_118_" d="M277.832,41.43l11.666-3.534c-0.713-0.581-1.166-2.424-1.063-4.638
								c0.093-1.989,0.627-3.756,1.328-4.398c0.063-0.056,0.127-0.104,0.188-0.14l-11.324-2.536l-0.353-0.121
								c-0.731,4.573-1.039,9.794-0.485,15.369L277.832,41.43z"/>
						</defs>
						<clipPath id="SVGID_119_">
							<use xlink:href="#SVGID_118_"  overflow="visible"/>
						</clipPath>
						<polygon clip-path="url(#SVGID_119_)" fill="#F7941E" points="276.32,34.616 276.296,34.801 290.335,36.609 290.382,36.537 
							290.397,36.431 						"/>
					</g>
					<g>
						<defs>
							<path id="SVGID_120_" d="M277.832,41.43l11.666-3.534c-0.713-0.581-1.166-2.424-1.063-4.638
								c0.093-1.989,0.627-3.756,1.328-4.398c0.063-0.056,0.127-0.104,0.188-0.14l-11.324-2.536l-0.353-0.121
								c-0.731,4.573-1.039,9.794-0.485,15.369L277.832,41.43z"/>
						</defs>
						<clipPath id="SVGID_121_">
							<use xlink:href="#SVGID_120_"  overflow="visible"/>
						</clipPath>
						<polygon clip-path="url(#SVGID_121_)" fill="#F7941E" points="276.296,34.801 276.272,34.983 290.226,36.779 290.335,36.609 
													"/>
					</g>
					<g>
						<defs>
							<path id="SVGID_122_" d="M277.832,41.43l11.666-3.534c-0.713-0.581-1.166-2.424-1.063-4.638
								c0.093-1.989,0.627-3.756,1.328-4.398c0.063-0.056,0.127-0.104,0.188-0.14l-11.324-2.536l-0.353-0.121
								c-0.731,4.573-1.039,9.794-0.485,15.369L277.832,41.43z"/>
						</defs>
						<clipPath id="SVGID_123_">
							<use xlink:href="#SVGID_122_"  overflow="visible"/>
						</clipPath>
						<polygon clip-path="url(#SVGID_123_)" fill="#F7941E" points="276.272,34.983 276.25,35.167 290.113,36.955 290.226,36.779 
													"/>
					</g>
					<g>
						<defs>
							<path id="SVGID_124_" d="M277.832,41.43l11.666-3.534c-0.713-0.581-1.166-2.424-1.063-4.638
								c0.093-1.989,0.627-3.756,1.328-4.398c0.063-0.056,0.127-0.104,0.188-0.14l-11.324-2.536l-0.353-0.121
								c-0.731,4.573-1.039,9.794-0.485,15.369L277.832,41.43z"/>
						</defs>
						<clipPath id="SVGID_125_">
							<use xlink:href="#SVGID_124_"  overflow="visible"/>
						</clipPath>
						<polygon clip-path="url(#SVGID_125_)" fill="#F7941E" points="276.25,35.167 276.223,35.351 290.001,37.125 290.113,36.955 
													"/>
					</g>
					<g>
						<defs>
							<path id="SVGID_126_" d="M277.832,41.43l11.666-3.534c-0.713-0.581-1.166-2.424-1.063-4.638
								c0.093-1.989,0.627-3.756,1.328-4.398c0.063-0.056,0.127-0.104,0.188-0.14l-11.324-2.536l-0.353-0.121
								c-0.731,4.573-1.039,9.794-0.485,15.369L277.832,41.43z"/>
						</defs>
						<clipPath id="SVGID_127_">
							<use xlink:href="#SVGID_126_"  overflow="visible"/>
						</clipPath>
						<polygon clip-path="url(#SVGID_127_)" fill="#F7941E" points="276.223,35.351 276.203,35.534 289.89,37.296 290.001,37.125 
													"/>
					</g>
					<g>
						<defs>
							<path id="SVGID_128_" d="M277.832,41.43l11.666-3.534c-0.713-0.581-1.166-2.424-1.063-4.638
								c0.093-1.989,0.627-3.756,1.328-4.398c0.063-0.056,0.127-0.104,0.188-0.14l-11.324-2.536l-0.353-0.121
								c-0.731,4.573-1.039,9.794-0.485,15.369L277.832,41.43z"/>
						</defs>
						<clipPath id="SVGID_129_">
							<use xlink:href="#SVGID_128_"  overflow="visible"/>
						</clipPath>
						<polygon clip-path="url(#SVGID_129_)" fill="#F7941E" points="276.203,35.534 276.177,35.715 289.777,37.468 289.89,37.296 
													"/>
					</g>
					<g>
						<defs>
							<path id="SVGID_130_" d="M277.832,41.43l11.666-3.534c-0.713-0.581-1.166-2.424-1.063-4.638
								c0.093-1.989,0.627-3.756,1.328-4.398c0.063-0.056,0.127-0.104,0.188-0.14l-11.324-2.536l-0.353-0.121
								c-0.731,4.573-1.039,9.794-0.485,15.369L277.832,41.43z"/>
						</defs>
						<clipPath id="SVGID_131_">
							<use xlink:href="#SVGID_130_"  overflow="visible"/>
						</clipPath>
						<polygon clip-path="url(#SVGID_131_)" fill="#F7941E" points="276.177,35.715 276.154,35.901 289.667,37.641 289.777,37.468 
													"/>
					</g>
					<g>
						<defs>
							<path id="SVGID_132_" d="M277.832,41.43l11.666-3.534c-0.713-0.581-1.166-2.424-1.063-4.638
								c0.093-1.989,0.627-3.756,1.328-4.398c0.063-0.056,0.127-0.104,0.188-0.14l-11.324-2.536l-0.353-0.121
								c-0.731,4.573-1.039,9.794-0.485,15.369L277.832,41.43z"/>
						</defs>
						<clipPath id="SVGID_133_">
							<use xlink:href="#SVGID_132_"  overflow="visible"/>
						</clipPath>
						<polygon clip-path="url(#SVGID_133_)" fill="#F7941E" points="276.154,35.901 276.13,36.083 289.555,37.812 289.667,37.641 
													"/>
					</g>
					<g>
						<defs>
							<path id="SVGID_134_" d="M277.832,41.43l11.666-3.534c-0.713-0.581-1.166-2.424-1.063-4.638
								c0.093-1.989,0.627-3.756,1.328-4.398c0.063-0.056,0.127-0.104,0.188-0.14l-11.324-2.536l-0.353-0.121
								c-0.731,4.573-1.039,9.794-0.485,15.369L277.832,41.43z"/>
						</defs>
						<clipPath id="SVGID_135_">
							<use xlink:href="#SVGID_134_"  overflow="visible"/>
						</clipPath>
						<polygon clip-path="url(#SVGID_135_)" fill="#F7941E" points="276.13,36.083 276.106,36.266 289.443,37.982 289.555,37.812 
													"/>
					</g>
					<g>
						<defs>
							<path id="SVGID_136_" d="M277.832,41.43l11.666-3.534c-0.713-0.581-1.166-2.424-1.063-4.638
								c0.093-1.989,0.627-3.756,1.328-4.398c0.063-0.056,0.127-0.104,0.188-0.14l-11.324-2.536l-0.353-0.121
								c-0.731,4.573-1.039,9.794-0.485,15.369L277.832,41.43z"/>
						</defs>
						<clipPath id="SVGID_137_">
							<use xlink:href="#SVGID_136_"  overflow="visible"/>
						</clipPath>
						<polygon clip-path="url(#SVGID_137_)" fill="#F7941E" points="276.106,36.266 276.083,36.451 289.33,38.158 289.443,37.982 
													"/>
					</g>
					<g>
						<defs>
							<path id="SVGID_138_" d="M277.832,41.43l11.666-3.534c-0.713-0.581-1.166-2.424-1.063-4.638
								c0.093-1.989,0.627-3.756,1.328-4.398c0.063-0.056,0.127-0.104,0.188-0.14l-11.324-2.536l-0.353-0.121
								c-0.731,4.573-1.039,9.794-0.485,15.369L277.832,41.43z"/>
						</defs>
						<clipPath id="SVGID_139_">
							<use xlink:href="#SVGID_138_"  overflow="visible"/>
						</clipPath>
						<polygon clip-path="url(#SVGID_139_)" fill="#F7941E" points="276.083,36.451 276.06,36.632 289.218,38.33 289.33,38.158 
													"/>
					</g>
					<g>
						<defs>
							<path id="SVGID_140_" d="M277.832,41.43l11.666-3.534c-0.713-0.581-1.166-2.424-1.063-4.638
								c0.093-1.989,0.627-3.756,1.328-4.398c0.063-0.056,0.127-0.104,0.188-0.14l-11.324-2.536l-0.353-0.121
								c-0.731,4.573-1.039,9.794-0.485,15.369L277.832,41.43z"/>
						</defs>
						<clipPath id="SVGID_141_">
							<use xlink:href="#SVGID_140_"  overflow="visible"/>
						</clipPath>
						<polygon clip-path="url(#SVGID_141_)" fill="#F7941E" points="276.06,36.632 276.037,36.817 289.109,38.501 289.218,38.33 
													"/>
					</g>
					<g>
						<defs>
							<path id="SVGID_142_" d="M277.832,41.43l11.666-3.534c-0.713-0.581-1.166-2.424-1.063-4.638
								c0.093-1.989,0.627-3.756,1.328-4.398c0.063-0.056,0.127-0.104,0.188-0.14l-11.324-2.536l-0.353-0.121
								c-0.731,4.573-1.039,9.794-0.485,15.369L277.832,41.43z"/>
						</defs>
						<clipPath id="SVGID_143_">
							<use xlink:href="#SVGID_142_"  overflow="visible"/>
						</clipPath>
						<polygon clip-path="url(#SVGID_143_)" fill="#F7941E" points="276.037,36.817 276.014,37 288.996,38.669 289.109,38.501 
													"/>
					</g>
					<g>
						<defs>
							<path id="SVGID_144_" d="M277.832,41.43l11.666-3.534c-0.713-0.581-1.166-2.424-1.063-4.638
								c0.093-1.989,0.627-3.756,1.328-4.398c0.063-0.056,0.127-0.104,0.188-0.14l-11.324-2.536l-0.353-0.121
								c-0.731,4.573-1.039,9.794-0.485,15.369L277.832,41.43z"/>
						</defs>
						<clipPath id="SVGID_145_">
							<use xlink:href="#SVGID_144_"  overflow="visible"/>
						</clipPath>
						<polygon clip-path="url(#SVGID_145_)" fill="#F7941E" points="276.014,37 275.988,37.183 288.884,38.843 288.996,38.669 
													"/>
					</g>
					<g>
						<defs>
							<path id="SVGID_146_" d="M277.832,41.43l11.666-3.534c-0.713-0.581-1.166-2.424-1.063-4.638
								c0.093-1.989,0.627-3.756,1.328-4.398c0.063-0.056,0.127-0.104,0.188-0.14l-11.324-2.536l-0.353-0.121
								c-0.731,4.573-1.039,9.794-0.485,15.369L277.832,41.43z"/>
						</defs>
						<clipPath id="SVGID_147_">
							<use xlink:href="#SVGID_146_"  overflow="visible"/>
						</clipPath>
						<polygon clip-path="url(#SVGID_147_)" fill="#F7941E" points="275.988,37.183 275.966,37.367 288.771,39.016 288.884,38.843 
													"/>
					</g>
					<g>
						<defs>
							<path id="SVGID_148_" d="M277.832,41.43l11.666-3.534c-0.713-0.581-1.166-2.424-1.063-4.638
								c0.093-1.989,0.627-3.756,1.328-4.398c0.063-0.056,0.127-0.104,0.188-0.14l-11.324-2.536l-0.353-0.121
								c-0.731,4.573-1.039,9.794-0.485,15.369L277.832,41.43z"/>
						</defs>
						<clipPath id="SVGID_149_">
							<use xlink:href="#SVGID_148_"  overflow="visible"/>
						</clipPath>
						<polygon clip-path="url(#SVGID_149_)" fill="#F7941E" points="275.966,37.367 275.943,37.55 288.66,39.187 288.771,39.016 
													"/>
					</g>
					<g>
						<defs>
							<path id="SVGID_150_" d="M277.832,41.43l11.666-3.534c-0.713-0.581-1.166-2.424-1.063-4.638
								c0.093-1.989,0.627-3.756,1.328-4.398c0.063-0.056,0.127-0.104,0.188-0.14l-11.324-2.536l-0.353-0.121
								c-0.731,4.573-1.039,9.794-0.485,15.369L277.832,41.43z"/>
						</defs>
						<clipPath id="SVGID_151_">
							<use xlink:href="#SVGID_150_"  overflow="visible"/>
						</clipPath>
						<polygon clip-path="url(#SVGID_151_)" fill="#F7941E" points="275.943,37.55 275.919,37.733 288.55,39.361 288.66,39.187 
													"/>
					</g>
					<g>
						<defs>
							<path id="SVGID_152_" d="M277.832,41.43l11.666-3.534c-0.713-0.581-1.166-2.424-1.063-4.638
								c0.093-1.989,0.627-3.756,1.328-4.398c0.063-0.056,0.127-0.104,0.188-0.14l-11.324-2.536l-0.353-0.121
								c-0.731,4.573-1.039,9.794-0.485,15.369L277.832,41.43z"/>
						</defs>
						<clipPath id="SVGID_153_">
							<use xlink:href="#SVGID_152_"  overflow="visible"/>
						</clipPath>
						<polygon clip-path="url(#SVGID_153_)" fill="#F7941E" points="275.919,37.733 275.895,37.917 288.437,39.533 288.55,39.361 
													"/>
					</g>
					<g>
						<defs>
							<path id="SVGID_154_" d="M277.832,41.43l11.666-3.534c-0.713-0.581-1.166-2.424-1.063-4.638
								c0.093-1.989,0.627-3.756,1.328-4.398c0.063-0.056,0.127-0.104,0.188-0.14l-11.324-2.536l-0.353-0.121
								c-0.731,4.573-1.039,9.794-0.485,15.369L277.832,41.43z"/>
						</defs>
						<clipPath id="SVGID_155_">
							<use xlink:href="#SVGID_154_"  overflow="visible"/>
						</clipPath>
						<polygon clip-path="url(#SVGID_155_)" fill="#F7941E" points="275.895,37.917 275.871,38.099 288.326,39.707 288.437,39.533 
													"/>
					</g>
					<g>
						<defs>
							<path id="SVGID_156_" d="M277.832,41.43l11.666-3.534c-0.713-0.581-1.166-2.424-1.063-4.638
								c0.093-1.989,0.627-3.756,1.328-4.398c0.063-0.056,0.127-0.104,0.188-0.14l-11.324-2.536l-0.353-0.121
								c-0.731,4.573-1.039,9.794-0.485,15.369L277.832,41.43z"/>
						</defs>
						<clipPath id="SVGID_157_">
							<use xlink:href="#SVGID_156_"  overflow="visible"/>
						</clipPath>
						<polygon clip-path="url(#SVGID_157_)" fill="#F7941E" points="275.871,38.099 275.847,38.283 288.212,39.875 288.326,39.707 
													"/>
					</g>
					<g>
						<defs>
							<path id="SVGID_158_" d="M277.832,41.43l11.666-3.534c-0.713-0.581-1.166-2.424-1.063-4.638
								c0.093-1.989,0.627-3.756,1.328-4.398c0.063-0.056,0.127-0.104,0.188-0.14l-11.324-2.536l-0.353-0.121
								c-0.731,4.573-1.039,9.794-0.485,15.369L277.832,41.43z"/>
						</defs>
						<clipPath id="SVGID_159_">
							<use xlink:href="#SVGID_158_"  overflow="visible"/>
						</clipPath>
						<polygon clip-path="url(#SVGID_159_)" fill="#F7941E" points="275.847,38.283 275.826,38.466 288.102,40.048 288.212,39.875 
													"/>
					</g>
					<g>
						<defs>
							<path id="SVGID_160_" d="M277.832,41.43l11.666-3.534c-0.713-0.581-1.166-2.424-1.063-4.638
								c0.093-1.989,0.627-3.756,1.328-4.398c0.063-0.056,0.127-0.104,0.188-0.14l-11.324-2.536l-0.353-0.121
								c-0.731,4.573-1.039,9.794-0.485,15.369L277.832,41.43z"/>
						</defs>
						<clipPath id="SVGID_161_">
							<use xlink:href="#SVGID_160_"  overflow="visible"/>
						</clipPath>
						<polygon clip-path="url(#SVGID_161_)" fill="#F7941E" points="275.826,38.466 275.8,38.647 287.992,40.221 288.102,40.048 
													"/>
					</g>
					<g>
						<defs>
							<path id="SVGID_162_" d="M277.832,41.43l11.666-3.534c-0.713-0.581-1.166-2.424-1.063-4.638
								c0.093-1.989,0.627-3.756,1.328-4.398c0.063-0.056,0.127-0.104,0.188-0.14l-11.324-2.536l-0.353-0.121
								c-0.731,4.573-1.039,9.794-0.485,15.369L277.832,41.43z"/>
						</defs>
						<clipPath id="SVGID_163_">
							<use xlink:href="#SVGID_162_"  overflow="visible"/>
						</clipPath>
						<polygon clip-path="url(#SVGID_163_)" fill="#F7941E" points="275.8,38.647 275.779,38.833 287.878,40.393 287.992,40.221 
													"/>
					</g>
					<g>
						<defs>
							<path id="SVGID_164_" d="M277.832,41.43l11.666-3.534c-0.713-0.581-1.166-2.424-1.063-4.638
								c0.093-1.989,0.627-3.756,1.328-4.398c0.063-0.056,0.127-0.104,0.188-0.14l-11.324-2.536l-0.353-0.121
								c-0.731,4.573-1.039,9.794-0.485,15.369L277.832,41.43z"/>
						</defs>
						<clipPath id="SVGID_165_">
							<use xlink:href="#SVGID_164_"  overflow="visible"/>
						</clipPath>
						<polygon clip-path="url(#SVGID_165_)" fill="#F7941E" points="275.779,38.833 275.751,39.016 287.767,40.563 287.878,40.393 
													"/>
					</g>
					<g>
						<defs>
							<path id="SVGID_166_" d="M277.832,41.43l11.666-3.534c-0.713-0.581-1.166-2.424-1.063-4.638
								c0.093-1.989,0.627-3.756,1.328-4.398c0.063-0.056,0.127-0.104,0.188-0.14l-11.324-2.536l-0.353-0.121
								c-0.731,4.573-1.039,9.794-0.485,15.369L277.832,41.43z"/>
						</defs>
						<clipPath id="SVGID_167_">
							<use xlink:href="#SVGID_166_"  overflow="visible"/>
						</clipPath>
						<polygon clip-path="url(#SVGID_167_)" fill="#F7941E" points="275.751,39.016 275.729,39.199 287.654,40.736 287.767,40.563 
													"/>
					</g>
					<g>
						<defs>
							<path id="SVGID_168_" d="M277.832,41.43l11.666-3.534c-0.713-0.581-1.166-2.424-1.063-4.638
								c0.093-1.989,0.627-3.756,1.328-4.398c0.063-0.056,0.127-0.104,0.188-0.14l-11.324-2.536l-0.353-0.121
								c-0.731,4.573-1.039,9.794-0.485,15.369L277.832,41.43z"/>
						</defs>
						<clipPath id="SVGID_169_">
							<use xlink:href="#SVGID_168_"  overflow="visible"/>
						</clipPath>
						<polygon clip-path="url(#SVGID_169_)" fill="#F7941E" points="275.729,39.199 275.707,39.384 287.544,40.91 287.654,40.736 
													"/>
					</g>
					<g>
						<defs>
							<path id="SVGID_170_" d="M277.832,41.43l11.666-3.534c-0.713-0.581-1.166-2.424-1.063-4.638
								c0.093-1.989,0.627-3.756,1.328-4.398c0.063-0.056,0.127-0.104,0.188-0.14l-11.324-2.536l-0.353-0.121
								c-0.731,4.573-1.039,9.794-0.485,15.369L277.832,41.43z"/>
						</defs>
						<clipPath id="SVGID_171_">
							<use xlink:href="#SVGID_170_"  overflow="visible"/>
						</clipPath>
						<polygon clip-path="url(#SVGID_171_)" fill="#F7941E" points="275.707,39.384 275.682,39.567 287.433,41.082 287.544,40.91 
													"/>
					</g>
					<g>
						<defs>
							<path id="SVGID_172_" d="M277.832,41.43l11.666-3.534c-0.713-0.581-1.166-2.424-1.063-4.638
								c0.093-1.989,0.627-3.756,1.328-4.398c0.063-0.056,0.127-0.104,0.188-0.14l-11.324-2.536l-0.353-0.121
								c-0.731,4.573-1.039,9.794-0.485,15.369L277.832,41.43z"/>
						</defs>
						<clipPath id="SVGID_173_">
							<use xlink:href="#SVGID_172_"  overflow="visible"/>
						</clipPath>
						<polygon clip-path="url(#SVGID_173_)" fill="#F7941E" points="275.682,39.567 275.623,40.028 284.41,45.735 287.433,41.082 
													"/>
					</g>
				</g>
			</g>
			<g>
				<g>
					<path fill="#F7941E" d="M289.949,29.066c-0.652,0.592-1.152,2.283-1.238,4.208c-0.111,2.439,0.441,4.179,1.08,4.492
						c0.063,0.026,0.127,0.043,0.188,0.047c0.146,0.008,0.298-0.06,0.448-0.194c0.65-0.597,1.148-2.287,1.234-4.209
						c0.092-1.921-0.25-3.65-0.841-4.303c-0.118-0.129-0.239-0.209-0.364-0.232c-0.021-0.001-0.041-0.005-0.062-0.006
						C290.25,28.861,290.099,28.926,289.949,29.066z"/>
				</g>
			</g>
			<g>
				<path fill="#F7941E" d="M290.839,29.019c0,0-0.467-0.236-1.364-0.42l0.293-0.209c0,0,0.817,0.054,1.253,0.532L290.839,29.019z"
					/>
			</g>
			<g>
				<path fill="#F7941E" d="M288.585,36.527l0.961,1.637l0.554-0.076C290.1,38.085,288.955,36.912,288.585,36.527z"/>
			</g>
			<g>
				<path fill="#F7941E" d="M289.761,28.86c-0.701,0.642-1.235,2.409-1.328,4.398c-0.102,2.214,0.352,4.057,1.064,4.638l0.276-0.085
					l0.017-0.045c-0.64-0.313-1.192-2.053-1.082-4.492c0.086-1.925,0.588-3.616,1.238-4.208c0.151-0.14,0.303-0.205,0.446-0.2
					c0.021,0.001,0.042,0.005,0.062,0.006l0.008-0.04l-0.514-0.113C289.888,28.756,289.826,28.804,289.761,28.86z"/>
			</g>
			<g>
				<path fill="#F7941E" d="M277.757,41.716l12.097-3.641l-0.002-0.004c-0.125-0.025-0.245-0.088-0.356-0.18l-11.813,3.555
					L277.757,41.716z"/>
			</g>
			<path fill="#F7941E" d="M289.351,28.917l-11.078-2.568l-0.486,3.18l9.865,2.348c0,0,0.202,3.513,0.799,5.028
				C288.451,36.905,287.583,32.506,289.351,28.917z"/>
		</g>
		<path fill="#F7941E" d="M297.935,12.804c-2.691-8.026-7.018-10.532-10.164-11.22l-0.725-0.12l-0.508,0.071
			c-1.274,0.175-7.951,1.496-14.026,10.303c-3.015,4.369-23.128,7.462-36.472,8.016l-1.994,0.066l-0.979,1.782
			c-0.059,0.105-0.289,0.536-0.6,1.228c-1.914,0.402-3.527,1.361-4.715,2.814c-0.189,0.23-0.369,0.477-0.535,0.733
			c-1.65,2.542-2.092,6.186-1.209,9.997c0.947,4.102,4.107,5.898,7.096,6.285c0.279,0.422,0.555,0.794,0.818,1.109l1.097,1.264
			l1.438,0.072c0,0,4.42,0.195,5.248,0.233c0.299,0.065,0.842,0.263,1.074,0.587c0.227,0.314,0.25,0.98,0.068,1.828
			c-0.997,4.643-1.821,6.369-1.928,6.58l-0.121,0.219c-0.305,0.605-1.756,3.77-0.463,6.861c0.748,1.801,2.291,3.156,4.383,3.833
			L251.416,67l0.401,0.094l1.29-0.168l0.355-0.012l0.397-0.207c0.297-0.151,1.246-0.683,2.177-1.641v0.002
			c0.424-0.363,1.512-1.367,2.465-2.837c1.148-1.772,1.717-3.594,1.688-5.414c-0.026-1.506-0.456-2.913-1.282-4.2
			c1.074-2.035,1.143-4.123,0.174-5.955l-0.283-0.531c-0.104-0.194-0.196-0.373-0.28-0.534c2.047,0.407,6.562,2.028,13.479,8.344
			c1.394,2.144,5.731,7.995,11.795,8.507c0.4,0.034,0.807,0.047,1.201,0.031c0,0,0,0,0.002,0c3.111-0.107,5.971-1.657,8.496-4.604
			c0.416-0.485,0.814-1.026,1.19-1.604c2.696-4.152,4.591-10.938,5.336-19.102C300.832,28.231,300.053,19.123,297.935,12.804z
			 M229.564,35.653c-0.715-3.108-0.342-5.951,1.012-7.602c0.949-1.158,2.35-1.728,4.162-1.692c-0.32,0.934-0.636,2.033-0.857,3.239
			c-0.473,2.548-0.588,5.972,0.884,9.253c0.048,0.104,0.082,0.211,0.133,0.316C234.274,39.229,230.443,39.439,229.564,35.653z
			 M255.587,47.856l0.275,0.522c0.071,0.136,0.121,0.272,0.16,0.41c-0.008,0.363-0.249,1.319-2.244,2.498
			c-0.07-0.399-0.225-0.824-0.514-1.256c-0.686-1.025-1.585-3.887-0.559-5.859c0.426-0.826,1.125-1.399,2.098-1.727
			C253.468,43.914,254.587,45.998,255.587,47.856z M254.371,52.979c1.23,1.002,1.938,2.119,2.123,3.334
			c0.002,0.151-0.037,1.688-1.834,3.294c-0.104-0.523-0.328-1.054-0.688-1.591c-1.255-1.874-1.312-3.035-1.109-3.703L254.371,52.979
			z M296.675,28.47c0.003,0.128,0.007,0.257,0.01,0.385c0.006,0.358,0.009,0.717,0.01,1.077c0,0.139,0.001,0.278,0.001,0.416
			c-0.001,0.354-0.006,0.708-0.012,1.062c-0.003,0.143-0.005,0.287-0.009,0.43c-0.008,0.348-0.02,0.694-0.03,1.041
			c-0.006,0.153-0.013,0.305-0.019,0.458c-0.015,0.339-0.031,0.678-0.051,1.016c-0.011,0.158-0.02,0.315-0.027,0.472
			c-0.021,0.333-0.047,0.664-0.07,0.995c-0.014,0.162-0.025,0.323-0.04,0.485c-0.026,0.323-0.056,0.647-0.087,0.971
			c-0.016,0.166-0.032,0.331-0.051,0.497c-0.032,0.314-0.067,0.63-0.104,0.943c-0.021,0.169-0.04,0.336-0.062,0.502
			c-0.038,0.308-0.078,0.613-0.12,0.919c-0.022,0.17-0.05,0.34-0.074,0.51c-0.044,0.296-0.089,0.593-0.138,0.886
			c-0.026,0.172-0.057,0.344-0.084,0.514c-0.051,0.287-0.1,0.572-0.151,0.854c-0.032,0.174-0.065,0.342-0.101,0.512
			c-0.053,0.278-0.106,0.555-0.164,0.826c-0.035,0.168-0.072,0.334-0.109,0.5c-0.059,0.27-0.119,0.536-0.184,0.801
			c-0.039,0.164-0.078,0.324-0.118,0.485c-0.063,0.259-0.13,0.519-0.197,0.771c-0.042,0.16-0.088,0.312-0.132,0.47
			c-0.068,0.25-0.141,0.5-0.212,0.743c-0.046,0.15-0.095,0.298-0.142,0.447c-0.074,0.24-0.148,0.479-0.228,0.711
			c-0.048,0.146-0.099,0.281-0.147,0.422c-0.082,0.23-0.162,0.464-0.246,0.688c-0.051,0.131-0.102,0.252-0.15,0.378
			c-0.089,0.226-0.178,0.453-0.27,0.669c-0.049,0.111-0.099,0.217-0.146,0.326c-0.098,0.223-0.195,0.443-0.298,0.657
			c-0.042,0.086-0.086,0.166-0.128,0.25c-0.11,0.228-0.223,0.45-0.34,0.665c-0.023,0.044-0.049,0.083-0.072,0.126
			c-0.296,0.528-0.604,1.021-0.924,1.463c-0.113,0.164-0.236,0.31-0.356,0.459c-0.062,0.073-0.12,0.158-0.182,0.229
			c-1.231,1.435-2.522,2.398-3.861,2.908c-0.062,0.023-0.12,0.055-0.182,0.077c-0.095,0.032-0.191,0.05-0.287,0.079
			c-0.187,0.055-0.373,0.115-0.562,0.152c-0.029,0.006-0.062,0.006-0.093,0.013c-0.255,0.046-0.511,0.082-0.769,0.097
			c-0.287,0.018-0.577,0.014-0.869-0.012c-5.158-0.438-9.229-7.145-9.268-7.211l-0.01-0.016l-0.013-0.012l-0.006-0.007
			c-0.263-0.241-0.519-0.469-0.772-0.698c-5.75-5.172-10.052-7.363-12.684-8.285c-1.465-0.508-2.57-0.695-3.333-0.752
			c-0.714-0.057-1.13,0.002-1.238,0.021h-0.01l-0.001,0.002h-0.001c-0.019,0.001-0.038,0.005-0.058,0.006
			c-0.529,0.017-1.019,0.069-1.461,0.173c-0.275,0.063-0.525,0.15-0.769,0.248h-0.001c-0.911,0.36-1.594,0.941-2.016,1.758
			c-1.094,2.104-0.164,5.037,0.574,6.142c1.037,1.558,0.243,2.983,0.127,3.179c0.008-0.01,0.021-0.016,0.026-0.02l-0.039,0.039
			c0,0,0.007-0.012,0.013-0.021c-0.01,0.007-0.031,0.027-0.045,0.039l0.004,0.001c-0.004,0.005-0.009,0.01-0.014,0.012l0.001,0.002
			c-0.142,0.123-0.437,0.438-0.552,1.032c-0.04,0.203-0.04,0.423-0.031,0.644l-0.002,0.002c0,0.006,0.001,0.014,0.001,0.02
			c0.005,0.104,0.019,0.21,0.034,0.318c0.025,0.197,0.062,0.4,0.127,0.615l0.002,0.002c0.191,0.645,0.538,1.352,1.053,2.123
			c0.645,0.955,0.852,1.886,0.627,2.766c-0.025,0.098-0.074,0.18-0.109,0.271c-0.002,0.002-0.004,0.006-0.006,0.008
			c-0.149,0.397-0.356,0.759-0.604,1.057l-0.006,0.006l0.083,0.096l-0.098-0.08c-0.564,0.66-1.233,1.062-1.4,1.152l-1.223-0.299
			l-5.205-1.279c-1.047-0.343-1.748-0.934-2.092-1.75c-0.703-1.678,0.346-3.801,0.356-3.822c0.11-0.186,1.112-1.914,2.354-7.674
			c0.412-1.934,0.187-3.522-0.681-4.728c-0.81-1.13-1.989-1.657-2.786-1.897c-0.479-0.145-0.818-0.186-0.857-0.19l-4.652-0.205
			l-0.688-0.03c-0.371-0.451-0.698-0.915-0.986-1.384c-0.027-0.045-0.051-0.09-0.078-0.136c-0.107-0.18-0.214-0.362-0.312-0.545
			c-0.062-0.116-0.117-0.234-0.174-0.352c-2.201-4.467-1.289-9.391-0.26-12.517c0.062-0.187,0.124-0.367,0.186-0.54
			c0.025-0.07,0.05-0.136,0.074-0.203c0.039-0.105,0.077-0.21,0.115-0.309c0.028-0.075,0.057-0.148,0.085-0.221
			c0.033-0.084,0.065-0.165,0.097-0.244c0.028-0.07,0.059-0.141,0.086-0.207c0.029-0.072,0.059-0.138,0.086-0.205
			c0.064-0.151,0.127-0.291,0.185-0.417c0.009-0.02,0.019-0.043,0.026-0.062c0.035-0.075,0.066-0.141,0.097-0.207
			c0.011-0.023,0.022-0.047,0.034-0.069c0.027-0.06,0.055-0.115,0.078-0.165c0.01-0.019,0.019-0.036,0.025-0.053
			c0.053-0.105,0.096-0.188,0.121-0.238c0.86-0.038,8.896-0.426,17.455-1.711c4.549-0.681,8.424-1.48,11.613-2.393
			c5.318-1.519,8.738-3.353,10.207-5.484c5.336-7.735,11.089-8.697,11.497-8.755c-0.001,0-0.003,0-0.003-0.001l0,0
			c0,0,0.003,0,0.004,0.001c-0.001,0-0.001,0-0.001,0c0.387,0.086,0.764,0.208,1.133,0.363c0.125,0.052,0.242,0.127,0.364,0.187
			c0.238,0.117,0.479,0.232,0.709,0.378c0.15,0.096,0.296,0.216,0.443,0.325c0.19,0.14,0.383,0.275,0.567,0.436
			c0.16,0.14,0.313,0.303,0.469,0.458c0.161,0.161,0.322,0.318,0.478,0.495c0.162,0.183,0.314,0.387,0.47,0.587
			c0.14,0.181,0.28,0.36,0.415,0.556c0.154,0.224,0.302,0.466,0.449,0.708c0.125,0.204,0.248,0.407,0.367,0.623
			c0.143,0.26,0.279,0.535,0.416,0.813c0.113,0.233,0.227,0.467,0.336,0.712c0.127,0.287,0.248,0.584,0.367,0.887
			c0.152,0.387,0.307,0.772,0.445,1.187c0.012,0.033,0.023,0.063,0.035,0.098c0.502,1.495,0.915,3.129,1.242,4.858
			c0.005,0.021,0.01,0.042,0.013,0.062c0.075,0.397,0.144,0.8,0.21,1.206c0.007,0.046,0.016,0.091,0.023,0.137
			c0.061,0.386,0.115,0.778,0.17,1.172c0.01,0.069,0.021,0.138,0.029,0.208c0.051,0.38,0.096,0.764,0.139,1.149
			c0.009,0.087,0.02,0.172,0.029,0.26c0.039,0.375,0.074,0.753,0.107,1.133c0.009,0.1,0.02,0.199,0.027,0.299
			c0.029,0.374,0.058,0.75,0.08,1.127c0.009,0.107,0.017,0.215,0.022,0.323c0.022,0.371,0.04,0.744,0.058,1.118
			c0.004,0.118,0.01,0.235,0.016,0.353C296.658,27.736,296.667,28.103,296.675,28.47z"/>
	</g>
</g>
</svg>
