<?xml version="1.0" encoding="utf-8"?>
<!-- Generator: Adobe Illustrator 16.0.0, SVG Export Plug-In . SVG Version: 6.00 Build 0)  -->
<!DOCTYPE svg PUBLIC "-//W3C//DTD SVG 1.1//EN" "http://www.w3.org/Graphics/SVG/1.1/DTD/svg11.dtd">
<svg version="1.1" id="Layer_1" xmlns="http://www.w3.org/2000/svg" xmlns:xlink="http://www.w3.org/1999/xlink" x="0px" y="0px"
	 width="1084.06px" height="213.265px" viewBox="6.386 8.176 1084.06 213.265" enable-background="new 6.386 8.176 1084.06 213.265"
	 xml:space="preserve">
<g>
	<g>
		<path d="M150.176,81.724l43.667-36.998c-20.268-23.248-49.485-36.551-80.409-36.551c-24.668,0-48.651,8.621-67.707,24.306
			l37.019,43.688C103.145,59.906,132.717,62.347,150.176,81.724z"/>
		<path d="M80.425,78.135l-37.02-43.688C31.722,44.61,22.901,56.434,16.496,70.512L68.915,93.55
			C71.625,87.855,75.471,82.602,80.425,78.135z"/>
		<path d="M145.445,152.495c-20.82,17.645-51.988,15.062-69.63-5.754c-12.263-14.475-14.744-33.95-8.125-50.406L15.272,73.298
			c-21.032,49.585-3.838,103.77,42.148,132.194c16.875,10.434,36.227,15.948,55.965,15.948c36.767,0,70.291-18.393,89.987-49.284
			l-48.669-30.087C152.184,145.874,149.102,149.396,145.445,152.495z"/>
		<path d="M156.312,139.486l48.662,30.083c23.606-39.353,20.034-87.123-9.164-122.522l-43.667,36.997
			C165.094,100.289,166.192,122.352,156.312,139.486z"/>
	</g>
	<path d="M81.171,145.487c-16.783-19.812-14.33-49.472,5.478-66.25c7.98-6.769,17.562-10.405,27.257-11.045
		c-10.789-0.096-21.661,3.519-30.537,11.045c-19.65,16.639-22.079,46.062-5.435,65.712c7.527,8.883,17.669,14.233,28.336,15.904
		C96.804,158.635,87.939,153.475,81.171,145.487z"/>
</g>
<g>
	<g>
		<path d="M333.832,161.707c11.873,0,19.505-7.42,19.505-16.96V54.22c0-2.332,1.272-3.181,3.816-3.181h16.325
			c2.544,0,4.028,0.849,4.028,2.968v90.951c0,23.956-19.504,38.161-43.461,38.161c-24.169,0-43.673-14.205-43.673-38.161V54.22
			c0-2.332,1.06-3.181,3.816-3.181h16.325c2.12,0,3.816,0.636,3.816,2.968v90.951C314.327,154.287,321.959,161.707,333.832,161.707z
			"/>
		<path d="M440.678,182.907c-15.477,0-31.801-4.876-42.4-15.9c-2.544-2.332-2.968-3.814-0.425-6.996l8.269-9.327
			c2.544-2.757,4.028-1.696,6.784,0.424c7.42,6.572,18.869,10.812,27.137,10.812c15.265,0,21.837-6.996,21.837-16.536
			c0-11.659-12.296-16.536-27.561-21.837c-16.324-5.512-34.134-14.416-34.134-36.889c0-23.109,18.657-37.313,41.13-37.313
			c13.992,0,26.501,2.969,36.889,9.753c2.968,2.119,2.544,3.604,0.636,6.783l-5.512,10.177c-1.271,2.332-3.816,2.544-6.36,1.483
			c-8.056-4.24-16.749-7.42-24.381-7.42c-9.752,0-18.656,4.028-18.656,16.325c0,10.388,13.146,14.628,22.262,18.021
			c18.231,6.571,39.856,13.78,39.856,39.856C486.047,168.915,466.331,182.907,440.678,182.907z"/>
		<path d="M581.872,160.436c1.908,0,3.393,1.271,3.393,3.604v13.992c0,2.544-1.061,3.816-3.393,3.816H510
			c-2.332,0-3.816-1.272-3.816-3.604V54.645c0-2.333,1.484-3.604,3.816-3.604h70.598c1.908,0,3.605,0.849,3.605,3.393v13.78
			c0,2.332-1.271,3.816-3.393,3.816h-47.277c-2.756,0-3.394,0.848-3.394,2.756v25.441c0,2.756,0.85,3.604,3.394,3.604h39.009
			c2.543,0,3.393,1.271,3.393,3.815v13.567c0,2.332-0.85,3.604-3.393,3.604h-39.221c-2.544,0-3.182,1.06-3.182,3.18v29.257
			c0,2.544,1.062,3.182,3.816,3.182H581.872L581.872,160.436z"/>
		<path d="M651.403,51.04c25.439,0,40.494,13.993,40.494,37.949c0,14.841-8.904,27.985-18.656,36.889
			c-1.062,1.272-1.062,1.908-0.424,3.182c0.211,0.424,10.811,23.531,22.471,48.125c1.484,2.756-0.211,4.664-2.967,4.664h-16.113
			c-5.725,0-6.783-1.908-8.057-4.664l-19.504-43.886c-0.213-1.061-1.061-1.907-2.756-1.907h-13.992
			c-1.271,0-1.908,0.636-1.908,2.332v44.732c0,2.544-1.484,3.393-4.027,3.393H609.85c-2.332,0-3.816-0.849-3.816-3.181V54.645
			c0-2.333,0.848-3.604,3.393-3.604L651.403,51.04L651.403,51.04z M653.311,110.402c1.271,0,3.393-0.637,4.24-1.272
			c6.783-5.3,9.963-13.567,9.963-18.869c0-10.388-5.723-18.231-18.02-18.231H633.17c-2.545,0-3.18,0.848-3.18,3.18v32.226
			c0,1.907,0.424,2.969,2.967,2.969L653.311,110.402L653.311,110.402z"/>
		<path d="M779.874,108.494l-7.422,5.724c-2.119,1.484-3.604,0.637-4.875-1.271c-4.664-6.996-12.084-10.6-19.928-10.6
			c-12.086,0-19.93,8.479-19.93,20.141v26.288c0,11.448,8.268,19.505,20.564,19.505c11.023,0,16.748-5.512,21.836-12.084
			c0.848-1.062,1.908-0.637,3.18,0.212l6.996,5.088c2.756,1.696,2.756,3.18,1.697,4.664c-8.48,12.721-20.99,16.961-33.498,16.961
			c-22.686,0-37.736-13.355-37.736-34.98v-24.382c0-22.684,15.9-36.252,37.312-36.041c13.992,0.213,24.381,5.301,32.648,16.113
			C781.782,105.313,781.569,107.434,779.874,108.494z"/>
		<path d="M826.086,163.403c0.424,2.12,1.906,2.968,2.967,0l23.32-70.598c0.637-1.696,1.484-4.028,4.877-4.028h9.965
			c2.756,0,3.393,1.908,2.756,4.028l-40.918,123.387c-0.635,1.908-2.543,4.452-6.57,4.452h-7.846c-2.969,0-4.238-1.483-2.969-5.513
			l9.965-30.104c0.424-1.483,1.271-3.18-1.061-3.18h-2.119c-2.756,0-4.24-1.061-5.088-4.24l-23.32-85.015
			c-0.637-2.119-0.213-3.815,2.332-3.815h11.236c2.756,0,4.025,1.484,4.664,3.18L826.086,163.403z"/>
		<path d="M948.196,108.494l-7.42,5.724c-2.119,1.484-3.604,0.637-4.877-1.271c-4.664-6.996-12.084-10.6-19.928-10.6
			c-12.086,0-19.93,8.479-19.93,20.141v26.288c0,11.448,8.268,19.505,20.564,19.505c11.023,0,16.748-5.512,21.836-12.084
			c0.85-1.062,1.908-0.637,3.182,0.212l6.996,5.088c2.756,1.696,2.756,3.18,1.695,4.664c-8.48,12.721-20.988,16.961-33.496,16.961
			c-22.686,0-37.738-13.355-37.738-34.98v-24.382c0-22.684,15.9-36.252,37.312-36.041c13.992,0.213,24.383,5.301,32.648,16.113
			C950.104,105.313,949.891,107.434,948.196,108.494z"/>
		<path d="M974.268,46.8h12.934c1.271,0,2.119,0.637,2.119,1.908v106.852c0,9.753,2.545,11.66,9.33,11.66h2.756
			c1.908,0,1.908,1.695,1.908,3.181v9.964c0,1.696-0.85,2.544-2.121,2.757c-1.695,0.424-4.664,0.424-5.938,0.424
			c-19.08,0-22.895-9.54-22.895-28.196V48.92C972.362,47.648,972.997,46.8,974.268,46.8z"/>
		<path d="M1086.206,139.234h-49.609c-2.332,0-3.814,1.696-3.814,3.815v4.028c0,11.448,5.512,21.2,20.352,21.2
			c8.48,0,15.479-4.24,20.354-10.812c1.271-1.695,2.545-1.695,4.24-0.636l7.42,5.088c1.695,1.062,2.332,2.12,1.695,3.394
			c-6.783,12.296-19.504,17.809-33.283,17.809c-22.686,0-37.738-13.781-37.738-34.77v-24.169c0-21.624,15.477-36.677,37.312-36.677
			c22.475,0,37.312,15.053,37.312,36.677v9.965C1090.446,137.114,1088.114,139.234,1086.206,139.234z M1033.204,121.639v1.482
			c0,1.061,0.637,2.544,3.18,2.544h34.771c1.482,0,2.119-0.636,2.119-2.332v-1.908c0-10.6-6.996-19.292-20.141-19.292
			C1041.471,102.134,1033.204,111.037,1033.204,121.639z"/>
	</g>
</g>
</svg>
