<?xml version="1.0" encoding="utf-8"?>
<!-- Generator: Adobe Illustrator 16.0.0, SVG Export Plug-In . SVG Version: 6.00 Build 0)  -->
<!DOCTYPE svg PUBLIC "-//W3C//DTD SVG 1.1//EN" "http://www.w3.org/Graphics/SVG/1.1/DTD/svg11.dtd">
<svg version="1.1" id="Layer_1" xmlns="http://www.w3.org/2000/svg" xmlns:xlink="http://www.w3.org/1999/xlink" x="0px" y="0px"
	 width="170.945px" height="59.041px" viewBox="0 0 170.945 59.041" enable-background="new 0 0 170.945 59.041"
	 xml:space="preserve">
<g>
	<path d="M82.542,15.501l6.109,0.012c3.084-10.316,7.774-15.467,13.446-15.467c4.523,0,7.02,2.691,7.02,4.637
		c0,0.91-0.589,1.497-1.563,1.497c-2.736,0-2.466-4.772-6.039-4.772c-3.906,0-6.016,4.704-8.623,14.084l5.461,0.01l-0.39,1.521
		h-5.545l-7.077,23.262c-3.521,11.484-7.107,18.756-15.979,18.756c-3.974,0-6.846-1.817-6.846-4.479
		c0-1.236,0.914-2.146,2.152-2.146c1.304,0,2.086,0.846,2.086,2.338c0,0.391-0.132,0.844-0.132,1.299c0,0.773,1.11,1.621,3,1.621
		c5.479,0,8.087-6.359,11.677-18.107l6.946-22.543H82.18L82.542,15.501"/>
	<path d="M106.136,35.908c-2.404,0-3.89-0.971-5.064-2.646c-1.639-2.344-1.948-4.281-1.948-7.133c0-3.872,0.721-5.96,2.713-7.997
		c1.229-1.325,2.562-1.631,3.942-1.631c2.613,0,6.756,3.565,6.756,9.218C112.534,31.17,110.028,35.908,106.136,35.908
		 M105.522,37.438c6.297,0,11.311-5.652,11.311-11.207c0-3.312-1.178-5.958-3.479-8.304c-1.535-1.526-4.354-2.957-7.166-2.957
		c-1.691,0-4.199,0.41-6.858,2.446c-3.021,2.346-4.4,5.603-4.4,8.202c0,3.617,0.459,5.503,2.812,8.304
		C99.89,36.47,103.065,37.438,105.522,37.438"/>
	<path d="M121.54,23.277c0-3.273-0.964-3.832-1.475-4.024c-0.373-0.137-1.194-0.301-1.34-0.357
		c-0.147-0.054-0.412-0.153-0.412-0.354v-0.309c0-0.205,0.144-0.392,0.412-0.458c0.479-0.117,2.862-1.153,5.063-2.597
		c0.392-0.255,1.076-0.51,1.076,0.406l0.258,3.516h0.202c1.534-2.341,3.94-4.432,6.143-4.432c1.739,0,2.609,1.071,2.609,2.243
		c0,1.474-1.229,2.495-2.148,2.495c-0.562,0-1.074-0.205-1.484-0.406c-0.409-0.257-1.021-0.41-1.688-0.41
		c-0.818,0-2.15,0.51-3.021,2.139c-0.31,0.564-0.513,1.478-0.513,1.631V33.06c0,1.576,0.358,2.086,1.435,2.086h2.405
		c0.306,0,0.356,0.153,0.356,0.459v0.916c0,0.308-0.053,0.459-0.257,0.459c-0.308,0-2.659-0.151-5.423-0.151
		c-3.178,0-5.323,0.151-5.631,0.151c-0.207,0-0.309-0.103-0.309-0.51v-0.865c0-0.356,0.102-0.459,0.562-0.459h1.996
		c0.767,0,1.125-0.308,1.125-0.967c0.052-1.683,0.052-3.466,0.052-6.113v-4.788H121.54z"/>
	<path d="M137.112,24.499c0,2.751,1.228,5.855,2.609,7.744c1.688,2.189,3.842,2.596,5.574,2.596c2.562,0,3.895-0.557,5.633-2.188
		c0.103-0.103,0.26-0.151,0.414,0l0.508,0.509c0.205,0.202,0.258,0.354,0,0.663c-1.482,1.681-4.76,3.617-8.239,3.617
		c-2.714,0-5.577-0.608-7.935-3.567c-1.895-2.494-2.306-4.631-2.306-6.925c0-5.96,4.199-11.971,10.955-11.971
		c5.32,0,6.96,3.054,6.96,4.126c-0.052,1.173-0.816,1.782-1.892,1.782c-1.183,0-2.053-0.661-2.817-2.039
		c-1.127-2.088-2.201-2.241-3.431-2.241C140.233,16.603,137.112,19.253,137.112,24.499"/>
	<path d="M156.561,21.75c0.969-3.77,3.121-5.248,5.371-5.248c3.326,0,3.938,3.364,3.938,4.535c0,0.458-0.407,0.713-1.378,0.713
		H156.561z M168.996,23.277c0.817,0,1.438-0.101,1.438-0.815c0-1.986-1.643-7.491-7.526-7.491c-2.56,0-5.119,0.46-7.317,2.703
		c-2.714,2.699-3.223,6.113-3.223,8.097c0,3.566,0.459,5.45,2.252,8.049c1.892,2.75,5.115,3.617,8.035,3.617
		c4.553,0,7.213-3.516,8.135-5.553c0.257-0.562,0.155-0.717,0-0.764l-0.667-0.357c-0.148-0.053-0.355,0.047-0.459,0.252
		c-0.87,1.686-3.068,3.467-6.191,3.467c-4.097,0-7.271-3.771-7.271-8.763c0-1.168,0.051-1.984,0.156-2.442H168.996z"/>
	<path d="M1.186,35.959C0.931,35.81,0.931,35.5,0.878,35.246L0.01,30.408c-0.053-0.254,0.1-0.355,0.307-0.406l0.665-0.157
		c0.205-0.048,0.354,0.052,0.462,0.309l1.277,2.494c1.025,1.886,1.74,3.162,4.454,3.162c1.789,0,4.044-1.069,4.044-3.467
		c0-2.292-1.126-3.615-4.967-4.688c-3.02-0.866-6.041-2.442-6.041-6.466c0-3.515,3.328-6.215,7.167-6.215
		c2.456,0,3.785,0.612,4.709,1.07c0.766,0.357,0.87,0.61,0.921,0.916l0.767,3.567c0,0.205-0.104,0.355-0.359,0.458l-0.612,0.205
		c-0.205,0.052-0.306,0-0.462-0.257l-1.739-2.341c-0.615-0.968-1.586-1.988-3.583-1.988c-1.944,0-3.94,1.173-3.94,3.366
		c0,2.952,2.406,3.515,4.912,4.226c3.737,1.068,6.091,2.596,6.144,6.521c-0.053,4.126-3.429,6.726-7.78,6.726
		C3.847,37.439,1.801,36.42,1.186,35.959"/>
	<path d="M41.553,21.646c0,2.647,0,10.344,0.052,11.917c0.052,0.869,0.257,1.58,1.33,1.58h2.306c0.46,0,0.561,0.155,0.561,0.461
		v0.863c0,0.305-0.101,0.51-0.304,0.51c-0.358,0-2.614-0.149-5.786-0.149c-3.274,0-3.736,0.149-4.198,0.149
		c-0.257,0-0.359-0.205-0.359-0.51v-0.863c0-0.356,0.104-0.461,0.667-0.461h0.874c0.562,0,1.074-0.356,1.125-1.271
		c0.054-1.582,0.054-10.338,0.054-13.297v-3.211c0-3.615-0.054-8.25-0.156-9.573c-0.167-2.833-0.049-2.839-2.199-3.211
		c-0.54-0.093-1.188-0.161-1.383-0.201c-0.197-0.04-0.309-0.152-0.309-0.257V3.718c0-0.152,0.153-0.253,0.462-0.357
		c2.269-0.759,4.105-1.53,5.987-2.952C40.719,0.076,41.045,0,41.35,0c0.358,0,0.462,0.253,0.41,0.918
		c-0.051,2.799-0.205,13.395-0.205,16.194v4.534H41.553z"/>
	<path d="M50.273,21.75c0.972-3.77,3.121-5.248,5.372-5.248c3.328,0,3.941,3.364,3.941,4.535c0,0.458-0.409,0.713-1.382,0.713
		H50.273z M62.709,23.277c0.817,0,1.435-0.101,1.435-0.815c0-1.986-1.642-7.491-7.527-7.491c-2.557,0-5.117,0.46-7.317,2.703
		c-2.714,2.699-3.226,6.113-3.226,8.097c0,3.566,0.462,5.45,2.253,8.049c1.895,2.75,5.117,3.617,8.037,3.617
		c4.553,0,7.215-3.516,8.137-5.553c0.258-0.562,0.152-0.717,0-0.764l-0.667-0.357c-0.151-0.053-0.356,0.047-0.458,0.252
		c-0.874,1.686-3.072,3.467-6.194,3.467c-4.094,0-7.269-3.771-7.269-8.763c0-1.168,0.05-1.984,0.153-2.442H62.709z"/>
	<path d="M67.519,35.959c-0.257-0.149-0.257-0.459-0.305-0.713l-0.874-4.838c-0.051-0.254,0.104-0.355,0.31-0.406l0.667-0.157
		c0.203-0.048,0.357,0.052,0.458,0.309l1.281,2.494c1.023,1.886,1.738,3.162,4.452,3.162c1.792,0,4.042-1.069,4.042-3.467
		c0-2.292-1.126-3.615-4.965-4.688c-3.018-0.866-6.036-2.442-6.036-6.466c0-3.515,3.325-6.215,7.16-6.215
		c2.458,0,3.792,0.612,4.709,1.07c0.77,0.357,0.872,0.61,0.923,0.916l0.767,3.567c0,0.205-0.101,0.355-0.355,0.458l-0.614,0.205
		c-0.208,0.052-0.308,0-0.462-0.257l-1.741-2.341c-0.613-0.968-1.587-1.988-3.583-1.988c-1.944,0-3.942,1.173-3.942,3.366
		c0,2.952,2.406,3.515,4.916,4.226c3.735,1.068,6.091,2.596,6.14,6.522c-0.049,4.125-3.429,6.725-7.778,6.725
		C70.18,37.439,68.135,36.42,67.519,35.959"/>
	<path d="M27.483,32.193c0,1.377-2.713,3.023-4.197,2.951c-1.536-0.078-2.661-1.047-2.661-2.936c0-4.226,5.016-4.998,6.858-6.282
		V32.193z M31.219,28.254V20.26c0-1.375-0.051-2.548-1.126-3.669c-0.716-0.699-1.689-1.458-4.094-1.578
		c-2.304-0.113-4.095,0.646-6.246,1.815c-2.099,1.116-3.53,2.984-3.53,4.615c0,1.169,0.408,1.649,1.229,1.691
		c2.094,0.103,2.709-0.988,2.709-2.771c0-0.916-0.458-1.703,0.257-2.332c0.718-0.626,2.305-1.295,3.328-1.243
		c1.486,0.073,2.508,0.583,3.073,1.27c0.564,0.691,0.612,2.018,0.715,2.89v3.456c-0.816,0.675-3.479,1.765-5.784,2.671
		c-4.042,1.583-5.118,3.566-5.118,5.908c0,3.211,1.844,4.32,3.072,4.383c1.125,0.057,2.046,0.1,3.02-0.158
		c2.303-0.647,3.994-1.639,5.065-2.856l0.104,0.004c0.46,2.11,1.79,3.058,3.633,3.058c2.219,0,3.073-1.558,3.48-2.304
		c0.307-0.493,0.204-0.75,0.05-0.909l-0.513-0.435c-0.205-0.164-0.307-0.068-0.51,0.178c-0.257,0.345-0.462,0.716-1.279,0.679
		c-0.921-0.047-1.535-0.455-1.535-3.357V28.254z"/>
</g>
</svg>
