<?xml version="1.0" encoding="utf-8"?>
<!-- Generator: Adobe Illustrator 16.0.0, SVG Export Plug-In . SVG Version: 6.00 Build 0)  -->
<!DOCTYPE svg PUBLIC "-//W3C//DTD SVG 1.1//EN" "http://www.w3.org/Graphics/SVG/1.1/DTD/svg11.dtd">
<svg version="1.1" id="Layer_1" xmlns="http://www.w3.org/2000/svg" xmlns:xlink="http://www.w3.org/1999/xlink" x="0px" y="0px"
	 width="863.537px" height="178.1px" viewBox="0 0 863.537 178.1" enable-background="new 0 0 863.537 178.1" xml:space="preserve">
<g>
	<g>
		
			<linearGradient id="SVGID_1_" gradientUnits="userSpaceOnUse" x1="482.9951" y1="444.8113" x2="485.2521" y2="428.5607" gradientTransform="matrix(1 0 0 1 -392 -424)">
			<stop  offset="0.2393" style="stop-color:#4A9ED7"/>
			<stop  offset="0.47" style="stop-color:#4397D2"/>
			<stop  offset="0.8637" style="stop-color:#2C85C6"/>
			<stop  offset="1" style="stop-color:#217EC2"/>
		</linearGradient>
		<polygon fill="url(#SVGID_1_)" points="21,2.183 21,25.183 138.65,25.183 166.166,2.183 		"/>
	</g>
	<g>
		
			<linearGradient id="SVGID_2_" gradientUnits="userSpaceOnUse" x1="459.6074" y1="468.989" x2="461.4583" y2="451.0982" gradientTransform="matrix(1 0 0 1 -392 -424)">
			<stop  offset="0.2393" style="stop-color:#B4DDF3"/>
			<stop  offset="0.4816" style="stop-color:#AAD3ED"/>
			<stop  offset="0.8951" style="stop-color:#90BDDF"/>
			<stop  offset="1" style="stop-color:#89B7DB"/>
		</linearGradient>
		<polygon fill="url(#SVGID_2_)" points="0,25.183 0,49.183 112.386,49.183 139.312,25.183 		"/>
	</g>
	<g>
		
			<linearGradient id="SVGID_3_" gradientUnits="userSpaceOnUse" x1="464.1807" y1="487.9431" x2="465.9731" y2="474.7988" gradientTransform="matrix(1 0 0 1 -392 -424)">
			<stop  offset="0.2393" style="stop-color:#4FC2BA"/>
			<stop  offset="0.4609" style="stop-color:#47B9B0"/>
			<stop  offset="0.839" style="stop-color:#33A69A"/>
			<stop  offset="1" style="stop-color:#289D90"/>
		</linearGradient>
		<polygon fill="url(#SVGID_3_)" points="36,49.183 36,72.183 85.134,72.183 112.386,49.183 		"/>
	</g>
	<path d="M168.539,0.866c-1.112-1.112-3.04-1.159-4.203-0.101L56.747,98.76l-0.163,0.149c-3.825,3.83-3.825,10.066,0,13.907
		c1.857,1.854,4.326,2.876,6.955,2.876c2.567,0,4.983-0.972,6.903-2.836L168.637,5.066C169.735,3.86,169.69,2.015,168.539,0.866z"/>
</g>
<path fill="#231F20" d="M301.425,85.763c-14.897,0-23.807,7.75-28.837,14.837V62.584c0-0.172-0.003-0.337-0.008-0.496l0.008-5.346
	c0-4.171-1.909-6.199-5.835-6.199h-1.277c-3.928,0-5.837,2.028-5.837,6.199v113.697c0,4.171,1.909,6.2,5.837,6.2h1.277
	c3.926,0,5.835-2.029,5.835-6.2v-43.252c0-17.739,11.034-29.204,28.111-29.204c14.285,0,22.813,10.234,22.813,27.381v45.075
	c0,4.171,1.909,6.2,5.837,6.2h1.278c3.926,0,5.835-2.029,5.835-6.2v-45.806C336.462,99.931,323.691,85.763,301.425,85.763z"/>
<path fill="#231F20" d="M384.663,85.763c-23.718,0-35.949,14.454-35.949,20.618c-0.004,1.686,0.562,3.146,1.637,4.225
	c1.096,1.1,2.649,1.729,4.261,1.729c1.515,0,2.805-0.563,3.539-1.545c6.535-8.739,14.909-12.988,25.599-12.988
	c15.42,0,23.913,8.038,23.913,22.633v2.562h-1.296c-42.142,0.959-60.935,10.244-60.935,30.105c0,15.307,11.677,24.815,30.472,24.815
	c13.158,0,24.699-5.42,31.94-14.93v1.61c0,0.39,0.013,0.756,0.021,1.113v4.922c0,4.041,1.85,6.006,5.652,6.006h1.233
	c3.391,0,5.214-1.574,5.571-4.811c0.072-0.156,0.104-0.279,0.104-0.399v-51.361C420.427,98.588,407.056,85.763,384.663,85.763z
	 M376.998,166.974c-11.371,0-18.436-5.313-18.436-13.873c0-12.541,13.324-18.383,44.553-19.533l4.547-0.161v7.471
	C407.662,155.998,394.765,166.974,376.998,166.974z"/>
<path fill="#231F20" d="M766.495,85.763c-23.719,0-35.951,14.454-35.951,20.618c-0.004,1.686,0.562,3.146,1.637,4.224
	c1.098,1.101,2.65,1.729,4.262,1.729c1.518,0,2.805-0.562,3.539-1.543c6.531-8.74,14.906-12.989,25.604-12.989
	c15.418,0,23.906,8.038,23.906,22.633v2.561h-1.289c-42.146,0.961-60.941,10.244-60.941,30.106c0,15.308,11.68,24.814,30.479,24.814
	c13.154,0,24.693-5.418,31.938-14.928v1.609c0,0.37,0.008,0.721,0.021,1.062v4.975c0,4.041,1.85,6.006,5.654,6.006h1.232
	c3.391,0,5.213-1.574,5.572-4.812c0.07-0.16,0.104-0.281,0.104-0.396v-51.36C802.259,98.588,788.89,85.763,766.495,85.763z
	 M758.829,166.974c-11.371,0-18.439-5.313-18.439-13.873c0-12.541,13.326-18.383,44.555-19.533l4.545-0.161v7.471
	C789.489,155.998,776.595,166.974,758.829,166.974z"/>
<path fill="#231F20" d="M241.98,144.441c-1.645,0-3.044,0.609-3.888,1.752c-6.281,12.369-20.236,20.054-36.417,20.054
	c-26.545,0-45.811-21.03-45.811-50.008c0-29.337,18.687-49.825,45.445-49.825c13.26,0,26.26,6.082,33.951,15.9
	c1.312,1.441,2.903,2.202,4.601,2.202c1.72,0,3.504-0.817,4.774-2.188c1.094-1.183,1.664-2.605,1.565-3.865
	c0-6.938-15.603-23.902-44.525-23.902c-35.134,0-59.671,25.514-59.671,62.043c0,36.209,24.313,61.496,59.124,61.496
	c30.7,0,47.262-19.297,47.262-27.186c0.005-1.834-0.609-3.422-1.777-4.592C245.422,145.127,243.733,144.441,241.98,144.441z"/>
<path fill="#231F20" d="M523.583,164.198c-2.707,1.723-5.791,2.596-9.164,2.596c-8.934,0-12.412-5.117-12.412-18.252V99.628h20.715
	c1.996,0,3.676-0.676,4.988-2.004c3.123-3.154,3.102-8.885,3.102-9.126c-0.004-0.298-0.244-0.538-0.545-0.538h-28.26V73.35
	c0-4.229-1.797-6.199-5.656-6.199h-1.273c-3.93,0-5.838,2.028-5.838,6.199v14.606h-15.66c-0.045-0.014-0.094-0.021-0.145-0.021
	c-14.451,0-23.199,4.282-27.232,13.417v-2.089c0-0.336-0.01-0.644-0.021-0.951l-0.002-0.094c0.018-0.05,0.023-0.103,0.023-0.156
	v-4.728c0-4.112-1.881-6.112-5.756-6.112h-1.26c-3.869,0-5.754,2-5.754,6.112v77.104c0,4.172,1.91,6.2,5.836,6.2h1.275
	c3.928,0,5.836-2.029,5.836-6.2v-34.126c0-23.323,9.662-36.698,26.504-36.698c0.033,0,0.068-0.005,0.102-0.012l0.074,0.004
	c0.121,0.01,0.24,0.018,0.375,0.018h15.805v50.19c0,19.031,8.115,28.282,24.814,28.282c9.27,0,14.943-3.749,17.166-7.258
	c0.885-1.396,0.857-3.384-0.061-5.062C529.708,163.152,526.69,162.399,523.583,164.198z"/>
<path fill="#231F20" d="M862.825,165.782c-1.443-2.627-4.457-3.384-7.57-1.584c-2.748,1.745-5.746,2.596-9.164,2.596
	c-8.936,0-12.416-5.117-12.416-18.252V99.628h20.719c1.994,0,3.672-0.676,4.986-2.004c3.125-3.154,3.104-8.884,3.104-9.126
	c-0.004-0.298-0.246-0.538-0.543-0.538h-28.266V73.35c0-4.229-1.795-6.199-5.648-6.199h-1.277c-3.928,0-5.838,2.028-5.838,6.199
	v14.606h-7.484c-4.348,0-6.201,1.581-6.201,5.286v1.096c0,3.707,1.854,5.287,6.201,5.287h7.484v50.19
	c0,19.031,8.117,28.282,24.814,28.282c9.271,0,14.945-3.749,17.166-7.258C863.776,169.446,863.749,167.459,862.825,165.782z"/>
<path fill="#231F20" d="M586.438,85.763c-13.246,0-23.381,4.896-31.76,15.385V62.584c0-0.174-0.002-0.337-0.008-0.496l0.008-5.346
	c0-4.171-1.906-6.199-5.834-6.199h-1.277c-3.928,0-5.836,2.028-5.836,6.199v113.697c0,4.171,1.908,6.2,5.836,6.2h1.277
	c3.855,0,5.652-1.972,5.652-6.2v-6.569c5.055,7.141,15.562,14.229,31.211,14.229c24.928,0,42.338-19.06,42.338-46.351
	C628.048,105.102,610.55,85.763,586.438,85.763z M614.913,131.931c0,20.742-12.102,34.678-30.117,34.678
	c-16.705,0-30.297-12.936-30.297-28.837v-20.324c5.703-13.022,16.588-20.193,30.664-20.193
	C602.399,97.254,614.913,111.838,614.913,131.931z"/>
<path fill="#231F20" d="M679.382,85.763c-25.689,0-44.342,19.57-44.342,46.533c0,26.968,18.686,45.803,45.438,45.803
	c24.561,0,37.225-13.938,37.225-19.885c0.006-1.686-0.562-3.146-1.635-4.225c-1.098-1.1-2.648-1.729-4.264-1.729
	c-1.514,0-2.803,0.563-3.514,1.52c-6.088,7.166-12.002,12.646-27.812,12.646c-18.039,0-31.311-12.58-32.459-30.666h66.947
	c3.629,0,5.473-0.705,5.473-4.56v-1.097C720.44,103.17,704.325,85.763,679.382,85.763z M679.382,97.254
	c15.617,0,26.049,10.406,27.342,27.201H648.45C651.224,108.159,663.581,97.254,679.382,97.254z"/>
</svg>
