<?xml version="1.0" encoding="utf-8"?>
<!-- Generator: Adobe Illustrator 16.0.0, SVG Export Plug-In . SVG Version: 6.00 Build 0)  -->
<!DOCTYPE svg PUBLIC "-//W3C//DTD SVG 1.1//EN" "http://www.w3.org/Graphics/SVG/1.1/DTD/svg11.dtd">
<svg version="1.1" id="Layer_1" xmlns="http://www.w3.org/2000/svg" xmlns:xlink="http://www.w3.org/1999/xlink" x="0px" y="0px"
	 width="6414.828px" height="1936.977px" viewBox="0 0 6414.828 1936.977" enable-background="new 0 0 6414.828 1936.977"
	 xml:space="preserve">
<g>
	<path fill="#6762A6" d="M2428.688,1518.859V910.602c0-42.883-31.438-61.383-68.5-61.383c-74.297,0-167.094,18.5-251.344,55.633
		v614.008h-171.312V389.461h171.312v372.602c81.422-29.953,178.5-55.633,275.594-55.633c155.625,0,214.172,95.664,214.172,226.961
		v585.469H2428.688L2428.688,1518.859z M2918.375,1150.492c5.703,204.172,45.703,244.164,171.297,244.164
		c98.531,0,209.906-32.859,295.594-65.711l28.547,128.477c-91.391,41.461-202.75,81.406-335.5,81.406
		c-285.609,0-329.891-157.016-329.891-406.93c0-137.039,10.031-261.281,42.859-375.5c85.656-32.852,199.891-49.969,344.062-49.969
		c234.234,0,305.594,129.945,305.594,356.953v87.109H2918.375L2918.375,1150.492z M3135.344,849.219
		c-51.328,0-132.75,1.422-199.844,14.219c-7.109,34.281-15.719,81.406-18.578,168.516h356.953
		C3273.875,913.414,3252.453,849.219,3135.344,849.219L3135.344,849.219z M3762.125,904.852v614.008h-171.344V827.773
		c144.219-78.508,296.984-102.797,396.969-109.93v142.789C3917.781,866.336,3829.219,874.898,3762.125,904.852L3762.125,904.852z
		 M4440.328,1538.828c-255.625,0-371.266-125.625-371.266-412.633c0-304.125,152.766-419.766,371.266-419.766
		c255.547,0,371.219,125.625,371.219,412.633C4811.547,1423.188,4658.75,1538.828,4440.328,1538.828L4440.328,1538.828z
		 M4440.328,849.219c-131.391,0-204.188,75.648-204.188,276.977c0,219.914,61.391,268.461,204.188,268.461
		c131.328,0,204.172-74.273,204.172-275.594C4644.5,899.148,4583.094,849.219,4440.328,849.219L4440.328,849.219z
		 M5638.172,1518.859h-201.328c-47.094-125.633-112.812-254.156-214.188-365.516h-89.953v365.516h-171.328V389.461h171.328v648.195
		h79.969c87.094-89.961,154.188-201.281,201.328-311.258h192.734c-65.656,132.805-149.891,249.875-244.141,345.539
		C5475.406,1214.727,5563.922,1366.078,5638.172,1518.859L5638.172,1518.859z M5959.328,1538.828
		c-155.594,0-214.141-95.625-214.141-227v-585.43h169.891v606.828c0,42.883,31.391,61.43,68.516,61.43
		c74.25,0,175.625-18.547,259.906-55.68V726.398h171.328v688.227C6212.078,1525.992,6056.422,1538.828,5959.328,1538.828
		L5959.328,1538.828z"/>
	<path fill-rule="evenodd" clip-rule="evenodd" fill="#6762A6" d="M1377.562,1936.977H184.734
		C82.703,1936.977,0,1854.281,0,1752.258V184.727C0,82.703,82.703,0,184.734,0h1192.828c102.016,0,184.75,82.703,184.75,184.727
		v1567.531C1562.312,1854.281,1479.578,1936.977,1377.562,1936.977L1377.562,1936.977z M1498.969,195.273
		c0-72.891-59.094-131.984-131.984-131.984H195.312c-72.906,0-131.953,59.094-131.953,131.984v1546.438
		c0,72.883,59.047,131.977,131.953,131.977h1171.672c72.891,0,131.984-59.094,131.984-131.977V195.273L1498.969,195.273z"/>
	<path fill="#6762A6" d="M979.078,1670.461V901.227c0,0,50.031-184.078-616.312,75.305c-1.219,3.289-1.219-711.312-1.219-711.312
		l217.719-1.336v457.852c0,0,609.609-240.102,609.609,182.086c0,422.273,0,766.641,0,766.641H979.078L979.078,1670.461z
		 M1103.141,540.984c0,0-228.328,0-230.938,0c83.125-101.633,158.375-275.766,158.375-275.766h238.781
		C1269.359,265.219,1228.484,378.695,1103.141,540.984L1103.141,540.984z M365.5,1669.125V1231.07l219.047,219.047L365.5,1669.125
		L365.5,1669.125z"/>
</g>
</svg>
