<?xml version="1.0" encoding="utf-8"?>
<!-- Generator: Adobe Illustrator 16.0.0, SVG Export Plug-In . SVG Version: 6.00 Build 0)  -->
<!DOCTYPE svg PUBLIC "-//W3C//DTD SVG 1.1//EN" "http://www.w3.org/Graphics/SVG/1.1/DTD/svg11.dtd">
<svg version="1.1" id="Layer_1" xmlns="http://www.w3.org/2000/svg" xmlns:xlink="http://www.w3.org/1999/xlink" x="0px" y="0px"
	 width="1818px" height="427.18px" viewBox="0 -42.857 1818 427.18" enable-background="new 0 -42.857 1818 427.18"
	 xml:space="preserve">
<path fill="#020202" d="M2.077,38.813h63.875l52.3,147.965l56.277-147.965h39.062l55.254,146.298l52.374-146.298h64.298
	l-94.905,260.08h-41.358l-55.451-148.211l-57.141,148.211H95.789L2.077,38.813z"/>
<path fill="#020202" d="M1183.83,38.813v28.675c11.783-11.785,24.534-20.629,38.25-26.527c13.694-5.902,28.354-8.842,43.982-8.842
	c33.949,0,62.785,12.83,86.536,38.487c23.737,25.658,35.617,58.556,35.617,98.722c0,38.728-12.273,71.121-36.812,97.174
	c-24.541,26.065-53.634,39.083-87.251,39.083c-14.98,0-28.934-2.67-41.843-8.002c-12.91-5.334-25.731-14.062-38.479-26.179v112.918
	h-64.779V38.813H1183.83z M1252.435,92.353c-20.554,0-37.616,7.025-51.156,21.041c-13.549,14.029-20.319,32.35-20.319,54.985
	c0,23.104,6.771,41.794,20.319,56.057c13.54,14.253,30.603,21.392,51.156,21.392c19.917,0,36.698-7.25,50.319-21.749
	c13.63-14.504,20.436-32.999,20.436-55.462c0-22.309-6.692-40.594-20.08-54.859C1289.73,99.489,1272.839,92.353,1252.435,92.353z"/>
<path fill="#020202" d="M1417.149,38.813h55.939v32.744c6.05-12.908,14.104-22.702,24.143-29.405
	c10.043-6.682,21.037-10.033,32.982-10.033c8.447,0,17.289,2.23,26.536,6.695l-20.319,56.17c-7.647-3.827-13.938-5.73-18.882-5.73
	c-10.038,0-18.527,6.205-25.465,18.64c-6.921,12.432-10.385,36.821-10.385,73.158l0.232,12.667v105.176h-64.782V38.813z"/>
<path fill="#020202" d="M1751.607,38.813h65.269v260.08h-65.269v-27.489c-12.738,12.116-25.502,20.845-38.316,26.179
	c-12.814,5.332-26.709,8.002-41.666,8.002c-33.596,0-62.637-13.018-87.149-39.083c-24.517-26.053-36.78-58.446-36.78-97.174
	c0-40.167,11.87-73.064,35.581-98.722c23.717-25.658,52.529-38.487,86.431-38.487c15.611,0,30.249,2.94,43.933,8.842
	c13.692,5.898,26.355,14.743,37.968,26.527V38.813z M1683.007,92.353c-20.182,0-36.921,7.136-50.273,21.404
	c-13.344,14.265-20.017,32.55-20.017,54.859c0,22.463,6.787,40.958,20.379,55.462c13.572,14.499,30.289,21.749,50.148,21.749
	c20.496,0,37.488-7.139,50.983-21.392c13.499-14.263,20.243-32.952,20.243-56.057c0-22.636-6.744-40.956-20.243-54.985
	C1720.732,99.377,1703.65,92.353,1683.007,92.353z"/>
<path fill="#020202" d="M956.361,28.399c-43.695,0-79.025,21.668-110.426,52.29c6.128,7.946,12.084,15.803,17.885,23.446
	c9.186,12.114,19.003,25.116,28.894,37.374c21.155-22.091,42.161-36.989,63.647-36.989c33.019,0,59.881,27.791,59.881,60.181
	c0,33.243-26.862,60.274-59.881,60.274c-39.271,0-76.95-49.682-116.843-102.265c-28.683-37.809-58.341-76.927-95.162-108.23
	c-45.35-38.547-92.751-57.337-144.913-57.337c-114.616,0-207.861,92.57-207.861,207.558c0,114.99,93.246,207.665,207.861,207.665
	c52.161,0,99.562-18.764,144.913-57.314c22.482-19.111,42.29-41.146,60.84-64.007c-17.088-19.193-33.085-40.223-48.774-60.907
	c-19.328,24.658-39.472,48.333-61.365,66.945c-31.438,26.721-61.816,39.164-95.613,39.164C526.8,296.246,467.7,237.581,467.7,164.7
	c0-72.878,59.1-131.441,131.743-131.441c33.797,0,64.176,12.548,95.613,39.271c30.494,25.921,57.602,61.654,83.818,96.208
	c49.371,65.077,100.419,132.369,177.487,132.369c74.987,0,136-61.192,136-136.406C1092.361,90.2,1031.349,28.399,956.361,28.399z"/>
</svg>
