<?xml version="1.0" encoding="utf-8"?>
<!-- Generator: Adobe Illustrator 16.0.0, SVG Export Plug-In . SVG Version: 6.00 Build 0)  -->
<!DOCTYPE svg PUBLIC "-//W3C//DTD SVG 1.1//EN" "http://www.w3.org/Graphics/SVG/1.1/DTD/svg11.dtd">
<svg version="1.1" id="Layer_1" xmlns="http://www.w3.org/2000/svg" xmlns:xlink="http://www.w3.org/1999/xlink" x="0px" y="0px"
	 width="1818px" height="427.18px" viewBox="0 0 1818 427.18" enable-background="new 0 0 1818 427.18" xml:space="preserve">
<g>
	<path d="M2.077,81.67h63.875l52.3,147.964L174.529,81.67h39.062l55.254,146.298L321.219,81.67h64.298l-94.905,260.08h-41.358
		l-55.451-148.21l-57.141,148.21H95.789L2.077,81.67z"/>
	<path d="M1183.83,81.67v28.675c11.783-11.785,24.534-20.629,38.25-26.527c13.693-5.902,28.354-8.842,43.982-8.842
		c33.948,0,62.784,12.83,86.535,38.487c23.737,25.658,35.617,58.556,35.617,98.722c0,38.729-12.272,71.121-36.812,97.174
		c-24.541,26.064-53.635,39.083-87.251,39.083c-14.98,0-28.935-2.67-41.844-8.002c-12.91-5.334-25.73-14.062-38.479-26.179V427.18
		h-64.779V81.67H1183.83z M1252.436,135.21c-20.555,0-37.616,7.025-51.156,21.041c-13.549,14.029-20.319,32.35-20.319,54.985
		c0,23.104,6.771,41.794,20.319,56.057c13.54,14.254,30.603,21.393,51.156,21.393c19.916,0,36.697-7.25,50.318-21.749
		c13.63-14.504,20.437-32.999,20.437-55.462c0-22.309-6.692-40.594-20.08-54.859C1289.73,142.347,1272.839,135.21,1252.436,135.21z"
		/>
	<path d="M1417.149,81.67h55.938v32.744c6.05-12.908,14.104-22.702,24.143-29.405c10.043-6.682,21.037-10.033,32.982-10.033
		c8.447,0,17.289,2.23,26.536,6.695l-20.319,56.17c-7.646-3.827-13.938-5.73-18.882-5.73c-10.038,0-18.526,6.205-25.465,18.64
		c-6.921,12.432-10.385,36.821-10.385,73.158l0.231,12.667v105.176h-64.781L1417.149,81.67L1417.149,81.67z"/>
	<path d="M1751.607,81.67h65.269v260.08h-65.269v-27.488c-12.738,12.115-25.502,20.845-38.316,26.179
		c-12.814,5.332-26.709,8.002-41.666,8.002c-33.596,0-62.637-13.019-87.149-39.083c-24.517-26.053-36.779-58.445-36.779-97.174
		c0-40.167,11.87-73.064,35.581-98.722c23.717-25.658,52.528-38.487,86.431-38.487c15.611,0,30.249,2.94,43.933,8.842
		c13.692,5.898,26.355,14.743,37.969,26.527V81.67H1751.607z M1683.007,135.21c-20.182,0-36.921,7.136-50.272,21.404
		c-13.345,14.265-20.018,32.55-20.018,54.859c0,22.463,6.787,40.958,20.379,55.462c13.572,14.499,30.289,21.749,50.148,21.749
		c20.496,0,37.488-7.14,50.982-21.392c13.5-14.264,20.243-32.953,20.243-56.058c0-22.636-6.743-40.956-20.243-54.985
		C1720.732,142.234,1703.65,135.21,1683.007,135.21z"/>
	<path d="M956.361,71.256c-43.695,0-79.025,21.668-110.427,52.29c6.128,7.946,12.084,15.803,17.886,23.446
		c9.186,12.114,19.003,25.116,28.894,37.374c21.155-22.091,42.161-36.989,63.647-36.989c33.019,0,59.881,27.791,59.881,60.181
		c0,33.242-26.862,60.273-59.881,60.273c-39.271,0-76.95-49.682-116.844-102.265c-28.683-37.809-58.341-76.927-95.162-108.23
		C699.006,18.791,651.605,0,599.443,0C484.827,0,391.582,92.57,391.582,207.559c0,114.99,93.246,207.665,207.861,207.665
		c52.16,0,99.562-18.765,144.912-57.314c22.482-19.11,42.29-41.146,60.841-64.007c-17.088-19.193-33.085-40.223-48.774-60.906
		c-19.328,24.657-39.472,48.332-61.365,66.944c-31.438,26.722-61.815,39.164-95.612,39.164
		C526.8,339.104,467.7,280.438,467.7,207.558c0-72.878,59.1-131.441,131.743-131.441c33.797,0,64.176,12.548,95.612,39.271
		c30.494,25.921,57.603,61.654,83.818,96.208c49.371,65.077,100.419,132.37,177.487,132.37c74.986,0,136-61.192,136-136.406
		C1092.361,133.058,1031.349,71.256,956.361,71.256z"/>
</g>
</svg>
