<?xml version="1.0" encoding="utf-8"?>
<!-- Generator: Adobe Illustrator 16.0.0, SVG Export Plug-In . SVG Version: 6.00 Build 0)  -->
<!DOCTYPE svg PUBLIC "-//W3C//DTD SVG 1.1//EN" "http://www.w3.org/Graphics/SVG/1.1/DTD/svg11.dtd">
<svg version="1.1" id="Layer_1" xmlns="http://www.w3.org/2000/svg" xmlns:xlink="http://www.w3.org/1999/xlink" x="0px" y="0px"
	 width="297.055px" height="52.586px" viewBox="0 0 297.055 52.586" enable-background="new 0 0 297.055 52.586"
	 xml:space="preserve">
<path d="M61.219,0.001v42.675c0,0-0.433,9.796,11.295,9.796c0,0,6.747-0.549,6.747-2.019c0-1.473-1.035-5.967-1.035-5.967
	s-1.943,1.004-3.516,1.004c-1.57,0-4.965,0.752-4.965-3.385c0-4.134,0-42.105,0-42.105L61.219,0.001L61.219,0.001z"/>
<g>
	<rect x="85.472" y="15.52" width="9.086" height="36.776"/>
	<path d="M95.247,5.405c0,2.887-2.343,5.228-5.232,5.228c-2.884,0-5.228-2.341-5.228-5.228s2.343-5.229,5.228-5.229
		C92.904,0.176,95.247,2.518,95.247,5.405z"/>
</g>
<path d="M124.478,14.659c-8.231,0-11.23,5.572-11.23,5.572V0.001h-8.401v51.946h6.94c0,0,0.26-4.801,0.945-5.229
	c0,0,3.257,5.229,11.145,5.229c6.085,0,17.146-2.916,17.146-17.873C141.022,19.117,132.708,14.659,124.478,14.659z M122.164,45.605
	c-4.917,0-8.036-2.576-8.375-8.488l0.007-6.342c0.362-5.871,3.475-8.397,8.368-8.397c5.205,0,9.428,5.194,9.428,11.61
	S127.369,45.605,122.164,45.605z"/>
<path d="M171.767,16.524l-1.028,6.024c-15.217-2.434-14.246,11.825-14.246,14.858s0,14.89,0,14.89h-8.101V16.524h7.13v5.237
	C155.522,21.761,162.266,13.094,171.767,16.524z"/>
<path d="M206.536,44.662c0-1.415,0.131-19.674,0.131-19.674s-0.771-10.032-14.655-10.032c-12.347,0-15.304,3.603-15.304,3.603
	l3.086,5.016c0,0,16.07-6.174,18.771,2.569v4.501c0,0-7.845-1.925-15.561,0c-9.256,2.187-8.547,11.315-8.547,11.315
	s-0.838,10.03,13.049,10.159c0,0,6.814,0,11.059-4.242c0,0,1.196,4.242,6.431,4.242c2.441,0,6.047,0,6.047,0v-6.516
	C211.041,45.605,206.536,46.074,206.536,44.662z M190.334,46.206c-6.812,1.896-6.685-5.404-6.685-5.404s0.595-4.497,5.528-5.397
	c3.562-0.648,8.743,1.002,8.743,1.002C198.17,39.869,197.109,44.318,190.334,46.206z"/>
<path d="M262.391,14.956c-10.795,0-18.539,8.322-18.539,18.581c0,10.263,7.744,18.582,18.539,18.582
	c10.797,0,18.541-8.319,18.541-18.582C280.932,23.278,273.187,14.956,262.391,14.956z M262.391,44.79
	c-5.799,0-9.498-5.038-9.498-11.253c0-6.213,3.699-11.25,9.498-11.25c5.805,0,9.504,5.038,9.504,11.25
	C271.895,39.752,268.194,44.79,262.391,44.79z"/>
<path d="M41.064,0.001H11.406C5.135,0.001,0,4.227,0,10.618v30.229v11.625h11.406h29.658c6.273,0,11.407-5.229,11.407-11.625V10.618
	V0.001H41.064z M26.152,34.808c-3.817,0-6.913-3.157-6.913-7.05c0-3.886,3.095-7.042,6.913-7.042c3.814,0,6.909,3.156,6.909,7.042
	C33.061,31.65,29.967,34.808,26.152,34.808z"/>
<path d="M238.684,22.376v-6.388h-9.998c0-5.416,0-10.545,0-10.545h-8.484v10.545h-6.848v6.388h6.848v20.248
	c0,0-0.431,9.745,11.239,9.745c0,0,6.712-0.545,6.712-2.006c0-1.465-1.025-5.943-1.025-5.943s-1.936,1.009-3.498,1.009
	c-1.565,0-4.941,0.744-4.941-3.371c0-2.041,0-11.594,0-19.682H238.684L238.684,22.376z"/>
<path d="M297.054,47.188c0,2.983-2.419,5.398-5.402,5.398c-2.985,0-5.403-2.415-5.403-5.398c0-2.986,2.418-5.404,5.403-5.404
	C294.635,41.781,297.054,44.201,297.054,47.188z"/>
</svg>
