<?xml version="1.0" encoding="utf-8"?>
<!-- Generator: Adobe Illustrator 16.0.0, SVG Export Plug-In . SVG Version: 6.00 Build 0)  -->
<!DOCTYPE svg PUBLIC "-//W3C//DTD SVG 1.1//EN" "http://www.w3.org/Graphics/SVG/1.1/DTD/svg11.dtd">
<svg version="1.1" id="Layer_1" xmlns="http://www.w3.org/2000/svg" xmlns:xlink="http://www.w3.org/1999/xlink" x="0px" y="0px"
	 width="568.785px" height="60.668px" viewBox="0 0 568.785 60.668" enable-background="new 0 0 568.785 60.668"
	 xml:space="preserve">
<g>
	<g enable-background="new    ">
		<path d="M8.75,31.273c2.278,0.707,3.874,1.867,4.785,3.479c0.911,1.609,1.367,4.312,1.367,8.105v5.037
			c0,2.391,0.251,3.987,0.755,4.795c0.503,0.805,1.419,1.367,2.747,1.688c0.297,0.065,0.72,0.136,1.27,0.203
			c2.014,0.271,3.021,1.19,3.021,2.769c0,0.766-0.263,1.358-0.788,1.786c-0.526,0.431-1.268,0.646-2.227,0.646
			c-3.861,0-6.58-0.955-8.156-2.863C9.947,55.01,9.16,51.42,9.16,46.148v-4.004c0-2.666-0.376-4.554-1.128-5.658
			c-0.752-1.104-2.598-1.908-5.537-2.408c-0.889-0.137-1.527-0.416-1.914-0.838C0.193,32.818,0,32.164,0,31.275
			c0-0.729,0.159-1.3,0.479-1.709c0.319-0.41,0.832-0.707,1.538-0.89c0.342-0.067,0.832-0.183,1.47-0.342
			c3.782-0.796,5.674-3.4,5.674-7.813v-4.06c0-5.271,0.799-8.877,2.398-10.817s4.329-2.91,8.19-2.91
			c0.937,0,1.662,0.224,2.176,0.671c0.514,0.447,0.771,1.061,0.771,1.84c0,1.583-1.007,2.5-3.021,2.751
			c-0.39,0.069-0.698,0.115-0.927,0.138c-1.442,0.273-2.443,0.836-3.004,1.689c-0.561,0.853-0.841,2.508-0.841,4.964v5.017
			c0,3.801-0.456,6.498-1.367,8.091C12.624,29.487,11.029,30.614,8.75,31.273z"/>
	</g>
	<g enable-background="new    ">
		<path d="M41.768,32.743c0.182,3.28,1.293,5.815,3.333,7.604c2.039,1.789,4.825,2.685,8.357,2.685c2.666,0,5.571-0.714,8.716-2.138
			s5.047-2.137,5.708-2.137c0.684,0,1.253,0.217,1.709,0.65c0.456,0.432,0.684,0.969,0.684,1.604c0,0.662-0.239,1.268-0.718,1.812
			c-0.479,0.547-1.242,1.082-2.29,1.605c-2.279,1.116-4.631,1.973-7.058,2.563c-2.427,0.592-4.836,0.889-7.229,0.889
			c-5.195,0-9.354-1.498-12.476-4.496c-3.122-2.995-4.683-6.967-4.683-11.909c0-5.037,1.652-9.116,4.956-12.237
			c3.304-3.122,7.61-4.683,12.92-4.683c4.808,0,8.795,1.457,11.963,4.375c3.167,2.916,4.751,6.449,4.751,10.595
			c0,1.276-0.268,2.131-0.803,2.563c-0.536,0.435-1.988,0.647-4.358,0.647h-0.513H41.768V32.743z M41.939,28.266H64.19
			c-0.342-2.713-1.476-4.895-3.401-6.547c-1.926-1.651-4.29-2.478-7.092-2.478c-3.031,0-5.583,0.798-7.656,2.394
			C43.967,23.23,42.599,25.44,41.939,28.266z"/>
		<path d="M91.978,42.211h11.348c0.889,0,1.543,0.189,1.965,0.564c0.421,0.375,0.632,0.973,0.632,1.793
			c0,0.936-0.2,1.578-0.598,1.932c-0.399,0.355-1.134,0.529-2.205,0.529H80.767c-0.889,0-1.561-0.205-2.017-0.615
			s-0.684-1.025-0.684-1.846c0-0.797,0.233-1.389,0.701-1.777c0.467-0.387,1.19-0.58,2.17-0.58h5.947v-21.91H84.56
			c-2.21,0-3.589-0.176-4.136-0.529c-0.547-0.354-0.82-0.997-0.82-1.932c0-0.797,0.222-1.396,0.667-1.793
			c0.444-0.398,1.122-0.599,2.034-0.599h7.793c0.615,0,1.082,0.12,1.401,0.358c0.319,0.24,0.479,0.588,0.479,1.043v5.811
			c2.165-2.711,4.42-4.729,6.768-6.05c2.347-1.321,4.876-1.981,7.588-1.981c2.028,0,3.668,0.409,4.922,1.229
			c1.253,0.819,1.88,1.88,1.88,3.179c0,0.844-0.313,1.59-0.94,2.239s-1.316,0.974-2.068,0.974c-0.524,0-1.407-0.347-2.649-1.041
			c-1.242-0.695-2.353-1.043-3.333-1.043c-1.777,0-3.652,0.633-5.623,1.897c-1.971,1.265-4.153,3.265-6.545,5.999V42.211
			L91.978,42.211z"/>
		<path d="M133.985,42.211h11.348c0.889,0,1.543,0.189,1.965,0.564c0.421,0.375,0.632,0.973,0.632,1.793
			c0,0.936-0.2,1.578-0.598,1.932c-0.399,0.355-1.134,0.529-2.205,0.529h-22.354c-0.889,0-1.561-0.205-2.017-0.615
			s-0.684-1.025-0.684-1.846c0-0.797,0.233-1.389,0.701-1.777c0.467-0.387,1.19-0.58,2.17-0.58h5.947v-21.91h-2.324
			c-2.21,0-3.589-0.176-4.136-0.529c-0.547-0.353-0.82-0.997-0.82-1.932c0-0.797,0.222-1.396,0.667-1.793
			c0.444-0.398,1.122-0.599,2.034-0.599h7.793c0.615,0,1.082,0.12,1.401,0.358c0.319,0.24,0.479,0.588,0.479,1.043v5.811
			c2.165-2.711,4.42-4.729,6.768-6.05c2.347-1.321,4.876-1.981,7.588-1.981c2.028,0,3.668,0.409,4.922,1.229
			c1.253,0.819,1.88,1.88,1.88,3.179c0,0.844-0.313,1.59-0.94,2.239s-1.316,0.974-2.068,0.974c-0.524,0-1.407-0.347-2.649-1.041
			c-1.242-0.695-2.353-1.043-3.333-1.043c-1.777,0-3.652,0.633-5.623,1.897c-1.971,1.265-4.153,3.265-6.545,5.999L133.985,42.211
			L133.985,42.211z"/>
		<path d="M197.285,31.273c0,4.877-1.664,8.863-4.99,11.963c-3.327,3.1-7.645,4.647-12.954,4.647c-5.287,0-9.593-1.551-12.92-4.647
			c-3.327-3.101-4.99-7.086-4.99-11.963c0-4.876,1.663-8.857,4.99-11.945c3.327-3.087,7.633-4.631,12.92-4.631
			c5.286,0,9.599,1.55,12.937,4.647C195.616,22.444,197.285,26.42,197.285,31.273z M179.341,43.1c3.509,0,6.386-1.11,8.63-3.334
			c2.244-2.221,3.367-5.053,3.367-8.492c0-3.44-1.128-6.282-3.384-8.527c-2.256-2.243-5.127-3.366-8.613-3.366
			c-3.486,0-6.352,1.123-8.596,3.366c-2.245,2.245-3.367,5.087-3.367,8.527c0,3.463,1.116,6.301,3.35,8.51
			C172.961,41.994,175.832,43.1,179.341,43.1z"/>
		<path d="M217.998,42.211h11.348c0.889,0,1.543,0.189,1.965,0.564c0.421,0.375,0.632,0.973,0.632,1.793
			c0,0.936-0.2,1.578-0.598,1.932c-0.399,0.355-1.134,0.529-2.205,0.529h-22.353c-0.889,0-1.561-0.205-2.017-0.615
			s-0.684-1.025-0.684-1.846c0-0.797,0.233-1.389,0.701-1.777c0.467-0.387,1.19-0.58,2.17-0.58h5.947v-21.91h-2.324
			c-2.21,0-3.589-0.176-4.136-0.529c-0.547-0.354-0.82-0.997-0.82-1.932c0-0.797,0.222-1.396,0.667-1.793
			c0.444-0.398,1.122-0.599,2.034-0.599h7.793c0.615,0,1.082,0.12,1.401,0.358c0.319,0.24,0.479,0.588,0.479,1.043v5.811
			c2.165-2.711,4.42-4.729,6.768-6.05c2.347-1.321,4.876-1.981,7.588-1.981c2.028,0,3.668,0.409,4.922,1.229
			c1.253,0.819,1.88,1.88,1.88,3.179c0,0.844-0.313,1.59-0.94,2.239s-1.316,0.974-2.068,0.974c-0.524,0-1.407-0.347-2.649-1.041
			c-1.242-0.695-2.353-1.043-3.333-1.043c-1.777,0-3.652,0.633-5.623,1.897c-1.971,1.265-4.153,3.265-6.545,5.999V42.211
			L217.998,42.211z"/>
	</g>
	<g>
		<path d="M273.643,17.499v-0.137c0-0.752,0.217-1.305,0.648-1.658c0.434-0.354,1.105-0.529,2.018-0.529
			c0.934,0,1.576,0.272,1.93,0.819c0.354,0.547,0.531,1.675,0.531,3.384v6.358c0,0.843-0.217,1.476-0.65,1.896
			c-0.433,0.422-1.082,0.633-1.946,0.633c-0.615,0-1.146-0.176-1.591-0.529c-0.443-0.354-0.985-1.088-1.623-2.204
			c-1.094-1.847-2.422-3.242-3.982-4.188c-1.561-0.944-3.355-1.418-5.383-1.418c-3.555,0-6.443,1.049-8.665,3.146
			c-2.222,2.097-3.333,4.808-3.333,8.135c0,3.395,1.065,6.168,3.196,8.322c2.13,2.152,4.871,3.229,8.22,3.229
			c1.525,0,2.979-0.211,4.357-0.633s2.684-1.053,3.914-1.896c0.434-0.272,1.015-0.694,1.744-1.268
			c1.48-1.207,2.643-1.811,3.486-1.811c0.705,0,1.281,0.223,1.725,0.666c0.445,0.442,0.668,1.02,0.668,1.727
			c0,1.801-1.705,3.641-5.109,5.521c-3.407,1.879-7.023,2.817-10.852,2.817c-4.945,0-9.063-1.584-12.356-4.752
			c-3.293-3.166-4.939-7.118-4.939-11.858c0-4.739,1.641-8.698,4.922-11.877c3.281-3.18,7.383-4.768,12.305-4.768
			c1.73,0,3.469,0.233,5.212,0.7C269.833,15.795,271.683,16.52,273.643,17.499z"/>
		<path d="M293.809,32.743c0.183,3.28,1.293,5.815,3.332,7.604s4.825,2.685,8.356,2.685c2.666,0,5.57-0.714,8.717-2.138
			c3.146-1.424,5.047-2.137,5.707-2.137c0.685,0,1.254,0.217,1.709,0.65c0.455,0.432,0.685,0.969,0.685,1.604
			c0,0.662-0.237,1.268-0.718,1.812c-0.479,0.547-1.242,1.082-2.29,1.605c-2.279,1.116-4.632,1.973-7.06,2.563
			c-2.426,0.592-4.836,0.889-7.229,0.889c-5.193,0-9.354-1.498-12.477-4.496c-3.123-2.995-4.684-6.967-4.684-11.909
			c0-5.037,1.65-9.116,4.956-12.237c3.304-3.122,7.61-4.683,12.921-4.683c4.807,0,8.795,1.457,11.963,4.375
			c3.166,2.916,4.75,6.449,4.75,10.595c0,1.276-0.269,2.131-0.803,2.563c-0.535,0.435-1.988,0.647-4.357,0.647h-0.514h-22.967
			L293.809,32.743L293.809,32.743z M293.98,28.266h22.251c-0.342-2.713-1.476-4.895-3.399-6.547
			c-1.926-1.651-4.289-2.478-7.092-2.478c-3.031,0-5.585,0.798-7.656,2.394C296.007,23.23,294.64,25.44,293.98,28.266z"/>
		<path d="M338.55,55.779h8.203c0.865,0,1.516,0.205,1.947,0.615c0.434,0.41,0.649,1.024,0.649,1.846
			c0,0.889-0.211,1.516-0.634,1.881c-0.422,0.363-1.168,0.547-2.237,0.547h-15.073c-0.912,0-1.602-0.205-2.066-0.615
			c-0.469-0.41-0.7-1.014-0.7-1.811c0-0.912,0.291-1.549,0.87-1.914c0.582-0.365,1.658-0.547,3.23-0.547h0.648v-35.48h-0.648
			c-1.572,0-2.648-0.182-3.23-0.547c-0.579-0.363-0.87-1.002-0.87-1.914c0-0.797,0.231-1.396,0.7-1.793
			c0.467-0.398,1.154-0.599,2.066-0.599h5.195c0.684,0,1.18,0.114,1.486,0.342c0.308,0.229,0.461,0.581,0.461,1.06v3.315
			c1.55-1.595,3.265-2.79,5.146-3.589c1.879-0.797,3.9-1.195,6.064-1.195c4.58,0,8.408,1.549,11.484,4.647
			c3.075,3.098,4.614,6.983,4.614,11.656c0,4.487-1.459,8.181-4.375,11.073c-2.918,2.896-6.644,4.341-11.178,4.341
			c-2.416,0-4.64-0.427-6.665-1.279c-2.028-0.855-3.727-2.08-5.094-3.674v13.635H338.55z M349.146,42.074
			c3.167,0,5.766-0.996,7.793-2.99s3.042-4.574,3.042-7.742c0-3.1-1.021-5.656-3.062-7.674c-2.037-2.017-4.631-3.024-7.773-3.024
			s-5.721,1.003-7.727,3.007c-2.006,2.006-3.008,4.568-3.008,7.691c0,3.145,0.996,5.719,2.99,7.725
			C343.398,41.072,345.978,42.074,349.146,42.074z"/>
		<path d="M398.708,17.363c1.115,0,1.93,0.194,2.443,0.581c0.512,0.388,0.77,1.003,0.77,1.846c0,0.799-0.24,1.396-0.719,1.795
			c-0.48,0.399-1.195,0.598-2.152,0.598h-13.844V33.6c0,3.735,0.483,6.196,1.453,7.385c0.969,1.184,2.625,1.774,4.973,1.774
			c2.074,0,4.559-0.604,7.451-1.811c2.895-1.207,4.684-1.812,5.367-1.812c0.637,0,1.178,0.229,1.623,0.687
			c0.441,0.455,0.666,1.014,0.666,1.674c0,0.752-0.279,1.408-0.838,1.965c-0.561,0.561-1.512,1.102-2.855,1.625
			c-2.232,0.889-4.244,1.537-6.033,1.947c-1.788,0.41-3.469,0.615-5.04,0.615c-2.666,0-4.904-0.428-6.718-1.281
			c-1.811-0.855-3.162-2.125-4.051-3.812c-0.455-0.797-0.781-1.742-0.973-2.838c-0.195-1.094-0.291-2.777-0.291-5.059V33.6V22.182
			h-5.812c-0.957,0-1.649-0.188-2.084-0.564c-0.434-0.376-0.647-0.984-0.647-1.829c0-0.934,0.295-1.571,0.89-1.913
			c0.592-0.343,1.854-0.514,3.793-0.514h3.862v-7.007V8.543c0-0.979,0.209-1.703,0.634-2.171c0.42-0.467,1.075-0.701,1.965-0.701
			c1.002,0,1.696,0.285,2.084,0.854c0.387,0.57,0.582,1.869,0.582,3.896v6.938h13.502V17.363L398.708,17.363z"/>
		<path d="M434.56,42.211h10.975c0.889,0,1.543,0.189,1.965,0.564s0.633,0.973,0.633,1.793c0,0.936-0.201,1.578-0.598,1.932
			c-0.4,0.355-1.135,0.529-2.205,0.529h-26.523c-0.912,0-1.596-0.205-2.051-0.615c-0.457-0.41-0.684-1.025-0.684-1.846
			c0-0.797,0.236-1.389,0.717-1.777c0.479-0.387,1.197-0.58,2.154-0.58h10.424v-21.91h-6.664c-0.938,0-1.646-0.209-2.137-0.631
			c-0.492-0.422-0.734-1.031-0.734-1.83c0-0.797,0.229-1.396,0.684-1.793c0.455-0.398,1.139-0.599,2.051-0.599h10.016
			c0.615,0,1.098,0.125,1.451,0.376s0.531,0.594,0.531,1.025V42.21L434.56,42.211L434.56,42.211z M428.24,5.605
			c0-2.461,0.223-4.01,0.666-4.648S430.298,0,431.757,0c1.412,0,2.35,0.268,2.803,0.803c0.455,0.536,0.686,1.806,0.686,3.811
			c0,1.96-0.211,3.173-0.631,3.641c-0.424,0.467-1.375,0.7-2.855,0.7c-1.459,0-2.408-0.216-2.854-0.649
			C428.46,7.872,428.24,6.971,428.24,5.605z"/>
		<path d="M491.333,31.273c0,4.877-1.664,8.863-4.99,11.963c-3.326,3.099-7.645,4.647-12.953,4.647
			c-5.285,0-9.596-1.551-12.922-4.647c-3.326-3.101-4.986-7.086-4.986-11.963c0-4.876,1.66-8.857,4.986-11.945
			c3.326-3.087,7.637-4.631,12.922-4.631s9.6,1.55,12.939,4.647C489.666,22.444,491.333,26.42,491.333,31.273z M473.388,43.1
			c3.512,0,6.389-1.11,8.631-3.334c2.242-2.221,3.365-5.053,3.365-8.492c0-3.44-1.127-6.282-3.383-8.527
			c-2.256-2.243-5.127-3.366-8.613-3.366c-3.484,0-6.354,1.123-8.596,3.366c-2.246,2.245-3.367,5.087-3.367,8.527
			c0,3.463,1.115,6.301,3.352,8.51C467.007,41.994,469.878,43.1,473.388,43.1z"/>
		<path d="M502.679,42.211v-21.91h-0.646c-1.549,0-2.613-0.182-3.195-0.547c-0.58-0.363-0.871-1.002-0.871-1.914
			c0-0.843,0.238-1.453,0.719-1.828c0.479-0.377,1.252-0.564,2.322-0.564h1.607h3.279c0.613,0,1.096,0.125,1.438,0.376
			s0.512,0.593,0.512,1.024v2.324c1.664-1.549,3.311-2.693,4.939-3.435c1.629-0.74,3.318-1.11,5.076-1.11
			c3.438,0,6.145,1.07,8.115,3.213c1.973,2.142,2.955,5.104,2.955,8.885v15.484h1.607c1.139,0,1.959,0.189,2.461,0.564
			c0.5,0.375,0.752,0.973,0.752,1.793c0,0.889-0.27,1.521-0.805,1.896c-0.535,0.377-1.486,0.563-2.854,0.563h-7.555
			c-1.459,0-2.395-0.17-2.803-0.514c-0.41-0.342-0.615-0.99-0.615-1.947c0-0.891,0.24-1.504,0.719-1.848
			c0.479-0.342,1.377-0.512,2.699-0.512h1.197V27.993c0-2.666-0.605-4.699-1.812-6.102c-1.209-1.401-2.963-2.103-5.264-2.103
			c-2.324,0-4.375,0.786-6.152,2.358s-2.666,3.521-2.666,5.845V42.21h1.195c1.367,0,2.291,0.17,2.77,0.513
			c0.479,0.342,0.719,0.957,0.719,1.846c0,0.957-0.205,1.606-0.615,1.949c-0.41,0.342-1.414,0.512-3.008,0.512h-6.223h-1.846
			c-0.934,0-1.635-0.199-2.102-0.598c-0.471-0.398-0.701-1.021-0.701-1.863c0-0.91,0.268-1.531,0.803-1.861s1.578-0.496,3.129-0.496
			H502.679z"/>
		<path d="M560.037,31.239c-2.303-0.662-3.914-1.798-4.838-3.406c-0.922-1.609-1.383-4.309-1.383-8.097v-5.017
			c0-2.412-0.254-4.032-0.758-4.862c-0.506-0.831-1.395-1.405-2.678-1.724c-0.299-0.068-0.746-0.137-1.34-0.205
			c-1.969-0.271-2.953-1.131-2.953-2.581c0-0.86,0.24-1.511,0.721-1.953c0.48-0.441,1.199-0.662,2.158-0.662
			c3.859,0,6.592,0.965,8.189,2.895c1.6,1.929,2.398,5.518,2.398,10.763v4.06c0,4.437,1.846,7.041,5.537,7.813
			c0.705,0.138,1.24,0.25,1.605,0.343c0.729,0.207,1.26,0.514,1.59,0.917c0.33,0.402,0.496,0.977,0.496,1.713
			c0,0.785-0.178,1.408-0.531,1.869c-0.352,0.461-0.895,0.763-1.623,0.899c-0.25,0.045-0.604,0.113-1.059,0.205
			c-4.014,0.774-6.02,3.418-6.02,7.931v3.967c0,5.283-0.787,8.887-2.361,10.801c-1.576,1.914-4.297,2.871-8.154,2.871
			c-0.984,0-1.721-0.225-2.211-0.668c-0.492-0.443-0.736-1.109-0.736-1.998c0-1.459,0.982-2.324,2.951-2.6
			c0.412-0.048,0.711-0.093,0.893-0.138c1.488-0.252,2.508-0.772,3.057-1.571c0.549-0.8,0.824-2.438,0.824-4.923v-5.059
			c0-3.748,0.463-6.439,1.385-8.074C556.123,33.118,557.734,31.947,560.037,31.239z"/>
	</g>
</g>
</svg>
