<?xml version="1.0" encoding="utf-8"?>
<!-- Generator: Adobe Illustrator 16.0.0, SVG Export Plug-In . SVG Version: 6.00 Build 0)  -->
<!DOCTYPE svg PUBLIC "-//W3C//DTD SVG 1.1//EN" "http://www.w3.org/Graphics/SVG/1.1/DTD/svg11.dtd">
<svg version="1.1" id="Layer_1" xmlns="http://www.w3.org/2000/svg" xmlns:xlink="http://www.w3.org/1999/xlink" x="0px" y="0px"
	 width="384.449px" height="245.936px" viewBox="0 0 384.449 245.936" enable-background="new 0 0 384.449 245.936"
	 xml:space="preserve">
<g>
	<g>
		<path fill="#434344" d="M77.809,0.182C69.736,1.37,61.662,2.557,53.587,3.744c-1.136,0.166-2.251,0.352-3.348,0.554
			c-0.062,0.012-0.122,0.026-0.184,0.037c-0.402,0.075-0.789,0.162-1.185,0.243c-0.624,0.125-1.254,0.242-1.864,0.379
			c-0.122,0.027-0.239,0.062-0.361,0.088c-0.442,0.104-0.871,0.212-1.305,0.318c-0.483,0.119-0.977,0.229-1.451,0.354
			c-0.184,0.05-0.358,0.105-0.541,0.154c-0.44,0.121-0.871,0.248-1.305,0.375c-0.385,0.113-0.78,0.215-1.158,0.332
			c-0.239,0.074-0.465,0.156-0.703,0.232c-0.414,0.133-0.823,0.27-1.232,0.407c-0.59,0.201-1.173,0.408-1.75,0.619
			c-0.401,0.148-0.801,0.297-1.194,0.449c-0.191,0.074-0.391,0.143-0.581,0.219C35.029,8.664,34.647,8.836,34.258,9
			c-0.351,0.148-0.705,0.293-1.047,0.444c-0.639,0.28-1.26,0.575-1.877,0.872c-0.269,0.13-0.545,0.254-0.811,0.387
			c-0.044,0.021-0.092,0.041-0.137,0.064c-0.821,0.411-1.625,0.837-2.409,1.274c-0.011,0.006-0.025,0.013-0.036,0.02
			c-0.113,0.062-0.216,0.132-0.328,0.192c-0.625,0.354-1.249,0.714-1.851,1.085c-0.076,0.047-0.147,0.099-0.223,0.146
			c-0.278,0.172-0.543,0.352-0.817,0.526c-0.509,0.329-1.015,0.661-1.509,1.001c-0.29,0.202-0.573,0.407-0.857,0.611
			c-0.269,0.192-0.546,0.382-0.811,0.577c-0.145,0.108-0.275,0.225-0.418,0.334c-0.563,0.431-1.113,0.871-1.652,1.317
			c-0.196,0.161-0.408,0.314-0.601,0.479c-0.073,0.062-0.138,0.128-0.21,0.19c-0.718,0.616-1.415,1.246-2.088,1.89
			c-0.059,0.058-0.125,0.109-0.184,0.167c-0.008,0.006-0.014,0.014-0.02,0.02c-0.741,0.716-1.449,1.45-2.134,2.194
			c-0.045,0.048-0.096,0.095-0.139,0.143c-0.153,0.168-0.289,0.344-0.439,0.512c-0.471,0.528-0.933,1.06-1.375,1.602
			c-0.096,0.115-0.201,0.228-0.295,0.344c-0.133,0.164-0.247,0.337-0.378,0.503c-0.208,0.266-0.429,0.524-0.632,0.794
			c-0.23,0.304-0.44,0.617-0.661,0.927c-0.127,0.173-0.266,0.34-0.389,0.516c-0.073,0.104-0.134,0.211-0.206,0.314
			c-0.513,0.742-1.003,1.492-1.472,2.252c-0.056,0.092-0.12,0.178-0.176,0.269c-0.009,0.017-0.017,0.03-0.026,0.046
			c-0.53,0.875-1.025,1.763-1.5,2.658c-0.04,0.074-0.085,0.145-0.124,0.218c-0.089,0.172-0.165,0.35-0.253,0.522
			c-0.338,0.663-0.663,1.33-0.972,2.004c-0.072,0.157-0.156,0.312-0.227,0.468c-0.059,0.132-0.105,0.268-0.164,0.399
			c-0.401,0.922-0.784,1.852-1.133,2.789c-0.034,0.086-0.071,0.172-0.102,0.258c-0.367,1-0.695,2.01-1.002,3.021
			c-0.04,0.133-0.091,0.264-0.131,0.396c-0.052,0.178-0.089,0.357-0.141,0.535c-0.088,0.307-0.185,0.608-0.267,0.918
			c-0.139,0.518-0.258,1.04-0.383,1.562c-0.053,0.228-0.114,0.452-0.165,0.681c-0.233,1.034-0.436,2.072-0.613,3.114
			c-0.014,0.084-0.036,0.167-0.049,0.25c-0.028,0.166-0.042,0.331-0.068,0.496c-0.135,0.86-0.252,1.722-0.349,2.582
			c-0.031,0.256-0.062,0.514-0.089,0.771c-0.107,1.054-0.19,2.105-0.244,3.159c-0.001,0.043-0.006,0.088-0.009,0.131
			c-0.006,0.139-0.003,0.272-0.009,0.41C0.019,59.253,0,60.152,0,61.05c0,0.279,0,0.56,0.003,0.838
			c0.014,1.056,0.043,2.109,0.107,3.156l1.49,62.369c0.291,4.768,1.045,9.266,2.231,13.475c1.183,4.197,2.795,8.101,4.804,11.689
			c2.001,3.576,4.396,6.838,7.151,9.762c2.744,2.912,5.842,5.49,9.264,7.711c7.079,4.597,14.154,9.193,21.231,13.789
			c-3.725-2.418-7.097-5.231-10.082-8.42c-2.999-3.203-5.605-6.783-7.783-10.715c-2.187-3.947-3.938-8.246-5.223-12.875
			c-1.285-4.641-2.1-9.604-2.407-14.873l-1.484-68.99c-0.066-1.16-0.097-2.33-0.108-3.5c-0.003-0.307-0.003-0.61-0.003-0.918
			c0.003-0.989,0.025-1.981,0.068-2.977c0.009-0.207,0.013-0.412,0.022-0.617c0.062-1.168,0.156-2.336,0.275-3.502
			c0.029-0.279,0.065-0.561,0.097-0.84c0.109-0.952,0.239-1.905,0.389-2.856c0.043-0.279,0.083-0.561,0.131-0.84
			c0.198-1.167,0.426-2.33,0.687-3.489c0.045-0.194,0.097-0.391,0.142-0.586c0.233-0.991,0.493-1.979,0.773-2.963
			c0.083-0.292,0.167-0.584,0.253-0.876c0.349-1.15,0.72-2.3,1.133-3.435c0.02-0.055,0.043-0.105,0.062-0.16
			c0.398-1.078,0.837-2.146,1.297-3.205c0.136-0.317,0.278-0.631,0.42-0.944c0.331-0.726,0.678-1.443,1.038-2.158
			c0.154-0.306,0.302-0.612,0.461-0.916c0.518-0.982,1.058-1.955,1.635-2.916c0.061-0.102,0.127-0.197,0.188-0.299
			c0.528-0.862,1.083-1.716,1.659-2.56c0.197-0.287,0.403-0.569,0.605-0.854c0.478-0.67,0.97-1.331,1.481-1.984
			c0.227-0.294,0.454-0.587,0.689-0.876c0.492-0.606,1.005-1.203,1.525-1.793c0.215-0.242,0.418-0.489,0.638-0.729
			c0.749-0.819,1.521-1.627,2.327-2.415c0.093-0.089,0.193-0.173,0.286-0.263c0.723-0.696,1.469-1.379,2.239-2.046
			c0.275-0.239,0.565-0.472,0.846-0.707c0.61-0.509,1.229-1.011,1.865-1.499c0.423-0.324,0.851-0.646,1.285-0.963
			c0.328-0.237,0.652-0.476,0.985-0.709c0.522-0.363,1.059-0.717,1.598-1.071c0.316-0.205,0.625-0.415,0.948-0.618
			c0.723-0.453,1.465-0.895,2.219-1.326c0.146-0.084,0.284-0.172,0.433-0.256c0.905-0.51,1.834-1.002,2.783-1.479
			c0.295-0.147,0.604-0.287,0.903-0.434c0.659-0.318,1.323-0.637,2.006-0.94c0.395-0.176,0.803-0.345,1.208-0.517
			c0.611-0.26,1.226-0.516,1.853-0.764c0.436-0.171,0.88-0.336,1.325-0.502c0.619-0.229,1.248-0.455,1.884-0.673
			c0.457-0.157,0.919-0.312,1.385-0.462c0.643-0.207,1.297-0.404,1.955-0.598c0.493-0.146,0.985-0.291,1.487-0.431
			c0.708-0.192,1.429-0.375,2.153-0.554c0.469-0.116,0.933-0.237,1.41-0.347c0.823-0.189,1.666-0.361,2.511-0.531
			c0.403-0.08,0.795-0.17,1.203-0.246c1.226-0.23,2.472-0.441,3.743-0.63c0.04-0.005,0.077-0.014,0.116-0.02L77.809,0.182z"/>
		<polygon fill="#434344" points="77.807,0.182 77.809,0.182 77.814,0.179 		"/>
	</g>
	<path fill="#434344" d="M100.159,193.41c-4.457,0.604-8.78,0.913-12.97,0.975l1.552,31.889l26.467,18.662l-2.39-53.244
		L100.159,193.41z"/>
	<g>
		<path fill="#002C43" d="M355.955,119.136c0.004,0.021-0.055,0.002-0.164-0.045c-0.109-0.046-0.275-0.123-0.49-0.225
			c-0.215-0.104-0.479-0.232-0.783-0.383c-0.307-0.152-0.656-0.324-1.041-0.517c-0.602-0.297-1.289-0.639-2.053-1.012
			c-0.762-0.375-1.598-0.781-2.488-1.209c-0.891-0.43-1.838-0.879-2.824-1.34c-0.985-0.459-2.01-0.931-3.055-1.4
			c-1.727-0.772-3.506-1.544-5.256-2.258c-1.76-0.716-3.49-1.377-5.113-1.93c-1.627-0.553-3.146-0.996-4.469-1.277
			c-1.326-0.281-2.461-0.397-3.312-0.296c-0.069,0.007-0.139,0.017-0.204,0.029c-0.066,0.011-0.132,0.021-0.193,0.037
			c-0.063,0.015-0.125,0.029-0.184,0.048c-0.058,0.019-0.113,0.037-0.168,0.057c0.022,0.105,0.153,0.686,0.342,1.562
			s0.428,2.055,0.672,3.354c0.244,1.303,0.488,2.729,0.687,4.107c0.194,1.378,0.342,2.709,0.385,3.819
			c0.014,0.296,0.016,0.574,0.012,0.83c-0.006,0.256-0.02,0.492-0.041,0.704c-0.023,0.212-0.059,0.399-0.102,0.561
			c-0.045,0.157-0.098,0.289-0.164,0.391l-1.732-1.562l-12.275-11.065l0.228,4.688l-4.813,6.136l3.846-1.37
			c0.193-0.031,0.369-0.029,0.527,0c0.155,0.029,0.295,0.087,0.414,0.168c0.118,0.081,0.219,0.186,0.295,0.311
			c0.078,0.124,0.133,0.269,0.164,0.428c0.037,0.183,0.041,0.367,0.015,0.545s-0.079,0.349-0.157,0.503
			c-0.078,0.153-0.182,0.294-0.302,0.408c-0.123,0.113-0.265,0.202-0.421,0.262l-6.76,2.438l0.354,2.943l0.392,3.225
			c0.021,0.191,0.008,0.377-0.033,0.557c-0.039,0.178-0.107,0.344-0.198,0.492c-0.091,0.146-0.204,0.277-0.335,0.381
			c-0.133,0.102-0.281,0.178-0.441,0.217c-0.217-0.012-0.404-0.047-0.562-0.104c-0.158-0.055-0.291-0.129-0.399-0.223
			c-0.106-0.093-0.19-0.199-0.252-0.324c-0.062-0.121-0.101-0.258-0.119-0.402l-0.394-3.314l-0.192-1.613l-1.808,1.976l-2.127,2.324
			c-0.055,0.057-0.108,0.104-0.168,0.149c-0.059,0.045-0.116,0.084-0.18,0.117c-0.062,0.033-0.125,0.059-0.188,0.08
			c-0.062,0.021-0.13,0.035-0.193,0.043c-0.09,0.014-0.176,0.014-0.263,0.002c-0.086-0.01-0.171-0.031-0.253-0.064
			c-0.08-0.032-0.158-0.075-0.23-0.131c-0.073-0.057-0.144-0.123-0.202-0.198c-0.101-0.128-0.175-0.271-0.226-0.427
			c-0.048-0.155-0.067-0.319-0.065-0.485c0.006-0.166,0.032-0.332,0.088-0.492c0.054-0.157,0.131-0.312,0.233-0.444l2.713-2.979
			l-7.34,1.698c-0.047,0.009-0.088,0.015-0.127,0.019c-0.037,0.004-0.069,0.007-0.101,0.007c-0.03,0.002-0.061,0-0.084-0.003
			c-0.024-0.004-0.051-0.006-0.073-0.01c-0.119-0.019-0.236-0.06-0.347-0.117c-0.104-0.062-0.203-0.139-0.289-0.233
			c-0.086-0.096-0.158-0.209-0.215-0.336c-0.057-0.125-0.096-0.267-0.115-0.418c-0.021-0.188-0.008-0.375,0.035-0.554
			c0.045-0.178,0.115-0.346,0.211-0.495c0.096-0.147,0.215-0.279,0.351-0.384c0.137-0.103,0.289-0.178,0.456-0.215l10.829-2.474
			l6.661-8.485l-0.202-4.25c-0.55-0.005-1.21-0.025-1.962-0.076c-0.754-0.053-1.604-0.136-2.522-0.27
			c-0.922-0.132-1.916-0.311-2.971-0.553c-1.054-0.244-2.164-0.552-3.312-0.938l-0.164,3.411l-4.84,6.116l3.914-1.389
			c0.195-0.031,0.375-0.027,0.537,0.002c0.16,0.03,0.303,0.089,0.426,0.171c0.121,0.081,0.226,0.188,0.305,0.313
			c0.08,0.125,0.14,0.27,0.175,0.431c0.037,0.186,0.039,0.372,0.014,0.554c-0.026,0.181-0.082,0.354-0.161,0.513
			c-0.08,0.157-0.186,0.299-0.31,0.411c-0.123,0.115-0.267,0.204-0.427,0.258l-6.883,2.446l-0.729,3.722
			c-0.031,0.158-0.086,0.307-0.156,0.438c-0.069,0.133-0.157,0.252-0.256,0.354c-0.101,0.1-0.211,0.184-0.332,0.246
			c-0.118,0.062-0.248,0.104-0.379,0.119c-0.024,0.002-0.049,0.008-0.069,0.01c-0.023,0-0.048,0.002-0.072,0.002
			c-0.023,0-0.047-0.002-0.07-0.004s-0.049-0.006-0.072-0.01c-0.172-0.031-0.326-0.1-0.459-0.193
			c-0.133-0.097-0.244-0.223-0.326-0.367c-0.086-0.146-0.145-0.312-0.172-0.486c-0.027-0.178-0.021-0.364,0.016-0.559l0.261-1.311
			l-2.884,2.436c-0.049,0.041-0.096,0.078-0.146,0.107c-0.05,0.031-0.101,0.061-0.149,0.082c-0.051,0.022-0.103,0.041-0.154,0.059
			c-0.051,0.014-0.102,0.023-0.154,0.03c-0.148-0.013-0.279-0.028-0.395-0.06c-0.113-0.027-0.211-0.062-0.299-0.105
			c-0.084-0.047-0.156-0.1-0.219-0.158c-0.062-0.062-0.113-0.131-0.16-0.211c-0.027-0.047-0.056-0.096-0.076-0.145
			c-0.022-0.049-0.041-0.099-0.058-0.146c-0.018-0.053-0.03-0.104-0.041-0.156c-0.012-0.053-0.02-0.105-0.024-0.158
			c-0.012-0.127-0.012-0.254,0.007-0.379c0.017-0.127,0.049-0.25,0.095-0.367c0.047-0.119,0.104-0.231,0.18-0.336
			c0.074-0.104,0.16-0.197,0.26-0.276l1.783-1.517l-4.73,0.271l-1.432,0.082c-0.194-0.023-0.369-0.074-0.52-0.149
			c-0.15-0.076-0.277-0.177-0.38-0.295c-0.101-0.119-0.179-0.258-0.229-0.41c-0.051-0.151-0.074-0.319-0.072-0.495
			c0.002-0.103,0.015-0.202,0.033-0.3c0.021-0.096,0.049-0.188,0.082-0.279c0.037-0.09,0.08-0.175,0.131-0.254
			c0.049-0.08,0.105-0.151,0.168-0.221c0.051-0.055,0.104-0.104,0.16-0.15c0.058-0.045,0.117-0.087,0.182-0.121
			c0.062-0.032,0.129-0.062,0.195-0.086c0.068-0.021,0.141-0.036,0.211-0.047l9.529-0.522c0.035-0.088,0.078-0.172,0.125-0.248
			c0.049-0.078,0.103-0.15,0.158-0.215c0.057-0.064,0.119-0.123,0.186-0.175c0.068-0.051,0.136-0.096,0.209-0.131l6.164-7.774
			l0.158-3.27c-0.297-0.125-0.595-0.257-0.894-0.394c-0.3-0.136-0.601-0.279-0.903-0.428c-0.302-0.148-0.604-0.306-0.908-0.468
			c-0.303-0.16-0.605-0.328-0.91-0.503c-2.514-1.441-5.049-3.337-7.434-5.823c-2.396-2.496-4.642-5.592-6.56-9.422
			c-1.927-3.844-3.526-8.429-4.618-13.888c-1.096-5.476-1.682-11.825-1.577-19.182c0-0.117-0.003-0.766,0.002-1.723
			s0.017-2.225,0.046-3.584c0.028-1.359,0.074-2.812,0.147-4.139c0.071-1.324,0.171-2.521,0.306-3.373
			c-0.02-0.063-0.127-0.426-0.26-0.986c-0.133-0.56-0.29-1.322-0.411-2.191c-0.118-0.868-0.2-1.844-0.179-2.832
			c0.021-0.989,0.145-1.989,0.433-2.906c0.056,0.048,0.364,0.311,0.81,0.696c0.441,0.388,1.021,0.897,1.613,1.446
			c0.594,0.546,1.203,1.128,1.713,1.655c0.506,0.528,0.914,1.002,1.104,1.335c0.271-0.021,1.146,0.105,2.353,0.566
			c1.2,0.459,2.733,1.25,4.327,2.559c1.591,1.304,3.24,3.119,4.687,5.631c1.44,2.506,2.682,5.701,3.455,9.776
			c0.351,0.22,2.271,1.427,5.102,3.339c2.812,1.902,6.52,4.496,10.458,7.5c3.911,2.984,8.048,6.371,11.78,9.894
			c3.707,3.497,7.02,7.131,9.318,10.648c0.969,1.585,3.465,3.363,6.676,5.143c3.192,1.771,7.086,3.534,10.881,5.108
			c3.772,1.563,7.451,2.941,10.267,3.954c2.806,1.009,4.761,1.658,5.115,1.777c-0.076,0.04-0.501,0.265-1.132,0.583
			c-0.631,0.317-1.471,0.731-2.377,1.148c-0.909,0.419-1.887,0.843-2.793,1.181c-0.903,0.339-1.737,0.591-2.356,0.667
			c-0.493,0.065-0.771,0.438-0.882,0.996c-0.113,0.559-0.062,1.307,0.098,2.128c0.16,0.819,0.43,1.714,0.76,2.566
			c0.326,0.854,0.711,1.664,1.104,2.32c0.1,0.165,0.197,0.32,0.297,0.467c0.098,0.144,0.196,0.275,0.292,0.396
			c0.097,0.119,0.19,0.226,0.284,0.313C355.777,119.004,355.867,119.08,355.955,119.136z M319.593,91.844
			c0.414,0.836,0.813,1.708,1.201,2.619c0.385,0.91,0.754,1.859,1.104,2.85c0.351,0.987,0.683,2.017,0.99,3.085
			c0.312,1.067,0.598,2.18,0.859,3.332c-0.01-0.068-0.062-0.451-0.191-1.084c-0.127-0.634-0.33-1.517-0.637-2.588
			c-0.307-1.072-0.717-2.332-1.262-3.722C321.117,94.945,320.436,93.427,319.593,91.844c-1.641-3.308-3.446-6.021-5.245-8.234
			c-1.804-2.223-3.599-3.94-5.205-5.251c-1.613-1.314-3.033-2.22-4.084-2.806c-1.052-0.587-1.729-0.856-1.853-0.905
			c-0.142-0.086-0.276-0.158-0.412-0.221c-0.135-0.062-0.269-0.108-0.396-0.146c-0.127-0.037-0.248-0.064-0.36-0.078
			c-0.115-0.014-0.22-0.017-0.313-0.008c-0.177,0.016-0.312,0.071-0.4,0.162c-0.088,0.092-0.123,0.22-0.094,0.383
			c0.033,0.166,0.133,0.365,0.315,0.598c0.183,0.234,0.449,0.501,0.812,0.801c2.23,0.869,4.234,1.928,6.031,3.115
			c1.789,1.187,3.377,2.499,4.779,3.886c1.4,1.385,2.623,2.841,3.688,4.311C317.919,88.916,318.824,90.401,319.593,91.844
			 M284.932,55.296c0.266-0.183,0.489-0.417,0.668-0.687c0.176-0.271,0.305-0.576,0.381-0.896c0.078-0.319,0.104-0.656,0.069-0.988
			c-0.03-0.333-0.118-0.664-0.271-0.971c-0.104-0.215-0.235-0.403-0.383-0.565s-0.312-0.3-0.487-0.405
			c-0.179-0.106-0.367-0.185-0.562-0.233c-0.197-0.046-0.398-0.063-0.602-0.049c-0.084,0.006-0.17,0.02-0.252,0.035
			c-0.086,0.019-0.17,0.042-0.252,0.071c-0.084,0.028-0.168,0.064-0.25,0.104c-0.08,0.042-0.162,0.088-0.24,0.144
			c-0.268,0.181-0.49,0.416-0.668,0.686c-0.18,0.27-0.307,0.572-0.383,0.894c-0.076,0.32-0.102,0.655-0.066,0.987
			c0.033,0.334,0.123,0.662,0.275,0.971c0.105,0.218,0.234,0.408,0.383,0.572c0.146,0.163,0.312,0.299,0.486,0.407
			c0.178,0.106,0.367,0.187,0.562,0.233c0.192,0.047,0.396,0.062,0.599,0.048c0.084-0.007,0.168-0.02,0.252-0.037
			c0.084-0.017,0.168-0.04,0.25-0.071c0.084-0.028,0.166-0.063,0.246-0.104C284.77,55.398,284.854,55.349,284.932,55.296"/>
	</g>
	<g>
		<path fill="#FFFFFF" d="M180.946,61.052l13.81-0.325c0.104-0.004,0.201,0.013,0.285,0.05c0.086,0.037,0.162,0.095,0.225,0.171
			c0.062,0.078,0.111,0.175,0.148,0.293c0.031,0.117,0.051,0.254,0.051,0.41l0.037,5.356l0.285-0.01
			c0.541-0.785,1.092-1.565,1.66-2.303c0.568-0.736,1.156-1.427,1.771-2.027c0.617-0.6,1.262-1.106,1.945-1.479
			c0.686-0.374,1.404-0.611,2.178-0.67c0.021-0.002,0.041-0.004,0.062-0.007c0.021-0.001,0.039-0.002,0.062-0.002
			c0.021-0.002,0.041-0.004,0.062-0.004c0.021-0.002,0.043-0.002,0.062-0.002c1.15-0.024,2.197,0.47,3.121,1.304
			c0.922,0.832,1.723,2.002,2.379,3.329c0.656,1.328,1.17,2.812,1.521,4.276c0.354,1.462,0.541,2.904,0.551,4.147
			c0.002,0.188-0.004,0.371-0.023,0.534c-0.02,0.166-0.051,0.316-0.1,0.442c-0.049,0.128-0.113,0.233-0.199,0.312
			c-0.088,0.074-0.193,0.124-0.326,0.134c-0.146,0.005-0.273-0.029-0.389-0.095c-0.111-0.065-0.211-0.165-0.301-0.286
			c-0.09-0.123-0.17-0.271-0.246-0.437c-0.074-0.166-0.145-0.346-0.215-0.539c-0.387-1.039-0.85-1.921-1.373-2.658
			c-0.521-0.735-1.105-1.327-1.734-1.786c-0.629-0.462-1.299-0.787-1.996-0.994c-0.695-0.209-1.422-0.297-2.152-0.277
			c-0.018,0.002-0.033,0.002-0.051,0.002s-0.033,0.002-0.053,0.003c-0.018,0-0.033,0.001-0.051,0.003
			c-0.018,0-0.031,0.002-0.051,0.004c-0.98,0.08-1.867,0.541-2.646,1.312c-0.776,0.77-1.444,1.852-1.985,3.168
			c-0.545,1.316-0.963,2.869-1.24,4.585c-0.277,1.714-0.418,3.59-0.4,5.553l0.459,56.304c0,0.158,0.002,0.307,0.006,0.438
			c0.004,0.135,0.008,0.261,0.018,0.378c0.011,0.112,0.021,0.219,0.041,0.312c0.021,0.095,0.05,0.179,0.084,0.253l4.769,5.016
			c0.104,0.066,0.193,0.146,0.267,0.229c0.071,0.087,0.131,0.179,0.174,0.271c0.045,0.093,0.076,0.188,0.096,0.277
			c0.021,0.09,0.029,0.176,0.029,0.256c0,0.104-0.016,0.192-0.045,0.271s-0.072,0.145-0.131,0.194
			c-0.06,0.053-0.131,0.097-0.22,0.127c-0.088,0.033-0.188,0.058-0.307,0.072l-18.917,1.573c-0.146,0.013-0.272,0.013-0.38,0
			c-0.107-0.014-0.198-0.039-0.27-0.084c-0.07-0.041-0.123-0.1-0.16-0.176c-0.035-0.076-0.053-0.172-0.052-0.289
			c-0.001-0.078,0.007-0.168,0.025-0.262c0.019-0.096,0.048-0.195,0.091-0.297c0.043-0.104,0.102-0.203,0.173-0.303
			c0.074-0.098,0.164-0.193,0.272-0.279l4.341-5.797c0.067-0.082,0.118-0.172,0.157-0.271c0.039-0.103,0.062-0.209,0.08-0.328
			c0.018-0.115,0.024-0.242,0.029-0.381c0.004-0.137,0.004-0.283,0-0.438l-0.67-71.06c-0.001-0.16-0.012-0.299-0.031-0.424
			c-0.021-0.125-0.052-0.232-0.097-0.33c-0.045-0.1-0.104-0.188-0.178-0.268c-0.074-0.084-0.167-0.159-0.276-0.234l-4.191-4.328
			c-0.11-0.114-0.201-0.231-0.278-0.348c-0.076-0.116-0.136-0.229-0.183-0.339c-0.045-0.108-0.08-0.213-0.099-0.311
			c-0.021-0.098-0.028-0.188-0.026-0.27c-0.002-0.107,0.012-0.201,0.039-0.277c0.028-0.079,0.073-0.143,0.133-0.194
			c0.062-0.052,0.137-0.092,0.229-0.119C180.717,61.08,180.824,61.063,180.946,61.052z"/>
	</g>
	<g>
		<path fill="#FFFFFF" d="M179.835,138.701c0.077-0.007,0.145,0.008,0.199,0.041c0.057,0.032,0.104,0.081,0.141,0.146
			s0.062,0.146,0.083,0.238c0.019,0.092,0.029,0.197,0.032,0.312c-0.128,1.121-0.42,2.267-0.838,3.354
			c-0.418,1.092-0.965,2.131-1.604,3.045c-0.642,0.916-1.373,1.705-2.166,2.295c-0.791,0.593-1.645,0.982-2.519,1.101
			c-0.019,0.004-0.037,0.006-0.056,0.008c-0.018,0.003-0.035,0.005-0.053,0.007c-0.019,0.002-0.037,0.004-0.056,0.008
			c-0.017,0-0.036,0.002-0.054,0.004c-1.116,0.098-2.103-0.019-2.979-0.281c-0.877-0.267-1.646-0.686-2.332-1.197
			c-0.686-0.518-1.286-1.127-1.829-1.777c-0.541-0.651-1.021-1.346-1.468-2.02c-0.555,0.729-1.194,1.488-1.901,2.221
			c-0.709,0.734-1.486,1.441-2.312,2.074c-0.828,0.633-1.705,1.188-2.613,1.621c-0.91,0.432-1.853,0.734-2.807,0.861
			c-0.032,0.008-0.064,0.012-0.098,0.016c-0.032,0.004-0.064,0.008-0.097,0.012s-0.065,0.006-0.098,0.01
			c-0.032,0.002-0.065,0.006-0.097,0.008c-1.439,0.123-2.969,0.003-4.459-0.586c-1.494-0.59-2.948-1.649-4.232-3.411
			c-1.29-1.767-2.408-4.232-3.227-7.636c-0.817-3.405-1.334-7.748-1.416-13.254c-0.071-4.504,0.031-8.199,0.479-11.441
			c0.45-3.243,1.245-6.033,2.56-8.727c1.312-2.69,3.141-5.285,5.654-8.139c2.508-2.844,5.692-5.943,9.715-9.648
			c0.729-0.672,1.273-1.266,1.68-1.881c0.406-0.613,0.675-1.252,0.848-2.01c0.174-0.758,0.256-1.639,0.287-2.74
			c0.031-1.101,0.012-2.427-0.012-4.074c-0.02-1.767-0.127-3.198-0.354-4.354c-0.227-1.152-0.568-2.027-1.056-2.678
			c-0.488-0.649-1.121-1.072-1.931-1.326c-0.809-0.254-1.791-0.336-2.98-0.303c-0.034,0.002-0.068,0.004-0.102,0.005
			c-0.035,0-0.068,0.003-0.103,0.005s-0.067,0.003-0.103,0.006c-0.037,0.002-0.07,0.005-0.104,0.008
			c-1.075,0.085-2.249,0.385-3.45,0.831s-2.428,1.04-3.6,1.716c-1.176,0.676-2.297,1.435-3.285,2.205
			c-0.99,0.771-1.848,1.559-2.492,2.289c-0.068,0.074-0.145,0.143-0.229,0.203c-0.084,0.06-0.174,0.112-0.266,0.156
			c-0.095,0.043-0.191,0.08-0.291,0.104c-0.101,0.027-0.203,0.045-0.306,0.053c-0.104,0.006-0.192-0.012-0.267-0.047
			c-0.074-0.036-0.135-0.09-0.182-0.159c-0.047-0.07-0.078-0.156-0.1-0.257c-0.021-0.1-0.033-0.211-0.033-0.337
			c-0.008-0.476,0.496-1.538,1.384-2.872c0.886-1.334,2.156-2.938,3.683-4.503c1.524-1.562,3.306-3.081,5.216-4.246
			c1.905-1.163,3.938-1.976,5.976-2.128c0.042-0.004,0.082-0.006,0.122-0.01c0.042-0.002,0.082-0.004,0.122-0.006
			s0.08-0.003,0.12-0.004c0.041-0.002,0.081-0.004,0.121-0.004c1.337-0.033,2.921,0.149,4.549,0.703
			c1.625,0.551,3.289,1.469,4.792,2.905c1.5,1.434,2.836,3.384,3.811,6.002c0.97,2.612,1.58,5.896,1.625,9.996l0.633,57.375
			c0.006,0.506,0.046,1.004,0.123,1.459c0.078,0.457,0.195,0.873,0.352,1.228c0.158,0.351,0.354,0.636,0.594,0.824
			c0.237,0.188,0.519,0.286,0.846,0.262c0.015,0,0.031,0,0.049-0.002c0.015-0.002,0.031-0.004,0.048-0.006s0.032-0.004,0.051-0.006
			c0.017-0.003,0.033-0.005,0.05-0.007c0.344-0.045,0.694-0.137,1.043-0.274c0.35-0.142,0.697-0.33,1.035-0.571
			c0.338-0.242,0.664-0.535,0.975-0.888c0.311-0.351,0.602-0.758,0.869-1.224c0.068-0.084,0.131-0.166,0.187-0.241
			c0.056-0.076,0.106-0.146,0.157-0.211c0.051-0.062,0.102-0.113,0.158-0.154C179.706,138.737,179.767,138.711,179.835,138.701z
			 M162.901,133.987l-0.512-41.668l-0.3,0.014c-2.001,1.971-3.646,3.808-4.985,5.71c-1.342,1.908-2.375,3.879-3.151,6.115
			c-0.775,2.238-1.292,4.738-1.603,7.699c-0.31,2.961-0.412,6.379-0.356,10.456c0.063,4.551,0.214,8.185,0.458,11.066
			c0.244,2.881,0.578,5.017,1.007,6.574c0.429,1.557,0.95,2.539,1.565,3.115s1.326,0.748,2.131,0.684
			c0.013-0.002,0.025-0.002,0.039-0.002c0.015-0.002,0.027-0.002,0.027-0.002c0.027-0.004,0.041-0.004,0.055-0.006
			c0.013-0.002,0.025-0.004,0.041-0.006c0.787-0.104,1.535-0.492,2.211-1.086c0.676-0.597,1.281-1.396,1.785-2.316
			c0.506-0.92,0.91-1.967,1.186-3.051C162.772,136.198,162.916,135.071,162.901,133.987"/>
	</g>
	<g>
		<path fill="#FFFFFF" d="M283.75,50.5c0.201-0.016,0.402,0.003,0.602,0.049c0.193,0.05,0.383,0.127,0.562,0.233
			c0.178,0.105,0.34,0.243,0.487,0.405c0.146,0.162,0.275,0.352,0.384,0.565c0.149,0.307,0.237,0.638,0.271,0.971
			c0.03,0.331,0.008,0.669-0.07,0.988c-0.076,0.32-0.205,0.626-0.381,0.896c-0.177,0.27-0.4,0.504-0.668,0.687
			c-0.078,0.054-0.158,0.102-0.238,0.143c-0.082,0.041-0.162,0.075-0.246,0.104c-0.082,0.031-0.168,0.055-0.25,0.071
			c-0.086,0.019-0.169,0.03-0.254,0.037c-0.201,0.015-0.402,0-0.598-0.048c-0.195-0.049-0.386-0.127-0.562-0.233
			c-0.176-0.108-0.34-0.244-0.486-0.407c-0.146-0.164-0.275-0.354-0.383-0.573c-0.15-0.308-0.242-0.636-0.275-0.97
			c-0.033-0.332-0.01-0.667,0.066-0.988c0.076-0.319,0.205-0.623,0.383-0.893s0.4-0.505,0.668-0.686
			c0.078-0.056,0.16-0.102,0.24-0.144c0.082-0.039,0.166-0.075,0.25-0.104c0.082-0.029,0.166-0.054,0.252-0.071
			C283.58,50.519,283.666,50.506,283.75,50.5z"/>
	</g>
	<path fill="#FFFFFF" d="M383.55,42.225c-0.58-3.493-1.438-6.853-2.559-10.037c-1.123-3.195-2.515-6.22-4.16-9.033
		c-1.649-2.824-3.56-5.44-5.713-7.81c-2.318-2.551-4.896-4.797-7.712-6.729c-2.829-1.943-5.897-3.568-9.19-4.869
		c-3.31-1.309-6.844-2.288-10.584-2.926c-3.76-0.646-7.729-0.942-11.885-0.887L93.358-1c-0.222,0.003-0.441,0.006-0.663,0.01
		c-0.219,0.002-0.438,0.007-0.656,0.011c-0.219,0.005-0.438,0.01-0.656,0.014c-0.218,0.006-0.436,0.012-0.653,0.02
		c-13.355,0.429-24.629,2.901-34.002,6.89c-9.475,4.034-16.952,9.594-22.66,16.114c-5.74,6.557-9.662,14.052-12.035,21.906
		c-2.375,7.865-3.187,16.06-2.727,24.004l1.484,68.99c0.596,10.209,3.093,19.279,7.239,27.031
		c4.117,7.699,9.846,14.07,16.926,18.961c7.009,4.842,15.324,8.219,24.688,9.996c5.508,1.047,11.377,1.521,17.546,1.438
		c4.189-0.061,8.513-0.371,12.97-0.975l12.659-1.721l2.39,53.244l87.042-65.311l129.807-14.166c0.15-0.021,0.305-0.043,0.457-0.064
		c0.152-0.023,0.305-0.049,0.459-0.07c0.15-0.023,0.305-0.049,0.457-0.072c0.15-0.024,0.305-0.051,0.457-0.074
		c7.764-1.26,14.75-3.651,20.848-7.002c6.048-3.321,11.24-7.592,15.466-12.649c4.204-5.035,7.467-10.865,9.663-17.34
		c2.195-6.468,3.343-13.601,3.306-21.264l1.281-53.859C384.434,49.334,384.13,45.711,383.55,42.225z M377.688,107.33
		c0.037,6.694-0.986,12.925-2.951,18.567c-1.967,5.655-4.887,10.737-8.646,15.125c-3.779,4.41-8.422,8.125-13.822,11.013
		c-5.44,2.905-11.668,4.979-18.582,6.062c-0.143,0.021-0.283,0.044-0.428,0.064c-0.141,0.02-0.283,0.041-0.424,0.061
		c-0.141,0.021-0.275,0.037-0.41,0.058c-0.135,0.019-0.266,0.035-0.395,0.054l-130.803,13.584l-0.945,0.102l-77.829,57.965
		l-2.082-47.568l-20.166,2.615l-0.438,0.057c-4.577,0.597-8.9,0.883-12.986,0.902c-6.529,0.033-12.446-0.627-17.771-1.879
		c-8.759-2.064-15.899-5.709-21.579-10.436c-5.727-4.767-9.949-10.611-12.841-17.017c-2.908-6.434-4.462-13.407-4.861-20.387
		l-1.402-68.614c-0.494-8.778,0.698-16.849,3.416-24.038c2.714-7.178,6.942-13.447,12.509-18.656
		c5.536-5.182,12.376-9.293,20.34-12.197c7.889-2.881,16.856-4.564,26.716-4.938c0.204-0.008,0.406-0.014,0.61-0.02
		c0.203-0.008,0.406-0.015,0.607-0.019c0.203-0.005,0.402-0.01,0.599-0.013c0.198-0.005,0.393-0.007,0.584-0.011l238.074-0.395
		c3.797-0.074,7.412,0.169,10.832,0.716c3.399,0.547,6.604,1.396,9.602,2.539c2.979,1.138,5.748,2.563,8.289,4.273
		c2.531,1.701,4.838,3.682,6.9,5.934c1.887,2.057,3.547,4.303,4.977,6.717c1.426,2.41,2.625,4.988,3.591,7.718
		c0.964,2.723,1.696,5.595,2.192,8.598c0.496,2.999,0.756,6.129,0.771,9.373L377.688,107.33z"/>
	<g>
		<path fill="#FFFFFF" d="M303.207,74.647c0.123,0.049,0.801,0.318,1.854,0.905c1.051,0.586,2.472,1.49,4.084,2.806
			c1.605,1.311,3.4,3.028,5.205,5.251c1.799,2.214,3.605,4.928,5.244,8.234c-0.77-1.441-1.674-2.928-2.734-4.396
			c-1.062-1.47-2.285-2.926-3.688-4.311c-1.402-1.387-2.99-2.699-4.779-3.886c-1.797-1.188-3.801-2.246-6.031-3.115
			c-0.362-0.3-0.631-0.565-0.812-0.801c-0.185-0.231-0.282-0.432-0.315-0.598c-0.029-0.163,0.006-0.291,0.094-0.383
			s0.227-0.146,0.4-0.162c0.096-0.009,0.198-0.006,0.313,0.008c0.112,0.014,0.233,0.041,0.36,0.078
			c0.127,0.038,0.261,0.086,0.396,0.146C302.93,74.488,303.066,74.561,303.207,74.647z"/>
	</g>
	<g>
		<g>
			<path fill="#961B1F" d="M324.904,107.246c0.854-0.102,1.986,0.016,3.312,0.297c1.324,0.281,2.844,0.726,4.471,1.277
				c1.623,0.553,3.354,1.213,5.111,1.93c1.752,0.714,3.529,1.484,5.256,2.258c1.045,0.471,2.068,0.939,3.057,1.4
				c0.984,0.461,1.935,0.91,2.824,1.34c0.892,0.428,1.728,0.834,2.488,1.209c0.762,0.371,1.449,0.715,2.051,1.012
				c-0.539,0.064-1.108,0.103-1.717,0.104c-0.607,0.003-1.248-0.026-1.928-0.095c-0.682-0.067-1.396-0.175-2.154-0.325
				c-0.756-0.149-1.553-0.345-2.391-0.587c-1.695-0.492-3.15-0.903-4.402-1.238c-1.256-0.337-2.305-0.598-3.188-0.791
				s-1.598-0.319-2.182-0.386c-0.584-0.067-1.037-0.073-1.396-0.028c-0.354,0.043-0.617,0.137-0.826,0.271
				c-0.211,0.135-0.369,0.311-0.512,0.52c-0.139,0.21-0.262,0.453-0.404,0.721c-0.145,0.271-0.307,0.564-0.523,0.875
				c-0.1,0.143-0.303,0.324-0.604,0.54c-0.303,0.219-0.699,0.471-1.182,0.749c-0.48,0.279-1.049,0.588-1.688,0.917
				c-0.644,0.331-1.358,0.684-2.142,1.048c-0.043-1.11-0.188-2.441-0.385-3.819c-0.197-1.379-0.44-2.806-0.688-4.107
				c-0.244-1.301-0.482-2.479-0.672-3.354c-0.188-0.878-0.316-1.457-0.342-1.562c0.055-0.02,0.111-0.039,0.168-0.057
				c0.061-0.019,0.119-0.033,0.184-0.048c0.064-0.016,0.127-0.026,0.193-0.038C324.766,107.263,324.835,107.254,324.904,107.246z"/>
		</g>
		<g>
			<path fill="#961B1F" d="M353.718,109.729c1.216,0.321,2.242,0.588,3.119,0.82c0.875,0.231,1.603,0.432,2.213,0.624
				c0.609,0.193,1.104,0.38,1.521,0.584c0.416,0.203,0.752,0.425,1.046,0.689c-0.021,0.051-0.123,0.331-0.349,0.742
				c-0.229,0.41-0.576,0.952-1.09,1.522c-0.514,0.573-1.188,1.179-2.068,1.715c-0.881,0.537-1.967,1.009-3.301,1.312
				c-0.391-0.656-0.774-1.469-1.104-2.321c-0.33-0.852-0.602-1.746-0.762-2.565c-0.16-0.821-0.213-1.569-0.103-2.128
				C352.957,110.166,353.232,109.795,353.718,109.729z"/>
		</g>
		<g>
			<path fill="#961B1F" d="M312.16,114.807l-0.227-4.688l12.276,11.065c-1.274,0.561-2.664,1.142-4.14,1.719
				c-1.479,0.582-3.043,1.162-4.657,1.724c-1.617,0.562-3.291,1.104-4.979,1.602c-1.695,0.498-3.412,0.955-5.111,1.352l-0.355-2.943
				l6.762-2.438c0.154-0.059,0.297-0.147,0.42-0.262c0.121-0.114,0.224-0.254,0.304-0.408c0.077-0.154,0.131-0.325,0.155-0.503
				c0.025-0.177,0.021-0.362-0.014-0.545c-0.031-0.159-0.088-0.304-0.16-0.429s-0.166-0.23-0.271-0.316
				c-0.104-0.082-0.223-0.146-0.35-0.185c-0.125-0.036-0.263-0.047-0.396-0.029c-0.02,0.001-0.037,0.005-0.057,0.008
				c-0.019,0.005-0.037,0.007-0.056,0.013c-0.021,0.004-0.036,0.009-0.057,0.017c-0.019,0.006-0.039,0.012-0.058,0.018l-3.846,1.37
				L312.16,114.807z"/>
		</g>
		<g>
			<path fill="#961B1F" d="M281.395,122.019l4.731-0.271l-1.785,1.516c-0.098,0.08-0.185,0.176-0.258,0.277
				c-0.074,0.104-0.133,0.217-0.181,0.336c-0.047,0.117-0.077,0.239-0.094,0.367c-0.02,0.125-0.02,0.252-0.008,0.379
				c-0.217-0.236-0.43-0.468-0.639-0.695c-0.207-0.227-0.412-0.445-0.611-0.664c-0.201-0.219-0.396-0.43-0.592-0.637
				C281.77,122.418,281.58,122.217,281.395,122.019z"/>
		</g>
		<g>
			<path fill="#961B1F" d="M300.977,128.441l1.809-1.976l0.191,1.613c-0.168,0.033-0.336,0.066-0.502,0.098
				c-0.168,0.031-0.336,0.062-0.502,0.095c-0.166,0.03-0.334,0.06-0.498,0.088C301.307,128.388,301.143,128.416,300.977,128.441z"/>
		</g>
		<g>
			<path fill="#961B1F" d="M309.564,109.686l0.203,4.25l-6.662,8.485l-10.828,2.475c-0.168,0.037-0.32,0.111-0.457,0.215
				c-0.135,0.104-0.254,0.232-0.351,0.383c-0.094,0.15-0.166,0.318-0.211,0.496c-0.043,0.178-0.055,0.365-0.034,0.553
				c0.021,0.152,0.061,0.293,0.116,0.418c0.056,0.127,0.127,0.24,0.213,0.336c0.087,0.097,0.185,0.174,0.289,0.234
				c0.109,0.059,0.228,0.1,0.347,0.117c0.024,0.004,0.049,0.006,0.071,0.01c0.023,0.004,0.05,0.004,0.074,0.004
				c0.022,0,0.047,0,0.071,0c0.023,0,0.048-0.004,0.072-0.008l0.021-0.002c0.008-0.002,0.02-0.004,0.023-0.004l0.022-0.006
				c0.009-0.004,0.017-0.004,0.022-0.008l7.341-1.697l-2.616,2.865c-0.01,0.012-0.02,0.021-0.025,0.029
				c-0.008,0.008-0.016,0.018-0.022,0.024c-0.007,0.01-0.017,0.021-0.022,0.026c-0.007,0.011-0.015,0.021-0.021,0.029
				c-1.311,0.109-2.57,0.148-3.762,0.107c-1.193-0.041-2.316-0.166-3.351-0.385c-1.032-0.219-1.978-0.529-2.81-0.949
				s-1.551-0.949-2.139-1.598c-0.024-0.025-0.049-0.055-0.072-0.082c-0.024-0.025-0.051-0.053-0.073-0.082
				c-0.025-0.023-0.052-0.053-0.074-0.08c-0.024-0.023-0.051-0.053-0.073-0.078c0.019,0.002,0.036,0.004,0.057,0.004
				s0.039,0,0.059,0s0.037,0,0.057-0.002c0.021-0.002,0.039-0.006,0.06-0.008c0.053-0.006,0.104-0.018,0.153-0.031
				c0.054-0.016,0.104-0.031,0.152-0.057c0.053-0.021,0.104-0.051,0.152-0.082s0.098-0.066,0.146-0.107l2.883-2.436l-0.262,1.311
				c-0.039,0.191-0.043,0.381-0.016,0.559c0.025,0.176,0.084,0.342,0.166,0.486c0.082,0.146,0.188,0.271,0.314,0.367
				c0.127,0.098,0.271,0.168,0.434,0.197c0.033,0.002,0.066,0.008,0.098,0.008c0.029,0.002,0.059,0.002,0.084,0.002
				c0.027,0,0.053,0,0.078-0.002c0.021-0.003,0.045-0.008,0.069-0.01c0.132-0.019,0.261-0.06,0.38-0.121
				c0.119-0.061,0.23-0.146,0.332-0.244c0.098-0.104,0.184-0.223,0.256-0.354c0.07-0.134,0.123-0.281,0.156-0.438l0.729-3.722
				l6.885-2.447c0.158-0.053,0.304-0.142,0.426-0.257c0.125-0.112,0.229-0.254,0.31-0.412c0.08-0.156,0.136-0.332,0.162-0.513
				c0.024-0.181,0.022-0.367-0.015-0.553c-0.034-0.161-0.094-0.306-0.168-0.434c-0.078-0.125-0.174-0.231-0.28-0.317
				c-0.109-0.086-0.229-0.149-0.359-0.187c-0.129-0.037-0.266-0.051-0.405-0.032c-0.019,0.002-0.039,0.005-0.058,0.008
				s-0.037,0.008-0.055,0.012c-0.021,0.004-0.039,0.01-0.06,0.015c-0.021,0.007-0.037,0.014-0.059,0.02l-3.912,1.389l4.84-6.117
				l0.164-3.41c1.146,0.386,2.256,0.692,3.311,0.938c1.054,0.242,2.05,0.421,2.972,0.553s1.769,0.217,2.522,0.268
				C308.355,109.66,309.016,109.681,309.564,109.686z"/>
		</g>
		<g>
			<path fill="#961B1F" d="M290.132,118.002c-0.073,0.035-0.141,0.08-0.207,0.131c-0.065,0.052-0.129,0.109-0.187,0.175
				c-0.059,0.063-0.108,0.136-0.157,0.215c-0.05,0.076-0.093,0.16-0.127,0.248l-9.445,0.518h-0.021
				c-0.006,0.002-0.012,0.002-0.021,0.002l-0.021,0.001c0,0-0.016,0.001-0.021,0.003c-0.07,0.01-0.141,0.025-0.209,0.047
				c-0.068,0.023-0.135,0.054-0.197,0.086c-0.062,0.034-0.123,0.076-0.18,0.121c-0.061,0.046-0.111,0.097-0.162,0.15
				c-1.053-1.074-1.963-1.959-2.773-2.689c-0.812-0.731-1.526-1.307-2.182-1.762c-0.654-0.456-1.25-0.789-1.828-1.039
				c-0.58-0.249-1.143-0.411-1.729-0.524c-0.725-0.138-1.045-0.623-0.934-1.297c0.112-0.675,0.662-1.535,1.686-2.425
				c1.021-0.886,2.51-1.797,4.502-2.574c1.986-0.771,4.471-1.408,7.48-1.75c0.354-0.041,0.723-0.077,1.096-0.107
				c0.371-0.032,0.752-0.061,1.139-0.083c0.389-0.021,0.783-0.041,1.186-0.053c0.402-0.015,0.812-0.021,1.229-0.025
				c0.396-0.001,0.791-0.009,1.189-0.018c0.396-0.013,0.795-0.025,1.194-0.042c0.398-0.018,0.801-0.037,1.201-0.062
				c0.4-0.022,0.803-0.05,1.205-0.079c0.305,0.175,0.609,0.343,0.912,0.503c0.305,0.162,0.605,0.318,0.908,0.467
				s0.604,0.292,0.902,0.429s0.596,0.269,0.895,0.394l-0.16,3.27L290.132,118.002z"/>
		</g>
	</g>
	<g>
		<path fill="#FFFFFF" d="M212.003,29.965l13.295-0.037c0.136,0,0.244,0.021,0.334,0.059c0.089,0.038,0.156,0.097,0.207,0.175
			c0.054,0.077,0.086,0.173,0.106,0.289c0.021,0.115,0.031,0.251,0.033,0.406l0.258,63.836l0.273-0.015l9.01-26.504
			c0.131-0.311,0.213-0.629,0.252-0.946c0.039-0.316,0.032-0.633-0.01-0.937c-0.043-0.305-0.121-0.598-0.232-0.871
			c-0.11-0.272-0.254-0.526-0.42-0.75l-2.555-3.781c-0.035-0.074-0.068-0.142-0.104-0.199c-0.029-0.061-0.061-0.11-0.086-0.156
			c-0.023-0.048-0.047-0.089-0.062-0.13c-0.017-0.041-0.025-0.078-0.025-0.117c0-0.069,0.008-0.131,0.025-0.186
			c0.018-0.056,0.047-0.103,0.09-0.143c0.041-0.04,0.098-0.073,0.17-0.097c0.071-0.025,0.162-0.041,0.271-0.051l13.771-0.317
			c0.099-0.005,0.181,0.001,0.248,0.021c0.066,0.018,0.119,0.049,0.162,0.096c0.041,0.045,0.07,0.104,0.09,0.186
			c0.019,0.078,0.025,0.174,0.023,0.289c0,0.074-0.008,0.15-0.029,0.23c-0.02,0.08-0.053,0.168-0.102,0.266
			c-0.051,0.096-0.115,0.204-0.201,0.324c-0.086,0.122-0.191,0.258-0.32,0.412l-2.359,2.637c-0.163,0.234-0.312,0.479-0.446,0.732
			c-0.142,0.256-0.267,0.521-0.392,0.801c-0.123,0.279-0.239,0.572-0.36,0.881c-0.123,0.311-0.246,0.637-0.377,0.982l-9.216,26.989
			l12.078,39.957c0.101,0.328,0.213,0.646,0.338,0.945c0.121,0.297,0.253,0.575,0.384,0.827c0.131,0.25,0.26,0.474,0.383,0.66
			c0.123,0.186,0.236,0.334,0.334,0.438l3.632,3.724c0.1,0.063,0.188,0.142,0.27,0.226c0.078,0.084,0.146,0.174,0.203,0.27
			c0.059,0.1,0.102,0.201,0.131,0.311c0.029,0.104,0.047,0.217,0.043,0.332c0.004,0.104-0.012,0.201-0.039,0.291
			c-0.025,0.09-0.064,0.168-0.119,0.238c-0.051,0.066-0.113,0.125-0.188,0.168c-0.07,0.043-0.152,0.068-0.242,0.084l-14.539,1.211
			c-0.133,0.012-0.229,0-0.305-0.025c-0.074-0.027-0.123-0.072-0.156-0.123c-0.031-0.055-0.051-0.119-0.059-0.188
			c-0.009-0.07-0.009-0.145-0.009-0.219s0.017-0.16,0.043-0.256c0.029-0.094,0.067-0.193,0.119-0.303
			c0.047-0.107,0.104-0.22,0.166-0.336c0.062-0.115,0.127-0.234,0.19-0.354l1.451-2.358c0.062-0.192,0.119-0.394,0.164-0.603
			s0.074-0.424,0.092-0.641c0.017-0.219,0.017-0.439-0.006-0.662c-0.021-0.221-0.066-0.443-0.135-0.664l-8.98-29.459l-2.256,6.688
			l0.099,23.947c0,0.115,0.008,0.229,0.026,0.341c0.021,0.108,0.051,0.219,0.092,0.317c0.043,0.103,0.099,0.195,0.166,0.283
			c0.07,0.086,0.154,0.164,0.252,0.229l3.216,3.215c0.065,0.068,0.135,0.146,0.198,0.232c0.062,0.084,0.121,0.172,0.172,0.262
			c0.05,0.094,0.093,0.184,0.121,0.271c0.029,0.086,0.045,0.172,0.045,0.246c0,0.105-0.022,0.199-0.062,0.273
			c-0.04,0.078-0.099,0.145-0.167,0.195c-0.067,0.053-0.147,0.094-0.233,0.123c-0.088,0.03-0.18,0.053-0.271,0.063l-17.152,1.436
			c-0.135,0.012-0.254,0.012-0.354-0.002c-0.104-0.013-0.188-0.039-0.256-0.082s-0.119-0.103-0.156-0.181
			c-0.033-0.076-0.053-0.172-0.057-0.287c0-0.073,0.01-0.159,0.027-0.25c0.021-0.092,0.049-0.188,0.092-0.286
			c0.043-0.099,0.1-0.199,0.168-0.296c0.07-0.096,0.154-0.188,0.256-0.271l3.932-3.836c0.1-0.082,0.182-0.174,0.25-0.271
			c0.068-0.099,0.121-0.2,0.162-0.308c0.043-0.106,0.068-0.217,0.09-0.332c0.02-0.11,0.027-0.229,0.029-0.344l-0.553-102.69
			c0-0.117-0.008-0.232-0.027-0.348c-0.021-0.113-0.053-0.226-0.096-0.332c-0.045-0.105-0.101-0.208-0.17-0.303
			c-0.072-0.095-0.158-0.183-0.26-0.258l-4.021-3.592c-0.104-0.077-0.188-0.165-0.262-0.259c-0.07-0.093-0.129-0.189-0.174-0.288
			c-0.045-0.098-0.078-0.196-0.099-0.29c-0.021-0.095-0.03-0.185-0.03-0.265c0-0.106,0.016-0.197,0.045-0.272
			c0.028-0.076,0.073-0.14,0.131-0.188c0.061-0.05,0.133-0.087,0.219-0.112C211.787,29.986,211.886,29.971,212.003,29.965z"/>
	</g>
	<g>
		<path fill="#FFFFFF" d="M113.544,30.24l15.068-0.04c0.113-0.001,0.22,0.017,0.314,0.059c0.094,0.04,0.178,0.104,0.247,0.186
			c0.068,0.084,0.124,0.188,0.164,0.311c0.037,0.124,0.06,0.271,0.062,0.436l1.869,112.668c0.004,0.16,0.006,0.312,0.012,0.453
			c0.007,0.142,0.018,0.271,0.037,0.392c0.021,0.12,0.052,0.229,0.097,0.325c0.045,0.097,0.104,0.181,0.183,0.252l4.78,5.261
			c0.079,0.071,0.156,0.153,0.229,0.242c0.074,0.088,0.142,0.184,0.199,0.278c0.059,0.097,0.107,0.19,0.141,0.282
			c0.037,0.093,0.057,0.181,0.058,0.257c0,0.112-0.015,0.209-0.046,0.293c-0.031,0.082-0.075,0.149-0.139,0.207
			c-0.062,0.058-0.139,0.103-0.235,0.137c-0.095,0.035-0.207,0.06-0.335,0.078l-20.333,1.688c-0.117,0.008-0.236,0.006-0.346-0.008
			c-0.111-0.014-0.214-0.043-0.303-0.086c-0.089-0.045-0.164-0.105-0.214-0.186c-0.053-0.08-0.082-0.182-0.082-0.305
			c-0.003-0.08,0.016-0.172,0.046-0.271c0.032-0.1,0.079-0.203,0.136-0.312c0.056-0.104,0.122-0.213,0.195-0.312
			c0.071-0.104,0.148-0.199,0.225-0.283l4.691-6.07c0.074-0.088,0.128-0.184,0.17-0.287c0.04-0.104,0.068-0.221,0.085-0.342
			c0.017-0.123,0.026-0.256,0.029-0.396c0.001-0.142,0-0.291-0.003-0.453L118.633,38.24c-0.003-0.165-0.015-0.312-0.037-0.439
			c-0.022-0.13-0.056-0.243-0.096-0.348c-0.043-0.104-0.094-0.197-0.156-0.285c-0.06-0.09-0.133-0.174-0.213-0.257l-4.812-4.827
			c-0.079-0.082-0.157-0.174-0.231-0.272c-0.076-0.1-0.145-0.202-0.206-0.308c-0.06-0.104-0.111-0.209-0.148-0.309
			c-0.036-0.099-0.056-0.191-0.059-0.271c-0.003-0.121,0.02-0.225,0.064-0.311c0.045-0.084,0.111-0.152,0.192-0.207
			c0.08-0.052,0.176-0.092,0.281-0.118C113.317,30.26,113.43,30.244,113.544,30.24z"/>
	</g>
	<g>
		<path fill="#FFFFFF" d="M89.307,63.225c2.631-0.062,5.154,0.479,7.471,1.838c2.307,1.356,4.405,3.528,6.195,6.731
			c1.785,3.193,3.263,7.414,4.334,12.876c1.068,5.446,1.732,12.133,1.893,20.273c0.191,9.909-0.154,17.956-0.936,24.479
			c-0.78,6.519-1.997,11.523-3.547,15.34c-1.55,3.82-3.437,6.451-5.559,8.212c-2.128,1.764-4.49,2.651-6.989,2.981
			c-0.068,0.008-0.136,0.016-0.206,0.023c-0.068,0.01-0.137,0.018-0.205,0.021c-0.068,0.008-0.138,0.018-0.207,0.021
			c-0.068,0.006-0.138,0.015-0.207,0.021c-2.568,0.211-5.056-0.15-7.359-1.461c-2.312-1.312-4.438-3.572-6.276-7.148
			c-1.844-3.594-3.397-8.512-4.554-15.129c-1.16-6.637-1.919-14.981-2.174-25.409c-0.196-8.129,0.169-14.886,0.993-20.454
			c0.821-5.573,2.097-9.949,3.714-13.328c1.615-3.374,3.568-5.747,5.749-7.322c2.174-1.571,4.574-2.346,7.084-2.529
			c0.065-0.005,0.13-0.009,0.195-0.013c0.066-0.004,0.131-0.008,0.197-0.011c0.065-0.003,0.13-0.007,0.196-0.009
			C89.175,63.229,89.242,63.226,89.307,63.225z M96.824,105.57c-0.153-7.247-0.414-13.07-0.791-17.729
			c-0.375-4.663-0.865-8.156-1.471-10.737c-0.607-2.585-1.333-4.256-2.178-5.272c-0.846-1.019-1.814-1.381-2.906-1.352
			c-0.017,0.001-0.034,0.001-0.051,0.001c-0.015,0.001-0.032,0.001-0.049,0.003s-0.034,0.002-0.049,0.004
			c-0.016,0.001-0.033,0.001-0.049,0.002c-1.024,0.079-1.921,0.551-2.681,1.662c-0.761,1.113-1.384,2.871-1.859,5.521
			c-0.473,2.65-0.797,6.194-0.963,10.877c-0.164,4.681-0.17,10.494-0.006,17.686c0.213,9.429,0.523,16.831,0.933,22.624
			c0.409,5.785,0.919,9.97,1.532,12.972c0.612,2.998,1.327,4.813,2.15,5.86c0.823,1.047,1.752,1.324,2.795,1.242
			c0.019-0.003,0.039-0.005,0.057-0.005c0.02-0.002,0.039-0.004,0.059-0.006s0.039-0.004,0.059-0.008
			c0.02,0,0.039-0.002,0.057-0.006c1.045-0.133,1.955-0.621,2.718-1.848c0.763-1.229,1.38-3.191,1.844-6.281
			c0.463-3.088,0.772-7.303,0.917-13.031C97.035,122.013,97.017,114.754,96.824,105.57"/>
	</g>
	<g>
		<g>
			<path fill="#D55128" d="M367.406,20.836c1.887,2.057,3.545,4.303,4.977,6.717c1.428,2.41,2.625,4.988,3.59,7.718
				c0.965,2.723,1.697,5.595,2.191,8.598c0.496,2.999,0.756,6.129,0.771,9.373l-1.248,54.09c0.037,6.694-0.986,12.925-2.951,18.568
				c-1.967,5.654-4.887,10.736-8.646,15.127c-3.779,4.408-8.422,8.123-13.822,11.01c-5.44,2.906-11.668,4.979-18.582,6.062
				c-0.143,0.021-0.283,0.045-0.428,0.064c-0.141,0.021-0.283,0.041-0.422,0.061c-0.143,0.021-0.277,0.037-0.412,0.059
				c-0.135,0.018-0.266,0.035-0.395,0.053l-130.803,13.584l-0.943,0.101l-77.831,57.965l-2.08-47.567l-20.605,2.672
				c-11.89,1.543-22.099,1.062-30.757-0.978c-8.759-2.063-15.899-5.709-21.579-10.435c-5.727-4.766-9.947-10.612-12.841-17.016
				c-2.908-6.434-4.462-13.408-4.861-20.387l-1.401-68.615c-0.494-8.778,0.697-16.849,3.415-24.038
				c2.714-7.178,6.942-13.448,12.509-18.656c5.536-5.182,12.376-9.293,20.34-12.197c7.889-2.881,16.856-4.564,26.716-4.938
				c0.204-0.008,0.408-0.016,0.61-0.021c0.203-0.006,0.406-0.013,0.607-0.017c0.203-0.005,0.402-0.008,0.599-0.013
				c0.198-0.003,0.393-0.007,0.584-0.011l238.075-0.395c3.797-0.074,7.412,0.169,10.83,0.716c3.4,0.547,6.606,1.396,9.602,2.539
				c2.979,1.138,5.75,2.563,8.291,4.273C363.037,16.604,365.341,18.584,367.406,20.836z M361.617,112.447
				c-0.291-0.266-0.629-0.486-1.045-0.689c-0.416-0.204-0.912-0.391-1.521-0.584c-0.609-0.19-1.338-0.393-2.213-0.624
				c-0.877-0.232-1.902-0.499-3.115-0.82c0.621-0.076,1.459-0.329,2.365-0.667c0.906-0.339,1.887-0.764,2.793-1.183
				c0.91-0.417,1.748-0.831,2.381-1.149c0.631-0.317,1.057-0.542,1.133-0.583c-0.354-0.118-2.312-0.769-5.115-1.776
				c-2.813-1.013-6.493-2.391-10.266-3.954c-3.797-1.576-7.688-3.341-10.885-5.108c-3.209-1.778-5.705-3.558-6.674-5.143
				c-2.301-3.519-5.611-7.152-9.318-10.648c-3.732-3.521-7.869-6.908-11.779-9.894c-3.938-3.004-7.646-5.598-10.459-7.5
				c-2.828-1.912-4.75-3.119-5.102-3.34c-0.773-4.074-2.014-7.271-3.453-9.777c-1.445-2.512-3.094-4.328-4.678-5.633
				c-1.588-1.308-3.115-2.102-4.309-2.562c-1.193-0.464-2.055-0.595-2.308-0.578c-0.209-0.327-0.629-0.799-1.147-1.323
				s-1.137-1.104-1.732-1.651c-0.598-0.546-1.178-1.057-1.623-1.442c-0.443-0.388-0.754-0.648-0.811-0.696
				c-0.287,0.917-0.41,1.917-0.433,2.906c-0.021,0.986,0.06,1.962,0.179,2.832c0.119,0.869,0.278,1.632,0.412,2.191
				c0.133,0.561,0.239,0.92,0.26,0.986c-0.135,0.852-0.232,2.049-0.307,3.373c-0.072,1.325-0.117,2.778-0.146,4.139
				c-0.029,1.359-0.041,2.627-0.047,3.584c-0.004,0.957-0.002,1.604-0.002,1.723c-0.104,7.355,0.481,13.706,1.578,19.182
				c1.092,5.459,2.69,10.044,4.617,13.888c1.918,3.83,4.163,6.925,6.561,9.422c2.385,2.486,4.92,4.382,7.434,5.823
				c-0.402,0.029-0.805,0.057-1.207,0.079c-0.4,0.024-0.803,0.045-1.199,0.062c-0.399,0.017-0.801,0.029-1.195,0.042
				c-0.397,0.01-0.795,0.017-1.19,0.018c-0.416,0.004-0.825,0.012-1.228,0.025c-0.401,0.012-0.797,0.03-1.186,0.053
				s-0.768,0.051-1.141,0.083c-0.371,0.03-0.738,0.067-1.096,0.108c-3.012,0.341-5.492,0.979-7.479,1.75
				c-1.992,0.776-3.48,1.688-4.504,2.573c-1.021,0.89-1.57,1.75-1.686,2.425c-0.111,0.674,0.211,1.159,0.934,1.297
				c0.586,0.113,1.146,0.275,1.729,0.525c0.578,0.249,1.174,0.582,1.828,1.038c0.653,0.455,1.368,1.029,2.182,1.762
				c0.812,0.73,1.723,1.615,2.773,2.689c-0.062,0.066-0.119,0.141-0.169,0.221c-0.049,0.079-0.092,0.164-0.129,0.254
				c-0.034,0.091-0.062,0.185-0.082,0.279c-0.021,0.098-0.032,0.197-0.034,0.3c-0.001,0.176,0.022,0.343,0.069,0.494
				c0.049,0.153,0.119,0.29,0.207,0.409c0.09,0.117,0.194,0.216,0.317,0.29c0.119,0.074,0.256,0.122,0.398,0.142l1.639-0.066
				c0.185,0.197,0.375,0.398,0.564,0.607c0.193,0.207,0.393,0.418,0.593,0.638c0.2,0.217,0.405,0.438,0.612,0.664
				c0.211,0.227,0.422,0.459,0.639,0.692c0.006,0.055,0.014,0.107,0.023,0.16c0.009,0.053,0.023,0.104,0.043,0.156
				c0.014,0.051,0.033,0.1,0.057,0.146c0.023,0.049,0.049,0.098,0.074,0.145c0.047,0.08,0.102,0.146,0.156,0.211
				c0.059,0.061,0.123,0.111,0.189,0.156c0.065,0.045,0.137,0.078,0.211,0.107c0.073,0.026,0.149,0.045,0.229,0.055
				c0.041,0.029,0.074,0.059,0.107,0.088c0.032,0.025,0.062,0.055,0.092,0.08c0.026,0.027,0.055,0.057,0.08,0.082
				c0.024,0.027,0.051,0.057,0.074,0.082c0.588,0.646,1.309,1.178,2.141,1.598c0.83,0.42,1.772,0.73,2.807,0.951
				c1.033,0.217,2.156,0.342,3.352,0.383c1.189,0.041,2.451,0.002,3.763-0.107c-0.104,0.135-0.181,0.287-0.234,0.445
				c-0.053,0.16-0.081,0.326-0.086,0.492c-0.004,0.164,0.019,0.33,0.065,0.484c0.05,0.154,0.123,0.299,0.226,0.428
				c0.06,0.074,0.127,0.143,0.201,0.197c0.071,0.055,0.149,0.1,0.231,0.131c0.082,0.033,0.166,0.057,0.252,0.064
				c0.088,0.012,0.174,0.012,0.263-0.003c0.065-0.008,0.131-0.021,0.194-0.045c0.062-0.021,0.127-0.045,0.188-0.077
				c0.062-0.033,0.123-0.072,0.182-0.117s0.113-0.095,0.166-0.148l2.127-2.324c0.164-0.025,0.332-0.053,0.498-0.082
				c0.165-0.027,0.332-0.059,0.498-0.088c0.167-0.031,0.334-0.062,0.502-0.096c0.168-0.029,0.334-0.062,0.502-0.098l0.396,3.313
				c0.019,0.146,0.059,0.282,0.112,0.405c0.053,0.123,0.125,0.232,0.207,0.326c0.086,0.094,0.183,0.172,0.287,0.23
				c0.104,0.057,0.219,0.096,0.338,0.111c0.261-0.045,0.48-0.125,0.666-0.229c0.187-0.104,0.338-0.236,0.451-0.387
				c0.113-0.151,0.193-0.318,0.24-0.496c0.047-0.18,0.061-0.365,0.039-0.557l-0.391-3.225c1.701-0.396,3.414-0.854,5.109-1.354
				c1.692-0.497,3.362-1.038,4.981-1.6c1.616-0.561,3.18-1.141,4.655-1.723c1.476-0.579,2.867-1.159,4.14-1.721l1.731,1.563
				c0.066-0.102,0.121-0.232,0.166-0.391c0.043-0.16,0.075-0.349,0.101-0.561c0.021-0.212,0.034-0.448,0.041-0.704
				c0.004-0.256,0-0.535-0.013-0.83c0.781-0.364,1.498-0.717,2.142-1.048c0.642-0.329,1.207-0.638,1.688-0.917
				c0.48-0.279,0.879-0.531,1.181-0.749c0.301-0.216,0.506-0.397,0.604-0.539c0.22-0.312,0.38-0.605,0.522-0.876
				c0.145-0.268,0.268-0.511,0.406-0.721c0.143-0.209,0.299-0.385,0.51-0.521c0.211-0.135,0.475-0.229,0.828-0.271
				c0.359-0.045,0.812-0.038,1.396,0.028c0.584,0.065,1.3,0.191,2.183,0.386c0.883,0.193,1.932,0.454,3.186,0.789
				c1.254,0.337,2.707,0.746,4.404,1.24c0.836,0.241,1.633,0.438,2.39,0.587c0.757,0.15,1.474,0.258,2.153,0.324
				c0.681,0.068,1.32,0.099,1.93,0.096c0.605-0.003,1.178-0.04,1.716-0.104c0.386,0.191,0.735,0.363,1.042,0.518
				c0.309,0.15,0.572,0.281,0.792,0.39c0.218,0.105,0.392,0.189,0.513,0.245c0.123,0.056,0.191,0.083,0.207,0.082
				c-0.104-0.074-0.209-0.161-0.312-0.26c-0.103-0.102-0.203-0.212-0.308-0.335c-0.101-0.122-0.198-0.257-0.299-0.402
				c-0.101-0.146-0.199-0.302-0.299-0.467c1.334-0.304,2.42-0.773,3.301-1.312s1.558-1.142,2.068-1.715
				c0.514-0.571,0.861-1.113,1.09-1.522C361.496,112.778,361.598,112.498,361.617,112.447 M250.482,142.815
				c0.104-0.016,0.192-0.045,0.272-0.088c0.078-0.043,0.146-0.104,0.201-0.17c0.058-0.068,0.099-0.148,0.125-0.238
				s0.043-0.188,0.039-0.291c0.004-0.115-0.013-0.229-0.043-0.332c-0.029-0.107-0.072-0.211-0.132-0.311
				c-0.055-0.096-0.125-0.186-0.202-0.271c-0.08-0.084-0.171-0.159-0.269-0.225l-3.633-3.724c-0.098-0.104-0.211-0.254-0.334-0.438
				c-0.123-0.188-0.252-0.41-0.383-0.662c-0.131-0.25-0.262-0.528-0.383-0.826c-0.125-0.299-0.238-0.616-0.338-0.944l-12.078-39.957
				l9.215-26.989c0.131-0.347,0.254-0.674,0.377-0.982c0.119-0.31,0.238-0.602,0.361-0.881s0.25-0.545,0.391-0.801
				c0.137-0.255,0.283-0.498,0.447-0.732l2.357-2.637c0.131-0.154,0.235-0.29,0.321-0.412c0.086-0.12,0.149-0.229,0.201-0.324
				c0.049-0.098,0.082-0.186,0.103-0.266c0.021-0.082,0.028-0.156,0.028-0.23c0.002-0.115-0.006-0.211-0.024-0.289
				c-0.019-0.08-0.047-0.141-0.09-0.186c-0.041-0.047-0.095-0.078-0.162-0.097c-0.066-0.02-0.148-0.024-0.246-0.021l-13.656,0.313
				c-0.139,0.011-0.246,0.027-0.338,0.054c-0.09,0.023-0.154,0.057-0.203,0.098c-0.051,0.039-0.082,0.088-0.104,0.144
				c-0.021,0.055-0.027,0.115-0.027,0.186c0,0.039,0.012,0.076,0.025,0.117s0.036,0.082,0.062,0.129
				c0.025,0.047,0.057,0.098,0.086,0.157c0.033,0.059,0.066,0.125,0.104,0.199l2.555,3.781c0.166,0.224,0.31,0.478,0.42,0.75
				c0.111,0.273,0.189,0.566,0.232,0.871c0.043,0.304,0.049,0.619,0.01,0.937s-0.121,0.637-0.252,0.946l-9.01,26.504l-0.273,0.015
				l-0.258-63.836c-0.002-0.156-0.012-0.291-0.033-0.406c-0.021-0.116-0.055-0.212-0.106-0.289
				c-0.051-0.078-0.118-0.137-0.207-0.175c-0.09-0.038-0.198-0.059-0.334-0.059l-13.168,0.035c-0.147,0.006-0.272,0.022-0.379,0.049
				c-0.104,0.027-0.188,0.064-0.254,0.114c-0.067,0.05-0.115,0.111-0.146,0.188c-0.031,0.075-0.047,0.166-0.049,0.272
				c0.002,0.08,0.012,0.17,0.032,0.265c0.021,0.094,0.054,0.19,0.099,0.291c0.043,0.098,0.102,0.194,0.174,0.287
				c0.072,0.094,0.158,0.182,0.262,0.259l4.021,3.591c0.102,0.076,0.188,0.164,0.26,0.259c0.068,0.095,0.125,0.196,0.17,0.303
				c0.046,0.107,0.076,0.219,0.097,0.332c0.021,0.114,0.026,0.229,0.026,0.348l0.552,102.692c-0.002,0.115-0.011,0.232-0.029,0.344
				c-0.021,0.115-0.047,0.226-0.088,0.332c-0.041,0.105-0.095,0.209-0.164,0.308c-0.067,0.097-0.149,0.188-0.252,0.271l-3.93,3.836
				c-0.101,0.084-0.185,0.178-0.255,0.271c-0.069,0.097-0.125,0.197-0.168,0.295c-0.043,0.099-0.073,0.195-0.092,0.287
				c-0.02,0.091-0.027,0.177-0.027,0.25c0.003,0.115,0.021,0.211,0.058,0.287c0.035,0.078,0.089,0.138,0.156,0.181
				s0.151,0.069,0.254,0.082c0.103,0.014,0.22,0.014,0.354,0.002l17.096-1.427c0.107-0.014,0.212-0.037,0.308-0.067
				c0.097-0.031,0.181-0.074,0.252-0.125c0.072-0.056,0.132-0.119,0.175-0.196c0.039-0.075,0.063-0.169,0.063-0.274
				c0-0.076-0.019-0.16-0.047-0.246c-0.029-0.088-0.07-0.178-0.119-0.271c-0.054-0.091-0.11-0.179-0.174-0.263
				c-0.062-0.086-0.132-0.164-0.199-0.232l-3.213-3.214c-0.101-0.067-0.185-0.146-0.252-0.229c-0.07-0.088-0.123-0.184-0.168-0.283
				c-0.041-0.1-0.072-0.209-0.091-0.317c-0.02-0.111-0.026-0.226-0.026-0.343l-0.099-23.945l2.258-6.688l8.979,29.459
				c0.066,0.222,0.111,0.443,0.133,0.664c0.021,0.224,0.021,0.443,0.006,0.662c-0.016,0.217-0.045,0.432-0.09,0.641
				s-0.104,0.408-0.166,0.603l-1.449,2.358c-0.065,0.119-0.133,0.238-0.19,0.354c-0.062,0.116-0.118,0.229-0.168,0.336
				c-0.049,0.106-0.09,0.209-0.118,0.303c-0.027,0.096-0.044,0.182-0.044,0.256s0,0.146,0.011,0.219
				c0.008,0.066,0.024,0.133,0.059,0.188c0.033,0.051,0.082,0.097,0.154,0.123c0.074,0.025,0.174,0.037,0.305,0.025L250.482,142.815
				 M173.165,149.232c0.874-0.117,1.727-0.508,2.52-1.101c0.791-0.59,1.523-1.379,2.164-2.295c0.639-0.914,1.187-1.953,1.604-3.045
				c0.418-1.09,0.709-2.233,0.837-3.354c-0.003-0.113-0.012-0.22-0.031-0.312c-0.02-0.094-0.046-0.174-0.082-0.238
				c-0.035-0.063-0.08-0.112-0.133-0.146c-0.055-0.033-0.116-0.048-0.188-0.041c-0.074,0.008-0.14,0.034-0.196,0.073
				c-0.06,0.041-0.111,0.095-0.164,0.153c-0.054,0.062-0.104,0.136-0.161,0.211c-0.057,0.076-0.118,0.158-0.188,0.242
				c-0.267,0.465-0.558,0.873-0.867,1.224c-0.312,0.353-0.639,0.646-0.975,0.888c-0.339,0.241-0.687,0.432-1.035,0.571
				c-0.35,0.139-0.699,0.229-1.045,0.274c-0.017,0.002-0.033,0.004-0.049,0.006c-0.017,0.002-0.033,0.005-0.049,0.007
				c-0.018,0.002-0.034,0.004-0.049,0.006c-0.018,0.002-0.034,0.002-0.049,0.002c-0.326,0.024-0.608-0.071-0.846-0.263
				c-0.24-0.188-0.437-0.475-0.594-0.823c-0.156-0.354-0.273-0.771-0.352-1.228c-0.077-0.455-0.117-0.951-0.122-1.459l-0.634-57.375
				c-0.047-4.102-0.655-7.384-1.625-9.996c-0.974-2.619-2.311-4.568-3.811-6.002c-1.502-1.438-3.167-2.354-4.792-2.905
				c-1.628-0.554-3.212-0.736-4.549-0.705c-0.04,0.002-0.08,0.004-0.121,0.006c-0.04,0.001-0.08,0.002-0.12,0.004
				c-0.041,0.002-0.081,0.004-0.122,0.006c-0.04,0.004-0.081,0.006-0.122,0.01c-2.037,0.152-4.07,0.965-5.976,2.128
				c-1.91,1.167-3.69,2.686-5.215,4.246c-1.527,1.564-2.796,3.169-3.683,4.503c-0.889,1.334-1.393,2.396-1.385,2.872
				c0,0.124,0.012,0.237,0.031,0.337c0.02,0.101,0.049,0.188,0.089,0.256c0.039,0.07,0.086,0.125,0.146,0.161
				c0.059,0.035,0.127,0.055,0.203,0.052c0.129-0.01,0.254-0.028,0.369-0.057c0.116-0.026,0.225-0.062,0.322-0.106
				c0.102-0.044,0.195-0.097,0.277-0.156c0.086-0.062,0.164-0.129,0.231-0.203c0.646-0.731,1.503-1.518,2.492-2.289
				c0.988-0.771,2.108-1.529,3.285-2.205c1.172-0.676,2.397-1.27,3.601-1.716c1.2-0.446,2.375-0.746,3.449-0.831
				c0.034-0.003,0.068-0.004,0.104-0.008c0.035-0.002,0.069-0.004,0.104-0.006s0.068-0.004,0.102-0.005
				c0.035-0.001,0.068-0.004,0.103-0.006c1.188-0.032,2.172,0.05,2.981,0.302c0.809,0.256,1.44,0.679,1.93,1.328
				c0.488,0.649,0.831,1.524,1.056,2.678c0.226,1.153,0.333,2.587,0.354,4.354c0.022,1.647,0.041,2.974,0.011,4.074
				c-0.031,1.101-0.113,1.982-0.287,2.74c-0.173,0.758-0.442,1.396-0.849,2.01c-0.405,0.615-0.952,1.21-1.68,1.881
				c-4.023,3.705-7.207,6.806-9.714,9.648c-2.514,2.854-4.342,5.446-5.655,8.139c-1.313,2.693-2.108,5.482-2.559,8.727
				c-0.449,3.242-0.551,6.937-0.48,11.439c0.082,5.508,0.6,9.85,1.418,13.256c0.817,3.402,1.937,5.869,3.226,7.635
				c1.286,1.763,2.741,2.822,4.231,3.412c1.492,0.588,3.021,0.709,4.459,0.586c0.033-0.002,0.065-0.006,0.098-0.008
				c0.033-0.004,0.064-0.006,0.098-0.01c0.032-0.004,0.064-0.008,0.098-0.012c0.031-0.004,0.064-0.008,0.097-0.016
				c0.954-0.127,1.896-0.432,2.808-0.861c0.907-0.432,1.784-0.988,2.612-1.621c0.826-0.633,1.603-1.34,2.31-2.074
				c0.709-0.73,1.351-1.49,1.903-2.221c0.448,0.676,0.929,1.365,1.47,2.02c0.543,0.65,1.144,1.262,1.83,1.777
				c0.686,0.514,1.454,0.932,2.332,1.197c0.877,0.264,1.861,0.379,2.979,0.281c0.019-0.002,0.037-0.004,0.054-0.004
				c0.019-0.004,0.037-0.006,0.056-0.008c0.02-0.002,0.037-0.004,0.053-0.007C173.127,149.237,173.146,149.235,173.165,149.232
				 M109.2,104.944c-0.161-8.142-0.825-14.827-1.893-20.273c-1.072-5.462-2.55-9.683-4.334-12.876
				c-1.79-3.203-3.889-5.375-6.195-6.729c-2.315-1.361-4.839-1.902-7.471-1.839c-0.065,0-0.131,0.003-0.196,0.005
				c-0.066,0.002-0.131,0.006-0.196,0.009c-0.066,0.003-0.131,0.007-0.197,0.011c-0.065,0.005-0.13,0.008-0.195,0.015
				c-2.511,0.183-4.911,0.956-7.084,2.527c-2.181,1.575-4.134,3.948-5.748,7.322c-1.618,3.379-2.894,7.755-3.715,13.328
				c-0.823,5.568-1.189,12.325-0.993,20.454c0.254,10.428,1.014,18.772,2.174,25.411c1.157,6.615,2.71,11.533,4.554,15.127
				c1.838,3.576,3.964,5.84,6.276,7.148c2.304,1.311,4.792,1.672,7.359,1.461c0.069-0.006,0.139-0.015,0.207-0.021
				c0.069-0.006,0.139-0.015,0.207-0.021c0.068-0.006,0.137-0.015,0.207-0.021c0.068-0.008,0.136-0.018,0.204-0.023
				c2.499-0.33,4.863-1.219,6.989-2.981c2.122-1.761,4.009-4.392,5.559-8.211c1.55-3.816,2.767-8.822,3.547-15.341
				C109.046,122.899,109.392,114.854,109.2,104.944 M202.104,67.91c0.729-0.02,1.455,0.068,2.151,0.277
				c0.697,0.207,1.369,0.532,1.996,0.994c0.629,0.459,1.213,1.051,1.735,1.786c0.521,0.737,0.986,1.619,1.371,2.658
				c0.07,0.191,0.142,0.373,0.215,0.539c0.076,0.165,0.154,0.312,0.242,0.437c0.088,0.12,0.185,0.221,0.291,0.286
				c0.107,0.066,0.229,0.101,0.367,0.097c0.139-0.013,0.254-0.062,0.346-0.136c0.091-0.077,0.16-0.184,0.211-0.312
				c0.052-0.128,0.084-0.278,0.104-0.443s0.025-0.346,0.021-0.533c-0.008-1.243-0.195-2.687-0.549-4.147
				c-0.353-1.464-0.867-2.95-1.521-4.276c-0.656-1.327-1.457-2.498-2.379-3.329c-0.924-0.834-1.971-1.328-3.121-1.304
				c-0.02,0-0.041,0-0.062,0.002c-0.021,0-0.039,0.002-0.062,0.004c-0.021,0-0.041,0.001-0.062,0.002
				c-0.021,0.002-0.041,0.005-0.062,0.007c-0.771,0.059-1.494,0.296-2.178,0.67c-0.686,0.373-1.328,0.881-1.945,1.479
				c-0.613,0.602-1.201,1.291-1.771,2.025c-0.568,0.737-1.119,1.52-1.66,2.305l-0.285,0.01l-0.037-5.356
				c0-0.156-0.02-0.293-0.051-0.41c-0.037-0.118-0.086-0.215-0.148-0.293c-0.062-0.076-0.139-0.134-0.225-0.171
				c-0.084-0.037-0.184-0.054-0.285-0.05l-13.672,0.321c-0.158,0.011-0.291,0.029-0.4,0.06c-0.11,0.028-0.198,0.067-0.269,0.121
				c-0.068,0.051-0.116,0.115-0.146,0.192c-0.031,0.078-0.045,0.172-0.041,0.279c-0.002,0.08,0.004,0.172,0.025,0.27
				c0.02,0.098,0.053,0.201,0.1,0.311c0.045,0.11,0.105,0.223,0.182,0.339c0.076,0.113,0.168,0.23,0.277,0.348l4.192,4.328
				c0.11,0.075,0.202,0.15,0.276,0.232s0.133,0.17,0.178,0.268c0.045,0.1,0.076,0.207,0.096,0.332s0.029,0.265,0.032,0.424
				l0.67,71.058c0.003,0.156,0.003,0.304,0,0.438c-0.005,0.138-0.013,0.263-0.028,0.381c-0.018,0.119-0.043,0.228-0.082,0.326
				c-0.039,0.1-0.089,0.189-0.156,0.271l-4.342,5.797c-0.108,0.086-0.197,0.184-0.271,0.279c-0.072,0.1-0.129,0.199-0.174,0.303
				c-0.043,0.102-0.071,0.201-0.09,0.297c-0.02,0.094-0.026,0.184-0.026,0.262c0,0.117,0.019,0.213,0.052,0.289
				c0.036,0.076,0.09,0.135,0.161,0.176c0.071,0.045,0.162,0.07,0.269,0.084c0.108,0.013,0.234,0.013,0.381,0l18.79-1.561
				c0.146-0.021,0.273-0.045,0.379-0.078c0.104-0.037,0.188-0.08,0.257-0.133c0.065-0.055,0.112-0.119,0.146-0.195
				c0.03-0.078,0.047-0.168,0.047-0.272c0-0.078-0.011-0.164-0.031-0.254c-0.019-0.091-0.049-0.187-0.094-0.277
				c-0.043-0.092-0.103-0.184-0.175-0.271c-0.071-0.086-0.161-0.163-0.266-0.229l-4.771-5.016c-0.035-0.074-0.062-0.158-0.082-0.253
				c-0.021-0.094-0.033-0.198-0.041-0.312c-0.01-0.117-0.016-0.242-0.018-0.377c-0.004-0.138-0.006-0.281-0.006-0.439l-0.459-56.304
				c-0.018-1.963,0.123-3.839,0.4-5.553c0.278-1.716,0.696-3.269,1.239-4.585c0.542-1.316,1.21-2.398,1.986-3.168
				c0.776-0.771,1.664-1.232,2.646-1.312c0.018-0.002,0.032-0.004,0.051-0.006c0.018,0,0.033-0.001,0.051-0.001
				c0.019-0.001,0.033-0.003,0.051-0.003C202.068,67.912,202.085,67.912,202.104,67.91 M136.106,152.326
				c0.164-0.021,0.303-0.05,0.418-0.084c0.113-0.037,0.205-0.082,0.275-0.142c0.071-0.06,0.122-0.127,0.154-0.209
				c0.033-0.084,0.048-0.181,0.048-0.293c-0.001-0.076-0.021-0.164-0.058-0.257c-0.033-0.092-0.082-0.188-0.142-0.282
				c-0.057-0.097-0.125-0.19-0.198-0.279c-0.072-0.088-0.149-0.17-0.229-0.241l-4.781-5.261c-0.079-0.071-0.139-0.155-0.182-0.254
				c-0.044-0.097-0.074-0.203-0.097-0.323c-0.02-0.121-0.03-0.25-0.037-0.392c-0.008-0.144-0.008-0.293-0.012-0.453l-1.869-112.668
				c0-0.165-0.023-0.312-0.062-0.436c-0.04-0.123-0.097-0.229-0.164-0.311c-0.071-0.082-0.155-0.146-0.249-0.186
				c-0.094-0.042-0.201-0.06-0.314-0.059l-15,0.037c-0.13,0.006-0.256,0.021-0.369,0.05c-0.114,0.027-0.216,0.066-0.301,0.119
				c-0.085,0.055-0.155,0.123-0.199,0.207c-0.046,0.086-0.07,0.188-0.065,0.31c0.001,0.081,0.023,0.175,0.059,0.272
				c0.036,0.1,0.086,0.203,0.146,0.309c0.061,0.104,0.13,0.208,0.204,0.308c0.076,0.1,0.154,0.19,0.233,0.272l4.812,4.827
				c0.08,0.083,0.153,0.167,0.213,0.257c0.062,0.088,0.113,0.183,0.156,0.285c0.041,0.104,0.073,0.218,0.096,0.348
				c0.021,0.129,0.034,0.274,0.037,0.439l1.912,106.453c0.003,0.162,0.004,0.312,0.003,0.453c-0.003,0.142-0.012,0.272-0.029,0.396
				c-0.017,0.121-0.045,0.236-0.085,0.342c-0.042,0.104-0.096,0.199-0.17,0.287l-4.691,6.07c-0.079,0.084-0.154,0.182-0.227,0.283
				c-0.071,0.102-0.138,0.209-0.193,0.312c-0.057,0.106-0.104,0.213-0.136,0.312c-0.031,0.1-0.049,0.188-0.048,0.271
				c0.001,0.123,0.031,0.225,0.083,0.303c0.051,0.08,0.125,0.143,0.214,0.186c0.088,0.045,0.191,0.072,0.301,0.088
				c0.111,0.014,0.23,0.016,0.347,0.008L136.106,152.326"/>
		</g>
		<g>
			<path fill="#D55128" d="M157.315,143.737c-0.015,0.002-0.028,0.005-0.041,0.007c-0.015,0.002-0.027,0.002-0.041,0.004
				s-0.027,0.002-0.041,0.004c-0.015,0-0.026,0.002-0.041,0.002c-0.805,0.063-1.514-0.105-2.129-0.685
				c-0.615-0.575-1.137-1.56-1.565-3.114c-0.429-1.56-0.763-3.693-1.007-6.574c-0.244-2.883-0.396-6.517-0.458-11.065
				c-0.054-4.076,0.048-7.496,0.356-10.457s0.827-5.461,1.603-7.699c0.776-2.236,1.81-4.207,3.151-6.115
				c1.338-1.902,2.984-3.739,4.985-5.71l0.3-0.014l0.512,41.669c0.009,0.605-0.033,1.229-0.119,1.848s-0.219,1.236-0.389,1.838
				c-0.172,0.603-0.382,1.188-0.627,1.742c-0.246,0.558-0.525,1.082-0.834,1.562l-1.979,2.115c-0.131,0.084-0.262,0.162-0.395,0.234
				c-0.133,0.069-0.269,0.135-0.404,0.188c-0.137,0.055-0.275,0.102-0.416,0.139C157.601,143.692,157.458,143.72,157.315,143.737z"
				/>
		</g>
		<g>
			<path fill="#D55128" d="M89.478,70.482c1.092-0.03,2.06,0.332,2.906,1.351c0.845,1.018,1.571,2.688,2.178,5.272
				c0.606,2.581,1.096,6.074,1.471,10.737c0.377,4.657,0.64,10.48,0.791,17.729c0.193,9.184,0.211,16.442,0.064,22.178
				c-0.145,5.73-0.454,9.945-0.917,13.033c-0.463,3.09-1.081,5.055-1.844,6.281c-0.763,1.226-1.672,1.715-2.718,1.848
				c-0.019,0.004-0.037,0.006-0.057,0.008s-0.039,0.004-0.059,0.006s-0.039,0.004-0.059,0.006c-0.021,0-0.039,0.003-0.057,0.005
				c-1.042,0.082-1.972-0.195-2.795-1.242c-0.823-1.047-1.538-2.862-2.15-5.86c-0.613-3-1.121-7.187-1.532-12.97
				c-0.409-5.795-0.72-13.196-0.933-22.625c-0.164-7.191-0.158-13.006,0.006-17.687c0.167-4.683,0.491-8.227,0.965-10.877
				c0.474-2.649,1.097-4.407,1.858-5.521c0.76-1.111,1.658-1.583,2.681-1.662c0.017-0.001,0.034-0.001,0.049-0.002
				c0.017-0.002,0.034-0.002,0.049-0.004c0.017,0,0.034-0.002,0.049-0.002C89.444,70.482,89.461,70.482,89.478,70.482z"/>
		</g>
	</g>
</g>
</svg>
