<?xml version="1.0" encoding="utf-8"?>
<!-- Generator: Adobe Illustrator 16.0.0, SVG Export Plug-In . SVG Version: 6.00 Build 0)  -->
<!DOCTYPE svg PUBLIC "-//W3C//DTD SVG 1.1//EN" "http://www.w3.org/Graphics/SVG/1.1/DTD/svg11.dtd">
<svg version="1.1" id="Layer_1" xmlns="http://www.w3.org/2000/svg" xmlns:xlink="http://www.w3.org/1999/xlink" x="0px" y="0px"
	 width="297.236px" height="45.361px" viewBox="0 0 297.236 45.361" enable-background="new 0 0 297.236 45.361"
	 xml:space="preserve">
<g>
	<path d="M29.58,36.48c0.519,1.12,0.949,2.271,1.29,3.449c0.339,1.181,0.589,2.371,0.75,3.57c-2.081,0.76-3.951,1.26-5.61,1.5
		c-1.66,0.238-3.45,0.358-5.37,0.358c-3.4,0-6.38-0.55-8.939-1.649c-2.561-1.101-4.711-2.641-6.45-4.619
		c-1.74-1.979-3.052-4.33-3.931-7.051C0.439,29.318,0,26.359,0,23.16c0-3.2,0.459-6.171,1.38-8.91C2.3,11.51,3.63,9.14,5.37,7.139
		c1.739-2,3.879-3.56,6.42-4.68c2.54-1.119,5.43-1.681,8.67-1.681c1.92,0,3.689,0.12,5.31,0.36s3.369,0.741,5.25,1.5
		c-0.081,1.2-0.321,2.37-0.72,3.51c-0.4,1.141-0.84,2.291-1.32,3.45c-1.4-0.479-2.64-0.819-3.72-1.02s-2.36-0.301-3.84-0.301
		c-3.84,0-6.791,1.25-8.851,3.75c-2.061,2.5-3.09,6.21-3.09,11.131c0,9.76,4.141,14.641,12.42,14.641c1.479,0,2.78-0.1,3.9-0.301
		C26.919,37.301,28.178,36.96,29.58,36.48z"/>
	<path d="M33.42,13.62c1.439-0.24,2.858-0.36,4.26-0.36c1.4,0,2.82,0.12,4.26,0.36v16.439c0,1.643,0.129,2.989,0.391,4.05
		c0.26,1.062,0.659,1.898,1.199,2.521c0.54,0.619,1.209,1.06,2.011,1.317c0.8,0.263,1.739,0.392,2.819,0.392
		c1.479,0,2.721-0.139,3.721-0.42v-24.3c1.439-0.24,2.84-0.36,4.199-0.36c1.4,0,2.82,0.12,4.261,0.36v29.818
		c-1.28,0.44-2.971,0.871-5.07,1.291s-4.29,0.63-6.57,0.63c-2.04,0-4-0.161-5.88-0.479c-1.88-0.32-3.53-1-4.95-2.041
		c-1.42-1.039-2.55-2.561-3.39-4.562c-0.84-2-1.26-4.657-1.26-7.979V13.62z"/>
	<path d="M71.278,31.14c-2.24-0.641-3.989-1.59-5.25-2.852c-1.26-1.261-1.89-3.149-1.89-5.669c0-3.04,1.089-5.419,3.271-7.141
		c2.18-1.719,5.148-2.58,8.909-2.58c1.561,0,3.1,0.142,4.62,0.42c1.521,0.28,3.061,0.7,4.62,1.261
		c-0.081,1.041-0.28,2.121-0.6,3.239c-0.32,1.12-0.7,2.101-1.141,2.94c-0.96-0.399-2.021-0.75-3.18-1.05
		c-1.161-0.3-2.38-0.45-3.66-0.45c-1.359,0-2.42,0.21-3.18,0.63c-0.761,0.42-1.14,1.09-1.14,2.01c0,0.88,0.27,1.5,0.81,1.86
		c0.54,0.359,1.31,0.699,2.31,1.02l3.421,1.021c1.118,0.32,2.13,0.711,3.029,1.171c0.9,0.46,1.67,1.03,2.311,1.709
		c0.64,0.682,1.14,1.521,1.5,2.521c0.359,1.002,0.54,2.221,0.54,3.659c0,1.479-0.312,2.86-0.931,4.142
		c-0.621,1.279-1.521,2.391-2.699,3.33c-1.182,0.938-2.61,1.68-4.29,2.221c-1.681,0.539-3.581,0.81-5.7,0.81
		c-0.96,0-1.84-0.029-2.641-0.091c-0.801-0.061-1.569-0.16-2.31-0.299c-0.741-0.141-1.47-0.311-2.19-0.512
		c-0.72-0.199-1.5-0.459-2.34-0.779c0.08-1.08,0.271-2.17,0.57-3.27c0.3-1.102,0.689-2.172,1.17-3.211
		c1.32,0.521,2.569,0.909,3.75,1.17c1.179,0.262,2.409,0.391,3.69,0.391c0.56,0,1.17-0.049,1.829-0.149
		c0.66-0.101,1.27-0.279,1.83-0.54c0.561-0.26,1.029-0.6,1.41-1.02c0.38-0.42,0.57-0.971,0.57-1.65c0-0.961-0.291-1.649-0.87-2.069
		c-0.581-0.42-1.391-0.789-2.43-1.108L71.278,31.14z"/>
	<path d="M92.219,20.099h-3.9l-0.3-1.2l11.22-14.34h1.381v9.061h7.26c0.12,0.6,0.2,1.14,0.24,1.619c0.04,0.48,0.06,0.98,0.06,1.5
		c0,0.562-0.021,1.102-0.06,1.62c-0.04,0.521-0.12,1.102-0.24,1.74h-7.26v12.18c0,1.24,0.1,2.241,0.3,3
		c0.199,0.763,0.489,1.36,0.87,1.802c0.38,0.439,0.85,0.738,1.41,0.898c0.56,0.16,1.22,0.24,1.979,0.24
		c0.6,0,1.189-0.052,1.771-0.15c0.579-0.1,1.089-0.188,1.529-0.271c0.28,0.761,0.48,1.551,0.601,2.369
		c0.12,0.819,0.18,1.552,0.18,2.189c0,0.44-0.01,0.811-0.03,1.11c-0.021,0.299-0.05,0.59-0.09,0.869
		c-1.84,0.438-3.741,0.66-5.7,0.66c-3.64,0-6.42-0.852-8.34-2.552c-1.92-1.698-2.88-4.47-2.88-8.31V20.099z"/>
	<path d="M124.499,45.359c-2.521,0-4.71-0.411-6.57-1.229c-1.86-0.82-3.4-1.961-4.62-3.422c-1.221-1.459-2.14-3.168-2.76-5.129
		c-0.621-1.959-0.93-4.08-0.93-6.359c0-2.281,0.31-4.42,0.93-6.42s1.539-3.729,2.76-5.19c1.22-1.46,2.76-2.609,4.62-3.449
		c1.86-0.841,4.05-1.261,6.57-1.261c2.52,0,4.72,0.42,6.6,1.261c1.88,0.84,3.44,1.989,4.68,3.449s2.16,3.19,2.761,5.19
		c0.6,2,0.899,4.14,0.899,6.42c0,2.279-0.3,4.4-0.899,6.359c-0.601,1.961-1.521,3.67-2.761,5.129c-1.239,1.461-2.8,2.602-4.68,3.422
		C129.218,44.948,127.018,45.359,124.499,45.359z M124.499,38.881c2.239,0,3.85-0.83,4.83-2.49c0.979-1.66,1.47-4.051,1.47-7.17
		c0-3.121-0.49-5.51-1.47-7.17c-0.98-1.66-2.591-2.49-4.83-2.49c-2.2,0-3.79,0.831-4.771,2.49c-0.979,1.661-1.47,4.05-1.47,7.17
		c0,3.119,0.489,5.51,1.47,7.17S122.298,38.881,124.499,38.881z"/>
	<path d="M143.158,13.62c0.56-0.12,1.118-0.21,1.68-0.271c0.56-0.06,1.18-0.09,1.859-0.09c0.681,0,1.279,0.03,1.801,0.09
		c0.52,0.061,1.061,0.15,1.62,0.271c0.119,0.2,0.229,0.489,0.328,0.869c0.101,0.381,0.189,0.78,0.271,1.2
		c0.08,0.42,0.15,0.831,0.21,1.23c0.061,0.399,0.109,0.741,0.15,1.02c0.317-0.6,0.739-1.2,1.26-1.8c0.52-0.6,1.141-1.14,1.858-1.62
		c0.722-0.479,1.531-0.87,2.432-1.17c0.898-0.3,1.91-0.45,3.029-0.45c4.84,0,7.939,1.84,9.3,5.521c0.801-1.479,1.93-2.77,3.391-3.87
		c1.459-1.101,3.309-1.65,5.551-1.65c3.521,0,6.109,0.972,7.771,2.91c1.658,1.941,2.49,4.971,2.49,9.09V44.64
		c-1.441,0.24-2.861,0.359-4.262,0.359c-1.399,0-2.818-0.119-4.26-0.359V27.12c0-2.16-0.271-3.819-0.811-4.979
		c-0.541-1.16-1.632-1.74-3.271-1.74c-0.681,0-1.351,0.102-2.011,0.301c-0.659,0.2-1.26,0.569-1.799,1.109
		c-0.541,0.54-0.979,1.3-1.32,2.28c-0.34,0.979-0.51,2.25-0.51,3.81v16.74c-1.44,0.239-2.86,0.358-4.262,0.358
		c-1.4,0-2.818-0.119-4.26-0.358V27.12c0-2.16-0.271-3.819-0.811-4.979c-0.541-1.16-1.631-1.74-3.271-1.74
		c-0.681,0-1.358,0.102-2.039,0.301c-0.682,0.2-1.291,0.59-1.83,1.17c-0.541,0.581-0.971,1.39-1.291,2.429
		c-0.319,1.041-0.479,2.399-0.479,4.082v16.26c-1.44,0.24-2.86,0.359-4.26,0.359c-1.4,0-2.82-0.119-4.261-0.359V13.62H143.158z"/>
	<path d="M199.677,31.739c0.158,2.4,0.999,4.143,2.52,5.221c1.521,1.08,3.521,1.621,6,1.621c1.359,0,2.75-0.129,4.172-0.393
		c1.42-0.259,2.771-0.629,4.051-1.107c0.438,0.801,0.816,1.76,1.14,2.879c0.319,1.121,0.5,2.319,0.541,3.602
		c-3.121,1.199-6.642,1.8-10.562,1.8c-2.88,0-5.352-0.398-7.41-1.199c-2.061-0.801-3.739-1.91-5.039-3.33
		c-1.301-1.42-2.261-3.108-2.881-5.07c-0.621-1.959-0.932-4.1-0.932-6.42c0-2.278,0.32-4.418,0.961-6.419
		c0.641-2,1.591-3.739,2.852-5.22c1.261-1.479,2.819-2.649,4.681-3.511c1.858-0.858,4.028-1.29,6.51-1.29
		c2.16,0,4.08,0.382,5.761,1.141c1.68,0.76,3.108,1.8,4.29,3.12c1.18,1.319,2.068,2.89,2.67,4.71
		c0.601,1.82,0.898,3.771,0.898,5.851c0,0.76-0.028,1.51-0.09,2.25c-0.061,0.739-0.131,1.329-0.209,1.771h-19.922L199.677,31.739
		L199.677,31.739z M211.856,25.799c-0.08-1.92-0.608-3.469-1.59-4.649c-0.979-1.179-2.351-1.77-4.108-1.77
		c-2.003,0-3.521,0.561-4.562,1.68c-1.041,1.121-1.66,2.7-1.859,4.739H211.856z"/>
	<path d="M223.618,13.62c0.6-0.12,1.17-0.21,1.71-0.271c0.54-0.06,1.13-0.09,1.771-0.09c0.601,0,1.188,0.04,1.771,0.12
		c0.577,0.081,1.147,0.18,1.71,0.3c0.12,0.201,0.229,0.49,0.33,0.87c0.099,0.38,0.188,0.78,0.271,1.2
		c0.079,0.42,0.149,0.84,0.209,1.26c0.062,0.42,0.109,0.771,0.15,1.05c0.879-1.239,1.959-2.349,3.239-3.33
		c1.279-0.979,2.881-1.47,4.801-1.47c0.398,0,0.857,0.021,1.38,0.06c0.52,0.04,0.899,0.101,1.141,0.181
		c0.08,0.399,0.139,0.86,0.18,1.38c0.039,0.52,0.062,1.06,0.062,1.62c0,0.681-0.029,1.42-0.09,2.22
		c-0.062,0.801-0.171,1.56-0.33,2.28c-0.439-0.08-0.93-0.12-1.47-0.12s-0.87,0-0.99,0c-0.682,0-1.44,0.069-2.28,0.21
		s-1.641,0.51-2.397,1.109c-0.763,0.601-1.392,1.5-1.892,2.7s-0.75,2.88-0.75,5.04v14.763c-0.721,0.118-1.438,0.198-2.16,0.237
		c-0.721,0.04-1.42,0.062-2.101,0.062s-1.371-0.021-2.069-0.062c-0.701-0.039-1.431-0.119-2.188-0.237V13.62H223.618z"/>
	<path d="M239.457,44.64c-0.24-1.479-0.359-2.938-0.359-4.381c0-1.439,0.119-2.92,0.359-4.439c1.479-0.239,2.938-0.358,4.38-0.358
		c1.44,0,2.92,0.119,4.439,0.358c0.24,1.521,0.359,2.98,0.359,4.382c0,1.479-0.119,2.959-0.359,4.438
		c-1.521,0.24-2.979,0.359-4.381,0.359C242.417,45.001,240.935,44.881,239.457,44.64z"/>
	<path d="M255.416,20.099h-4.021c-0.121-0.52-0.211-1.07-0.271-1.65c-0.062-0.579-0.09-1.13-0.09-1.649
		c0-1.08,0.118-2.14,0.358-3.18h12.359V44.64c-1.439,0.24-2.841,0.359-4.199,0.359c-1.32,0-2.699-0.119-4.141-0.359V20.099H255.416z
		 M254.155,8.399c-0.239-1.358-0.359-2.7-0.359-4.02c0-1.28,0.12-2.62,0.359-4.021c0.681-0.12,1.41-0.21,2.189-0.27
		c0.779-0.061,1.489-0.09,2.131-0.09c0.68,0,1.418,0.029,2.219,0.09c0.802,0.06,1.539,0.149,2.222,0.27
		c0.12,0.681,0.2,1.351,0.239,2.011c0.039,0.659,0.061,1.331,0.061,2.01c0,0.64-0.021,1.3-0.061,1.979
		c-0.041,0.681-0.119,1.36-0.239,2.04c-0.683,0.12-1.41,0.201-2.189,0.24c-0.779,0.041-1.511,0.06-2.188,0.06
		c-0.642,0-1.359-0.02-2.16-0.06C255.575,8.6,254.835,8.519,254.155,8.399z"/>
	<path d="M282.295,45.359c-2.521,0-4.71-0.411-6.57-1.229c-1.859-0.82-3.397-1.961-4.619-3.422c-1.221-1.459-2.141-3.168-2.76-5.129
		c-0.621-1.959-0.931-4.08-0.931-6.359c0-2.281,0.31-4.42,0.931-6.42c0.619-2,1.539-3.729,2.76-5.19
		c1.222-1.46,2.762-2.609,4.619-3.449c1.86-0.841,4.051-1.261,6.57-1.261c2.521,0,4.721,0.42,6.602,1.261
		c1.879,0.84,3.438,1.989,4.681,3.449c1.237,1.46,2.159,3.19,2.76,5.19c0.602,2,0.899,4.14,0.899,6.42
		c0,2.279-0.301,4.4-0.899,6.359c-0.601,1.961-1.521,3.67-2.76,5.129c-1.24,1.461-2.802,2.602-4.681,3.422
		C287.015,44.948,284.815,45.359,282.295,45.359z M282.295,38.881c2.24,0,3.85-0.83,4.83-2.49c0.979-1.66,1.471-4.051,1.471-7.17
		c0-3.121-0.49-5.51-1.471-7.17s-2.59-2.49-4.83-2.49c-2.199,0-3.79,0.831-4.771,2.49c-0.979,1.661-1.471,4.05-1.471,7.17
		c0,3.119,0.489,5.51,1.471,7.17C278.505,38.051,280.095,38.881,282.295,38.881z"/>
</g>
</svg>
