<?xml version="1.0" encoding="utf-8"?>
<!-- Generator: Adobe Illustrator 16.0.0, SVG Export Plug-In . SVG Version: 6.00 Build 0)  -->
<!DOCTYPE svg PUBLIC "-//W3C//DTD SVG 1.1//EN" "http://www.w3.org/Graphics/SVG/1.1/DTD/svg11.dtd">
<svg version="1.1" id="Layer_1" xmlns="http://www.w3.org/2000/svg" xmlns:xlink="http://www.w3.org/1999/xlink" x="0px" y="0px"
	 width="277.906px" height="49.718px" viewBox="0 0 277.906 49.718" enable-background="new 0 0 277.906 49.718"
	 xml:space="preserve">
<g>
	<path fill="#221F1F" d="M4.252,10.581c-2.697,3.173-4.065,7.429-4.065,12.652c0,4.774,1.205,8.588,3.58,11.332
		c2.368,2.737,5.665,4.125,9.8,4.125c5.103,0,8.974-2.226,11.504-6.615l0.35-0.606V49.53h6.006V6.516h-6.006v3.917l-0.324-0.343
		c-2.68-2.838-6.104-4.277-10.176-4.277C10.53,5.813,6.941,7.417,4.252,10.581 M6.581,22.647c0-8.542,3.131-12.873,9.308-12.873
		c2.973,0,6.157,1.345,9.462,3.996l0.071,0.056V28.64l-0.053,0.056c-3.394,3.519-6.919,5.301-10.479,5.301
		C9.375,33.997,6.581,30.178,6.581,22.647"/>
	<path fill="#221F1F" d="M14.921,5.625c-4.469,0-8.073,1.612-10.812,4.834C1.369,13.683,0,17.94,0,23.233
		c0,4.844,1.208,8.662,3.625,11.455c2.418,2.793,5.731,4.189,9.942,4.189c5.199,0,9.088-2.236,11.667-6.709v17.55h6.38V6.329h-6.38
		v3.633C22.504,7.071,19.067,5.625,14.921,5.625 M13.567,38.502c-4.078,0-7.327-1.366-9.658-4.061
		c-2.345-2.709-3.534-6.479-3.534-11.209c0-5.176,1.352-9.393,4.02-12.53C5.721,9.142,7.277,7.955,9.02,7.176
		C10.766,6.396,12.75,6,14.921,6c4.018,0,7.396,1.42,10.039,4.219l0.649,0.686V9.962V6.704h5.63v42.639h-5.63V32.168v-1.4
		l-0.7,1.213c-1.25,2.168-2.835,3.814-4.713,4.895C18.318,37.958,16.088,38.502,13.567,38.502 M15.888,9.587
		c-6.301,0-9.496,4.394-9.496,13.06c0,7.655,2.859,11.537,8.497,11.537c3.612,0,7.184-1.803,10.614-5.357l0.106-0.108v-0.149V13.918
		v-0.181l-0.141-0.112C22.128,10.945,18.904,9.587,15.888,9.587 M6.768,22.647c0-8.457,3.04-12.685,9.121-12.685
		c2.942,0,6.058,1.318,9.346,3.955v14.648c-3.374,3.497-6.823,5.243-10.345,5.243C9.475,33.808,6.768,30.089,6.768,22.647"/>
	<path fill="#221F1F" d="M60.261,6.516v20.499l-0.037,0.05c-3.459,4.658-7.197,7.02-11.108,7.02c-1.837,0-3.172-0.53-3.968-1.581
		c-0.784-1.033-1.182-2.783-1.182-5.196V6.517h-5.974V29.18c0,2.902,0.892,5.236,2.65,6.939c1.759,1.705,4.166,2.567,7.153,2.567
		c4.728,0,8.808-2.231,12.129-6.633l0.337-0.446v6.348h5.974V6.516H60.261z"/>
	<path fill="#221F1F" d="M66.422,6.328h-6.349v20.625c-3.438,4.627-7.09,6.941-10.958,6.941c-1.783,0-3.056-0.502-3.818-1.508
		c-0.763-1.006-1.144-2.701-1.144-5.083V6.328h-6.349V29.18c0,2.969,0.902,5.327,2.707,7.073c1.805,1.75,4.232,2.622,7.284,2.622
		c4.812,0,8.904-2.234,12.278-6.709v5.978h6.349v-0.375V6.328z M60.448,6.703h5.599v31.066h-5.599v-5.603v-1.118l-0.674,0.894
		c-1.647,2.184-3.491,3.842-5.481,4.93c-1.98,1.082-4.167,1.632-6.498,1.632c-2.937,0-5.3-0.849-7.023-2.519
		c-1.721-1.666-2.593-3.955-2.593-6.805V6.703h5.599v20.602c0,2.491,0.398,4.229,1.221,5.309c0.832,1.103,2.217,1.657,4.116,1.657
		c3.975,0,7.762-2.387,11.259-7.095l0.074-0.1v-0.123V6.703L60.448,6.703z"/>
	<path fill="#087DC2" d="M76.627,10.651c-2.656,3.242-4.002,7.593-4.002,12.933c0,4.562,1.172,8.261,3.484,10.996
		c2.304,2.729,5.417,4.109,9.251,4.109c2.971,0,5.486-0.8,7.473-2.375c1.998-1.587,4.003-4.39,5.958-8.332l0.172-0.345l0.681,1.433
		l1.064,2.256l1.321,2.812l1.45,3.047c0.002,0.006,0.287,0.561,0.397,0.771h6.337c-0.794-1.426-1.801-3.398-3.011-5.912
		l-2.254-4.449l-1.999-3.898l-0.687-1.5l0.047-0.082c3.397-5.986,5.688-11.227,6.838-15.6h-5.532
		c-0.771,3.445-1.905,7.05-3.386,10.722l-0.163,0.405l-0.182-0.397c-2.064-4.506-3.989-7.58-5.723-9.137
		c-1.718-1.543-4.061-2.325-6.965-2.325C82.83,5.784,79.273,7.421,76.627,10.651 M79.018,22.647L79.018,22.647
		c0-3.707,0.697-6.804,2.071-9.204c1.393-2.435,3.211-3.669,5.4-3.669c1.554,0,2.962,0.717,4.186,2.13
		c1.197,1.383,2.784,4.122,4.716,8.142l1.62,3.336l-0.043,0.083c-2.19,4.234-4.075,7.195-5.606,8.802
		c-1.555,1.634-3.292,2.462-5.164,2.462c-2.166,0-3.929-1.13-5.237-3.359C79.671,29.174,79.018,26.241,79.018,22.647"/>
	<path fill="#087DC2" d="M87.195,5.596c-4.446,0-8.019,1.646-10.714,4.936c-2.697,3.292-4.044,7.643-4.044,13.052
		c0,4.63,1.176,8.334,3.528,11.119c2.352,2.781,5.484,4.175,9.394,4.175c3.029,0,5.559-0.806,7.589-2.416
		c2.031-1.611,4.034-4.41,6.01-8.396l0.516,1.084l1.063,2.256l1.322,2.812l1.451,3.047c0.041,0.1,0.192,0.393,0.45,0.879h6.338
		h0.056h0.375c-0.817-1.443-1.87-3.504-3.159-6.181c-0.86-1.72-1.612-3.203-2.256-4.454c-1.053-2.031-1.719-3.329-1.999-3.896
		l-0.644-1.406c3.383-5.961,5.66-11.129,6.83-15.503c0.002-0.004,0.003-0.009,0.004-0.012c0.032-0.122,0.065-0.243,0.095-0.363
		h-5.93c-0.773,3.496-1.912,7.109-3.416,10.839c-2.084-4.55-4.007-7.617-5.769-9.199C92.525,6.387,90.16,5.596,87.195,5.596
		 M85.359,38.502c-3.777,0-6.841-1.359-9.107-4.041c-2.283-2.7-3.44-6.359-3.44-10.877c0-5.296,1.332-9.608,3.958-12.814
		c1.307-1.593,2.843-2.804,4.568-3.599c1.728-0.797,3.699-1.2,5.857-1.2c2.856,0,5.157,0.766,6.84,2.277
		c1.714,1.539,3.624,4.593,5.678,9.076l0.363,0.792l0.327-0.807c1.461-3.629,2.594-7.195,3.367-10.605h5.144
		c-1.168,4.309-3.444,9.459-6.769,15.318l-0.095,0.168l0.08,0.174l0.646,1.406l0.001,0.006l0.003,0.004
		c0.278,0.564,0.932,1.842,2.001,3.903c0.623,1.208,1.36,2.664,2.254,4.448c1.125,2.338,2.084,4.23,2.855,5.639h-5.904
		c-0.19-0.363-0.301-0.58-0.331-0.65l-0.003-0.008l-0.005-0.006l-1.45-3.047l-1.32-2.812l-1.064-2.256l-0.515-1.086l-0.332-0.697
		l-0.343,0.693c-1.943,3.916-3.932,6.696-5.908,8.266C90.762,37.716,88.289,38.502,85.359,38.502 M86.487,9.587
		c-2.262,0-4.132,1.266-5.562,3.762c-1.391,2.429-2.096,5.557-2.096,9.298c0,3.625,0.661,6.592,1.969,8.818
		c1.344,2.29,3.159,3.451,5.399,3.451c1.925,0,3.707-0.848,5.299-2.518c1.542-1.621,3.439-4.599,5.636-8.849l0.087-0.167
		l-0.082-0.169l-1.579-3.252c-1.938-4.033-3.534-6.786-4.743-8.182C89.553,10.325,88.097,9.587,86.487,9.587 M79.206,22.647
		c0-3.691,0.682-6.728,2.047-9.112c1.363-2.382,3.109-3.573,5.236-3.573c1.503,0,2.852,0.688,4.045,2.065
		c1.191,1.377,2.754,4.077,4.688,8.1l1.58,3.252c-2.192,4.238-4.05,7.158-5.576,8.76c-1.525,1.604-3.202,2.402-5.027,2.402
		c-2.105,0-3.797-1.088-5.075-3.266C79.843,29.096,79.206,26.221,79.206,22.647"/>
	<path fill="#221F1F" d="M134.365,5.813c-4.771,0-8.862,2.222-12.161,6.605l-0.337,0.448v-6.35h-5.974v31.441h5.974v-20.47
		l0.037-0.049c3.459-4.658,7.206-7.02,11.139-7.02c1.815,0,3.14,0.533,3.937,1.583c0.785,1.036,1.183,2.774,1.183,5.167v20.79h5.975
		V15.293c0-2.882-0.893-5.207-2.65-6.911C139.724,6.677,137.329,5.813,134.365,5.813"/>
	<path fill="#221F1F" d="M134.364,5.625c-4.856,0-8.959,2.226-12.311,6.68V6.328h-6.348v31.816h6.348V17.549
		c3.438-4.629,7.102-6.943,10.99-6.943c1.761,0,3.023,0.503,3.788,1.509c0.762,1.006,1.141,2.691,1.141,5.053v20.977h6.35V15.293
		c0-2.949-0.9-5.297-2.705-7.045C139.812,6.499,137.394,5.625,134.364,5.625 M121.678,13.427l0.675-0.896
		c1.636-2.174,3.476-3.824,5.469-4.907C129.811,6.547,132.01,6,134.363,6c2.916,0,5.267,0.847,6.991,2.517
		c1.721,1.667,2.592,3.947,2.592,6.776V37.77h-5.6V17.168c0-2.47-0.397-4.197-1.219-5.28c-0.836-1.1-2.21-1.657-4.085-1.657
		c-3.996,0-7.794,2.387-11.29,7.095l-0.075,0.099v0.124v20.22h-5.598V6.703h5.598v5.602L121.678,13.427L121.678,13.427z"/>
	<path fill="#221F1F" d="M152.49,0.729v5.787h-4.383v3.961h4.383v18.878c0,2.923,0.89,5.229,2.646,6.865
		c1.761,1.64,4.257,2.47,7.414,2.47c1.377,0,3.033-0.24,4.904-0.699v-3.606c-1.104,0.224-2.082,0.346-2.875,0.346
		c-4.059,0-6.117-2.159-6.117-6.428V10.477h9.152V6.516h-9.152V0.205C158.093,0.238,152.804,0.702,152.49,0.729"/>
	<path fill="#221F1F" d="M158.65,0l-6.349,0.557v5.772h-4.385v4.335h4.385v18.691c0,2.988,0.9,5.322,2.705,7.003
		c1.806,1.68,4.318,2.521,7.543,2.521c1.439,0,3.136-0.245,5.091-0.732v-3.985c-1.201,0.254-2.224,0.381-3.062,0.381
		c-3.953,0-5.93-2.079-5.93-6.24V10.664h9.15V6.329h-9.15L158.65,0L158.65,0z M152.677,0.901l5.6-0.491v5.919v0.375h0.375h8.777
		v3.585h-8.777h-0.375v0.375v17.637c0,2.17,0.533,3.832,1.586,4.939c1.057,1.111,2.645,1.676,4.721,1.676
		c0.752,0,1.654-0.1,2.687-0.299v3.23c-1.8,0.436-3.386,0.65-4.718,0.65c-3.108,0-5.562-0.812-7.285-2.418
		c-1.717-1.598-2.588-3.86-2.588-6.729v-18.69v-0.375h-0.375h-4.008V6.702h4.008h0.375V6.327L152.677,0.901L152.677,0.901z"/>
	<path fill="#221F1F" d="M174.093,10.098c-3.029,2.84-4.564,6.865-4.564,11.963c0,4.771,1.555,8.778,4.619,11.91
		c3.062,3.131,6.977,4.719,11.629,4.719c2.918,0,6.436-0.562,10.445-1.658v-4.561c-2.99,1.275-5.941,1.936-8.771,1.936
		c-3.305,0-6.02-1.135-8.064-3.371c-2.041-2.23-3.077-5.19-3.077-8.799c0-3.721,1.008-6.744,2.995-8.986
		c1.994-2.249,4.673-3.389,7.955-3.389c2.209,0,5.101,0.471,8.578,1.385V6.808c-3.287-0.657-6.305-0.994-8.967-0.994
		C181.425,5.813,177.126,7.254,174.093,10.098"/>
	<path fill="#221F1F" d="M186.872,5.625c-5.521,0-9.826,1.446-12.908,4.337c-3.084,2.89-4.623,6.924-4.623,12.099
		c0,4.846,1.559,8.857,4.67,12.041c3.117,3.186,7.037,4.775,11.766,4.775c2.984,0,6.529-0.566,10.635-1.699v-4.98
		c-3.072,1.35-6.059,2.021-8.959,2.021c-3.266,0-5.908-1.104-7.928-3.311c-2.021-2.207-3.029-5.099-3.029-8.672
		c0-3.691,0.982-6.645,2.949-8.862c1.965-2.217,4.568-3.326,7.812-3.326c2.18,0,4.975,0.447,8.393,1.337
		c0.006,0.001,0.008,0.002,0.014,0.003c0.119,0.031,0.24,0.064,0.361,0.096V6.651C192.65,5.968,189.601,5.625,186.872,5.625
		 M185.775,38.502c-4.603,0-8.47-1.568-11.496-4.663c-3.028-3.095-4.565-7.058-4.565-11.778c0-5.045,1.518-9.024,4.506-11.826
		C177.218,7.425,181.476,6,186.872,6c2.604,0,5.557,0.322,8.776,0.958v4.041c-3.396-0.879-6.218-1.325-8.394-1.325
		c-3.342,0-6.063,1.162-8.096,3.452c-2.018,2.277-3.043,5.342-3.043,9.111c0,3.655,1.053,6.658,3.129,8.926
		c2.082,2.277,4.842,3.432,8.203,3.432c2.773,0,5.658-0.615,8.584-1.829v4.128C192.095,37.959,188.646,38.502,185.775,38.502"/>
	<path fill="#221F1F" d="M202.233,8.135v4.355c3.797-1.792,7.389-2.716,10.674-2.716c4.271,0,6.439,1.926,6.439,5.725v4.025h-1.701
		c-5.934,0-10.547,0.933-13.717,2.773c-3.135,1.82-4.726,4.462-4.726,7.852c0,2.45,0.943,4.508,2.804,6.111
		c1.869,1.613,4.256,2.43,7.098,2.43c3.463,0,7.119-1.592,10.869-4.73l0.229-0.189l0.074,0.288c0.797,3.118,2.596,4.636,5.49,4.636
		c1.654,0,3.184-0.307,4.561-0.883c-0.035-0.268-0.359-2.561-0.402-2.857c-0.271,0.024-1.063,0.103-1.063,0.103
		c-2.349,0-3.539-1.729-3.539-5.14V15.498c0-3.306-0.914-5.771-2.723-7.329c-1.814-1.564-4.688-2.356-8.529-2.356
		C210.404,5.813,206.423,6.597,202.233,8.135 M205.179,29.209L205.179,29.209c0-2.018,1.115-3.663,3.318-4.895
		c2.166-1.212,5.038-1.826,8.534-1.826l2.313,0.064v8.509l-0.075,0.056c-2.877,2.146-5.69,3.231-8.361,3.231
		c-1.588,0-2.952-0.499-4.057-1.483C205.74,31.877,205.179,30.646,205.179,29.209"/>
	<path fill="#221F1F" d="M214.067,5.625c-3.738,0-7.746,0.791-12.021,2.373v4.36v0.041v0.375c0.114-0.055,0.229-0.109,0.34-0.162
		c0.014-0.005,0.022-0.011,0.035-0.017c3.748-1.756,7.242-2.634,10.485-2.634c4.168,0,6.252,1.846,6.252,5.537v3.838h-1.516
		c-5.994,0-10.599,0.933-13.81,2.798c-3.211,1.864-4.817,4.536-4.817,8.013c0,2.52,0.956,4.604,2.866,6.256
		c1.912,1.647,4.318,2.476,7.22,2.476c3.524,0,7.188-1.593,10.991-4.775c0.814,3.185,2.707,4.775,5.67,4.775
		c1.74,0,3.33-0.312,4.771-0.938l-0.448-3.193c-0.539,0.078-0.947,0.117-1.228,0.117c-2.231,0-3.353-1.647-3.353-4.951V15.498
		c0-3.378-0.93-5.869-2.787-7.47C220.861,6.426,217.976,5.625,214.067,5.625 M202.421,8.26c4.123-1.5,8.041-2.26,11.646-2.26
		c3.799,0,6.625,0.777,8.408,2.312c1.764,1.519,2.656,3.937,2.656,7.186v14.415c0,1.72,0.305,3.041,0.901,3.925
		c0.63,0.932,1.58,1.401,2.824,1.401c0.229,0,0.526-0.022,0.905-0.07l0.357,2.537c-1.316,0.529-2.781,0.798-4.357,0.798
		c-2.797,0-4.532-1.472-5.309-4.492l-0.146-0.577l-0.457,0.383c-3.716,3.108-7.332,4.688-10.75,4.688
		c-2.793,0-5.142-0.803-6.974-2.385c-1.815-1.566-2.737-3.578-2.737-5.971c0-1.662,0.387-3.148,1.149-4.419
		c0.769-1.274,1.938-2.375,3.479-3.272c3.141-1.821,7.725-2.745,13.621-2.745h1.516h0.375v-0.375v-3.838
		c0-1.949-0.568-3.441-1.688-4.434c-1.106-0.981-2.771-1.478-4.938-1.478c-3.235,0-6.762,0.873-10.485,2.596V8.26H202.421z
		 M217.042,22.301h-0.004h-0.007c-3.528,0-6.432,0.622-8.625,1.85c-2.269,1.266-3.416,2.969-3.416,5.059
		c0,1.494,0.584,2.77,1.736,3.795c1.139,1.017,2.545,1.531,4.182,1.531c2.714,0,5.562-1.102,8.474-3.269l0.151-0.112v-0.188v-8.231
		V22.37l-0.364-0.01L217.042,22.301z M205.365,29.209c0-1.953,1.072-3.529,3.224-4.73c2.147-1.201,4.963-1.802,8.442-1.802
		l2.127,0.058v8.232c-2.856,2.13-5.606,3.193-8.25,3.193c-1.547,0-2.856-0.479-3.934-1.438
		C205.902,31.768,205.365,30.596,205.365,29.209"/>
	<path fill="#221F1F" d="M236.13,8.164c-2.101,1.548-3.164,3.7-3.164,6.397c0,3.783,2.725,6.73,8.098,8.76l3.707,1.437
		c3.438,1.313,5.18,3.019,5.18,5.067c0,1.402-0.633,2.588-1.881,3.52c-1.229,0.92-2.797,1.385-4.654,1.385
		c-3.018,0-6.602-0.924-10.641-2.721v4.881c4.049,1.191,7.545,1.803,10.383,1.803c3.725,0,6.818-0.896,9.201-2.66
		c2.365-1.75,3.564-4.018,3.564-6.732c0-2.146-0.707-3.958-2.105-5.391c-1.414-1.449-3.861-2.848-7.281-4.161l-3.061-1.172
		c-3.158-1.216-4.762-2.754-4.762-4.57c0-2.807,2.123-4.23,6.312-4.23c2.039,0,4.824,0.47,8.256,1.383V6.75
		c-0.24-0.042-1.168-0.207-1.168-0.207c-2.855-0.484-5.283-0.729-7.217-0.729C241.193,5.813,238.245,6.604,236.13,8.164"/>
	<path fill="#221F1F" d="M244.897,5.625c-3.764,0-6.721,0.796-8.879,2.388c-2.16,1.592-3.238,3.774-3.238,6.548
		c0,3.886,2.738,6.865,8.219,8.936l3.703,1.436c3.373,1.288,5.061,2.92,5.061,4.893c0,1.349-0.604,2.472-1.803,3.369
		c-1.205,0.897-2.721,1.348-4.545,1.348c-3.072,0-6.684-0.938-10.828-2.812v0.375v0.037v4.892c4.146,1.229,7.67,1.847,10.568,1.847
		c3.781,0,6.887-0.897,9.314-2.694c2.428-1.798,3.641-4.091,3.641-6.886c0-2.207-0.719-4.048-2.16-5.521
		c-1.438-1.476-3.887-2.876-7.348-4.206l-3.061-1.171c-3.095-1.192-4.642-2.656-4.642-4.395c0-2.695,2.041-4.043,6.125-4.043
		c2.008,0,4.696,0.445,8.065,1.335c0.006,0.002,0.011,0.003,0.015,0.004c0.118,0.032,0.239,0.064,0.36,0.096V6.596l-1.319-0.235
		C249.267,5.87,246.851,5.625,244.897,5.625 M243.413,34.917c1.901,0,3.506-0.479,4.77-1.422c1.299-0.969,1.955-2.203,1.955-3.67
		c0-2.135-1.783-3.898-5.301-5.244l-3.705-1.435c-2.672-1.01-4.697-2.252-6.021-3.691c-1.297-1.411-1.955-3.058-1.955-4.895
		c0-2.672,1.01-4.715,3.088-6.247c2.082-1.536,4.994-2.314,8.656-2.314c1.916,0,4.334,0.244,7.186,0.727V6.725l1.012,0.18v4.003
		c-3.344-0.878-6.057-1.323-8.067-1.323c-2.106,0-3.724,0.361-4.801,1.073c-1.127,0.744-1.699,1.869-1.699,3.345
		c0,1.902,1.644,3.498,4.881,4.745l3.062,1.171c3.392,1.303,5.82,2.689,7.214,4.117c1.362,1.396,2.053,3.166,2.053,5.26
		c0,2.691-1.142,4.846-3.487,6.584c-2.351,1.738-5.408,2.619-9.093,2.619c-2.789,0-6.217-0.588-10.192-1.75v-4.443
		C236.919,34.04,240.435,34.917,243.413,34.917"/>
	<path fill="#221F1F" d="M262.595,0.729v5.787h-4.383v3.961h4.383v18.878c0,2.923,0.891,5.229,2.646,6.865
		c1.761,1.64,4.255,2.47,7.414,2.47c1.377,0,3.033-0.24,4.904-0.699v-3.606c-1.107,0.224-2.084,0.346-2.875,0.346
		c-4.06,0-6.117-2.159-6.117-6.428V10.477h9.151V6.516h-9.15V0.205C268.195,0.238,262.908,0.702,262.595,0.729"/>
	<path fill="#221F1F" d="M268.755,0l-6.349,0.557v5.772h-4.383v4.335h4.383v18.691c0,2.988,0.902,5.322,2.707,7.003
		c1.806,1.68,4.317,2.521,7.541,2.521c1.438,0,3.136-0.245,5.093-0.732v-3.985c-1.205,0.254-2.224,0.381-3.062,0.381
		c-3.955,0-5.933-2.079-5.933-6.24V10.664h9.152V6.329h-9.152L268.755,0L268.755,0z M262.781,0.901l5.599-0.491v5.919v0.375h0.375
		h8.776v3.585h-8.776h-0.375v0.375v17.637c0,2.17,0.533,3.831,1.588,4.939c1.057,1.111,2.645,1.676,4.719,1.676
		c0.754,0,1.654-0.1,2.688-0.299v3.23c-1.803,0.436-3.387,0.65-4.717,0.65c-3.111,0-5.562-0.812-7.285-2.418
		c-1.717-1.598-2.588-3.86-2.588-6.729v-18.69v-0.375h-0.375h-4.008V6.702h4.008h0.375V6.327V0.901H262.781z"/>
</g>
</svg>
