<?xml version="1.0" encoding="utf-8"?>
<!-- Generator: Adobe Illustrator 16.0.0, SVG Export Plug-In . SVG Version: 6.00 Build 0)  -->
<!DOCTYPE svg PUBLIC "-//W3C//DTD SVG 1.1//EN" "http://www.w3.org/Graphics/SVG/1.1/DTD/svg11.dtd">
<svg version="1.1" id="Layer_1" xmlns="http://www.w3.org/2000/svg" xmlns:xlink="http://www.w3.org/1999/xlink" x="0px" y="0px"
	 width="121.389px" height="32.346px" viewBox="0 0 121.389 32.346" enable-background="new 0 0 121.389 32.346"
	 xml:space="preserve">
<g>
	<rect x="86.655" y="26.06" width="34.408" height="6.287"/>
	<rect x="0.295" y="26.06" width="34.411" height="6.287"/>
	<rect x="43.477" y="26.06" width="34.411" height="6.287"/>
	<g>
		<path d="M7.835,0C3.002,0-0.001,3.416-0.001,8.915c0,5.486,3.003,8.895,7.836,8.895c4.848,0,7.855-3.408,7.855-8.895
			C15.691,3.415,12.682,0,7.835,0z M13.808,8.914c0,4.467-2.233,7.135-5.974,7.135c-3.724,0-5.947-2.667-5.947-7.135
			c0-4.48,2.225-7.158,5.947-7.158C11.574,1.756,13.808,4.434,13.808,8.914z"/>
		<path d="M34.148,0.359h-1.007c0,0-4.71,11.958-5.232,13.286c-0.525-1.326-5.285-13.286-5.285-13.286h-1.297l-2.289,17.089h1.927
			c0,0,1.322-9.804,1.585-11.745c0.746,1.85,4.872,12.094,4.872,12.094h0.946c0,0,4.021-10.321,4.753-12.191
			c0.277,1.954,1.688,11.843,1.688,11.843h1.921L34.425,0.359H34.148z"/>
		<path d="M52.559,0.359c0,0,0,11.424,0,13.04c-1.011-1.322-9.977-13.04-9.977-13.04h-1.151v17.089h1.841c0,0,0-11.217,0-12.842
			c1.015,1.339,9.976,13.19,9.976,13.19h1.148V0.359h-0.314H52.559z"/>
		<polygon points="59.575,0.359 59.575,17.448 61.415,17.448 61.415,0.359 61.099,0.359 		"/>
		<path d="M64.52,0.359v1.773c0,0,4.668,0,5.225,0c0,0.604,0,15.315,0,15.315h1.865c0,0,0-14.711,0-15.315c0.557,0,5.133,0,5.133,0
			V0.359H76.43H64.52z"/>
		<path d="M90.665,0.359v10.604c0,3.375-1.561,5.087-4.641,5.087c-3.078,0-4.643-1.712-4.643-5.087V0.359h-1.844v10.959
			c0,4.063,2.428,6.49,6.482,6.49c3.996,0,6.48-2.487,6.48-6.49V0.359h-0.316H90.665z"/>
		<path d="M108.014,5.086c0-3.271-1.904-4.728-6.18-4.728h-4.609h-0.314v17.089h1.865c0,0,0-6.99,0-7.568c0.463,0,1.994,0,2.219,0
			c0.188,0.214,6.525,7.568,6.525,7.568l2.5-0.021c0,0-5.963-6.827-6.664-7.634C105.118,9.552,108.014,8.622,108.014,5.086z
			 M98.776,2.132c0.521,0,3.059,0,3.059,0c1.717,0,2.727,0.039,3.535,0.861c0.521,0.524,0.783,1.249,0.783,2.157
			c0,2.004-1.283,2.977-3.926,2.977c0,0-2.92,0-3.451,0C98.776,7.584,98.776,2.676,98.776,2.132z"/>
		<path d="M113.778,15.655c0-0.545,0-5.652,0-6.198c0.57,0,6.578,0,6.578,0V7.681c0,0-6.008,0-6.578,0c0-0.537,0-4.99,0-5.525
			c0.578,0,7.381,0,7.381,0V0.359h-0.312h-8.926v17.089h9.469v-1.793C121.387,15.655,114.358,15.655,113.778,15.655z"/>
	</g>
</g>
</svg>
