<?xml version="1.0" encoding="utf-8"?>
<!-- Generator: Adobe Illustrator 16.0.0, SVG Export Plug-In . SVG Version: 6.00 Build 0)  -->
<!DOCTYPE svg PUBLIC "-//W3C//DTD SVG 1.1//EN" "http://www.w3.org/Graphics/SVG/1.1/DTD/svg11.dtd">
<svg version="1.1" id="Layer_1" xmlns="http://www.w3.org/2000/svg" xmlns:xlink="http://www.w3.org/1999/xlink" x="0px" y="0px"
	 width="116.785px" height="50.512px" viewBox="0 0 116.785 50.512" enable-background="new 0 0 116.785 50.512"
	 xml:space="preserve">
<g>
	<path d="M95.06,10.57h-3.908c-0.951,0-1.908,0.755-2.123,1.677l-1.895,8.09c2.592,0.146,4.988,0.385,7.203,0.693l2.057-8.783
		C96.61,11.324,96.009,10.57,95.06,10.57 M84.839,15.031h-3.908c-0.947,0-1.904,0.756-2.121,1.678l-0.834,3.555
		c0.607-0.047,1.234-0.078,1.904-0.086c1.908-0.021,3.729,0.006,5.465,0.072l0.83-3.541C86.39,15.787,85.788,15.031,84.839,15.031
		 M104.771,6.727h-3.906c-0.951,0-1.906,0.754-2.121,1.676l-3.008,12.835c2.6,0.411,4.934,0.922,7.018,1.489l3.355-14.324
		C106.323,7.48,105.722,6.727,104.771,6.727 M115.405,0h-3.908c-0.951,0-1.908,0.754-2.123,1.676l-5.037,21.508
		c2.688,0.818,4.918,1.73,6.748,2.631l5.656-24.139C116.956,0.754,116.354,0,115.405,0"/>
	<path d="M4.471,29.064c0.231-1.006,1.267-1.828,2.299-1.828h3.876c1.032,0,1.847,0.845,1.811,1.875l-0.095,2.683
		c-0.036,1.031-0.09,2.719-0.119,3.752c0,0-0.044,1.518-0.044,2.164c-0.097,1.94-0.193,3.522-0.322,5.625
		c0.452-1.066,1.002-2.394,1.615-3.814c0.485-1.162,1.164-2.777,1.487-3.521l3.12-7.045c0.418-0.942,1.604-1.715,2.636-1.715h3.843
		c1.032,0,1.688,0.82,1.455,1.826l-4.425,19.163c-0.231,1.008-1.267,1.828-2.299,1.828h-1.386c-1.032,0-1.669-0.815-1.415-1.815
		l3.376-13.302c0.254-1.002,0.116-1.051-0.307-0.106l-6.061,13.514c-0.423,0.941-1.613,1.711-2.645,1.711h-0.869
		c-1.032,0-1.869-0.844-1.859-1.875l0.126-13.186c0.01-1.033-0.154-1.052-0.365-0.039L5.146,48.221
		c-0.21,1.01-1.227,1.836-2.259,1.836H1.502c-1.032,0-1.688-0.818-1.455-1.828L4.471,29.064z"/>
	<path d="M34.085,41.943c-1.164,0.356-2.651,0.81-3.266,1.296c-0.84,0.678-1.066,2.52-1.066,2.844c0,0.582,0.259,1.065,1.131,1.065
		h0.905c0.676-0.567,1.438-1.853,1.694-2.854L34.085,41.943z M37.544,48.086c-0.032,0.26-0.098,0.518-0.098,0.777
		c0,0.774,0.227,0.936,0.485,1.194h-4.007c-1.032,0-1.775-0.408-1.651-0.903c0.125-0.498-0.412-0.354-1.193,0.319
		c0,0-1.198,1.037-3.234,1.037c-0.356,0-3.427,0-3.427-3.138c0-1.065,0.679-4.104,1.745-5.334c1.067-1.229,2.619-1.682,8.664-3.426
		c0.161-0.682,0.389-1.779,0.389-2.037c0-0.906-0.841-0.971-1.391-0.971c-1.455,0-1.714,0.773-2.198,2.521h-3.037
		c-1.032,0-1.647-0.814-1.366-1.808c0,0,0.621-2.202,2.205-3.012c1.196-0.613,2.844-0.903,4.655-0.903
		c2.974,0,6.045,0.743,6.045,3.78v0.646c-0.16,0.711-0.481,2.117-0.712,3.123L37.544,48.086z"/>
	<path d="M48.276,36.189c1.422-2.715,2.488-3.33,5.205-3.75l-0.807,3.004c-0.27,0.998-0.807,1.8-1.197,1.781H51.12
		c-2.844,0-3.361,1.229-4.105,4.396l-1.52,6.605c-0.23,1.006-1.264,1.83-2.297,1.83h-1.354c-1.032,0-1.687-0.824-1.454-1.83
		l3.163-13.668c0.232-1.006,1.268-1.83,2.299-1.83h1.354c1.033,0,1.686,0.824,1.451,1.828L48.276,36.189z"/>
	<path d="M59.265,27.236c1.033,0,1.686,0.822,1.455,1.828l-1.938,8.369c-0.232,1.004,0.113,1.176,0.771,0.379l2.98-3.633
		c0.656-0.798,2.037-1.449,3.066-1.449h2.033c1.031,0,1.312,0.629,0.619,1.396l-4.211,4.678c-0.689,0.77-1.012,2.203-0.713,3.193
		l1.889,6.264c0.299,0.99-0.303,1.799-1.334,1.799h-1.549c-1.031,0-2.092-0.814-2.354-1.812l-1.498-5.684
		c-0.264-0.998-0.668-0.99-0.898,0.016l-1.295,5.65c-0.23,1.006-1.264,1.83-2.297,1.83h-1.385c-1.033,0-1.688-0.824-1.455-1.83
		l4.424-19.164c0.232-1.006,1.268-1.826,2.299-1.826L59.265,27.236L59.265,27.236z"/>
	<path d="M77.597,39.455c0.129-0.549,0.451-1.908,0.451-2.359c0-0.324-0.064-0.646-0.26-0.873c-0.32-0.389-0.902-0.453-1.229-0.453
		c-1.584,0-1.938,1.844-1.938,1.844c-0.194,1.016,0.488,1.844,1.521,1.844L77.597,39.455L77.597,39.455z M81.767,44.467
		c-0.324,1.291-0.68,2.811-1.746,3.975c-1.035,1.197-2.748,2.07-5.787,2.07c-0.873,0-3.297-0.129-4.816-1.326
		c-0.742-0.582-1.422-1.486-1.422-3.33c0-2.295,1.648-8.664,2.197-9.957c0.582-1.389,1.939-3.588,6.66-3.588
		c2.068,0,6.109,0.391,6.109,4.234c0,0.713-0.131,1.455-0.291,2.199c-0.26,1.262-0.52,2.426-0.842,3.879h-6.396
		c-1.033,0-2.074,0.821-2.316,1.824c0,0-0.143,0.6-0.143,1.344c0,0.162,0.031,0.354,0.096,0.518
		c0.227,0.389,0.744,0.646,1.424,0.646c1.453,0,1.6-0.656,1.6-0.656c0.225-1.008,1.248-1.832,2.281-1.832H81.767z"/>
	<path d="M88.206,29.033c0.229-1.007,1.262-1.83,2.293-1.83h1.322c1.033,0,1.686,0.821,1.449,1.828l-0.438,1.87
		c-0.235,1.007,0.089,1.828,0.72,1.828c0.633,0,0.981,0.699,0.776,1.554c-0.205,0.854-0.883,1.553-1.504,1.553
		s-1.321,0.82-1.558,1.826l-1.25,5.362c-0.233,1.007-0.481,2.147-0.555,2.539v0.291c0,0.903,0.646,0.903,2.102,0.903l-0.331,1.468
		c-0.228,1.008-1.259,1.832-2.289,1.832c0,0-5.011,0-5.011-2.586c0-0.552,0.101-0.972,0.291-1.683l1.955-8.131
		c0.239-1.008-0.026-1.824-0.597-1.824c-0.567,0-0.875-0.698-0.678-1.553c0.192-0.854,0.825-1.555,1.403-1.555
		s1.238-0.822,1.468-1.83L88.206,29.033z"/>
	<path d="M103.72,37.709c0.064-0.228,0.1-0.451,0.1-0.68c0.029-0.841-0.615-1.291-1.393-1.291c-1.391,0-1.682,1.194-1.844,1.971
		l-1.189,5.092c-0.232,1.004-0.482,2.117-0.555,2.473v0.355c0,0.68,0.387,1.326,1.389,1.326c1.393,0,1.51-0.5,1.51-0.5
		c0.236-1.006,0.615-2.652,0.842-3.658L103.72,37.709z M108.827,37.03c0,1.812-1.391,7.563-1.875,9.053
		c-0.613,1.811-1.615,4.362-6.789,4.362c-3.879,0-6.367-1.293-6.367-4.688c0-1.873,1.453-7.596,1.744-8.5
		c0.551-1.844,1.648-4.979,6.627-4.979C104.755,32.277,108.827,32.699,108.827,37.03"/>
</g>
</svg>
