<?xml version="1.0" encoding="utf-8"?>
<!-- Generator: Adobe Illustrator 16.0.0, SVG Export Plug-In . SVG Version: 6.00 Build 0)  -->
<!DOCTYPE svg PUBLIC "-//W3C//DTD SVG 1.1//EN" "http://www.w3.org/Graphics/SVG/1.1/DTD/svg11.dtd">
<svg version="1.1" id="Layer_1" xmlns="http://www.w3.org/2000/svg" xmlns:xlink="http://www.w3.org/1999/xlink" x="0px" y="0px"
	 width="81.75px" height="29.838px" viewBox="0 0 81.75 29.838" enable-background="new 0 0 81.75 29.838" xml:space="preserve">
<g>
	<path d="M38.811,10.684c-0.309-0.254-0.647-0.438-1.019-0.551c-0.371-0.113-0.759-0.182-1.163-0.208
		c-0.404-0.026-0.978-0.039-1.719-0.039h-4.501v2.277h3.405c0.609,0,1.026,0.044,1.251,0.132c0.227,0.088,0.339,0.32,0.339,0.695
		c0,0.053-0.002,0.095-0.007,0.128c-0.003,0.032-0.01,0.068-0.018,0.109h-1.563c-0.708,0-1.271,0.009-1.687,0.027
		c-0.417,0.017-0.825,0.068-1.227,0.151c-0.399,0.084-0.766,0.213-1.099,0.386c-0.859,0.475-1.288,1.187-1.288,2.135
		c0,1.007,0.504,1.776,1.511,2.31c0.492,0.254,1.053,0.416,1.682,0.486c0.629,0.066,1.451,0.104,2.468,0.104h5.471V13.01
		c0-0.555-0.056-1.015-0.168-1.38C39.368,11.266,39.144,10.951,38.811,10.684 M35.405,16.688h-1.332
		c-0.997,0-1.496-0.254-1.496-0.763c0-0.317,0.121-0.538,0.363-0.663c0.243-0.123,0.621-0.187,1.133-0.187h1.332V16.688z"/>
	<path d="M46.184,10.099c-0.562,0.183-0.992,0.586-1.291,1.207l-0.074-1.482H40.78v9h4.326v-4.853c0-0.41,0.035-0.701,0.104-0.874
		c0.07-0.173,0.221-0.29,0.443-0.35c0.225-0.061,0.609-0.091,1.156-0.091h1.994V9.823h-0.287
		C47.522,9.824,46.745,9.916,46.184,10.099"/>
	<path d="M56.643,9.845H55.28c-1.174,0-2.1,0.042-2.779,0.126s-1.293,0.285-1.842,0.602c-0.342,0.191-0.631,0.415-0.869,0.672
		c-0.236,0.257-0.416,0.53-0.537,0.819c-0.119,0.289-0.203,0.607-0.25,0.954c-0.045,0.346-0.066,0.768-0.066,1.265
		c0,0.641,0.049,1.192,0.148,1.653c0.1,0.463,0.275,0.867,0.529,1.215c0.256,0.348,0.619,0.654,1.094,0.928
		c0.375,0.215,0.807,0.377,1.293,0.484c0.486,0.109,1.012,0.182,1.572,0.213c0.562,0.031,1.242,0.048,2.041,0.048h5.396V6.975
		h-4.367V9.845L56.643,9.845z M56.768,16.403h-1.203c-0.752,0-1.301-0.059-1.646-0.178c-0.348-0.117-0.57-0.318-0.672-0.604
		c-0.1-0.285-0.148-0.73-0.148-1.336c0-0.881,0.176-1.439,0.531-1.672c0.354-0.233,1-0.35,1.938-0.35h1.201V16.403L56.768,16.403z"
		/>
	<path d="M71.897,10.492c-0.467-0.301-1.062-0.535-1.793-0.703s-1.539-0.252-2.432-0.252c-1.508,0-2.74,0.23-3.697,0.689
		c-0.959,0.46-1.602,1.135-1.928,2.025c-0.1,0.353-0.162,0.657-0.191,0.911c-0.027,0.255-0.043,0.617-0.043,1.086
		c0,0.642,0.041,1.188,0.125,1.636c0.084,0.45,0.25,0.857,0.5,1.227c0.25,0.367,0.615,0.699,1.094,0.994
		c0.48,0.295,1.08,0.523,1.799,0.691c0.723,0.168,1.502,0.252,2.346,0.252c0.863,0,1.662-0.088,2.391-0.265s1.342-0.427,1.832-0.75
		c0.666-0.429,1.109-0.933,1.33-1.511c0.223-0.58,0.332-1.336,0.332-2.273c0-0.955-0.109-1.716-0.332-2.283
		C73.008,11.4,72.563,10.908,71.897,10.492 M69.407,15.688c-0.062,0.316-0.227,0.57-0.49,0.76c-0.262,0.189-0.68,0.281-1.248,0.281
		c-0.512,0-0.896-0.094-1.154-0.281c-0.26-0.188-0.432-0.458-0.516-0.812c-0.084-0.353-0.125-0.816-0.125-1.389
		c0-0.81,0.119-1.413,0.355-1.81c0.24-0.396,0.719-0.594,1.438-0.594c0.568,0,0.982,0.095,1.242,0.286s0.424,0.443,0.488,0.755
		c0.066,0.313,0.102,0.767,0.102,1.363C69.5,14.89,69.471,15.37,69.407,15.688"/>
	<path d="M81.124,16.49c-0.633,0-1.031-0.054-1.197-0.156c-0.168-0.104-0.25-0.362-0.25-0.772V12.18h1.961V9.846h-1.961v-2.87
		h-3.121l-0.799,2.87h-2.123v2.334h1.799v3.557c0,0.813,0.1,1.438,0.299,1.869c0.199,0.431,0.574,0.742,1.123,0.933
		c0.551,0.19,1.371,0.287,2.461,0.287h2.436V16.49H81.124z"/>
	<path d="M6.306,7.462c-4.25,3.433-6.307,6.64-6.307,6.64l7.793,6.879C5.433,15.776,8.975,7.618,8.975,7.618
		C8.009,7.522,7.117,7.477,6.306,7.462"/>
	<path d="M20.005,12.608c0.283-0.609,0.575-1.196,0.873-1.765c-5.813-2.525-7.812-2.204-7.812-2.204
		c-3.711,12.939,3.639,21.199,3.639,21.199S15.975,21.295,20.005,12.608"/>
	<path d="M26.735,0c-5.978,0.398-11.292,1.596-16.046,4.416c0,0,7.952-0.31,12.413,2.599C25.211,2.904,26.735,0,26.735,0"/>
	<path d="M23.148,7.044c-1.126,1.153-1.706,2.532-2.316,3.906c2.8,1.778,2.517,4.061,1.998,4.988
		c-0.564,1.015-2.241,1.211-2.241,1.211c-0.773,1.563-1.019,3.974-1.019,3.974s3.897,0.028,5.755-2.154
		c2.284-2.686,2.993-7.129-1.047-11.028C23.938,7.612,23.56,7.314,23.148,7.044"/>
</g>
</svg>
