<?xml version="1.0" encoding="utf-8"?>
<!-- Generator: Adobe Illustrator 16.0.0, SVG Export Plug-In . SVG Version: 6.00 Build 0)  -->
<!DOCTYPE svg PUBLIC "-//W3C//DTD SVG 1.1//EN" "http://www.w3.org/Graphics/SVG/1.1/DTD/svg11.dtd">
<svg version="1.1" id="logo_copy_2_1_" xmlns="http://www.w3.org/2000/svg" xmlns:xlink="http://www.w3.org/1999/xlink" x="0px"
	 y="0px" width="494.895px" height="162.025px" viewBox="0 0 494.895 162.025" enable-background="new 0 0 494.895 162.025"
	 xml:space="preserve">
<g id="outlined">
	<g>
		<circle fill="#33547D" cx="22.667" cy="140.525" r="21.5"/>
		<circle fill="#33547D" cx="100.277" cy="140.76" r="15.207"/>
		<circle fill="#33547D" cx="164.252" cy="140.76" r="6.904"/>
	</g>
	<g>
		<path fill="#33547D" d="M96.181,95.479c-3.78,0-6.58-2.939-6.58-6.58v-28c0-9.66-4.62-17.08-14.98-17.08
			c-10.36,0-16.66,7.98-16.66,17.221v27.859c0,3.641-2.52,6.58-6.58,6.58c-3.92,0-6.58-2.939-6.58-6.58v-28
			c0-9.66-5.04-17.08-15.4-17.08c-10.64,0-16.24,7.98-16.24,17.221v27.859c0,3.641-2.66,6.58-6.58,6.58C2.8,95.479,0,92.54,0,88.899
			v-49.7c0-3.92,2.52-6.72,6.58-6.72c4.48,0,6.58,3.08,6.58,6.72v4.48c3.78-7.42,11.48-11.76,19.74-11.76
			c10.08,0,17.64,5.04,21.42,12.46c5.46-8.4,13.44-12.46,23.38-12.46c16.94,0,25.06,11.62,25.06,28v28.979
			C102.759,92.54,100.101,95.479,96.181,95.479z"/>
		<path fill="#33547D" d="M121.241,7.559c4.2,0,7.7,3.5,7.7,7.7s-3.5,7.7-7.7,7.7c-4.2,0-7.7-3.5-7.7-7.7
			S117.041,7.559,121.241,7.559z M121.241,95.479c-3.92,0-6.58-2.939-6.58-6.58v-49.84c0-3.64,2.8-6.58,6.58-6.58
			c3.78,0,6.58,2.94,6.58,6.58v49.84C127.819,92.54,125.161,95.479,121.241,95.479z"/>
		<path fill="#33547D" d="M164.918,55.159l16.66-20.72c1.12-1.26,2.52-1.96,4.34-1.96c3.64,0,6.02,2.38,6.02,5.74
			c0,1.26-0.42,2.52-1.54,3.78l-18.34,21.84l18.62,21.979c0.98,1.12,1.54,2.24,1.54,3.92c0,3.222-2.8,5.74-5.88,5.74
			c-1.96,0-3.5-0.7-4.62-2.102l-16.8-20.858l-16.8,20.858c-1.12,1.399-2.66,2.102-4.62,2.102c-3.08,0-5.88-2.521-5.88-5.74
			c0-1.68,0.56-2.8,1.54-3.92l18.62-21.979L139.438,42c-1.12-1.262-1.54-2.521-1.54-3.78c0-3.36,2.38-5.74,6.02-5.74
			c1.82,0,3.22,0.7,4.34,1.96L164.918,55.159z"/>
		<path fill="#33547D" d="M236.738,96.04c-9.38,0-17.08-4.898-21.56-12.039v31.08c0,3.641-2.66,6.578-6.58,6.578
			s-6.58-2.938-6.58-6.578V39.059c0-3.64,2.24-6.58,6.3-6.58s6.44,3.08,6.44,6.72v4.762c4.2-7.28,12.6-12.04,21.98-12.04
			c16.1,0,29.26,13.438,29.26,32.06C265.998,83.299,252.838,96.04,236.738,96.04z M234.079,42.84c-11.34,0-18.9,9.938-18.9,21.14
			s7.56,21.14,18.9,21.14c11.34,0,18.759-8.539,18.759-21.14C252.838,51.38,245.418,42.84,234.079,42.84z"/>
		<path fill="#33547D" d="M335.438,88.899c0,3.641-2.52,6.58-6.58,6.58c-3.92,0-6.438-2.939-6.438-6.58v-3.08
			c-3.92,5.88-11.34,10.221-20.438,10.221c-19.604,0-30.941-14.279-30.941-32.061c0-17.5,12.602-32.06,32.34-32.06
			c20.16,0,32.061,13.16,32.061,32.06v24.92H335.438z M303.238,43.119c-11.201,0-19.041,9.382-19.041,20.86
			c0,12.04,6.58,20.86,19.041,20.86c11.619,0,19.039-9.94,19.039-20.86C322.277,51.099,314.438,43.119,303.238,43.119z"/>
		<path fill="#33547D" d="M375.059,31.921c16.939,0,29.398,12.88,29.398,29.26V88.9c0,3.642-2.939,6.58-6.58,6.58
			c-3.639,0-6.58-2.938-6.58-6.58V59.64c0-8.82-7-15.68-16.238-15.68c-9.24,0-16.102,6.858-16.102,15.68V88.9
			c0,3.642-2.939,6.58-6.58,6.58c-3.639,0-6.58-2.938-6.58-6.58V61.18C345.797,44.8,358.117,31.921,375.059,31.921z"/>
		<path fill="#33547D" d="M472.916,64.119c0,2.24-1.26,4.48-5.039,4.48h-41.859c0.699,9.66,7.279,16.939,18.898,16.939
			c7.281,0,11.621-2.521,16.24-6.86c1.121-1.12,2.66-2.102,4.34-2.102c2.939,0,5.461,2.102,5.461,5.461
			c0,1.398-0.701,2.658-1.68,3.778c-5.32,6.16-14.842,10.222-24.92,10.222c-20.861,0-31.922-14.562-31.922-32.062
			c0-18.34,13.301-32.06,31.359-32.06C461.438,31.921,472.916,46.199,472.916,64.119z M443.797,42.421
			c-9.66,0-16.24,6.858-17.5,15.54h34.439C459.617,49.559,453.316,42.421,443.797,42.421z"/>
		<path fill="#33547D" d="M488.316,95.479c-3.922,0-6.58-2.939-6.58-6.58V6.581c0-3.642,2.66-6.58,6.58-6.58s6.578,2.938,6.578,6.58
			v82.318C494.896,92.54,492.236,95.479,488.316,95.479z"/>
	</g>
</g>
</svg>
