<?xml version="1.0" encoding="utf-8"?>
<!-- Generator: Adobe Illustrator 16.0.0, SVG Export Plug-In . SVG Version: 6.00 Build 0)  -->
<!DOCTYPE svg PUBLIC "-//W3C//DTD SVG 1.1//EN" "http://www.w3.org/Graphics/SVG/1.1/DTD/svg11.dtd">
<svg version="1.1" id="Layer_1" xmlns="http://www.w3.org/2000/svg" xmlns:xlink="http://www.w3.org/1999/xlink" x="0px" y="0px"
	 width="194.461px" height="69.464px" viewBox="0 0 194.461 69.464" enable-background="new 0 0 194.461 69.464"
	 xml:space="preserve">
<path d="M45.606,29.686c0,0,13.38,4.637,5.136,21.612C42.497,68.27,26.291,71.051,13.13,68.778C-0.028,66.501,0,51.876,0,51.876
	s2.357-0.694,3.826-1.117c0.333,3.375,1.417,11.693,8.728,13.396c7.309,1.699,24.026-0.942,30.126-14.321
	c6.101-13.379-5.854-16.9-11.365-17.923c0.305-0.899,2.138-4.773,2.486-5.621c5.821-0.182,12.648-2.532,15.249-8.603
	c2.518-5.882-4.822-7.66-13.06-6.858c-1.412,2.688-7.938,15.256-11.353,24.348c-3.844,10.23-6.794,23.053-6.794,23.053l-5.662,0.902
	c0,0,2.67-14.059,6.237-26.314c2.675-9.194,6.835-18.54,7.735-20.523c-4.718,0.866-8.193,1.701-8.193,1.701l2.153-7.985
	c0.225-0.113,2.027-1.685,18.118-2.443s22.042,5.105,19.549,14.775C55.287,28.016,45.606,29.686,45.606,29.686z M69.744,29.229
	c0,0-7.688,0.838-11.322,2.86l2.127,4.063c0,0-1.558,3.134-5.683,13.759c-3.272,8.428-0.591,9.909,3.291,10.256
	c4.91,0.435,9.825-2.438,9.825-2.438c-0.368-0.791-0.683-2.108-0.849-2.992c-6.221,1.593-8.144,2.121-3.077-10.467
	C67.344,36.104,69.744,29.229,69.744,29.229z M66.531,25.266c2.028,0.644,5.232-0.417,6.517-2.87
	c1.287-2.453,0.971-4.802-1.269-5.767c-2.24-0.964-4.847,0.539-6.198,2.872C63.977,22.271,64.504,24.621,66.531,25.266z
	 M121.772,8.724C111.1,7.742,98.817,9.855,98.817,9.855l-3.216,7.146c0,0,2.86-0.062,9.726-0.706
	c-1.127,2.597-4.291,10.08-6.768,17.602c-3.759,11.416-6.773,25.605-6.773,25.605l5.443-0.416c0,0,4.299-14.4,7.944-23.789
	c2.94-7.573,7.621-16.615,9.322-19.833c9.985-0.147,16.228,5.638,9.139,24.433c-7.725,20.481-27.056,24.396-36.021,23.42
	c-8.966-0.979-12.261-8.354-7.968-20.406c1.168-3.281,2.728-7.16,4.376-11.062c1.46-0.311,2.949-0.586,4.426-0.797
	c1.241-0.175,5.511-0.655,6.975-0.806l1.249-3.75c-2.245,0.068-4.512,0.167-6.706,0.314c-1.397,0.094-2.694,0.193-3.904,0.297
	c3.787-8.675,7.415-16.302,7.415-16.302l-7.475,1.16c0,0-3.462,7.194-7.198,15.914c-4.395,0.583-6.286,1.087-6.286,1.087
	l-2.375,6.914c0,0,2.518-0.953,6.174-2.042c-1.303,3.212-2.553,6.457-3.611,9.49c-4.722,13.547,3.369,25.413,18.954,25.764
	c15.586,0.349,32.038-7.2,40.084-27.68C139.792,20.927,132.444,9.705,121.772,8.724z M138.52,52.879
	c0.006,6.4,3.176,8.898,8.992,6.387c2.829-1.223,6.305-3.727,6.305-3.727l2.022,2.992c0,0-5.028,6.506-13.786,7.021
	c-8.755,0.518-12.906-5.257-11.287-13.474c1.612-8.218,7.608-17.708,16.688-19.184c9.076-1.478,13.445,3.656,8.307,11.438
	C151.686,50.506,142.253,52.373,138.52,52.879z M148.62,38.131c-2.555-0.461-7.766,4.297-9.502,10.287
	c2.18-0.16,6.195-0.803,8.525-3.352C150.959,41.444,151.608,38.67,148.62,38.131z M192.602,19.811
	c-2.056-0.886-4.451,0.495-5.691,2.635c-1.477,2.547-0.988,4.705,0.873,5.296c1.861,0.593,4.807-0.383,5.984-2.636
	C194.95,22.854,194.661,20.696,192.602,19.811z M190.116,53.985c0.801,1.07,1.812,2.353,1.812,2.353s-3.215,5.438-11.438,5.959
	c-2.153,0.136-4.149-0.709-4.985-2.83c-1.744,1.945-4.224,3.728-7.504,3.896c-5.972,0.312-12.166-2.797-6.474-21.896
	c0.924-3.092,1.783-5.924,2.619-8.544c-0.846-0.014-1.645-0.08-2.389-0.186c0.828-2.588,1.062-2.881,1.062-2.881
	s0.887,0.124,2.297,0.085c3.928-11.756,7.557-18.827,14.541-24.946c8.033-7.033,19.025-8.84,9.445,9.452
	c-5.359,10.243-11.744,15.141-17.465,17.199c-1.029,3.232-1.994,6.468-2.96,9.513c-5.479,17.285,0.222,24.457,7.695,10.107
	c0.006,0.01,0.017,0.022,0.022,0.034c3.938-10.312,5.521-13.342,5.521-13.342l-2.123-4.062c3.632-2.021,11.316-2.542,11.316-2.542
	s-2.254,6.617-5.684,14.722C182.001,54.184,180.653,61.545,190.116,53.985z M172.751,28.26c2.25-0.988,4.576-2.532,6.606-4.942
	c7.728-9.164,11.097-20.328,4.58-15.074C178.882,12.323,175.524,20.066,172.751,28.26z"/>
</svg>
