<?xml version="1.0" encoding="utf-8"?>
<!-- Generator: Adobe Illustrator 16.0.0, SVG Export Plug-In . SVG Version: 6.00 Build 0)  -->
<!DOCTYPE svg PUBLIC "-//W3C//DTD SVG 1.1//EN" "http://www.w3.org/Graphics/SVG/1.1/DTD/svg11.dtd">
<svg version="1.1" id="Layer_1" xmlns="http://www.w3.org/2000/svg" xmlns:xlink="http://www.w3.org/1999/xlink" x="0px" y="0px"
	 width="127.02px" height="24.982px" viewBox="0 0 127.02 24.982" enable-background="new 0 0 127.02 24.982" xml:space="preserve">
<path fill="#212326" d="M124.777,19.955l-0.102-1.545h-0.041c-0.59,1.082-1.793,1.768-3.24,1.768c-2.361,0-4.238-1.986-4.238-5
	c-0.02-3.271,2.061-5.216,4.441-5.216c1.367,0,2.721,0.563,3.168,1.285h0.041V5.018h2.131v12.188c0,1.004,0.041,2.088,0.082,2.75
	H124.777L124.777,19.955z M124.429,14.256c0-0.201-0.02-0.44-0.059-0.643c-0.227-0.964-1.021-1.747-2.16-1.747
	c-1.609,0-2.506,1.407-2.506,3.23c0,1.787,0.895,3.093,2.482,3.093c1.02,0,1.916-0.685,2.16-1.745
	c0.062-0.223,0.08-0.463,0.08-0.727L124.429,14.256L124.429,14.256z M109.558,15.759c0.062,1.77,1.469,2.528,3.059,2.528
	c1.16,0,1.996-0.159,2.75-0.44l0.365,1.705c-0.854,0.343-2.037,0.604-3.463,0.604c-3.219,0-5.113-1.946-5.113-4.938
	c0-2.71,1.67-5.258,4.85-5.258c3.221,0,4.277,2.61,4.277,4.756c0,0.461-0.041,0.821-0.08,1.043H109.558L109.558,15.759z
	 M111.861,11.647c-1.549,0-2.199,1.385-2.303,2.388h4.361C113.939,13.133,113.533,11.647,111.861,11.647L111.861,11.647z
	 M103.189,14.134c-0.041,0.222-0.08,0.481-0.08,0.764v5.058h-2.008v-6.621c0-1.326-0.021-2.269-0.08-3.153h2.18l0.082,1.868h0.08
	c0.49-1.385,1.775-2.088,2.836-2.088c0.244,0,0.389,0.021,0.59,0.062v2.327c-0.201-0.041-0.428-0.08-0.73-0.08
	C104.853,12.268,103.412,13.031,103.189,14.134L103.189,14.134z M96.808,18.871h-0.062c-0.611,0.764-1.648,1.307-2.936,1.307
	c-1.994,0-2.74-1.426-2.74-2.912c0-2.467,1.846-3.711,5.514-3.69v-0.161c0-0.643-0.266-1.705-2.018-1.705
	c-0.979,0-1.996,0.301-2.67,0.721l-0.488-1.604c0.734-0.44,2.018-0.863,3.586-0.863c3.18,0,4.096,1.987,4.096,4.115v3.532
	c0,0.884,0.043,1.745,0.146,2.348H96.97L96.808,18.871L96.808,18.871z M96.642,15.177c-1.771-0.039-3.463,0.343-3.463,1.828
	c0,0.963,0.631,1.403,1.426,1.403c1,0,1.732-0.643,1.957-1.345c0.062-0.183,0.08-0.382,0.08-0.542V15.177L96.642,15.177z
	 M87.01,18.468h-0.043c-0.426,0.703-1.467,1.707-3.24,1.707c-1.688-0.25-3.088-1.062-3.088-4.254v-5.742h2.133v5.318
	c0,1.626,0.529,2.672,1.854,2.672c0.998,0,1.715-0.703,1.979-1.326c0.08-0.222,0.146-0.479,0.146-0.764v-5.9h2.254v6.844
	c0,1.165,0.041,2.128,0.082,2.931h-1.951L87.01,18.468L87.01,18.468z M78.002,23.929h-2.256v-5.318h-0.041
	c-0.592,0.941-1.756,1.564-3.201,1.564c-2.221,0-4.156-1.905-4.156-4.957c0-3.572,2.322-5.258,4.441-5.258
	c1.385,0,2.238,0.582,2.768,1.505l0.041,0.021l0.061-1.306h2.426c-0.041,0.885-0.082,1.808-0.082,2.831V23.929L78.002,23.929z
	 M75.496,14.215c0-0.199-0.021-0.42-0.062-0.602c-0.225-0.922-0.895-1.706-2.014-1.706c-1.611,0-2.527,1.345-2.527,3.189
	c0,1.787,0.875,3.133,2.465,3.133c1.02,0,1.729-0.645,2.016-1.626c0.082-0.24,0.123-0.522,0.123-0.765V14.215L75.496,14.215z
	 M67.209,16.103c0,2.167-1.674,4.053-5.218,4.053c-1.447,0-2.953-0.399-3.708-0.842l0.55-2.049c0.815,0.464,2.037,0.863,3.321,0.863
	c1.609,0,2.506-0.744,2.506-1.849c0-1.022-0.692-1.624-2.446-2.247c-2.261-0.802-3.708-1.985-3.708-3.935
	c0-2.207,1.875-4.081,4.849-4.081c1.489,0,2.59,0.197,3.303,0.559l-0.611,1.987C65.558,8.3,64.599,7.92,63.317,7.92
	c-1.589,0-2.28,0.842-2.28,1.624c0,1.043,0.793,1.839,2.627,2.541C66.045,12.969,67.209,14.156,67.209,16.103L67.209,16.103z
	 M52.153,20.176c-2.813,0-4.972-1.905-4.972-5.037c0-3.21,2.14-5.178,5.134-5.178c2.955,0,4.931,2.047,4.931,5.019
	C57.245,18.571,54.678,20.176,52.153,20.176L52.153,20.176z M52.253,11.766c-1.772,0-2.485,1.688-2.485,3.312
	c0,1.887,0.938,3.312,2.464,3.312c1.428,0,2.425-1.385,2.425-3.353C54.657,13.513,53.965,11.766,52.253,11.766L52.253,11.766z
	 M41.315,20.095c-2.322,0-4.075-0.582-5.379-1.808c-1.222-1.145-1.935-2.929-1.916-4.979c0-4.273,3.098-7.335,7.643-7.335
	c1.689,0,3.015,0.341,3.646,0.643l-0.55,1.986c-0.755-0.321-1.671-0.581-3.118-0.581c-2.934,0-4.992,2.018-4.992,5.168
	c0,3.068,1.915,4.896,4.769,4.896c0.896,0,1.567-0.121,1.895-0.283v-3.869h-2.426v-1.945h5.037v7.344
	C45.047,19.655,43.148,20.095,41.315,20.095L41.315,20.095z M0,12.491c0-6.9,5.676-12.492,12.684-12.492
	c4.866,0,9.091,2.95,11.219,6.913h-3.417c-1.705-2.036-4.913-3.958-7.801-3.958c-5.139,0-9.717,4.479-9.717,9.537
	c0,5.06,4.579,9.493,9.717,9.493h8.62h3.646v2.998H12.684C5.676,24.983,0,19.392,0,12.491L0,12.491z M17.676,12.802
	c-2.639,1.647-4.432,3.696-4.553,5.045c-0.101-0.301-0.158-0.615-0.158-0.944v-3.812c0-1.683,1.4-3.046,3.127-3.046h6.151
	c0.847,0,1.612,0.331,2.178,0.864C23.156,10.364,20.403,11.097,17.676,12.802L17.676,12.802z M21.91,19.948h-5.818
	c-0.848,0-1.614-0.33-2.179-0.863c1.303,0.475,3.991-0.259,6.657-1.926c2.763-1.728,4.182-3.894,4.142-5.232
	c0.153,0.36,0.239,0.751,0.239,1.167v3.811C24.95,18.584,23.634,19.948,21.91,19.948L21.91,19.948z"/>
</svg>
