<?xml version="1.0" encoding="utf-8"?>
<!-- Generator: Adobe Illustrator 16.0.0, SVG Export Plug-In . SVG Version: 6.00 Build 0)  -->
<!DOCTYPE svg PUBLIC "-//W3C//DTD SVG 1.1//EN" "http://www.w3.org/Graphics/SVG/1.1/DTD/svg11.dtd">
<svg version="1.1" id="Layer_1" xmlns="http://www.w3.org/2000/svg" xmlns:xlink="http://www.w3.org/1999/xlink" x="0px" y="0px"
	 width="902px" height="142px" viewBox="0 0 902 142" enable-background="new 0 0 902 142" xml:space="preserve">
<g>
	<path fill-rule="evenodd" clip-rule="evenodd" d="M822,142c-2.696-2.188-6.16-1.978-9.255-2.777
		c-27.386-7.075-47.8-30.293-51.939-58.255c-5.328-35.988,18.606-71.249,55.237-79.063C818.693,1.339,821.65,1.854,824,0
		c4,0,8,0,12,0c2.924,1.732,6.315,1.238,9.463,1.934c29.448,6.503,50.793,30.59,54.862,57.637c0.366,2.44-0.287,5.29,1.675,7.43
		c0,3,0,6,0,9c-1.854,1.967-1.396,4.629-1.768,6.917c-4.369,26.852-25.187,49.616-51.407,56.252
		c-4.258,1.077-8.734,1.078-12.825,2.831C831.333,142,826.667,142,822,142z M787.791,70.965
		c-0.948,21.6,17.664,43.169,42.981,43.122c22.067-0.04,42.814-17.314,42.988-42.794c0.176-25.76-20.806-43.293-42.91-43.37
		C805.674,27.834,786.888,49.258,787.791,70.965z"/>
	<path fill-rule="evenodd" clip-rule="evenodd" d="M164,142c-2.949-2.027-6.544-1.772-9.805-2.703
		c-28.422-8.112-45.898-26.852-51.77-55.44c-4.574-22.27,1.535-42.461,16.667-59.63c11.796-13.384,26.645-21.094,44.357-23.262
		c0.7-0.086,1.278-0.249,1.55-0.965c4.667,0,9.333,0,14,0c3.472,2.029,7.535,1.742,11.255,2.889
		c27.504,8.478,45.038,26.574,50.588,54.777c5.098,25.909-2.794,48.291-22.386,66.182c-10.458,9.551-22.99,14.963-36.954,17.114
		c-0.921,0.142-2.062-0.258-2.503,1.038C174,142,169,142,164,142z M172.097,27.984c-23.648-0.513-43.269,19.485-43.418,42.81
		c-0.145,22.675,18.522,42.985,42.485,43.287c23.25,0.294,43.715-18.245,43.691-43.11C214.832,46.223,194.651,27.931,172.097,27.984
		z"/>
	<path fill-rule="evenodd" clip-rule="evenodd" d="M699,0c2.803,1.545,5.996,1.301,8.995,1.941
		c14.038,3.002,25.91,9.811,36.307,20.185c-5.924,7.075-11.656,13.922-17.697,21.138c-10.206-11.077-22.62-16.497-37.455-15.15
		c-10.066,0.914-18.835,5.082-26.072,12.276c-15.413,15.321-17.149,38.56-4.203,56.4c11.714,16.144,35.198,21.954,51.679,13.192
		c-4.258-10.302-8.543-20.672-12.958-31.355c4.988-3.827,10.646-6.115,16.357-9.327c12.662,13.627,25.194,27.113,37.8,40.678
		c-4.071,7.556-9.938,12.944-16.329,17.67c-10.05,7.431-21.317,12.104-33.855,13.4c-0.7,0.073-1.281,0.245-1.567,0.952
		c-4.667,0-9.333,0-14,0c-1.775-1.921-4.327-1.35-6.47-1.772c-29.579-5.835-51.275-30.206-55.756-57.53
		c-6.338-38.654,19.414-74.807,58.62-81.546C684.269,0.829,686.398,1.656,688,0C691.667,0,695.333,0,699,0z"/>
	<path fill-rule="evenodd" clip-rule="evenodd" d="M0,5c1.518-0.788,3.147-0.812,4.814-0.812c29.312,0.02,58.625,0.013,87.938,0.023
		c1.134,0,2.269,0.127,3.668,0.21c0,8.454,0,16.688,0,25.5c-11.039,0-21.923,0-33.236,0c0,36.143,0,71.714,0,107.578
		c-9.844,0-19.247,0-29.084,0c0-35.689,0-71.253,0-107.5C22.455,30,11.228,30,0,30C0,21.667,0,13.333,0,5z"/>
	<path fill-rule="evenodd" clip-rule="evenodd" d="M516.062,137.557c-9.402,0-18.01,0-26.885,0c0-44.456,0-88.671,0-133.341
		c8.576,0,16.87,0.003,25.163-0.001c2.243-0.001,2.993,1.782,4.022,3.28c10.752,15.627,21.523,31.241,32.277,46.867
		c6.415,9.319,12.791,18.666,19.231,27.968c0.804,1.161,1.34,2.64,3.289,3.628c0-27.385,0-54.291,0-81.429
		c9.291,0,18.179,0,27.383,0c0,44.386,0,88.444,0,132.288c-0.964,1.066-1.993,0.973-2.983,0.974c-7,0.008-14-0.058-20.997,0.043
		c-2.192,0.031-3.623-0.509-4.892-2.522c-17.291-27.447-34.682-54.832-52.057-82.228c-0.85-1.341-1.446-2.931-3.553-4.08
		C516.062,78.789,516.062,108.011,516.062,137.557z"/>
	<path fill-rule="evenodd" clip-rule="evenodd" d="M470.789,137.527c-10.929,0-20.87,0-31.46,0
		c-3.572-9.401-7.261-19.11-11.026-29.021c-16.092,0-32.028,0-48.488,0c-3.62,9.536-7.313,19.266-11.027,29.051
		c-10.318,0-20.416,0-31.458,0c18.428-44.671,36.635-88.807,54.909-133.104c7.753,0,15.366,0,23.611,0
		C434.017,48.456,452.283,92.702,470.789,137.527z M418.841,80.812c-4.831-13.516-9.206-26.88-14.37-39.949
		c-0.37,0.041-0.741,0.081-1.111,0.122c-4.638,13.133-9.275,26.265-14.064,39.827C399.636,80.812,409.057,80.812,418.841,80.812z"/>
	<path fill-rule="evenodd" clip-rule="evenodd" d="M280.135,29.863c-11.372,0-21.985,0-32.89,0c0-8.581,0-16.821,0-25.362
		c31.683,0,63.271,0,95.22,0c0,8.236,0,16.47,0,25.282c-10.673,0-21.403,0-32.694,0c0,36.129,0,71.689,0,107.629
		c-10.114,0-19.66,0-29.636,0C280.135,101.752,280.135,66.162,280.135,29.863z"/>
</g>
</svg>
