<?xml version="1.0" encoding="utf-8"?>
<!-- Generator: Adobe Illustrator 16.0.0, SVG Export Plug-In . SVG Version: 6.00 Build 0)  -->
<!DOCTYPE svg PUBLIC "-//W3C//DTD SVG 1.1//EN" "http://www.w3.org/Graphics/SVG/1.1/DTD/svg11.dtd">
<svg version="1.1" id="Layer_1" xmlns="http://www.w3.org/2000/svg" xmlns:xlink="http://www.w3.org/1999/xlink" x="0px" y="0px"
	 width="221.807px" height="116.361px" viewBox="0 0 221.807 116.361" enable-background="new 0 0 221.807 116.361"
	 xml:space="preserve">
<path fill="#8ABC00" d="M221.806,30.221C221.806,13.528,206.657,0,199.284,0c-7.375,0-22.526,13.528-22.526,30.222
	c0,8.065,2.358,15.386,6.196,20.805c1.301,2.729,3.33,5.613,5.43,8.59c2.415,3.43,4.879,6.949,6.279,10.326
	c-1.291,0.5-2.312,1.527-2.821,2.812c1.21,0.273,2.535,0.504,3.944,0.662c3.793,0.418,7.166,0.23,9.1-0.391
	c-1.223,0.998-4.889,1.541-9.18,1.254c-1.498-0.1-2.902-0.293-4.149-0.547c-0.046,0.271-0.072,0.549-0.072,0.834v6.209
	c0,2.75,2.228,3.482,4.973,3.482h6.914c2.744,0,4.973-0.734,4.973-3.482v-6.209c0-2.357-1.649-4.324-3.854-4.834
	c0.863-2.008,1.871-3.977,2.857-5.904l0.977-1.918l0.703-1.406c0.547-1.098,1.45-2.914,2.387-4.749h-0.086
	C217.621,50.397,221.806,40.969,221.806,30.221z M207.783,59.886l-0.699,1.402l-0.973,1.906c-1.064,2.082-2.149,4.211-3.068,6.4
	h-3.068v-9.154h-1.385v9.154h-2.137c-0.146,0-0.279,0.031-0.422,0.043c-1.442-3.59-4.008-7.254-6.52-10.82
	c-0.656-0.933-1.31-1.856-1.933-2.769c3.41,2.787,7.416,4.39,11.701,4.39c3.47,0,6.756-1.055,9.689-2.935
	C208.606,58.239,208.212,59.027,207.783,59.886z M207.492,57.529c0,0,7.037-7.672,9.15-18.554c-2.636,3.21-7.214,5.341-12.432,5.341
	c-8.171,0-14.798-5.215-14.798-11.646c0-6.436,6.627-11.65,14.798-11.65c5.077,0,9.555,2.015,12.221,5.082
	c-4.287-17.776-23.612-22.228-23.612-22.228s1.205-1.545,3.823-2.294c2.224-0.637,3.312-0.478,4.726-0.059
	c1.604,0.476,18.664,9.975,18.664,28.132C220.031,47.811,207.492,57.529,207.492,57.529z"/>
<g>
	<path fill="#404040" d="M12.208,80.624c3.249,0,8.586,0.928,8.586,4.779c0,1.949-1.299,3.389-2.97,3.389
		c-1.856,0-2.367-1.207-5.198-1.207c-3.667,0-5.384,2.785-5.384,6.127s1.764,6.127,4.966,6.127c3.11,0,4.549-1.254,5.616-1.254
		c1.671,0,2.97,1.672,2.97,3.203c0,3.619-5.708,5.012-8.586,5.012c-7.333,0-12.207-5.801-12.207-13.088S4.875,80.624,12.208,80.624z
		"/>
	<path fill="#404040" d="M22.466,84.847c0-2.088,1.485-3.758,3.62-3.758c1.95,0,3.156,1.252,3.621,2.318
		c1.207-1.438,2.97-2.783,5.012-2.783c1.857,0,3.713,1.482,3.713,3.758c0,2.506-1.902,3.109-4.549,3.898
		c-3.156,0.93-4.177,1.766-4.177,5.479v8.816c0,2.09-1.485,3.762-3.621,3.762c-2.135,0-3.62-1.672-3.62-3.762L22.466,84.847
		L22.466,84.847z"/>
	<path fill="#404040" d="M62.241,102.575c0,2.09-1.485,3.762-3.621,3.762c-1.764,0-2.877-1.207-3.388-2.32
		c-1.625,1.994-3.481,2.783-6.22,2.783c-6.312,0-11.186-5.801-11.186-13.088s4.874-13.088,11.186-13.088
		c2.738,0,4.596,0.789,6.22,2.783c0.511-1.113,1.625-2.318,3.388-2.318c2.135,0,3.621,1.67,3.621,3.758V102.575z M45.068,93.712
		c0,3.342,1.764,6.127,4.966,6.127S55,97.054,55,93.712s-1.764-6.127-4.966-6.127S45.068,90.37,45.068,93.712z"/>
	<path fill="#404040" d="M73.936,88.05h-6.358c-2.32,0-3.806-1.021-3.806-3.342s1.484-3.344,3.806-3.344h13.924
		c1.346,0,2.042,0.188,2.738,0.885c0.464,0.463,0.648,1.064,0.648,1.717c0,0.65-0.323,1.252-0.928,2.088l-9.933,13.32h7.657
		c2.32,0,3.807,1.021,3.807,3.342c0,2.322-1.485,3.344-3.807,3.344H67.02c-1.346,0-1.764-0.141-2.413-0.512
		c-0.929-0.605-1.067-1.578-1.067-2.043c0-0.559,0.046-1.207,1.114-2.691L73.936,88.05z"/>
	<path fill="#404040" d="M92.966,103.693L86.792,88.98c-0.835-1.949-1.531-3.668-1.531-4.502c0-2.137,1.718-3.389,3.527-3.389
		c1.764,0,3.017,0.928,3.713,2.738l4.271,11.045l4.037-9.842c0.929-2.227,1.949-3.943,3.944-3.943c2.229,0,3.714,1.438,3.714,3.668
		c0,1.064-0.511,2.318-0.882,3.156l-10.722,25.016c-0.836,1.904-1.439,3.436-3.945,3.436c-2.6,0-3.574-2.041-3.574-3.248
		c0-1.254,0.372-2.09,1.207-3.99L92.966,103.693z"/>
	<path fill="#404040" d="M116.961,96.079c0,1.529,1.16,4.037,5.802,4.037c3.574,0,5.756-2.273,7.428-2.273
		c1.625,0,3.018,1.254,3.018,3.109c0,3.525-5.896,5.848-11.371,5.848c-7.799,0-12.671-5.801-12.671-13.088
		c0-6.961,5.244-13.088,12.671-13.088c7.146,0,11.742,5.984,11.742,12.299c0,2.555-1.207,3.156-3.527,3.156H116.961z
		 M126.337,91.111c0-1.623-1.855-4.361-4.688-4.361s-4.688,2.738-4.688,4.361H126.337z"/>
	<path fill="#404040" d="M159.383,103.646c0,9.236-6.033,12.717-13.135,12.717c-3.76,0-10.814-1.438-10.814-5.383
		c0-1.625,1.578-3.156,3.019-3.156c2.088,0,3.435,2.135,7.658,2.135c4.502,0,6.032-2.367,6.032-6.404h-0.093
		c-1.578,2.229-4.177,2.785-6.591,2.785c-7.01,0-10.489-6.08-10.489-12.625c0-7.287,4.873-13.088,11.188-13.088
		c2.736,0,4.595,0.789,6.22,2.783c0.51-1.113,1.624-2.318,3.388-2.318c2.136,0,3.62,1.67,3.62,3.758L159.383,103.646
		L159.383,103.646z M147.177,87.585c-3.203,0-4.967,2.785-4.967,6.127c0,3.525,1.764,6.219,4.967,6.219
		c3.202,0,4.966-2.689,4.966-6.219C152.142,90.37,150.379,87.585,147.177,87.585z"/>
	<path fill="#404040" d="M186.024,103.646c0,9.236-6.033,12.717-13.136,12.717c-3.76,0-10.813-1.438-10.813-5.383
		c0-1.625,1.578-3.156,3.018-3.156c2.089,0,3.437,2.135,7.658,2.135c4.503,0,6.033-2.367,6.033-6.404h-0.092
		c-1.578,2.229-4.179,2.785-6.593,2.785c-7.009,0-10.487-6.08-10.487-12.625c0-7.287,4.873-13.088,11.186-13.088
		c2.738,0,4.595,0.789,6.22,2.783c0.512-1.113,1.624-2.318,3.389-2.318c2.135,0,3.621,1.67,3.621,3.758v18.797H186.024
		L186.024,103.646z M173.819,87.585c-3.203,0-4.969,2.785-4.969,6.127c0,3.525,1.766,6.219,4.969,6.219
		c3.2,0,4.965-2.689,4.965-6.219C178.783,90.37,177.019,87.585,173.819,87.585z"/>
</g>
<g>
	<path fill="#8ABC00" d="M209.555,29.526c-1.318,0-2.492-0.688-4.18-0.688c-3.005,0-4.433,1.794-4.433,3.61
		c0,1.744,1.57,3.562,4.433,3.562c1.321,0,3.299-0.733,3.924-0.733c1.247,0,2.271,0.71,2.271,1.544c0,1.817-4.545,2.433-6.447,2.433
		c-5.687,0-9.456-3.117-9.456-6.805c0-3.586,3.885-6.85,9.456-6.85c2.085,0,6.447,0.513,6.447,2.235
		C211.571,28.571,210.805,29.526,209.555,29.526z"/>
</g>
</svg>
