<?xml version="1.0" encoding="utf-8"?>
<!-- Generator: Adobe Illustrator 16.0.0, SVG Export Plug-In . SVG Version: 6.00 Build 0)  -->
<!DOCTYPE svg PUBLIC "-//W3C//DTD SVG 1.1//EN" "http://www.w3.org/Graphics/SVG/1.1/DTD/svg11.dtd">
<svg version="1.1" id="Clicky_x5F_Logo" xmlns="http://www.w3.org/2000/svg" xmlns:xlink="http://www.w3.org/1999/xlink" x="0px"
	 y="0px" width="340.365px" height="132.273px" viewBox="0 0 340.365 132.273" enable-background="new 0 0 340.365 132.273"
	 xml:space="preserve">
<g>
	<path d="M82.066,59.43L51.625,41.092c-0.339-0.203-0.61-0.047-0.601,0.35l0.767,35.129c0.008,0.396,0.281,0.538,0.606,0.309
		l9.433-6.565c0.325-0.228,0.75-0.129,0.943,0.216l12.819,22.865c0.194,0.344,0.635,0.469,0.98,0.274l6.433-3.604
		c0.345-0.193,0.47-0.632,0.276-0.979L70.462,66.218c-0.194-0.345-0.058-0.763,0.302-0.929l11.265-5.185
		C82.389,59.938,82.406,59.635,82.066,59.43z"/>
	<path d="M66.136,0C29.611,0,0,29.611,0,66.138c0,36.524,29.611,66.135,66.136,66.135c36.526,0,66.137-29.609,66.137-66.135
		C132.273,29.611,102.662,0,66.136,0z M93.787,61.289l-15.848,5.844c-0.371,0.139-0.516,0.532-0.323,0.877l13.216,23.571
		c0.193,0.343,0.069,0.787-0.276,0.98l-15.791,8.853c-0.345,0.195-0.786,0.07-0.98-0.273L60.569,77.566
		c-0.193-0.346-0.606-0.428-0.917-0.184L46.4,87.857c-0.31,0.248-0.566,0.123-0.567-0.273l-0.206-55.515
		c-0.001-0.397,0.275-0.552,0.613-0.346l47.607,28.942C94.186,60.872,94.158,61.152,93.787,61.289z"/>
</g>
<g>
	<path d="M182.462,76.184c-3.838,6.662-9.52,9.99-17.042,9.99c-5.584,0-10.383-1.877-14.396-5.632
		c-4.014-3.755-6.021-8.382-6.021-13.88c0-5.614,1.929-10.423,5.788-14.43c3.858-4.007,8.56-6.011,14.105-6.011
		c3.8,0,7.085,0.696,9.858,2.091c2.771,1.393,5.205,3.618,7.302,6.675l-4.883,3.019c-1.551-2.656-2.867-4.429-3.951-5.314
		c-1.666-1.386-3.952-2.08-6.854-2.08c-3.062,0-5.521,1.564-7.38,4.697c-1.705,2.859-2.557,6.319-2.557,10.38
		c0,4.06,0.833,7.54,2.499,10.438c1.858,3.287,4.416,5.104,7.67,5.451c0.271,0.038,0.64,0.058,1.105,0.058
		c2.4,0,4.667-0.928,6.798-2.783c1.354-1.16,2.711-2.807,4.065-4.936L182.462,76.184z"/>
	<path d="M210.455,85.495h-24.681V46.374h10.976v33.749h13.705V85.495z"/>
	<path d="M225.521,85.495h-11.735V46.374h11.735V85.495z"/>
	<path d="M266.556,76.184c-3.842,6.662-9.521,9.99-17.046,9.99c-5.583,0-10.384-1.877-14.396-5.632
		c-4.014-3.755-6.021-8.382-6.021-13.88c0-5.614,1.93-10.423,5.788-14.43c3.854-4.007,8.562-6.011,14.104-6.011
		c3.802,0,7.086,0.696,9.856,2.091c2.771,1.393,5.205,3.618,7.302,6.675l-4.881,3.019c-1.552-2.656-2.867-4.429-3.951-5.314
		c-1.666-1.386-3.951-2.08-6.855-2.08c-3.062,0-5.521,1.564-7.381,4.697c-1.704,2.859-2.557,6.319-2.557,10.38
		c0,4.06,0.832,7.54,2.498,10.438c1.856,3.287,4.416,5.104,7.672,5.451c0.271,0.038,0.639,0.058,1.104,0.058
		c2.398,0,4.668-0.928,6.799-2.783c1.354-1.16,2.711-2.807,4.067-4.936L266.556,76.184z"/>
	<path d="M281.369,46.222v39.424h-11.502V46.222H281.369z M305.024,85.646h-11.449l-11.45-18.981l11.688-20.222l5.41,0.006
		l-8.847,14.403L305.024,85.646z"/>
	<path d="M340.365,46.222l-11.503,18.989v20.281h-11.428v-18.53l-11.955-20.739h12.149l8.504,13.997l8.062-14.04L340.365,46.222z"/>
</g>
</svg>
