<?xml version="1.0" encoding="utf-8"?>
<!-- Generator: Adobe Illustrator 16.0.0, SVG Export Plug-In . SVG Version: 6.00 Build 0)  -->
<!DOCTYPE svg PUBLIC "-//W3C//DTD SVG 1.1//EN" "http://www.w3.org/Graphics/SVG/1.1/DTD/svg11.dtd">
<svg version="1.1" id="Clicky_x5F_Logo" xmlns="http://www.w3.org/2000/svg" xmlns:xlink="http://www.w3.org/1999/xlink" x="0px"
	 y="0px" width="340.365px" height="132.273px" viewBox="0 0 340.365 132.273" enable-background="new 0 0 340.365 132.273"
	 xml:space="preserve">
<g>
	<g>
		<circle fill="#FFFFFF" cx="66.136" cy="66.137" r="62.228"/>
	</g>
</g>
<path fill="#F9C692" d="M116.431,49.938c0,0-3.93-2.551-3.875-2.417c0,0-19.892-13.066-53.655,20.896
	c-0.006,0.006-0.011,0.013-0.017,0.02C46.819,55.713,40.834,49.585,33.58,50.934c-8.686,1.615-17.477,12.26-17.477,12.26
	c0.031-0.468-2.921,2.792-2.921,3.314c0,29.245,23.708,52.955,52.954,52.955c29.246,0,52.955-23.709,52.955-52.955
	C119.091,60.719,118.148,55.152,116.431,49.938z"/>
<path fill="#F8BE83" d="M66.136,11.932c-29.936,0-54.204,24.268-54.204,54.206c0,29.936,24.268,54.203,54.204,54.203
	c29.936,0,54.205-24.269,54.205-54.203C120.341,36.2,96.072,11.932,66.136,11.932z M66.136,14.812
	c21.441,0,39.79,13.154,47.468,31.83c-3.164-1.688-22.879-10.117-54.461,21.652c-0.006,0.006-0.011,0.014-0.017,0.02
	C46.775,55.291,40.649,49.017,33.223,50.398c-8.891,1.653-17.889,12.549-17.889,12.549c0.013-0.204,0.053-0.399,0.069-0.604
	l-0.43,0.604C16.627,36.094,38.867,14.812,66.136,14.812z M66.136,117.463c-27.417,0-49.747-21.515-51.186-48.57
	c5.929-8.411,11.239-14.219,19.199-15.519c6.892-1.125,12.682,5.959,25.382,19.735c0.006-0.008,0.011-0.014,0.017-0.021
	c32.727-35.629,51.964-24.631,55.691-21.886c1.436,4.728,2.223,9.737,2.223,14.934C117.461,94.484,94.482,117.463,66.136,117.463z"
	/>
<g>
	<g>
		<path fill="#F19330" d="M66.136,0C29.611,0,0,29.611,0,66.138c0,36.524,29.611,66.135,66.136,66.135
			c36.526,0,66.137-29.609,66.137-66.135C132.273,29.611,102.662,0,66.136,0z M66.136,127.748c-34.025,0-61.61-27.584-61.61-61.608
			c0-34.027,27.584-61.611,61.61-61.611c34.026,0,61.61,27.584,61.61,61.611C127.747,100.164,100.162,127.748,66.136,127.748z"/>
	</g>
</g>
<g>
	<g>
		<path fill="#FFFFFF" d="M83.281,89.084L70.462,66.217c-0.194-0.345-0.058-0.763,0.302-0.929l11.265-5.185
			c0.36-0.166,0.377-0.47,0.038-0.673L51.626,41.093c-0.339-0.203-0.61-0.048-0.601,0.35l0.767,35.13
			c0.009,0.396,0.282,0.535,0.606,0.308l9.433-6.565c0.325-0.229,0.75-0.129,0.943,0.215l12.819,22.867
			c0.194,0.345,0.635,0.47,0.98,0.273l6.433-3.604C83.351,89.87,83.475,89.43,83.281,89.084z"/>
	</g>
</g>
<g>
	<g>
		<path fill="#F29B40" d="M93.847,60.666L46.24,31.723c-0.338-0.206-0.614-0.052-0.613,0.346l0.206,55.515
			c0.001,0.396,0.257,0.521,0.567,0.273l13.252-10.475c0.311-0.244,0.724-0.162,0.917,0.184l13.216,23.574
			c0.194,0.344,0.635,0.469,0.98,0.273l15.791-8.853c0.345-0.193,0.469-0.638,0.276-0.98L77.616,68.01
			c-0.193-0.345-0.048-0.738,0.323-0.877l15.848-5.844C94.158,61.152,94.186,60.872,93.847,60.666z M82.029,60.104l-11.265,5.185
			c-0.36,0.166-0.496,0.584-0.302,0.929l12.819,22.867c0.194,0.348,0.069,0.786-0.276,0.979l-6.433,3.604
			c-0.345,0.194-0.786,0.069-0.98-0.274L62.773,70.529c-0.193-0.345-0.618-0.443-0.943-0.216l-9.433,6.565
			c-0.325,0.229-0.598,0.088-0.606-0.309l-0.767-35.129c-0.009-0.396,0.262-0.553,0.601-0.35L82.066,59.43
			C82.406,59.635,82.389,59.938,82.029,60.104z"/>
	</g>
</g>
<g>
	<path fill="#608AC4" d="M182.462,76.184c-3.838,6.662-9.52,9.99-17.042,9.99c-5.584,0-10.383-1.877-14.396-5.632
		c-4.014-3.755-6.021-8.382-6.021-13.88c0-5.614,1.929-10.423,5.788-14.43c3.858-4.007,8.56-6.011,14.105-6.011
		c3.8,0,7.085,0.696,9.858,2.091c2.771,1.393,5.205,3.618,7.302,6.675l-4.883,3.019c-1.551-2.656-2.867-4.429-3.951-5.314
		c-1.666-1.386-3.952-2.08-6.854-2.08c-3.062,0-5.521,1.564-7.38,4.697c-1.705,2.859-2.557,6.319-2.557,10.38
		c0,4.06,0.833,7.54,2.499,10.438c1.858,3.287,4.416,5.104,7.67,5.451c0.271,0.038,0.64,0.058,1.105,0.058
		c2.4,0,4.667-0.928,6.798-2.783c1.354-1.16,2.711-2.807,4.065-4.936L182.462,76.184z"/>
	<path fill="#608AC4" d="M210.455,85.495h-24.681V46.374h10.976v33.749h13.705V85.495z"/>
	<path fill="#608AC4" d="M225.521,85.495h-11.735V46.374h11.735V85.495z"/>
	<path fill="#608AC4" d="M266.556,76.184c-3.842,6.662-9.521,9.99-17.046,9.99c-5.583,0-10.384-1.877-14.396-5.632
		c-4.014-3.755-6.021-8.382-6.021-13.88c0-5.614,1.93-10.423,5.788-14.43c3.854-4.007,8.562-6.011,14.104-6.011
		c3.802,0,7.086,0.696,9.856,2.091c2.771,1.393,5.205,3.618,7.302,6.675l-4.881,3.019c-1.552-2.656-2.867-4.429-3.951-5.314
		c-1.666-1.386-3.951-2.08-6.855-2.08c-3.062,0-5.521,1.564-7.381,4.697c-1.704,2.859-2.557,6.319-2.557,10.38
		c0,4.06,0.832,7.54,2.498,10.438c1.856,3.287,4.416,5.104,7.672,5.451c0.271,0.038,0.639,0.058,1.104,0.058
		c2.398,0,4.668-0.928,6.799-2.783c1.354-1.16,2.711-2.807,4.067-4.936L266.556,76.184z"/>
	<path fill="#608AC4" d="M281.369,46.222v39.424h-11.502V46.222H281.369z M305.024,85.646h-11.449l-11.45-18.981l11.688-20.222
		l5.41,0.006l-8.847,14.403L305.024,85.646z"/>
	<path fill="#608AC4" d="M340.365,46.222l-11.503,18.989v20.281h-11.428v-18.53l-11.955-20.739h12.149l8.504,13.997l8.062-14.04
		L340.365,46.222z"/>
</g>
</svg>
