<?xml version="1.0" encoding="utf-8"?>
<!-- Generator: Adobe Illustrator 16.0.0, SVG Export Plug-In . SVG Version: 6.00 Build 0)  -->
<!DOCTYPE svg PUBLIC "-//W3C//DTD SVG 1.1//EN" "http://www.w3.org/Graphics/SVG/1.1/DTD/svg11.dtd">
<svg version="1.1" id="Layer_1" xmlns="http://www.w3.org/2000/svg" xmlns:xlink="http://www.w3.org/1999/xlink" x="0px" y="0px"
	 width="356.993px" height="106.482px" viewBox="0 0 356.993 106.482" enable-background="new 0 0 356.993 106.482"
	 xml:space="preserve">
<g>
	<g>
		<path d="M20.111,47.894h-4.185v34.758H0V1.279h15.926v36.037l3.72-1.627l22.436-34.41h18.134L36.502,35.456l-6.277,4.417
			l6.51,4.533L63.82,82.652H44.174L20.111,47.894z"/>
		<path d="M87.301,63.122c0,2.714,0.349,4.69,1.046,5.929c0.697,1.241,1.82,1.86,3.371,1.86c0.93,0,1.84-0.076,2.732-0.231
			c0.89-0.154,1.994-0.504,3.313-1.047L99.39,81.49c-1.241,0.621-3.139,1.239-5.696,1.86c-2.557,0.62-5.193,0.93-7.905,0.93
			c-4.417,0-7.789-1.028-10.113-3.081c-2.325-2.052-3.487-5.444-3.487-10.171V1.279h15.112V63.122z"/>
		<path d="M105.551,27.899c3.099-1.396,6.78-2.5,11.043-3.313c4.261-0.813,8.719-1.221,13.369-1.221c4.028,0,7.4,0.485,10.113,1.453
			c2.712,0.97,4.862,2.345,6.452,4.126c1.588,1.784,2.712,3.915,3.372,6.394c0.657,2.481,0.988,5.271,0.988,8.37
			c0,3.411-0.116,6.84-0.349,10.288c-0.232,3.449-0.369,6.84-0.407,10.171c-0.04,3.333,0.058,6.568,0.291,9.707
			c0.233,3.14,0.813,6.104,1.744,8.894h-12.322l-2.441-8.021h-0.581c-1.551,2.403-3.702,4.477-6.452,6.219
			c-2.752,1.744-6.297,2.616-10.637,2.616c-2.713,0-5.155-0.407-7.324-1.221c-2.17-0.814-4.03-1.977-5.58-3.487
			c-1.551-1.511-2.752-3.293-3.604-5.348c-0.854-2.052-1.279-4.359-1.279-6.917c0-3.564,0.793-6.568,2.383-9.009
			c1.587-2.441,3.875-4.417,6.859-5.93c2.982-1.511,6.548-2.558,10.695-3.139c4.145-0.581,8.776-0.755,13.891-0.523
			c0.542-4.339,0.233-7.458-0.93-9.357c-1.163-1.898-3.76-2.849-7.789-2.849c-3.022,0-6.219,0.312-9.59,0.931
			c-3.371,0.622-6.143,1.435-8.312,2.44L105.551,27.899z M124.732,71.144c3.022,0,5.424-0.679,7.208-2.035
			c1.782-1.355,3.099-2.809,3.953-4.359v-7.556c-2.403-0.233-4.708-0.271-6.917-0.116c-2.208,0.156-4.167,0.505-5.871,1.046
			c-1.706,0.543-3.062,1.319-4.068,2.325c-1.008,1.008-1.511,2.287-1.511,3.836c0,2.171,0.639,3.856,1.918,5.057
			C120.722,70.544,122.483,71.144,124.732,71.144z"/>
		<path d="M183.668,54.985l1.976,8.951h0.582l1.627-9.185l9.881-30.224h16.274l-24.295,58.705h-9.185l-25.226-58.705h17.553
			L183.668,54.985z"/>
		<path d="M218.077,8.137c0-2.247,0.832-4.165,2.498-5.755C222.241,0.795,224.545,0,227.493,0c2.943,0,5.326,0.795,7.148,2.383
			c1.82,1.59,2.732,3.509,2.732,5.755c0,2.248-0.912,4.127-2.732,5.638c-1.822,1.511-4.205,2.267-7.148,2.267
			c-2.947,0-5.252-0.755-6.918-2.267C218.909,12.264,218.077,10.385,218.077,8.137z M220.286,24.528h15.111v58.124h-15.111V24.528z"
			/>
		<path d="M271.433,57.194l2.092,9.066h0.698l1.511-9.183l8.834-32.549h15.577l-17.669,52.427
			c-1.474,4.341-2.888,8.312-4.243,11.916c-1.357,3.604-2.848,6.722-4.477,9.358c-1.627,2.634-3.428,4.668-5.404,6.103
			c-1.977,1.434-4.321,2.15-7.033,2.15c-4.029,0-7.247-0.659-9.648-1.977l2.791-12.09c1.162,0.465,2.324,0.698,3.486,0.698
			c1.782,0,3.506-0.756,5.174-2.267c1.666-1.512,2.924-4.243,3.777-8.195l-24.296-58.124h18.135L271.433,57.194z"/>
		<path d="M302.241,53.59c0-9.841,2.4-17.417,7.207-22.726c4.805-5.308,11.547-7.963,20.227-7.963c4.65,0,8.68,0.737,12.091,2.208
			c3.409,1.473,6.237,3.545,8.485,6.219s3.934,5.911,5.058,9.707c1.122,3.798,1.687,7.983,1.687,12.555
			c0,9.844-2.384,17.419-7.149,22.728c-4.767,5.309-11.49,7.963-20.169,7.963c-4.65,0-8.68-0.737-12.09-2.208
			c-3.412-1.472-6.26-3.546-8.545-6.219c-2.287-2.674-3.992-5.909-5.115-9.707C302.801,62.349,302.241,58.164,302.241,53.59z
			 M317.817,53.59c0,2.559,0.232,4.923,0.698,7.092c0.465,2.17,1.163,4.067,2.092,5.695c0.931,1.627,2.151,2.889,3.662,3.778
			c1.511,0.892,3.313,1.337,5.405,1.337c3.953,0,6.896-1.433,8.834-4.301c1.937-2.866,2.906-7.4,2.906-13.602
			c0-5.347-0.892-9.667-2.674-12.961c-1.783-3.293-4.806-4.939-9.066-4.939c-3.721,0-6.627,1.395-8.719,4.185
			C318.863,42.663,317.817,47.236,317.817,53.59z"/>
	</g>
</g>
</svg>
