<?xml version="1.0" encoding="utf-8"?>
<!-- Generator: Adobe Illustrator 16.0.0, SVG Export Plug-In . SVG Version: 6.00 Build 0)  -->
<!DOCTYPE svg PUBLIC "-//W3C//DTD SVG 1.1//EN" "http://www.w3.org/Graphics/SVG/1.1/DTD/svg11.dtd">
<svg version="1.1" id="Layer_1" xmlns="http://www.w3.org/2000/svg" xmlns:xlink="http://www.w3.org/1999/xlink" x="0px" y="0px"
	 width="135.238px" height="22.652px" viewBox="0 0 135.238 22.652" enable-background="new 0 0 135.238 22.652"
	 xml:space="preserve">
<g>
	<g>
		<path d="M42.717,7.403c-0.072,0.269-0.146,0.588-0.223,0.958l-0.347,0.001c-0.319-0.627-0.763-1.12-1.333-1.476
			c-0.576-0.35-1.219-0.521-1.934-0.521c-1.222,0-2.209,0.505-2.942,1.53c-0.745,1.021-1.113,2.39-1.113,4.096
			c0,1.499,0.42,2.742,1.269,3.737c0.845,0.989,1.905,1.483,3.178,1.483c0.622,0,1.213-0.142,1.777-0.418
			c0.554-0.276,1.064-0.69,1.534-1.24l0.215,0.292l-0.215,1.118c-0.508,0.379-1.096,0.668-1.746,0.862
			c-0.652,0.191-1.366,0.289-2.137,0.289c-1.832,0-3.304-0.573-4.437-1.725c-1.135-1.153-1.703-2.654-1.703-4.495
			c0-1.918,0.578-3.475,1.729-4.659c1.153-1.191,2.654-1.784,4.512-1.784c0.678,0,1.383,0.091,2.113,0.266
			c0.732,0.18,1.432,0.434,2.095,0.764C42.89,6.832,42.791,7.141,42.717,7.403 M75.083,17.805c-0.431,0-0.813,0.021-1.153,0.064
			c0.034-0.206,0.072-0.457,0.094-0.751c0.028-0.292,0.05-0.771,0.06-1.438c0.037-1.151,0.052-2.46,0.052-3.927L74.12,9.84
			c0-0.946-0.218-1.686-0.659-2.217c-0.435-0.534-1.044-0.804-1.815-0.804c-0.991,0-1.741,0.345-2.252,1.04
			c-0.513,0.688-0.771,1.706-0.771,3.038v0.855c0,1.467,0.019,2.774,0.046,3.927c0.016,0.666,0.035,1.144,0.062,1.43
			c0.026,0.291,0.056,0.54,0.096,0.76c-0.339-0.043-0.725-0.064-1.166-0.064c-0.432,0-0.822,0.021-1.159,0.064
			c0.042-0.22,0.074-0.469,0.102-0.76c0.019-0.286,0.037-0.764,0.058-1.43c0.034-1.151,0.047-2.46,0.047-3.927L66.695,9.84
			c0-0.946-0.221-1.686-0.662-2.217c-0.434-0.534-1.039-0.804-1.81-0.804c-0.993,0-1.744,0.345-2.258,1.04
			c-0.514,0.688-0.777,1.706-0.777,3.038v0.855c0,1.467,0.019,2.774,0.052,3.927c0.018,0.666,0.037,1.146,0.06,1.438
			c0.025,0.294,0.056,0.545,0.1,0.751c-0.345-0.043-0.733-0.064-1.17-0.064c-0.432,0-0.812,0.021-1.158,0.064
			c0.043-0.22,0.071-0.469,0.101-0.76c0.023-0.286,0.043-0.764,0.062-1.43c0.029-1.151,0.045-2.46,0.045-3.927
			c0-1.443-0.016-2.729-0.045-3.864c-0.02-0.661-0.039-1.137-0.062-1.428c-0.029-0.294-0.058-0.546-0.101-0.76
			c0.334,0.059,0.712,0.087,1.138,0.087c0.42,0,0.801-0.028,1.133-0.087c-0.043,0.082-0.071,0.211-0.098,0.385
			c-0.014,0.178-0.046,0.483-0.075,0.921l-0.052,0.771c0.199-0.347,0.429-0.655,0.664-0.923c0.842-0.935,1.879-1.402,3.121-1.402
			c1.146,0,2.055,0.374,2.731,1.122c0.351,0.383,0.61,0.856,0.78,1.4c0.237-0.415,0.505-0.787,0.788-1.12
			c0.84-0.935,1.879-1.402,3.121-1.402c1.15,0,2.057,0.369,2.727,1.11c0.668,0.742,1.007,1.742,1.007,3.004l-0.016,2.188
			c0,1.467,0.02,2.774,0.059,3.927c0.012,0.666,0.034,1.144,0.054,1.43c0.028,0.291,0.062,0.54,0.102,0.76
			C75.911,17.826,75.519,17.805,75.083,17.805"/>
	</g>
	<g>
		<path d="M87.024,4.624H86.71c-0.301-0.549-0.695-0.979-1.184-1.283c-0.488-0.302-1.023-0.456-1.604-0.456
			c-0.815,0-1.493,0.254-2.005,0.762c-0.523,0.502-0.786,1.155-0.786,1.948c0,0.707,0.256,1.306,0.755,1.808
			c0.503,0.499,1.298,0.937,2.396,1.316c1.379,0.482,2.371,1.072,2.957,1.763c0.588,0.682,0.873,1.596,0.873,2.73
			c0,1.381-0.48,2.535-1.447,3.487c-0.973,0.945-2.156,1.418-3.551,1.418c-0.886,0-1.651-0.113-2.314-0.354
			c-0.656-0.238-1.194-0.587-1.606-1.049c0.084-0.308,0.15-0.571,0.189-0.788c0.047-0.219,0.092-0.481,0.137-0.785l0.352-0.108
			c0.334,0.621,0.817,1.12,1.449,1.513c0.627,0.388,1.276,0.584,1.971,0.584c0.938,0,1.703-0.3,2.303-0.905
			c0.596-0.601,0.894-1.376,0.894-2.323c0-0.769-0.248-1.42-0.75-1.949c-0.506-0.527-1.307-0.982-2.404-1.367
			c-1.402-0.495-2.396-1.078-2.994-1.753c-0.592-0.671-0.883-1.565-0.883-2.681c0-1.188,0.428-2.198,1.295-3.021
			c0.869-0.827,1.926-1.238,3.175-1.238c0.683,0,1.325,0.088,1.917,0.259c0.597,0.168,1.146,0.421,1.652,0.759
			c-0.107,0.328-0.199,0.607-0.265,0.842C87.166,3.992,87.094,4.285,87.024,4.624 M100.715,6.877
			c-0.058,0.21-0.112,0.456-0.183,0.746l-0.277,0.014c-0.383-0.464-0.865-0.833-1.448-1.104c-0.586-0.27-1.181-0.416-1.775-0.416
			c-1.42,0-2.557,0.526-3.412,1.562c-0.857,1.046-1.283,2.437-1.283,4.171c0,1.571,0.435,2.871,1.302,3.892
			c0.864,1.02,1.963,1.528,3.296,1.528c0.688,0,1.365-0.127,2.019-0.386c0.653-0.26,1.203-0.614,1.638-1.061l0.147,0.193
			c-0.039,0.196-0.068,0.37-0.095,0.521c-0.026,0.147-0.039,0.335-0.054,0.531c-0.604,0.34-1.228,0.592-1.853,0.742
			c-0.636,0.158-1.337,0.236-2.113,0.236c-1.809,0-3.282-0.567-4.399-1.701c-1.123-1.136-1.687-2.618-1.687-4.447
			c0-1.948,0.596-3.535,1.791-4.743c1.199-1.211,2.758-1.816,4.678-1.816c0.736,0,1.412,0.063,2.051,0.191
			c0.633,0.128,1.253,0.328,1.887,0.601C100.848,6.422,100.773,6.67,100.715,6.877 M113.719,16.24
			c-1.223,1.209-2.809,1.812-4.772,1.812c-1.902,0-3.438-0.565-4.623-1.696c-1.181-1.135-1.775-2.614-1.775-4.446
			c0-1.946,0.605-3.526,1.826-4.744c1.217-1.214,2.807-1.821,4.763-1.821c1.912,0,3.46,0.57,4.635,1.704
			c1.184,1.137,1.774,2.616,1.774,4.446C115.546,13.444,114.942,15.022,113.719,16.24 M112.47,7.604
			c-0.854-0.992-1.996-1.485-3.433-1.485c-1.41,0-2.553,0.526-3.405,1.562c-0.859,1.046-1.288,2.437-1.288,4.171
			c0,1.645,0.429,2.955,1.288,3.944c0.854,0.982,1.995,1.476,3.405,1.476c1.437,0,2.578-0.517,3.433-1.556
			c0.85-1.039,1.276-2.426,1.276-4.161C113.748,9.906,113.32,8.591,112.47,7.604 M126.029,17.805c-0.412,0-0.779,0.02-1.091,0.049
			c-0.147-0.295-0.327-0.586-0.532-0.88c-0.207-0.29-0.539-0.729-1.002-1.319l-0.978-1.283c-0.753-0.98-1.432-1.835-2.029-2.555
			h-0.592c0,1.418,0.013,2.696,0.033,3.838c0.025,0.762,0.039,1.29,0.061,1.582c0.009,0.293,0.026,0.501,0.054,0.617
			c-0.264-0.029-0.562-0.049-0.892-0.049c-0.329,0-0.632,0.02-0.889,0.049c0.025-0.11,0.042-0.318,0.06-0.617
			c0.012-0.292,0.027-0.816,0.049-1.584c0.024-1.185,0.034-2.499,0.034-3.95c0-1.471-0.01-2.789-0.034-3.961
			c-0.021-0.765-0.037-1.298-0.052-1.591c-0.015-0.297-0.03-0.491-0.057-0.599c0.54,0.016,0.996,0.033,1.363,0.039
			c0.365,0.014,0.655,0.008,0.851-0.002c0.326-0.021,0.623-0.029,0.887-0.037h0.693c1.291,0,2.259,0.232,2.907,0.721
			c0.64,0.483,0.957,1.21,0.957,2.177c0,1-0.475,1.813-1.422,2.438c-0.61,0.397-1.34,0.673-2.178,0.815
			c0.583,0.799,1.282,1.718,2.106,2.762l0.955,1.19c0.66,0.813,1.111,1.366,1.357,1.659c0.246,0.294,0.4,0.479,0.471,0.54
			C126.798,17.823,126.439,17.805,126.029,17.805 M123.154,10.339c0.635-0.454,0.957-1.062,0.957-1.812
			c0-0.693-0.244-1.227-0.729-1.605c-0.495-0.373-1.198-0.558-2.128-0.558c-0.53,0.007-1.018,0.028-1.465,0.062v4.611
			c0.259-0.026,0.526-0.029,0.803-0.026C121.658,11.013,122.512,10.785,123.154,10.339 M131.773,16.905h0.588
			c0.524,0,1.084-0.02,1.659-0.055c0.572-0.033,0.98-0.081,1.218-0.129c-0.039,0.183-0.057,0.391-0.057,0.628
			c0,0.229,0.018,0.431,0.057,0.615c-0.252-0.043-0.627-0.074-1.127-0.105c-0.509-0.029-0.967-0.044-1.396-0.044l-1.325-0.011
			c-0.445,0-0.915,0.018-1.394,0.044c-0.479,0.024-0.842,0.053-1.09,0.098c0.02-0.116,0.047-0.321,0.062-0.615
			c0.014-0.29,0.032-0.82,0.057-1.583c0.018-1.2,0.032-2.554,0.032-4.058c0-1.506-0.016-2.852-0.032-4.039
			c-0.023-0.764-0.043-1.292-0.057-1.588c-0.015-0.292-0.042-0.496-0.062-0.609c0.209,0.034,0.549,0.067,1.028,0.099
			c0.48,0.023,0.966,0.037,1.454,0.037l1.325-0.009c0.533,0,1.01-0.014,1.43-0.028c0.418-0.03,0.781-0.066,1.093-0.124
			c-0.039,0.188-0.057,0.39-0.057,0.617c0,0.227,0.018,0.435,0.057,0.604c-0.203-0.044-0.557-0.08-1.055-0.116
			c-0.5-0.029-0.993-0.047-1.468-0.047h-0.611c-0.538-0.007-1.037,0.004-1.507,0.024l-0.051,4.487l1.55-0.017
			c0.51,0,1.037-0.011,1.574-0.043c0.537-0.026,0.912-0.059,1.117-0.103c-0.035,0.175-0.053,0.375-0.053,0.604
			c0,0.224,0.018,0.414,0.053,0.593c-0.205-0.037-0.58-0.075-1.117-0.104c-0.537-0.03-1.064-0.043-1.574-0.043l-1.546-0.009
			c-0.004,1.927,0.012,3.595,0.047,5.016L131.773,16.905z"/>
	</g>
	<g>
		<path d="M50.496,18.047c1.961,0,3.551-0.606,4.768-1.816c1.218-1.214,1.83-2.793,1.83-4.74c0-1.825-0.596-3.312-1.772-4.448
			C54.14,5.91,52.597,5.34,50.686,5.34c-1.957,0-3.548,0.61-4.762,1.821c-1.219,1.217-1.831,2.795-1.831,4.749
			c0,1.822,0.597,3.307,1.771,4.439C47.055,17.484,48.6,18.047,50.496,18.047 M50.589,17.27c-1.417,0-2.558-0.493-3.414-1.479
			c-0.858-0.991-1.285-2.301-1.285-3.946c0-1.73,0.427-3.119,1.285-4.164c0.856-1.041,1.997-1.562,3.414-1.562
			c1.431,0,2.574,0.488,3.427,1.479c0.849,0.985,1.281,2.307,1.281,3.952c0,1.735-0.433,3.125-1.281,4.162
			C53.164,16.749,52.02,17.27,50.589,17.27"/>
	</g>
</g>
<g>
	<path d="M21.524,6.404C19.581,2.379,15.568,0.021,11.378,0h-0.132C9.62,0.01,7.969,0.374,6.406,1.13
		C2.377,3.074,0.019,7.09,0,11.282v0.098c0.006,1.636,0.37,3.295,1.127,4.866c2.687,5.561,9.313,7.925,14.898,5.371l-10.602-4.8
		V5.76l10.624-4.713l0.002,20.56c0.065-0.029,0.132-0.052,0.196-0.083C21.882,18.808,24.243,12.038,21.524,6.404z"/>
	<path d="M5.424,16.818V5.76l10.624-4.713l0.008-0.011C14.596,0.368,12.999,0.008,11.378,0h-0.132C9.62,0.01,7.969,0.374,6.406,1.13
		C2.377,3.074,0.019,7.09,0,11.282v0.098c0.006,1.636,0.37,3.295,1.127,4.866c0.322,0.664,0.698,1.283,1.123,1.852l3.181-1.242
		l0.018-0.025L5.424,16.818z"/>
	<path d="M5.424,16.818V5.76l10.624-4.713l0.008-0.011C14.596,0.368,12.999,0.008,11.378,0h-0.132C9.62,0.01,7.969,0.374,6.406,1.13
		C2.377,3.074,0.019,7.09,0,11.282v0.098c0.006,1.636,0.37,3.295,1.127,4.866c0.322,0.664,0.698,1.283,1.123,1.852l3.181-1.242
		l0.018-0.025L5.424,16.818z"/>
</g>
</svg>
