<?xml version="1.0" encoding="utf-8"?>
<!-- Generator: Adobe Illustrator 16.0.0, SVG Export Plug-In . SVG Version: 6.00 Build 0)  -->
<!DOCTYPE svg PUBLIC "-//W3C//DTD SVG 1.1//EN" "http://www.w3.org/Graphics/SVG/1.1/DTD/svg11.dtd">
<svg version="1.1" id="Layer_1" xmlns="http://www.w3.org/2000/svg" xmlns:xlink="http://www.w3.org/1999/xlink" x="0px" y="0px"
	 width="167.945px" height="27.355px" viewBox="0 0 167.945 27.355" enable-background="new 0 0 167.945 27.355"
	 xml:space="preserve">
<g>
	<path fill="#0079C1" d="M58.263,7.972c0.614,0.507,1.895,1.574,1.895,3.604c0,1.975-1.12,2.911-2.242,3.791
		c-0.348,0.346-0.747,0.721-0.747,1.309s0.399,0.907,0.692,1.148l0.963,0.745c1.175,0.988,2.242,1.896,2.242,3.74
		c0,2.51-2.43,5.045-7.021,5.045c-3.872,0-5.74-1.842-5.74-3.817c0-0.962,0.479-2.322,2.056-3.259
		c1.654-1.014,3.898-1.146,5.1-1.229c-0.374-0.48-0.802-0.986-0.802-1.814c0-0.453,0.135-0.721,0.268-1.041
		c-0.294,0.027-0.587,0.054-0.855,0.054c-2.829,0-4.432-2.109-4.432-4.19c0-1.229,0.562-2.592,1.709-3.579
		c1.521-1.255,3.337-1.469,4.78-1.469h5.499l-1.708,0.962H58.263z M56.365,19.827C56.154,19.8,56.02,19.8,55.754,19.8
		c-0.241,0-1.685,0.055-2.806,0.43c-0.587,0.213-2.296,0.853-2.296,2.75c0,1.895,1.844,3.258,4.7,3.258
		c2.562,0,3.925-1.23,3.925-2.885C59.278,21.988,58.397,21.27,56.365,19.827 M57.141,14.754c0.614-0.614,0.667-1.468,0.667-1.948
		c0-1.924-1.148-4.913-3.363-4.913c-0.694,0-1.441,0.347-1.87,0.881c-0.453,0.561-0.587,1.281-0.587,1.976
		c0,1.789,1.042,4.753,3.338,4.753C55.992,15.502,56.713,15.182,57.141,14.754"/>
</g>
<g>
	<path fill="#FFC425" d="M41.454,19.4c-4.238,0-6.505-3.305-6.505-6.292c0-3.492,2.853-6.477,6.905-6.477
		c3.917,0,6.37,3.065,6.37,6.291C48.225,16.066,45.8,19.4,41.454,19.4 M44.784,17.241c0.642-0.854,0.803-1.919,0.803-2.96
		c0-2.345-1.12-6.823-4.427-6.823c-0.88,0-1.759,0.348-2.397,0.907c-1.04,0.932-1.229,2.105-1.229,3.252
		c0,2.639,1.308,6.982,4.533,6.982C43.108,18.6,44.173,18.094,44.784,17.241"/>
</g>
<g>
	<path fill="#ED174F" d="M27.006,19.4c-4.239,0-6.505-3.305-6.505-6.292c0-3.492,2.853-6.477,6.904-6.477
		c3.918,0,6.371,3.065,6.371,6.291C33.777,16.066,31.351,19.4,27.006,19.4 M30.338,17.241c0.64-0.854,0.8-1.919,0.8-2.96
		c0-2.345-1.119-6.823-4.425-6.823c-0.879,0-1.759,0.348-2.399,0.907c-1.04,0.932-1.226,2.105-1.226,3.252
		c0,2.639,1.306,6.982,4.532,6.982C28.659,18.6,29.726,18.094,30.338,17.241"/>
</g>
<g>
	<path fill="#0079C1" d="M18.465,18.98l-3.833,0.887c-1.556,0.24-2.948,0.455-4.421,0.455C2.813,20.322,0,14.881,0,10.62
		C0,5.421,3.992,0.598,10.827,0.598c1.447,0,2.841,0.214,4.1,0.562c2.01,0.563,2.948,1.26,3.538,1.662L16.24,4.939l-0.938,0.214
		l0.67-1.073c-0.91-0.883-2.573-2.518-5.735-2.518c-4.233,0-7.424,3.217-7.424,7.906c0,5.037,3.646,9.78,9.487,9.78
		c1.717,0,2.6-0.347,3.404-0.67v-4.312l-4.047,0.213l2.144-1.151h5.682l-0.695,0.669c-0.189,0.161-0.216,0.216-0.27,0.429
		c-0.028,0.242-0.053,1.02-0.053,1.287V18.98z"/>
</g>
<g>
	<path fill="#49A942" d="M66.734,18.21c-0.886-0.081-1.07-0.241-1.07-1.286v-0.296V1.754c0.005-0.058,0.009-0.116,0.015-0.172
		C65.784,0.644,66.054,0.483,66.885,0h-3.833l-2.011,0.965h2.049v0.013l-0.001-0.01v15.66v0.887c0,0.534-0.107,0.614-0.725,1.418
		h4.744l0.992-0.589C67.645,18.291,67.19,18.264,66.734,18.21"/>
</g>
<g>
	<path fill="#ED174F" d="M77.639,18.457c-0.292,0.16-0.585,0.349-0.877,0.48c-0.879,0.396-1.784,0.504-2.583,0.504
		c-0.851,0-2.182-0.053-3.54-1.037c-1.888-1.331-2.714-3.62-2.714-5.616c0-4.125,3.354-6.147,6.095-6.147
		c0.958,0,1.944,0.238,2.742,0.745c1.33,0.877,1.676,2.021,1.862,2.634l-6.254,2.528l-2.051,0.16c0.665,3.38,2.955,5.35,5.483,5.35
		c1.357,0,2.342-0.479,3.247-0.932L77.639,18.457z M75.138,10.524c0.505-0.187,0.771-0.347,0.771-0.718
		c0-1.064-1.196-2.289-2.634-2.289c-1.066,0-3.061,0.824-3.061,3.699c0,0.452,0.052,0.932,0.08,1.41L75.138,10.524z"/>
</g>
<g>
	<path fill="#77787B" d="M96.095,13.114h-6.066l-2.082,5.27h-1.154l6.006-14.992h0.664l5.883,14.992H98.17L96.095,13.114z
		 M90.408,12.174h5.342l-2.031-5.382c-0.172-0.422-0.375-1.007-0.613-1.757c-0.184,0.654-0.385,1.246-0.604,1.777L90.408,12.174z"/>
	<path fill="#77787B" d="M109.008,18.384v-7.199c0-1.117-0.236-1.93-0.705-2.437c-0.471-0.507-1.199-0.761-2.188-0.761
		c-1.326,0-2.301,0.335-2.916,1.006c-0.615,0.67-0.924,1.758-0.924,3.263v6.128h-1.014V7.282h0.859l0.193,1.522h0.061
		c0.723-1.158,2.006-1.736,3.852-1.736c2.521,0,3.779,1.352,3.779,4.055v7.261H109.008z"/>
	<path fill="#77787B" d="M120.406,18.384l-0.256-1.757h-0.08c-0.559,0.715-1.133,1.222-1.723,1.519
		c-0.588,0.295-1.285,0.442-2.088,0.442c-1.09,0-1.939-0.278-2.543-0.837c-0.605-0.558-0.908-1.331-0.908-2.316
		c0-1.084,0.451-1.925,1.354-2.522c0.9-0.599,2.207-0.916,3.916-0.95l2.113-0.062v-0.735c0-1.055-0.215-1.852-0.643-2.39
		c-0.432-0.538-1.121-0.808-2.074-0.808c-1.027,0-2.094,0.286-3.195,0.858L113.9,7.948c1.221-0.572,2.424-0.858,3.615-0.858
		c1.219,0,2.131,0.316,2.732,0.95s0.902,1.621,0.902,2.962v7.384L120.406,18.384L120.406,18.384z M116.32,17.669
		c1.188,0,2.121-0.339,2.805-1.017c0.686-0.678,1.025-1.618,1.025-2.823v-1.093l-1.939,0.082c-1.559,0.075-2.67,0.317-3.334,0.729
		s-0.996,1.055-0.996,1.926c0,0.693,0.213,1.233,0.641,1.618C114.943,17.477,115.547,17.669,116.32,17.669z"/>
	<path fill="#77787B" d="M125.801,18.384h-1.012V2.492h1.012V18.384z"/>
	<path fill="#77787B" d="M127.701,7.282h1.041l2.35,6.23c0.717,1.912,1.168,3.203,1.357,3.87h0.062
		c0.287-0.878,0.752-2.188,1.398-3.932l2.35-6.168h1.043l-4.975,12.898c-0.402,1.049-0.738,1.758-1.012,2.125
		s-0.592,0.645-0.955,0.826c-0.363,0.186-0.805,0.276-1.322,0.276c-0.389,0-0.82-0.072-1.297-0.215v-0.877
		c0.395,0.107,0.82,0.162,1.275,0.162c0.348,0,0.654-0.082,0.92-0.244c0.266-0.163,0.506-0.418,0.721-0.762
		c0.215-0.345,0.463-0.89,0.744-1.635c0.283-0.745,0.465-1.23,0.547-1.456L127.701,7.282z"/>
	<path fill="#77787B" d="M142.154,17.689c0.641,0,1.197-0.057,1.676-0.164v0.815c-0.49,0.164-1.057,0.245-1.695,0.245
		c-0.98,0-1.705-0.262-2.17-0.786c-0.467-0.522-0.701-1.348-0.701-2.472V8.161h-1.645V7.568l1.645-0.46l0.512-2.512h0.521v2.686
		h3.258V8.16h-3.258v7.025c0,0.852,0.148,1.48,0.449,1.891C141.045,17.484,141.513,17.689,142.154,17.689z"/>
	<path fill="#77787B" d="M146.148,4.198c0-0.653,0.215-0.98,0.645-0.98c0.211,0,0.375,0.085,0.494,0.256
		c0.119,0.17,0.18,0.411,0.18,0.725c0,0.307-0.061,0.548-0.18,0.725c-0.119,0.178-0.283,0.267-0.494,0.267
		C146.363,5.188,146.148,4.858,146.148,4.198z M147.302,18.384h-1.012V7.282h1.012V18.384z"/>
	<path fill="#77787B" d="M155.494,18.588c-1.586,0-2.828-0.5-3.729-1.501c-0.898-1.001-1.348-2.396-1.348-4.188
		c0-1.838,0.467-3.271,1.396-4.294c0.932-1.024,2.211-1.537,3.83-1.537c0.961,0,1.879,0.167,2.758,0.5l-0.273,0.898
		c-0.959-0.319-1.793-0.479-2.502-0.479c-1.359,0-2.395,0.42-3.096,1.261c-0.699,0.841-1.051,2.051-1.051,3.631
		c0,1.498,0.352,2.671,1.051,3.521c0.701,0.848,1.684,1.271,2.941,1.271c1.008,0,1.945-0.181,2.809-0.542v0.939
		C157.574,18.415,156.644,18.588,155.494,18.588z"/>
	<path fill="#77787B" d="M167.945,15.494c0,0.994-0.379,1.758-1.135,2.292s-1.828,0.802-3.217,0.802
		c-1.484,0-2.662-0.229-3.533-0.684V16.81c1.117,0.559,2.295,0.838,3.533,0.838c1.096,0,1.93-0.184,2.498-0.547
		c0.566-0.363,0.852-0.85,0.852-1.455c0-0.56-0.227-1.028-0.678-1.41c-0.453-0.381-1.197-0.756-2.232-1.124
		c-1.109-0.401-1.889-0.747-2.338-1.037c-0.449-0.289-0.789-0.616-1.018-0.979c-0.229-0.364-0.342-0.809-0.342-1.333
		c0-0.831,0.35-1.488,1.047-1.972c0.695-0.482,1.674-0.724,2.926-0.724c1.199,0,2.336,0.225,3.412,0.674l-0.379,0.919
		c-1.088-0.45-2.102-0.674-3.033-0.674c-0.904,0-1.623,0.149-2.154,0.45c-0.529,0.299-0.797,0.715-0.797,1.246
		c0,0.578,0.205,1.042,0.617,1.389s1.219,0.735,2.416,1.164c1.002,0.361,1.729,0.686,2.186,0.976
		c0.459,0.29,0.799,0.618,1.027,0.985C167.832,14.564,167.945,14.997,167.945,15.494z"/>
</g>
</svg>
