<?xml version="1.0" encoding="utf-8"?>
<!-- Generator: Adobe Illustrator 16.0.0, SVG Export Plug-In . SVG Version: 6.00 Build 0)  -->
<!DOCTYPE svg PUBLIC "-//W3C//DTD SVG 1.1//EN" "http://www.w3.org/Graphics/SVG/1.1/DTD/svg11.dtd">
<svg version="1.1" id="Layer_1" xmlns="http://www.w3.org/2000/svg" xmlns:xlink="http://www.w3.org/1999/xlink" x="0px" y="0px"
	 width="121.762px" height="66.75px" viewBox="0 0 121.762 66.75" enable-background="new 0 0 121.762 66.75" xml:space="preserve">
<polygon fill="#FFFFFF" points="26.547,64.042 26.547,51.209 15.214,50.375 6.214,50.375 2.381,45.209 2.381,36.375 2.381,23.708 
	2.381,12.375 2.381,6.708 5.214,4.208 10.714,2.042 31.214,2.042 98.714,2.875 112.342,2.042 118.381,4.542 119.714,14.932 
	119.714,33.042 118.548,48.209 115.548,50.375 51.381,51.042 "/>
<g>
	<path fill="#3A3B3B" d="M26.32,66.75c-0.362,0-0.723-0.1-1.041-0.297c-0.583-0.361-0.936-0.998-0.935-1.684l0.029-12.021H11.322
		C3.28,52.748,0,49.469,0,41.428V11.322C0,3.28,3.28,0,11.322,0h99.776c8.919,0,10.663,4.151,10.663,11.322v30.103
		c0,8.041-3.28,11.322-11.321,11.322H54.82L27.202,66.543C26.925,66.679,26.621,66.75,26.32,66.75z M11.322,3.951
		c-5.854,0-7.371,1.516-7.371,7.371v30.103c0,5.854,1.517,7.371,7.371,7.371h15.033c0.523,0,1.028,0.209,1.397,0.58
		c0.371,0.371,0.578,0.875,0.577,1.399l-0.026,10.799l25.169-12.568c0.273-0.139,0.575-0.209,0.883-0.209h56.085
		c5.854,0,7.37-1.516,7.37-7.369V11.322c0-3.179-0.379-5.022-1.229-5.979c-0.527-0.598-1.674-1.392-5.481-1.392H11.322z"/>
</g>
<g id="LiveChat_2_">
	<g>
		<path fill="#3A3B3B" d="M20.033,33.729h-7.375V15.457c-0.75-0.124-1.471-0.186-2.162-0.186c-0.671,0-1.373,0.062-2.103,0.186
			v22.154h11.639c0.06-0.351,0.099-0.685,0.118-1.002c0.019-0.316,0.03-0.644,0.03-0.972c0-0.286-0.011-0.59-0.03-0.907
			C20.132,34.412,20.093,34.08,20.033,33.729z M19.885,23.314c0,0.267,0.015,0.55,0.044,0.847c0.029,0.298,0.073,0.581,0.133,0.848
			h1.983v12.603c0.71,0.125,1.393,0.188,2.043,0.188c0.672,0,1.362-0.062,2.073-0.188V21.68h-6.101
			C19.944,22.215,19.885,22.759,19.885,23.314z M22.52,19.124c0.395,0.021,0.75,0.03,1.065,0.03c0.335,0,0.696-0.01,1.081-0.03
			c0.386-0.021,0.745-0.062,1.081-0.124c0.06-0.349,0.099-0.698,0.118-1.048c0.021-0.349,0.03-0.688,0.03-1.017
			c0-0.349-0.01-0.693-0.03-1.032c-0.02-0.339-0.059-0.683-0.118-1.032c-0.336-0.062-0.702-0.107-1.096-0.139
			c-0.396-0.031-0.76-0.046-1.096-0.046c-0.316,0-0.667,0.015-1.052,0.046c-0.385,0.031-0.745,0.077-1.08,0.139
			c-0.118,0.72-0.179,1.407-0.179,2.064c0,0.678,0.061,1.366,0.179,2.064C21.76,19.061,22.125,19.103,22.52,19.124z M41.104,21.527
			c-0.385-0.021-0.727-0.031-1.022-0.031c-0.375,0-0.75,0.016-1.125,0.046c-0.375,0.031-0.73,0.077-1.065,0.139l-3.287,11.863
			l-3.347-11.863c-0.337-0.082-0.701-0.133-1.097-0.153c-0.395-0.021-0.79-0.031-1.185-0.031c-0.296,0-0.647,0.011-1.051,0.031
			c-0.405,0.021-0.845,0.082-1.318,0.185l5.715,15.869c0.336,0.082,0.691,0.133,1.066,0.154c0.375,0.021,0.711,0.028,1.007,0.028
			c0.275,0,0.622-0.01,1.037-0.028c0.415-0.021,0.81-0.062,1.185-0.125l5.805-15.898C41.928,21.609,41.489,21.548,41.104,21.527z
			 M55.748,25.918c-0.296-0.935-0.735-1.741-1.317-2.419c-0.582-0.678-1.288-1.212-2.117-1.603c-0.83-0.39-1.777-0.585-2.843-0.585
			c-1.225,0-2.295,0.221-3.214,0.662c-0.918,0.442-1.688,1.043-2.31,1.803c-0.622,0.761-1.091,1.654-1.407,2.681
			c-0.315,1.027-0.474,2.126-0.474,3.297c0,1.192,0.153,2.291,0.459,3.297c0.306,1.007,0.78,1.875,1.422,2.604
			c0.641,0.729,1.47,1.301,2.488,1.711c1.017,0.41,2.235,0.615,3.657,0.615c1.935,0,3.672-0.308,5.212-0.925
			c-0.021-0.655-0.109-1.272-0.268-1.85c-0.158-0.574-0.346-1.068-0.562-1.479c-0.632,0.246-1.299,0.438-2,0.568
			c-0.701,0.135-1.388,0.201-2.059,0.201c-1.224,0-2.211-0.277-2.961-0.833c-0.75-0.554-1.165-1.448-1.244-2.681h9.832
			c0.04-0.226,0.074-0.528,0.104-0.908c0.03-0.38,0.045-0.766,0.045-1.156C56.193,27.854,56.044,26.853,55.748,25.918z
			 M46.242,27.936c0.1-1.048,0.405-1.859,0.918-2.435c0.513-0.576,1.265-0.863,2.251-0.863c0.869,0,1.544,0.304,2.029,0.909
			c0.482,0.606,0.745,1.402,0.785,2.389H46.242z"/>
	</g>
</g>
<g id="LiveChat_1_">
	<g>
		<path fill="#F15A22" d="M71.801,33.421c-0.691,0.246-1.313,0.422-1.866,0.524c-0.552,0.103-1.193,0.151-1.925,0.151
			c-4.088,0-6.131-2.505-6.131-7.518c0-2.526,0.509-4.432,1.525-5.716c1.018-1.283,2.473-1.926,4.367-1.926
			c0.729,0,1.363,0.052,1.896,0.154c0.533,0.103,1.146,0.277,1.836,0.523c0.236-0.596,0.455-1.186,0.652-1.771
			c0.196-0.585,0.314-1.187,0.354-1.803c-0.93-0.39-1.792-0.646-2.594-0.771c-0.799-0.123-1.672-0.185-2.621-0.185
			c-1.6,0-3.023,0.288-4.277,0.863c-1.254,0.575-2.311,1.376-3.168,2.403c-0.859,1.027-1.517,2.244-1.971,3.651
			c-0.453,1.407-0.681,2.933-0.681,4.575c0,1.644,0.217,3.164,0.652,4.561c0.434,1.397,1.081,2.604,1.938,3.621
			c0.858,1.018,1.92,1.809,3.184,2.373c1.265,0.564,2.732,0.848,4.413,0.848c0.946,0,1.831-0.062,2.649-0.186
			c0.818-0.123,1.742-0.379,2.771-0.771c-0.079-0.615-0.202-1.228-0.37-1.834C72.268,34.588,72.056,33.996,71.801,33.421z
			 M82.608,21.311c-0.611,0-1.154,0.082-1.628,0.246c-0.475,0.165-0.879,0.365-1.214,0.602c-0.336,0.235-0.618,0.482-0.847,0.739
			c-0.228,0.257-0.408,0.478-0.547,0.662v-8.474c-0.354-0.062-0.711-0.103-1.065-0.123c-0.355-0.02-0.701-0.031-1.036-0.031
			c-0.336,0-0.682,0.011-1.036,0.031c-0.355,0.02-0.701,0.062-1.037,0.123v22.556c0.355,0.062,0.705,0.103,1.053,0.123
			c0.346,0.021,0.687,0.031,1.021,0.031s0.681-0.013,1.036-0.031c0.354-0.021,0.711-0.062,1.065-0.123v-8.381
			c0-0.863,0.095-1.562,0.281-2.096c0.188-0.534,0.424-0.95,0.711-1.248c0.285-0.298,0.606-0.498,0.963-0.602
			c0.354-0.102,0.699-0.153,1.035-0.153c0.812,0,1.383,0.298,1.719,0.894c0.336,0.596,0.502,1.448,0.502,2.558v9.028
			c0.356,0.062,0.713,0.103,1.066,0.123c0.354,0.021,0.701,0.031,1.036,0.031c0.336,0,0.683-0.013,1.037-0.031
			c0.354-0.021,0.711-0.062,1.064-0.123V27.443c0-2.116-0.438-3.667-1.316-4.653C85.595,21.804,84.308,21.311,82.608,21.311z
			 M95.017,21.311c-0.75,0-1.561,0.072-2.43,0.216c-0.867,0.144-1.736,0.369-2.604,0.678c0,0.657,0.068,1.222,0.207,1.694
			c0.139,0.473,0.346,0.977,0.622,1.51c1.204-0.432,2.34-0.646,3.405-0.646c0.493,0,0.942,0.03,1.348,0.092s0.745,0.181,1.021,0.354
			c0.277,0.175,0.494,0.416,0.652,0.725c0.156,0.308,0.235,0.708,0.235,1.202v0.369c-0.69-0.062-1.322-0.093-1.896-0.093
			c-0.791,0-1.58,0.088-2.369,0.263c-0.791,0.174-1.506,0.462-2.146,0.862c-0.642,0.4-1.165,0.935-1.57,1.603
			c-0.404,0.668-0.604,1.494-0.604,2.479c0,0.986,0.161,1.818,0.487,2.496c0.326,0.68,0.789,1.231,1.394,1.664
			c0.602,0.434,1.321,0.74,2.161,0.924c0.839,0.188,1.763,0.277,2.769,0.277c1.244,0,2.359-0.103,3.348-0.308
			c0.986-0.205,1.826-0.422,2.519-0.647v-9.244c0-2.26-0.577-3.902-1.732-4.931C98.676,21.825,97.071,21.311,95.017,21.311z
			 M97.476,34.377c-0.217,0.041-0.475,0.088-0.771,0.139c-0.297,0.053-0.592,0.076-0.889,0.076c-0.257,0-0.558-0.016-0.902-0.045
			c-0.346-0.031-0.672-0.113-0.979-0.248c-0.308-0.133-0.566-0.343-0.783-0.631c-0.219-0.287-0.326-0.697-0.326-1.231
			c0-0.802,0.28-1.382,0.844-1.741c0.562-0.359,1.328-0.54,2.297-0.54c0.217,0,0.463,0.017,0.738,0.047
			c0.276,0.03,0.533,0.066,0.771,0.107V34.377z M112.252,35.314c-0.059-0.42-0.156-0.826-0.295-1.218
			c-0.219,0.041-0.469,0.089-0.756,0.142c-0.285,0.051-0.576,0.076-0.873,0.076c-0.375,0-0.701-0.041-0.979-0.123
			c-0.275-0.082-0.508-0.236-0.695-0.463s-0.33-0.533-0.43-0.925c-0.101-0.39-0.148-0.903-0.148-1.54v-6.256h3.584
			c0.061-0.328,0.101-0.626,0.119-0.894c0.021-0.267,0.029-0.544,0.029-0.832c0-0.267-0.013-0.523-0.029-0.771
			c-0.021-0.246-0.061-0.523-0.119-0.832h-3.584v-4.652h-0.681l-5.538,7.364l0.147,0.616h1.926v7.21
			c0,1.973,0.474,3.396,1.421,4.268c0.948,0.875,2.319,1.312,4.117,1.312c0.967,0,1.903-0.113,2.812-0.34
			c0.021-0.145,0.034-0.293,0.045-0.447c0.01-0.152,0.017-0.344,0.017-0.568C112.344,36.111,112.312,35.736,112.252,35.314z"/>
	</g>
</g>
</svg>
