<?xml version="1.0" encoding="utf-8"?>
<!-- Generator: Adobe Illustrator 16.0.0, SVG Export Plug-In . SVG Version: 6.00 Build 0)  -->
<!DOCTYPE svg PUBLIC "-//W3C//DTD SVG 1.1//EN" "http://www.w3.org/Graphics/SVG/1.1/DTD/svg11.dtd">
<svg version="1.1" id="Layer_1" xmlns="http://www.w3.org/2000/svg" xmlns:xlink="http://www.w3.org/1999/xlink" x="0px" y="0px"
	 width="96.042px" height="20.57px" viewBox="0 0 96.042 20.57" enable-background="new 0 0 96.042 20.57" xml:space="preserve">
<path d="M96.042,5.243l-7.055,15.031h-3.684l2.096-4.301l-2.336-8.463l-0.873,8.729h-3.428l1.523-15.237h3.429l-0.425,4.24h2.752
	l1.621,6.894l2.854-6.894H96.042z M77.56,9.327c0.053-0.725-0.062-1.277-0.346-1.655c-0.273-0.379-0.738-0.567-1.393-0.567
	c-0.666,0-1.209,0.198-1.627,0.597c-0.412,0.397-0.672,0.939-0.779,1.626H77.56z M70.267,13.912
	c-0.406-0.848-0.549-1.885-0.426-3.107c0.18-1.795,0.84-3.228,1.979-4.299c1.139-1.069,2.635-1.604,4.488-1.605
	c1.684,0,2.904,0.454,3.662,1.361s1.053,2.206,0.885,3.897l-0.125,1.232h-7.51c-0.02,0.512,0.047,0.938,0.193,1.283
	c0.147,0.34,0.363,0.609,0.645,0.812c0.271,0.203,0.602,0.35,0.982,0.438c0.385,0.086,0.809,0.127,1.271,0.127
	c0.396,0,0.795-0.041,1.188-0.127c0.396-0.09,0.76-0.209,1.094-0.353c0.293-0.125,0.564-0.258,0.812-0.401
	c0.256-0.144,0.465-0.271,0.627-0.381h0.36l-0.282,2.829c-0.291,0.111-0.562,0.216-0.806,0.312
	c-0.235,0.094-0.563,0.188-0.979,0.285c-0.381,0.1-0.772,0.172-1.178,0.227c-0.299,0.043-0.645,0.07-1.037,0.082l-16.1,0.008h-0.35
	h-3.073l1.103-10.995h3.426l-0.832,8.319l5.471-5.745l-4.083,0.016l0.297-2.521l8.303-0.069L70.049,7.76l-5.873,6.15h6.092
	L70.267,13.912L70.267,13.912z M61.371,3.973h-3.623L58.014,1.3h3.623L61.371,3.973z M52.445,16.535l0.549-5.492
	c0.054-0.542,0.09-0.999,0.107-1.371s-0.012-0.676-0.086-0.911c-0.074-0.234-0.211-0.403-0.41-0.509
	c-0.189-0.111-0.473-0.166-0.846-0.166c-0.262,0-0.523,0.059-0.791,0.176c-0.266,0.111-0.559,0.271-0.879,0.48l-0.779,7.793h-3.447
	l0.55-5.492c0.053-0.535,0.085-0.989,0.097-1.361c0.019-0.379-0.01-0.685-0.085-0.921c-0.073-0.234-0.211-0.403-0.408-0.509
	c-0.191-0.111-0.471-0.166-0.835-0.166c-0.281,0-0.562,0.065-0.843,0.196c-0.28,0.13-0.558,0.283-0.83,0.46l-0.778,7.793h-3.428
	l1.1-10.995h3.428l-0.122,1.214c0.609-0.476,1.175-0.849,1.698-1.116s1.094-0.401,1.715-0.401c0.672,0,1.247,0.16,1.724,0.479
	c0.479,0.32,0.817,0.796,1.022,1.431c0.722-0.614,1.388-1.084,2.002-1.41c0.621-0.333,1.23-0.5,1.832-0.5
	c0.508,0,0.957,0.082,1.347,0.245c0.389,0.163,0.707,0.407,0.955,0.733c0.271,0.354,0.456,0.774,0.559,1.265
	c0.109,0.482,0.125,1.115,0.046,1.898l-0.716,7.157H52.445z M39.871,3.973h-3.623L36.516,1.3h3.623L39.871,3.973z M38.517,16.535
	h-3.428l1.1-10.995h3.428L38.517,16.535z M6.011,7.876c0.199-2.494,2.466-4.516,5.062-4.516c1.301,0,2.438,0.508,3.224,1.329
	l-7.696,5.69C6.158,9.663,5.937,8.802,6.011,7.876 M31.598,16.752c-1.397,0-2.388-0.287-2.97-0.861
	c-0.576-0.572-0.799-1.514-0.668-2.818l0.515-5.143h-1.252c0.218,0.829,0.269,1.814,0.154,2.958
	c-0.176,1.757-0.764,3.172-1.766,4.25c-0.996,1.076-2.147,1.615-3.452,1.615c-0.548,0-1.019-0.062-1.411-0.186
	c-0.392-0.125-0.804-0.317-1.234-0.578l-0.458,4.582h-3.428l0.62-6.209c-1.829,2.451-4.725,4.062-7.864,4.062
	c-5.021,0-8.762-4.125-8.354-9.212C0.437,4.125,4.837,0,9.859,0c2.545,0,4.762,1.06,6.275,2.768l2.889-1.105l-1.707,2.845
	c0.169,0.331,0.315,0.676,0.44,1.033h2.803l-0.114,1.145c0.545-0.431,1.092-0.779,1.642-1.047c0.548-0.268,1.165-0.401,1.852-0.401
	c0.569,0,1.07,0.101,1.505,0.304h3.271l0.314-3.144h3.428L32.143,5.54h3.3l-0.241,2.39h-3.3l-0.389,3.897
	c-0.039,0.387-0.069,0.723-0.092,1.01c-0.023,0.286,0.003,0.545,0.079,0.771c0.068,0.229,0.21,0.412,0.425,0.549
	c0.223,0.131,0.555,0.196,0.999,0.196c0.183,0,0.425-0.038,0.727-0.118c0.308-0.078,0.523-0.148,0.647-0.215h0.294l-0.24,2.418
	c-0.384,0.098-0.785,0.174-1.208,0.227C32.72,16.722,32.205,16.752,31.598,16.752 M23.866,10.955
	c0.107-1.071,0.018-1.848-0.267-2.331c-0.278-0.483-0.767-0.724-1.466-0.724c-0.307,0-0.617,0.049-0.935,0.146
	c-0.31,0.098-0.621,0.244-0.935,0.44l-0.554,5.533c0.175,0.076,0.368,0.135,0.58,0.166c0.219,0.031,0.479,0.049,0.779,0.049
	c0.835,0,1.482-0.271,1.941-0.812C23.471,12.874,23.756,12.051,23.866,10.955 M16.748,9.377l0.199-1.996
	c-0.038-0.917-0.255-1.744-0.647-2.504l-1.049,1.45c0.146,0.482,0.203,1.004,0.16,1.549c-0.2,2.494-2.466,4.514-5.062,4.514
	c-0.609,0-1.183-0.109-1.7-0.312l6.266-6.546l2.646-2.685l-1.885,0.996c-1.25-1.572-3.259-2.508-5.562-2.416
	c-3.962,0.158-7.328,3.382-7.519,7.2c-0.189,3.818,2.867,6.785,6.83,6.626C12.919,15.114,15.95,12.59,16.748,9.377"/>
</svg>
