<?xml version="1.0" encoding="utf-8"?>
<!-- Generator: Adobe Illustrator 16.0.0, SVG Export Plug-In . SVG Version: 6.00 Build 0)  -->
<!DOCTYPE svg PUBLIC "-//W3C//DTD SVG 1.1//EN" "http://www.w3.org/Graphics/SVG/1.1/DTD/svg11.dtd">
<svg version="1.1" id="Logo" xmlns="http://www.w3.org/2000/svg" xmlns:xlink="http://www.w3.org/1999/xlink" x="0px" y="0px"
	 width="530px" height="67.455px" viewBox="0 0 530 67.455" enable-background="new 0 0 530 67.455" xml:space="preserve">
<path fill="#434345" d="M125.1,65.992h-14.525c-1.831,0-2.471-0.55-3.385-2.107l-12.974-22.57c-1.555-2.652-2.653-5.939-2.653-5.939
	H91.38v28.422c0,1.464-0.732,2.195-2.196,2.195H76.02c-1.464,0-2.188-0.731-2.188-2.195V3.659c0-1.464,0.724-2.196,2.188-2.196
	h13.165c1.463,0,2.196,0.732,2.196,2.196v24.309h0.183L108.38,3.563c1.006-1.463,1.555-2.101,3.385-2.101h11.421
	c1.465,0,2.105,0.732,2.105,2.196c0,0.455-0.19,1.091-0.556,1.64l-18.086,24.408l20.014,32.348c0.359,0.549,0.634,1.199,0.634,1.74
	C127.296,65.26,126.563,65.992,125.1,65.992z"/>
<path fill="#434345" d="M148.961,65.992h-13.522c-1.472,0-2.112-0.732-2.112-2.197V3.659c0-1.464,0.64-2.196,2.112-2.196h13.522
	c1.457,0,2.196,0.732,2.196,2.196v60.136C151.157,65.26,150.418,65.992,148.961,65.992z"/>
<path fill="#434345" d="M180.955,67.455c-14.72,0-23.5-8.506-23.5-16.365c0-4.658,3.569-7.396,7.957-7.396
	c4.026,0,6.854,2.371,8.037,5.209c1.38,3.191,3.755,7.125,8.231,7.125c3.843,0,6.13-2.562,6.13-6.119
	c0-12.803-29.439-10.147-29.439-31.082C158.371,6.765,168.341,0,181.68,0c15.818,0,22.303,8.59,22.303,14.076
	c0,4.568-3.291,7.221-7.767,7.221c-3.66,0-6.126-2.196-7.491-5.124c-1.281-2.826-3.202-5.753-7.129-5.753
	c-3.477,0-6.038,2.288-6.038,6.302c0,11.979,30.254,9.051,30.254,31.266C205.812,59.594,196.855,67.455,180.955,67.455z"/>
<path fill="#434345" d="M234.328,67.455c-14.72,0-23.488-8.506-23.488-16.365c0-4.658,3.561-7.396,7.945-7.396
	c4.026,0,6.862,2.371,8.051,5.209c1.366,3.191,3.74,7.125,8.224,7.125c3.832,0,6.122-2.562,6.122-6.119
	c0-12.803-29.428-10.147-29.428-31.082C211.754,6.765,221.713,0,235.06,0c15.813,0,22.298,8.59,22.298,14.076
	c0,4.568-3.29,7.221-7.772,7.221c-3.653,0-6.119-2.196-7.488-5.124c-1.281-2.826-3.206-5.753-7.129-5.753
	c-3.477,0-6.035,2.288-6.035,6.302c0,11.979,30.255,9.051,30.255,31.266C259.188,59.594,250.226,67.455,234.328,67.455z"/>
<path fill="#434345" d="M326.729,65.992h-7.213c-1.104,0-1.562-0.463-1.562-1.562V31.992c0-5.672-3.011-8.868-8.403-8.868
	c-5.581,0-7.857,3.378-7.857,8.685v32.622c0,1.1-0.549,1.561-1.646,1.561h-7.222c-1.098,0-1.555-0.461-1.555-1.561V31.992
	c0-5.672-3.021-8.868-8.418-8.868c-5.201,0-7.852,1.647-7.852,6.306v35c0,1.099-0.461,1.562-1.555,1.562h-7.215
	c-1.104,0-1.653-0.463-1.653-1.562V25.863c0-3.195,1.097-4.476,3.651-5.666c2.929-1.372,8.14-2.744,14.36-2.744
	c7.121,0,11.423,2.104,14.435,5.49c3.021-3.294,7.582-5.49,15.078-5.49c6.86,0,16.176,3.111,16.176,14.079v32.901
	C328.279,65.529,327.826,65.992,326.729,65.992z"/>
<path fill="#434345" d="M354.975,67.178c-11.053,0-20.934-7.219-20.934-25.141c0-16.992,10.053-24.585,20.934-24.585
	c11.42,0,17.914,8.868,17.914,18.104c0,2.006-0.822,2.646-2.736,2.92l-26.596,4.394c0.537,8.586,4.745,15.991,13.522,15.991
	c5.845,0,9.687-4.393,11.606-7.772c0.459-0.822,1.281-1.641,2.373-1.641c1.188,0,2.104,1.092,2.104,2.28
	C373.162,57.215,366.667,67.178,354.975,67.178z M353.877,23.217c-7.312,0-10.423,7.312-10.79,14.438l19.837-3.378
	C362.648,28.606,360.361,23.217,353.877,23.217z"/>
<path fill="#434345" d="M393.456,67.088c-4.666,0-11.979-1.74-11.979-13.166V24.498h-4.845c-1.091,0-1.556-0.549-1.556-1.647v-2.654
	c0-1.097,0.465-1.554,1.556-1.554h4.845v-6.581c0-1.277,0.098-2.009,1.008-2.466l6.58-3.191c0.365-0.19,0.822-0.549,1.28-0.549
	c1.007,0,1.464,0.549,1.464,1.544v11.244h7.579c1.1,0,1.558,0.458,1.558,1.554v2.654c0,1.098-0.458,1.647-1.558,1.647h-7.579v29.61
	c0,6.035,2.93,7.313,5.665,7.313c0.922,0,1.457-0.182,2.104-0.182c1.456,0,2.188,0.726,2.188,1.908
	C401.768,65.348,398.207,67.088,393.456,67.088z"/>
<path fill="#434345" d="M431.297,28.699c-4.938,0-3.934-5.482-9.145-5.482c-3.471,0-5.665,1.739-5.665,4.659v36.558
	c0,1.098-0.55,1.561-1.643,1.561h-7.227c-1.091,0-1.647-0.463-1.647-1.561v-38.57c0-3.012,1.007-4.476,3.751-5.757
	c2.83-1.281,8.138-2.653,13.98-2.653c8.505,0,11.972,3.019,11.972,6.679C435.676,26.869,434.119,28.699,431.297,28.699z"/>
<path fill="#434345" d="M443.811,10.692c-3.554,0-6.029-2.196-6.029-4.94c0-2.738,2.478-4.934,6.029-4.934
	c3.567,0,6.038,2.196,6.038,4.934C449.849,8.497,447.378,10.692,443.811,10.692z M447.47,65.992h-7.312
	c-1.1,0-1.558-0.463-1.558-1.562V20.197c0-1.097,0.458-1.554,1.558-1.554h7.312c1.101,0,1.558,0.458,1.558,1.554v44.234
	C449.025,65.529,448.568,65.992,447.47,65.992z"/>
<path fill="#434345" d="M474.059,67.178c-10.6,0-20.284-7.496-20.284-24.857c0-16.183,8.681-24.867,20.649-24.867
	c11.612,0,16.912,7.96,16.912,11.979c0,2.927-1.738,4.655-4.843,4.655c-2.562,0-3.834-1.641-4.482-3.649
	c-0.641-2.104-2.646-7.22-8.224-7.22c-5.489,0-10.419,5.574-10.419,16.359c0,10.142,4.209,19.008,13.251,19.008
	c5.765,0,8.402-4.2,10.325-7.67c0.556-1.008,1.463-1.647,2.562-1.647c1.28,0,2.104,1,2.104,2.289
	C491.61,57.123,485.487,67.178,474.059,67.178z"/>
<path fill="#434345" d="M513.008,67.178c-12.344,0-17.555-7.496-17.555-11.518c0-2.927,1.83-4.39,4.392-4.39
	c2.283,0,4.205,1.188,4.931,3.021c1.472,3.653,3.478,6.949,8.408,6.949c3.661,0,6.862-2.656,6.862-6.949
	c0-10.974-23.678-8.775-23.678-23.397c0-8.501,6.856-13.442,16.542-13.442c11.245,0,15.721,6.496,15.721,10.148
	c0,2.745-1.829,4.117-4.106,4.117c-2.105,0-3.836-1.188-4.575-3.111c-1.184-2.835-3.104-6.03-7.213-6.03
	c-4.302,0-6.766,2.47-6.766,6.488c0,10.694,24.029,8.042,24.029,23.67C530,61.422,523.424,67.178,513.008,67.178z"/>
<path fill="#434345" d="M42.584,1.484c-11.678,0-21.255,9.205-21.841,20.743C9.204,22.813,0,32.388,0,44.069
	C0,56.129,9.808,65.94,21.871,65.94l33.706,0.007l0.103-0.007c4.842,0,8.784-3.932,8.784-8.776v-1.408v-32.4
	C64.462,11.296,54.646,1.484,42.584,1.484z M27.386,28.033c-0.465-1.476-0.707-3.042-0.707-4.677
	c0.019-8.788,7.123-15.891,15.905-15.913c8.783,0.022,15.895,7.129,15.906,15.913v32.398v1.408
	c-0.004,1.553-1.255,2.812-2.811,2.812h-0.103H21.871c-8.788-0.016-15.888-7.116-15.906-15.905
	c0.019-8.782,7.119-15.883,15.906-15.902c1.636,0,3.202,0.239,4.68,0.695l1.208,0.374L27.386,28.033z"/>
<rect x="33.779" y="16.823" fill="#F37D30" width="9.684" height="40.687"/>
<path fill="#AFBC21" d="M21.347,37.453v20.049c0.209,0.008,0.428,0.008,0.64,0.008h9.051V37.453H21.347z"/>
<path fill="#EE4034" d="M8.915,46.074L8.915,46.074H8.692c0.048,0.526,0.095,0.852,0.223,1.381l0,0l0,0c0,0,0.015,0.02,0.015,0.024
	l0,0c1.249,4.695,4.97,8.386,9.68,9.606V46.074H8.915z"/>
<path fill="#11B5E9" d="M46.196,57.526h7.707c1.106,0,1.988-0.887,1.988-1.983V32.301h-9.695V57.526z"/>
</svg>
