<?xml version="1.0" encoding="utf-8"?>
<!-- Generator: Adobe Illustrator 16.0.0, SVG Export Plug-In . SVG Version: 6.00 Build 0)  -->
<!DOCTYPE svg PUBLIC "-//W3C//DTD SVG 1.1//EN" "http://www.w3.org/Graphics/SVG/1.1/DTD/svg11.dtd">
<svg version="1.1" id="Layer_1" xmlns="http://www.w3.org/2000/svg" xmlns:xlink="http://www.w3.org/1999/xlink" x="0px" y="0px"
	 width="728.433px" height="200.85px" viewBox="0 0 728.433 200.85" enable-background="new 0 0 728.433 200.85"
	 xml:space="preserve">
<g>
	<path d="M7.872,2.286h60.21v18.253H27.647v18.253h37.394v18.253H27.647v34.984H7.872V2.286z"/>
	<path d="M130.788,0.004c28.011,0,48.422,18.38,48.422,47.154c0,28.773-20.411,47.151-48.422,47.151
		c-28.016,0-48.421-18.378-48.421-47.151C82.367,18.384,102.773,0.004,130.788,0.004z M130.788,76.058
		c16.856,0,27.887-12.168,27.887-28.9s-11.03-28.901-27.887-28.901c-16.861,0-27.887,12.169-27.887,28.901
		C102.902,63.89,113.927,76.058,130.788,76.058z"/>
	<path d="M312.33,75.296L282.032,2.284h-13.943V92.03h9.126V14.452h0.253l32.45,77.577h4.817l32.45-77.577h0.253v77.577h9.126V2.284
		h-13.943L312.33,75.296z M373.905,49.563h43.48v-8.365h-43.48v-30.55h46.523V2.284H364.78V92.03h57.17v-8.367h-48.045V49.563z
		 M425.67,10.648h30.039v81.381h9.127V10.648h30.045V2.284H425.67V10.648L425.67,10.648z M557.208,26.241
		c0-16.099-11.277-23.957-29.531-23.957h-27.635V92.03h9.127V50.325h15.211l24.594,41.705h11.152l-25.857-42.593
		C548.971,48.17,557.208,38.663,557.208,26.241z M509.168,41.959V10.648h16.227c16.35,0,21.928,6.973,21.928,15.592
		c0,8.618-5.578,15.718-21.928,15.718L509.168,41.959L509.168,41.959z M568.874,92.029H578V2.284h-9.127V92.029z M634.243,85.945
		c-23.07,0-36.885-18.129-36.885-38.79c0-20.662,13.812-38.788,36.885-38.788c9.51,0,19.521,5.958,23.07,11.788l7.988-5.958
		C657.442,4.182,645.397,0,634.241,0c-26.744,0-46.77,19.9-46.77,47.154c0,27.253,20.025,47.154,46.77,47.154
		c14.834,0,27.256-7.227,33.211-16.479l-7.477-5.324C653.256,82.902,643.624,85.945,634.243,85.945z M682.42,24.593
		c0-11.281,9.76-16.225,19.141-16.225c7.604,0,13.436,2.915,17.365,8.746l7.984-6.211C719.813,2.79,711.7,0.002,701.559,0.002
		c-14.574,0-29.025,8.112-29.025,25.479c0,32.83,46.012,18.761,46.012,44.112c0,10.521-10.266,16.354-19.268,16.354
		c-9.381,0-16.605-4.312-20.406-10.902l-8.242,5.958c6.848,9.378,17.369,13.31,28.271,13.31c14.197,0,29.533-9.635,29.533-25.985
		C728.432,36.001,682.42,48.803,682.42,24.593z"/>
	<path d="M255.49,74.998c0,0-0.001-0.001-0.001-0.003c-5.017-9.782-11.568-19.131-19.071-27.25l-0.433-0.621l30.741-44.839H242.77
		l-17.364,29.698L209.276,8.9l-4.622-6.614h-24.25l23.346,28.638l8.082,11.565L178.63,92.03h23.45l20.304-34.442l0.793-1.346
		c1.759,2.688,3.424,5.341,4.979,7.942c25.268,42.263,21.806,71.607-70.106,45.642c-45.568-12.874-89.377-17.861-119.269-7.152
		C6.75,114.154-9.298,143.668,5.619,200.849c44.532-50.241,81.686-47.993,123.967-42.311c27.586,3.711,57.351,8.883,92.775,1.899
		c41.427-8.165,49.313-38.207,40.097-68.408C260.712,86.307,258.354,80.584,255.49,74.998z M95.302,148.301
		c-27.751-0.196-56.071,8.208-85.564,37.434c-1.636-8.742-2.398-16.613-2.398-23.644c0.127-22.273,7.193-35.682,18.967-44.647
		c3.528-2.669,7.602-4.917,12.144-6.771c-0.52,8.539-1.613,16.835-3.646,23.441c9.012-1.803,43.069,1.287,75.555,14.871
		C105.351,148.578,100.339,148.313,95.302,148.301z"/>
</g>
</svg>
