<?xml version="1.0" encoding="utf-8"?>
<!-- Generator: Adobe Illustrator 16.0.0, SVG Export Plug-In . SVG Version: 6.00 Build 0)  -->
<!DOCTYPE svg PUBLIC "-//W3C//DTD SVG 1.1//EN" "http://www.w3.org/Graphics/SVG/1.1/DTD/svg11.dtd">
<svg version="1.1" id="Layer_1" xmlns="http://www.w3.org/2000/svg" xmlns:xlink="http://www.w3.org/1999/xlink" x="0px" y="0px"
	 width="875.92px" height="272.621px" viewBox="0 0 875.92 272.621" enable-background="new 0 0 875.92 272.621"
	 xml:space="preserve">
<g>
	<g>
		<path d="M193.261,65.097c-4.362,0.934-7.38,1.62-9.055,2.057c-1.676,0.438-3.276,1.295-4.799,2.571
			c-1.524,1.276-2.285,3.056-2.285,5.341c0,2.362,0.895,4.371,2.685,6.027c1.79,1.657,4.132,2.485,7.027,2.485
			c3.085,0,5.932-0.676,8.541-2.028c2.608-1.351,4.522-3.094,5.742-5.227c1.409-2.361,2.114-6.246,2.114-11.654l-0.001-2.228
			C200.945,63.279,197.623,64.165,193.261,65.097z"/>
		<path d="M271.022,44.416c-2.229-1.58-4.695-2.371-7.398-2.371c-4.304,0-7.932,1.695-10.883,5.084
			c-2.952,3.39-4.428,8.379-4.428,14.968c0,6.208,1.466,11.036,4.399,14.482c2.932,3.447,6.57,5.17,10.912,5.17
			c2.589,0,4.989-0.751,7.198-2.257c2.208-1.504,3.979-3.76,5.313-6.77c1.332-3.006,1.999-6.643,1.999-10.91
			c0-4.113-0.628-7.646-1.885-10.597C274.993,48.264,273.25,45.997,271.022,44.416z"/>
		<path d="M304.501,0h-291c-7.456,0-13.5,6.044-13.5,13.5v98.474c0,7.456,6.044,13.5,13.5,13.5h202.851
			c6.322,11.115,16.895,29.708,19.649,34.525c4,7,8.5,6.5,14-4c4.039-7.711,13.196-22.963,17.779-30.525h36.721
			c7.456,0,13.5-6.044,13.5-13.5V13.5C318.001,6.044,311.958,0,304.501,0z M77.13,84.465c-2.095,3.066-5.19,5.39-9.284,6.97
			c-4.094,1.58-9.074,2.371-14.939,2.371c-5.599,0-10.397-0.857-14.396-2.571c-3.999-1.714-6.951-3.856-8.855-6.427
			c-1.905-2.571-2.856-5.151-2.856-7.741c0-1.714,0.609-3.18,1.828-4.399c1.218-1.218,2.761-1.828,4.627-1.828
			c1.637,0,2.894,0.4,3.771,1.2c0.875,0.8,1.714,1.924,2.514,3.371c1.6,2.781,3.513,4.856,5.742,6.227
			c2.228,1.371,5.265,2.057,9.112,2.057c3.123,0,5.684-0.694,7.684-2.085c1.999-1.39,2.999-2.98,2.999-4.771
			c0-2.742-1.038-4.742-3.113-5.999c-2.077-1.257-5.495-2.457-10.255-3.599c-5.37-1.333-9.74-2.732-13.111-4.199
			c-3.37-1.465-6.065-3.399-8.083-5.798c-2.019-2.399-3.028-5.351-3.028-8.855c0-3.123,0.933-6.074,2.799-8.855
			c1.866-2.78,4.618-4.999,8.255-6.656c3.636-1.656,8.026-2.485,13.168-2.485c4.037,0,7.664,0.419,10.883,1.257
			c3.218,0.838,5.903,1.962,8.056,3.371c2.151,1.41,3.789,2.971,4.913,4.685c1.123,1.714,1.685,3.39,1.685,5.027
			c0,1.791-0.6,3.256-1.799,4.399c-1.2,1.143-2.905,1.714-5.113,1.714c-1.6,0-2.962-0.457-4.085-1.371
			c-1.124-0.914-2.409-2.285-3.856-4.113c-1.181-1.523-2.571-2.742-4.17-3.656c-1.599-0.914-3.771-1.371-6.513-1.371
			c-2.819,0-5.161,0.6-7.027,1.799c-1.867,1.2-2.799,2.695-2.799,4.485c0,1.638,0.686,2.98,2.057,4.028s3.218,1.914,5.542,2.599
			c2.323,0.686,5.522,1.524,9.598,2.514c4.836,1.181,8.788,2.59,11.854,4.228c3.065,1.638,5.389,3.571,6.97,5.798
			c1.576,2.225,2.367,4.767,2.367,7.624C80.272,77.714,79.225,81.399,77.13,84.465z M148.951,84.321
			c0,3.124-0.714,5.484-2.142,7.084c-1.429,1.6-3.285,2.399-5.57,2.399c-2.324,0-4.209-0.819-5.656-2.457
			c-1.448-1.637-2.171-3.979-2.171-7.027V58.328c0-5.142-0.714-9.074-2.142-11.797c-1.429-2.723-4.276-4.085-8.541-4.085
			c-2.781,0-5.313,0.828-7.598,2.485c-2.285,1.656-3.961,3.933-5.027,6.827c-0.762,2.324-1.143,6.666-1.143,13.025v19.538
			c0,3.162-0.734,5.533-2.2,7.113c-1.466,1.58-3.361,2.371-5.684,2.371c-2.248,0-4.095-0.819-5.542-2.457
			c-1.448-1.637-2.171-3.979-2.171-7.027V39.247c0-2.971,0.647-5.189,1.942-6.655c1.294-1.466,3.065-2.2,5.313-2.2
			c1.371,0,2.608,0.324,3.713,0.971c1.104,0.648,1.99,1.619,2.656,2.914c0.667,1.295,1.001,2.875,1.001,4.741v1.885
			c2.742-3.618,5.741-6.274,8.998-7.969c3.256-1.694,6.998-2.542,11.226-2.542c4.113,0,7.788,0.896,11.026,2.685
			c3.237,1.791,5.656,4.323,7.255,7.598c1.028,1.905,1.694,3.961,2,6.17c0.304,2.209,0.457,5.027,0.457,8.455V84.321z
			 M219.083,91.833c-1.505,1.314-3.209,1.971-5.113,1.971c-1.6,0-3.181-0.752-4.742-2.256s-3.218-3.685-4.97-6.541
			c-3.771,2.933-7.418,5.133-10.94,6.598c-3.523,1.466-7.475,2.2-11.854,2.2c-3.999,0-7.512-0.791-10.541-2.371
			c-3.027-1.58-5.361-3.723-6.998-6.427c-1.638-2.704-2.457-5.636-2.457-8.798c0-4.265,1.352-7.902,4.056-10.912
			c2.704-3.008,6.417-5.027,11.14-6.056c0.99-0.229,3.446-0.743,7.37-1.542c3.922-0.8,7.284-1.533,10.083-2.2
			c2.8-0.666,5.836-1.475,9.112-2.428c-0.191-4.113-1.02-7.131-2.485-9.055c-1.466-1.923-4.504-2.885-9.112-2.885
			c-3.961,0-6.941,0.553-8.941,1.657c-1.999,1.105-3.713,2.762-5.142,4.97c-1.428,2.209-2.438,3.666-3.027,4.371
			c-0.591,0.705-1.857,1.057-3.799,1.057c-1.752,0-3.266-0.562-4.542-1.686c-1.277-1.123-1.914-2.561-1.914-4.313
			c0-2.742,0.971-5.408,2.914-7.998c1.942-2.589,4.97-4.722,9.083-6.398c4.113-1.675,9.235-2.514,15.368-2.514
			c6.855,0,12.244,0.81,16.167,2.428c3.922,1.619,6.693,4.18,8.312,7.684c1.618,3.504,2.428,8.151,2.428,13.939
			c0,3.656-0.01,6.761-0.028,9.312c-0.02,2.552-0.048,5.39-0.086,8.512c0,2.933,0.485,5.99,1.457,9.169
			c0.971,3.181,1.457,5.228,1.457,6.142C221.339,89.063,220.587,90.52,219.083,91.833z M291.76,75.209
			c-1.352,4.019-3.209,7.389-5.57,10.111c-2.362,2.724-5.151,4.819-8.37,6.284c-3.219,1.466-6.675,2.2-10.369,2.2
			c-4.456,0-8.198-0.896-11.226-2.685c-3.027-1.79-5.913-4.417-8.655-7.884v23.423c0,6.855-2.495,10.283-7.484,10.283
			c-2.933,0-4.875-0.886-5.827-2.656c-0.953-1.771-1.428-4.352-1.428-7.741V39.247c0-2.971,0.647-5.189,1.942-6.655
			c1.294-1.466,3.065-2.2,5.313-2.2c2.208,0,4.008,0.752,5.398,2.256c1.391,1.505,2.086,3.666,2.086,6.484v1.885
			c2.932-3.618,5.979-6.274,9.141-7.969c3.161-1.694,6.741-2.542,10.74-2.542c4.799,0,9.216,1.238,13.254,3.713
			c4.037,2.476,7.227,6.094,9.569,10.854c2.343,4.761,3.514,10.397,3.514,16.91C293.789,66.782,293.111,71.191,291.76,75.209z"/>
	</g>
	<g>
		<path d="M332.662,196.312h-45.63c0.056,5.299,1.124,9.971,3.205,14.016c2.079,4.045,4.841,7.092,8.288,9.144
			c3.446,2.051,7.249,3.075,11.408,3.075c2.791,0,5.34-0.325,7.648-0.981c2.307-0.653,4.542-1.681,6.708-3.076
			c2.164-1.396,4.158-2.891,5.981-4.485c1.822-1.594,4.187-3.76,7.092-6.494c1.196-1.023,2.905-1.537,5.127-1.537
			c2.393,0,4.329,0.654,5.811,1.965c1.48,1.312,2.222,3.162,2.222,5.557c0,2.107-0.827,4.57-2.478,7.391
			c-1.653,2.82-4.144,5.525-7.477,8.117c-3.332,2.594-7.52,4.742-12.561,6.451c-5.042,1.709-10.839,2.562-17.389,2.562
			c-14.983,0-26.632-4.271-34.949-12.816c-8.318-8.545-12.476-20.137-12.476-34.777c0-6.893,1.025-13.287,3.076-19.184
			c2.051-5.896,5.042-10.951,8.972-15.168c3.931-4.215,8.772-7.445,14.526-9.697c5.753-2.25,12.134-3.375,19.141-3.375
			c9.114,0,16.932,1.922,23.456,5.769c6.522,3.846,11.408,8.815,14.655,14.909c3.247,6.099,4.871,12.306,4.871,18.629
			c0,5.867-1.681,9.671-5.042,11.408C343.484,195.445,338.756,196.312,332.662,196.312z M287.031,183.068h42.297
			c-0.57-7.975-2.721-13.939-6.451-17.9c-3.732-3.959-8.646-5.938-14.74-5.938c-5.811,0-10.583,2.011-14.312,6.024
			C290.093,169.27,287.829,175.208,287.031,183.068z"/>
		<path d="M393.257,156.066v2.818c4.104-5.41,8.587-9.385,13.458-11.92c4.87-2.533,10.467-3.803,16.791-3.803
			c6.152,0,11.649,1.34,16.493,4.018c4.84,2.678,8.459,6.467,10.852,11.363c1.537,2.852,2.533,5.928,2.99,9.229
			c0.455,3.306,0.686,7.521,0.686,12.646v43.408c0,4.672-1.068,8.202-3.203,10.596c-2.139,2.395-4.914,3.59-8.332,3.59
			c-3.479,0-6.295-1.227-8.459-3.674c-2.166-2.449-3.247-5.951-3.247-10.512v-38.879c0-7.689-1.068-13.572-3.204-17.646
			c-2.137-4.071-6.396-6.108-12.775-6.108c-4.159,0-7.945,1.238-11.364,3.718c-3.419,2.479-5.926,5.883-7.521,10.211
			c-1.14,3.477-1.709,9.969-1.709,19.481v29.224c0,4.729-1.098,8.274-3.29,10.639c-2.193,2.363-5.028,3.547-8.502,3.547
			c-3.362,0-6.125-1.227-8.289-3.674c-2.166-2.449-3.247-5.951-3.247-10.512v-67.418c0-4.443,0.968-7.763,2.905-9.955
			c1.936-2.191,4.585-3.291,7.947-3.291c2.051,0,3.901,0.485,5.554,1.453c1.649,0.969,2.976,2.422,3.973,4.356
			C392.757,150.912,393.257,153.275,393.257,156.066z"/>
		<path d="M564.083,160.253v67.763c0,7.748-0.826,14.411-2.48,19.995c-1.65,5.582-4.301,10.195-7.945,13.843
			c-3.646,3.646-8.416,6.353-14.312,8.117c-5.895,1.766-13.229,2.649-22.002,2.649c-8.033,0-15.211-1.127-21.533-3.375
			c-6.322-2.252-11.193-5.158-14.611-8.717c-3.418-3.562-5.127-7.221-5.127-10.98c0-2.85,0.969-5.17,2.904-6.963
			c1.938-1.795,4.271-2.692,7.008-2.692c3.418,0,6.408,1.51,8.973,4.528c1.252,1.539,2.549,3.09,3.889,4.658
			c1.338,1.564,2.82,2.904,4.443,4.016s3.574,1.937,5.854,2.479c2.277,0.539,4.898,0.812,7.861,0.812
			c6.037,0,10.723-0.842,14.057-2.521c3.332-1.682,5.666-4.031,7.008-7.051c1.338-3.021,2.119-6.252,2.35-9.697
			c0.227-3.445,0.396-8.986,0.514-16.619c-3.59,5.014-7.732,8.83-12.434,11.449c-4.699,2.621-10.297,3.932-16.791,3.932
			c-7.807,0-14.627-1.994-20.465-5.981c-5.842-3.985-10.326-9.569-13.459-16.748c-3.135-7.178-4.699-15.467-4.699-24.864
			c0-7.009,0.953-13.33,2.863-18.972c1.906-5.64,4.627-10.396,8.158-14.271c3.531-3.873,7.605-6.793,12.221-8.758
			c4.613-1.967,9.684-2.949,15.211-2.949c6.605,0,12.332,1.271,17.174,3.804c4.842,2.534,9.342,6.51,13.502,11.92v-3.16
			c0-4.045,0.996-7.179,2.99-9.399c1.992-2.222,4.557-3.332,7.689-3.332c4.498,0,7.49,1.467,8.973,4.399
			C563.341,150.5,564.083,154.729,564.083,160.253z M496.493,189.818c0,9.457,2.061,16.605,6.193,21.449
			c4.131,4.842,9.471,7.262,16.021,7.262c3.873,0,7.531-1.037,10.979-3.117c3.445-2.078,6.25-5.213,8.416-9.397
			c2.164-4.188,3.246-9.271,3.246-15.255c0-9.512-2.092-16.918-6.277-22.217c-4.189-5.297-9.699-7.946-16.535-7.946
			c-6.664,0-12.006,2.536-16.021,7.604C498.501,173.271,496.493,180.479,496.493,189.818z"/>
		<path d="M642.794,224.854c-5.639,4.39-11.096,7.679-16.363,9.871c-5.27,2.19-11.18,3.289-17.729,3.289
			c-5.982,0-11.236-1.185-15.768-3.548c-4.527-2.362-8.02-5.565-10.467-9.612c-2.451-4.043-3.676-8.431-3.676-13.158
			c0-6.379,2.021-11.819,6.068-16.319c4.043-4.5,9.598-7.521,16.66-9.06c1.48-0.342,5.154-1.11,11.023-2.308
			c5.865-1.196,10.896-2.293,15.082-3.288c4.188-0.996,8.729-2.207,13.629-3.634c-0.287-6.151-1.525-10.666-3.717-13.543
			c-2.195-2.877-6.738-4.315-13.631-4.315c-5.924,0-10.381,0.828-13.371,2.479c-2.992,1.65-5.555,4.131-7.691,7.435
			c-2.137,3.306-3.645,5.481-4.527,6.537c-0.885,1.055-2.777,1.579-5.684,1.579c-2.621,0-4.885-0.84-6.793-2.52
			c-1.91-1.681-2.861-3.83-2.861-6.451c0-4.103,1.451-8.088,4.355-11.963c2.906-3.873,7.436-7.062,13.588-9.57
			c6.152-2.506,13.812-3.76,22.984-3.76c10.254,0,18.312,1.211,24.184,3.631c5.865,2.422,10.01,6.254,12.434,11.494
			c2.422,5.239,3.633,12.19,3.633,20.85c0,5.469-0.018,10.111-0.043,13.928c-0.029,3.816-0.072,8.062-0.129,12.732
			c0,4.387,0.727,8.959,2.18,13.715c1.453,4.758,2.18,7.818,2.18,9.186c0,2.395-1.127,4.572-3.377,6.537
			c-2.25,1.967-4.799,2.947-7.645,2.947c-2.395,0-4.758-1.125-7.096-3.375C647.892,232.39,645.413,229.126,642.794,224.854z
			 M641.257,191.102c-3.418,1.254-8.389,2.578-14.912,3.976c-6.521,1.396-11.037,2.422-13.543,3.075
			c-2.508,0.654-4.898,1.937-7.178,3.845c-2.279,1.91-3.418,4.571-3.418,7.989c0,3.533,1.338,6.537,4.016,9.017
			c2.68,2.479,6.182,3.717,10.512,3.717c4.613,0,8.871-1.012,12.773-3.033c3.9-2.021,6.764-4.627,8.588-7.818
			c2.107-3.531,3.162-9.342,3.162-17.432V191.102L641.257,191.102z"/>
		<path d="M771.835,160.253v67.763c0,7.748-0.826,14.411-2.479,19.995c-1.652,5.582-4.303,10.195-7.945,13.843
			c-3.646,3.646-8.418,6.353-14.314,8.117c-5.895,1.766-13.229,2.649-22.002,2.649c-8.033,0-15.211-1.127-21.533-3.375
			c-6.322-2.252-11.191-5.158-14.609-8.717c-3.418-3.562-5.127-7.221-5.127-10.98c0-2.85,0.967-5.17,2.902-6.963
			c1.938-1.795,4.273-2.692,7.01-2.692c3.418,0,6.406,1.51,8.971,4.528c1.252,1.539,2.549,3.09,3.889,4.658
			c1.338,1.564,2.82,2.904,4.443,4.016s3.574,1.937,5.854,2.479c2.277,0.539,4.898,0.812,7.861,0.812
			c6.037,0,10.723-0.842,14.057-2.521c3.332-1.682,5.666-4.031,7.008-7.051c1.338-3.021,2.119-6.252,2.35-9.697
			c0.227-3.445,0.396-8.986,0.514-16.619c-3.59,5.014-7.732,8.83-12.434,11.449c-4.699,2.621-10.297,3.932-16.791,3.932
			c-7.807,0-14.627-1.994-20.465-5.981c-5.84-3.985-10.326-9.569-13.457-16.748c-3.135-7.178-4.701-15.467-4.701-24.864
			c0-7.009,0.953-13.33,2.863-18.972c1.906-5.64,4.627-10.396,8.158-14.271c3.531-3.873,7.605-6.793,12.221-8.758
			c4.613-1.967,9.684-2.949,15.211-2.949c6.605,0,12.332,1.271,17.176,3.804c4.84,2.534,9.342,6.51,13.5,11.92v-3.16
			c0-4.045,0.996-7.179,2.99-9.399c1.994-2.222,4.557-3.332,7.689-3.332c4.498,0,7.49,1.467,8.975,4.399
			C771.095,150.5,771.835,154.729,771.835,160.253z M704.245,189.818c0,9.457,2.062,16.605,6.193,21.449
			c4.131,4.842,9.471,7.262,16.021,7.262c3.873,0,7.533-1.037,10.979-3.117c3.445-2.078,6.25-5.213,8.416-9.397
			c2.164-4.188,3.248-9.271,3.248-15.255c0-9.512-2.094-16.918-6.279-22.217c-4.189-5.297-9.699-7.946-16.535-7.946
			c-6.664,0-12.006,2.536-16.021,7.604C706.253,173.271,704.245,180.479,704.245,189.818z"/>
		<path d="M856.698,196.312h-45.629c0.055,5.299,1.123,9.971,3.201,14.016s4.844,7.092,8.289,9.144
			c3.445,2.051,7.248,3.075,11.408,3.075c2.789,0,5.34-0.325,7.646-0.981c2.307-0.653,4.543-1.681,6.709-3.076
			c2.164-1.396,4.154-2.891,5.979-4.485c1.822-1.594,4.188-3.76,7.092-6.494c1.197-1.023,2.906-1.537,5.127-1.537
			c2.395,0,4.328,0.654,5.812,1.965c1.479,1.312,2.223,3.162,2.223,5.557c0,2.107-0.826,4.57-2.479,7.391s-4.146,5.525-7.479,8.117
			c-3.332,2.594-7.52,4.742-12.561,6.451c-5.043,1.709-10.84,2.562-17.389,2.562c-14.984,0-26.635-4.271-34.949-12.816
			c-8.318-8.545-12.479-20.137-12.479-34.777c0-6.893,1.025-13.287,3.076-19.184s5.043-10.951,8.973-15.168
			c3.934-4.215,8.771-7.445,14.527-9.697c5.752-2.25,12.133-3.375,19.141-3.375c9.113,0,16.934,1.922,23.455,5.769
			c6.521,3.846,11.408,8.815,14.654,14.909c3.248,6.099,4.871,12.306,4.871,18.629c0,5.867-1.682,9.671-5.041,11.408
			C867.521,195.445,862.794,196.312,856.698,196.312z M811.069,183.068h42.297c-0.57-7.975-2.723-13.939-6.451-17.9
			c-3.732-3.959-8.646-5.938-14.74-5.938c-5.811,0-10.582,2.011-14.312,6.024C814.13,169.27,811.866,175.208,811.069,183.068z"/>
	</g>
</g>
</svg>
