<?xml version="1.0" encoding="utf-8"?>
<!-- Generator: Adobe Illustrator 16.0.0, SVG Export Plug-In . SVG Version: 6.00 Build 0)  -->
<!DOCTYPE svg PUBLIC "-//W3C//DTD SVG 1.1//EN" "http://www.w3.org/Graphics/SVG/1.1/DTD/svg11.dtd">
<svg version="1.1" id="Group_1_1_" xmlns="http://www.w3.org/2000/svg" xmlns:xlink="http://www.w3.org/1999/xlink" x="0px" y="0px"
	 width="1345.882px" height="407.575px" viewBox="0 0 1345.882 407.575" enable-background="new 0 0 1345.882 407.575"
	 xml:space="preserve">
<g id="Shape_17_copy_5">
	<g>
		<path fill-rule="evenodd" clip-rule="evenodd" fill="#8BDAFF" d="M200.404,305.867c-75.062,0-144.38-19.257-200.404-51.813v85.591
			c0,37.516,30.413,67.931,67.929,67.931h271.717c37.517,0,67.929-30.415,67.929-67.931v-85.587
			C351.14,286.611,275.46,305.867,200.404,305.867z"/>
	</g>
</g>
<g id="Shape_15_copy_5">
	<g>
		<path fill-rule="evenodd" clip-rule="evenodd" fill="#BEE8FC" d="M339.646,0H67.929C30.413,0,0,30.411,0,67.928v186.126
			c56.024,32.557,125.342,51.813,200.404,51.813c75.057,0,150.736-19.256,207.171-51.81V67.928C407.575,30.411,377.163,0,339.646,0z
			"/>
	</g>
</g>
<g id="Shape_14_copy_5">
	<g>
		<path fill-rule="evenodd" clip-rule="evenodd" d="M339.662,328.618c0-6.688-5.432-12.123-12.129-12.123
			c-1.695,0-3.314,0.346-4.787,0.979l-0.02-0.036c-84.358,36.277-153.488,36.277-237.843,0l-0.025,0.036
			c-1.469-0.634-3.085-0.979-4.783-0.979c-6.702,0-12.132,5.436-12.132,12.123c0,5.001,3.021,9.291,7.343,11.141l-0.013,0.051
			c90.305,38.825,166.762,38.825,257.073,0l-0.02-0.051C336.64,337.909,339.662,333.619,339.662,328.618z"/>
	</g>
</g>
<g id="Shape_18_copy_2">
	<g>
		<path fill-rule="evenodd" clip-rule="evenodd" d="M67.929,92.195c-7.503,0-13.586,6.084-13.586,13.588v95.101
			c0,7.502,6.083,13.583,13.586,13.583s13.586-6.081,13.586-13.583v-95.101C81.515,98.279,75.433,92.195,67.929,92.195z
			 M339.646,92.195c-7.503,0-13.586,6.084-13.586,13.588v95.101c0,7.502,6.083,13.583,13.586,13.583s13.586-6.081,13.586-13.583
			v-95.101C353.232,98.279,347.149,92.195,339.646,92.195z M285.302,58.229c-7.503,0-13.585,6.083-13.585,13.588v163.029
			c0,7.504,6.082,13.588,13.585,13.588c7.504,0,13.586-6.084,13.586-13.588V71.817C298.888,64.312,292.806,58.229,285.302,58.229z
			 M122.272,58.229c-7.503,0-13.585,6.083-13.585,13.588v163.029c0,7.504,6.082,13.588,13.585,13.588s13.585-6.084,13.585-13.588
			V71.817C135.858,64.312,129.776,58.229,122.272,58.229z M230.959,37.854c-7.504,0-13.586,6.081-13.586,13.583v203.788
			c0,7.505,6.082,13.588,13.586,13.588c7.503,0,13.586-6.083,13.586-13.588V51.437C244.545,43.935,238.462,37.854,230.959,37.854z
			 M176.616,37.854c-7.503,0-13.586,6.081-13.586,13.583v203.788c0,7.505,6.083,13.588,13.586,13.588
			c7.503,0,13.586-6.083,13.586-13.588V51.437C190.202,43.935,184.119,37.854,176.616,37.854z"/>
	</g>
</g>
<g id="pO9MFP_1_">
	<g>
		<path fill-rule="evenodd" clip-rule="evenodd" d="M1207.441,201.671c12.115-23.143,50.911-23.023,63.579,1.837
			c0.357-0.399,0.715-0.724,0.985-1.111c8.538-12.232,20.415-17.79,35.17-17.751c7.342,0.02,14.349,1.266,20.762,5.017
			c9.611,5.622,14.553,14.447,16.621,25.012c0.843,4.309,1.196,8.771,1.239,13.167c0.147,14.904,0.059,29.811,0.055,44.717
			c0,6.26-3.888,10.262-9.966,10.274c-6.132,0.012-10.277-4.113-10.29-10.265c-0.028-15.164,0.124-30.333-0.193-45.491
			c-0.081-3.86-1.225-7.847-2.609-11.499c-2.777-7.324-8.447-11.4-16.189-12.306c-7.562-0.885-14.627,0.437-20.652,5.532
			c-5.979,5.057-9.057,11.611-9.174,19.299c-0.229,14.901-0.092,29.81-0.116,44.714c-0.007,4.297-2.211,7.887-5.634,9.244
			c-4.288,1.701-9.029,0.884-11.945-2.134c-1.897-1.963-2.709-4.361-2.705-7.094c0.02-14.125,0.006-28.249,0.012-42.373
			c0.002-5.871-0.938-11.502-3.851-16.719c-3.233-5.794-8.109-9.183-14.611-10.232c-6.882-1.11-13.527-0.515-19.449,3.514
			c-7.082,4.817-10.657,11.848-10.855,20.184c-0.355,14.896-0.147,29.806-0.189,44.71c-0.003,0.97-0.058,1.953-0.217,2.909
			c-0.895,5.386-5.237,8.432-11.32,7.98c-4.821-0.356-8.693-4.591-8.696-9.599c-0.013-25.841-0.008-51.681-0.005-77.521
			c0.001-6.109,3.671-10.062,9.409-10.156c6.826-0.111,10.646,3.376,10.827,9.932
			C1207.488,197.529,1207.441,199.602,1207.441,201.671z"/>
		<path fill-rule="evenodd" clip-rule="evenodd" d="M783.442,241.383c-0.024,12.068,9.511,23.146,21.39,25.431
			c12.781,2.457,23.61-1.108,32.853-10.057c2.407-2.329,5.134-3.658,8.642-2.904c5.213,1.122,8.337,6.944,5.497,11.439
			c-1.961,3.104-4.729,5.919-7.682,8.138c-9.388,7.058-20.166,10.16-31.88,10.264c-9.449,0.084-18.485-1.471-26.813-6.188
			c-10.688-6.053-17.583-15.121-20.846-26.854c-3.73-13.409-3.399-26.688,2.812-39.37c7.35-15.004,19.571-23.659,36.006-26.116
			c12.987-1.941,24.996,0.686,35.278,9.249c8.534,7.108,13.485,16.425,15.677,27.181c0.824,4.049,1.117,8.237,1.291,12.378
			c0.204,4.816-2.399,7.317-7.271,7.397c-3.448,0.058-6.899,0.012-10.351,0.012c-17.38,0-34.761,0-52.142,0
			C785.133,241.383,784.362,241.383,783.442,241.383z M783.885,224.747c17.711,0,35.286,0,52.867,0
			c-0.453-12.248-12.141-23.475-24.734-23.924C797.555,200.306,785.577,210.404,783.885,224.747z"/>
		<path fill-rule="evenodd" clip-rule="evenodd" d="M1111.009,184.793c11.697-0.279,22.339,2.906,31.597,10.156
			c10.631,8.324,16.067,19.547,17.634,32.752c1.157,9.743-0.053,19.219-4.104,28.211c-6.7,14.871-18.378,23.705-34.167,26.779
			c-12.698,2.472-25.133,1.181-36.609-5.393c-14.174-8.119-21.527-20.713-23.459-36.645c-1.264-10.43,0.175-20.535,4.916-29.985
			c7.05-14.057,18.621-22.144,33.915-25.132c1.654-0.323,3.33-0.598,5.01-0.716C1107.49,184.698,1109.252,184.793,1111.009,184.793z
			 M1081.75,234.583c0.109,1.231,0.242,2.784,0.386,4.336c1.581,17.07,13.347,25.99,25.108,27.318
			c13.154,1.484,25.09-4.985,30.005-16.564c3.462-8.158,3.922-16.637,1.903-25.224c-2.502-10.641-8.791-18.168-19.354-21.231
			c-10.847-3.145-20.887-1.142-29.178,6.974C1083.898,216.773,1082.114,225.269,1081.75,234.583z"/>
		<path fill-rule="evenodd" clip-rule="evenodd" d="M591.843,202.062c1.891-2.549,3.341-4.865,5.142-6.866
			c6.42-7.133,14.666-10.178,24.106-10.517c11.983-0.429,22.478,2.895,30.647,12.046c5.736,6.426,8.581,14.179,9.725,22.583
			c0.455,3.338,0.645,6.733,0.661,10.104c0.069,14.448,0.055,28.896,0.014,43.344c-0.011,4.063-1.561,7.416-5.391,9.216
			c-4.002,1.882-9.047,1.024-11.999-1.861c-2.011-1.966-2.861-4.399-2.855-7.216c0.028-14.123,0.1-28.246-0.047-42.367
			c-0.037-3.542-0.397-7.193-1.343-10.59c-2.577-9.257-8.442-15.253-18.295-16.548c-9.104-1.196-17.426,0.46-23.787,7.682
			c-4.774,5.42-6.596,11.965-6.583,19.107c0.023,14.058,0.02,28.114,0.002,42.172c-0.01,7.467-6.15,12.089-13.363,10.1
			c-3.964-1.093-6.857-4.63-6.862-8.703c-0.03-26.357-0.048-52.715,0.007-79.072c0.014-6.354,6.032-10.49,12.716-8.952
			c4.933,1.137,7.342,4.163,7.496,9.513C591.894,197.376,591.843,199.521,591.843,202.062z"/>
		<path fill-rule="evenodd" clip-rule="evenodd" d="M1003.432,184.331c10.638,0.201,20.361,3.023,28.895,9.317
			c2.516,1.855,4.735,4.295,6.572,6.841c2.564,3.551,1.777,8.349-1.3,10.964c-3.434,2.918-8.464,3.005-11.761,0.087
			c-3.857-3.415-7.685-6.859-12.767-8.379c-16.286-4.87-35.521,2.288-39.066,24.739c-1.649,10.446,0.204,20.254,6.999,28.677
			c4.91,6.086,11.516,9.059,19.229,9.863c9.555,0.997,17.685-1.892,24.446-8.665c2.587-2.592,5.495-3.687,9.191-2.754
			c5.569,1.406,8.27,7.415,5.343,12.433c-2.459,4.214-6.174,7.146-10.313,9.59c-10.024,5.917-20.877,7.505-32.303,6.307
			c-9.599-1.006-18.295-4.287-25.895-10.242c-9.884-7.746-15.179-18.176-16.935-30.408c-1.436-10-0.616-19.85,3.335-29.291
			c6.294-15.044,17.854-23.746,33.419-27.387C994.728,185.038,999.125,184.873,1003.432,184.331z"/>
		<path fill-rule="evenodd" clip-rule="evenodd" d="M704.85,204.095c-2.737,0-5.199,0-7.662,0c-2.799,0-5.598,0.022-8.396-0.007
			c-5.516-0.059-8.874-3.277-8.84-8.437c0.034-5.193,3.418-8.469,8.85-8.505c4.557-0.03,9.112-0.007,13.669-0.007
			c0.705,0,1.409,0,2.38,0c0-0.843-0.001-1.532,0-2.223c0.008-8.722-0.007-17.443,0.031-26.166c0.027-5.979,3.954-9.922,9.858-9.991
			c6.204-0.072,10.324,3.725,10.397,9.856c0.104,8.656,0.036,17.314,0.043,25.971c0,0.767,0,1.533,0,2.552c0.87,0,1.562,0,2.253,0
			c5.468,0,10.937-0.049,16.403,0.017c4.364,0.053,7.763,2.923,8.268,6.817c0.612,4.725-1.396,8.44-5.355,9.653
			c-1.156,0.353-2.43,0.437-3.651,0.446c-5.206,0.048-10.414,0.021-15.621,0.021c-0.698,0-1.396,0-2.296,0c0,1.024,0,1.789,0,2.555
			c0,21.675-0.016,43.351,0.016,65.025c0.005,3.248-0.562,6.241-3.049,8.529c-3.391,3.121-7.389,3.405-11.451,1.824
			c-3.92-1.525-5.781-4.777-5.817-8.896c-0.087-9.502-0.028-19.005-0.028-28.509c0-12.694,0-25.387,0-38.079
			C704.85,205.835,704.85,205.125,704.85,204.095z"/>
		<path fill-rule="evenodd" clip-rule="evenodd" d="M534.902,208.999c0,20.763-0.018,41.526,0.016,62.289
			c0.007,3.695-0.865,6.982-3.815,9.404c-3.377,2.773-7.239,2.816-11.025,1.242c-3.573-1.485-5.432-4.499-5.865-8.352
			c-0.044-0.386-0.032-0.779-0.032-1.17c0-42.307-0.006-84.613,0.017-126.919c0.002-4.281,1.877-7.677,5.857-9.322
			c4.233-1.75,8.449-1.433,11.957,1.929c2.313,2.218,2.896,5.131,2.896,8.22c-0.007,15.491-0.003,30.981-0.003,46.473
			C534.903,198.194,534.903,203.597,534.902,208.999z"/>
		<path fill-rule="evenodd" clip-rule="evenodd" d="M902.767,203.444c1.947-3.08,3.565-6.361,5.842-9.095
			c6.154-7.392,14.429-9.898,23.744-9.103c4.625,0.395,7.412,4.398,7.332,9.715c-0.071,4.727-3.186,8.391-7.586,8.979
			c-3.848,0.514-7.841,0.581-11.507,1.703c-9.354,2.861-14.418,9.88-16.45,19.094c-0.9,4.091-1.254,8.366-1.314,12.564
			c-0.171,11.777-0.045,23.559-0.067,35.337c-0.009,4.475-2.311,8.176-6.191,9.476c-4.088,1.37-8.106,1.262-11.426-1.997
			c-1.738-1.707-2.607-3.896-2.609-6.331c-0.019-26.292-0.032-52.584,0.003-78.875c0.008-5.412,4.375-9.368,10.112-9.385
			c6.083-0.018,9.955,3.761,10.106,9.939C902.822,198.157,902.767,200.852,902.767,203.444z"/>
	</g>
</g>
</svg>
