<?xml version="1.0" encoding="utf-8"?>
<!-- Generator: Adobe Illustrator 16.0.0, SVG Export Plug-In . SVG Version: 6.00 Build 0)  -->
<!DOCTYPE svg PUBLIC "-//W3C//DTD SVG 1.1//EN" "http://www.w3.org/Graphics/SVG/1.1/DTD/svg11.dtd">
<svg version="1.1" id="Layer_1" xmlns="http://www.w3.org/2000/svg" xmlns:xlink="http://www.w3.org/1999/xlink" x="0px" y="0px"
	 width="201.737px" height="42.563px" viewBox="1.919 1.062 201.737 42.563" enable-background="new 1.919 1.062 201.737 42.563"
	 xml:space="preserve">
<g id="_x39_o4oNh_1_" display="none">
</g>
<g enable-background="new    ">
	<path d="M21.917,43.085L1.919,1.062h7.062l16.727,36.29l16.727-36.29h7.062L29.574,43.085H21.917z"/>
	<path d="M56.93,43.085V1.062h32.487v4.662H63.1V19.27h25.796v4.662H63.1v14.491h26.317v4.662H56.93z"/>
	<path d="M128.891,43.085l-12.563-16.696h-9.961v16.696h-6.171V1.062h19.924c9.068,0,15.611,4.915,15.611,12.664
		c0,7.561-6.172,11.717-12.937,12.223l13.382,17.137L128.891,43.085L128.891,43.085z M129.336,13.725
		c0-4.788-4.088-8.001-9.961-8.001h-13.01V21.79h13.01C125.248,21.79,129.336,18.451,129.336,13.725z"/>
</g>
<g>
	<polygon fill="#F7BD16" points="187.375,22.562 203.656,22.562 195.5,32.625 	"/>
</g>
<g>
	<path fill="none" stroke="#F7BD16" stroke-width="5" stroke-miterlimit="10" d="M185.281,35.109"/>
</g>
<g>
	<path fill="#F7BD16" d="M172.625,43.625c-13.992,0-25.375-9.49-25.375-21.156c0-11.666,11.383-21.156,25.375-21.156
		S198,10.803,198,22.469c0,1.514-0.195,3.029-0.579,4.51c-0.348,1.336-1.711,2.142-3.049,1.791
		c-1.336-0.348-2.138-1.711-1.791-3.049c0.278-1.068,0.419-2.162,0.419-3.252c0-8.908-9.141-16.156-20.375-16.156
		s-20.375,7.248-20.375,16.156c0,8.908,9.141,16.156,20.375,16.156c5.471,0,10.609-1.708,14.475-4.811
		c1.076-0.863,2.65-0.689,3.516,0.387c0.863,1.076,0.691,2.65-0.387,3.515C185.48,41.525,179.229,43.625,172.625,43.625z"/>
</g>
</svg>
