<?xml version="1.0" encoding="utf-8"?>
<!-- Generator: Adobe Illustrator 16.0.0, SVG Export Plug-In . SVG Version: 6.00 Build 0)  -->
<!DOCTYPE svg PUBLIC "-//W3C//DTD SVG 1.1//EN" "http://www.w3.org/Graphics/SVG/1.1/DTD/svg11.dtd">
<svg version="1.1" id="Layer_1" xmlns="http://www.w3.org/2000/svg" xmlns:xlink="http://www.w3.org/1999/xlink" x="0px" y="0px"
	 width="593.709px" height="128px" viewBox="0 0 593.709 128" enable-background="new 0 0 593.709 128" xml:space="preserve">
<g>
	<g>
		<polygon points="133.771,103.675 70.364,103.675 77.418,91.433 112.587,91.433 66.916,12.1 73.901,0 		"/>
		<polygon points="59.874,24.297 91.504,79.243 77.414,79.243 59.826,48.782 13.958,128 0,128 		"/>
		<polygon points="59.812,73.136 66.86,85.341 49.276,115.863 140.809,115.863 147.815,128 28.045,128 		"/>
	</g>
	<g>
		<path d="M182.964,26.995c0-2.512,2.057-4.568,4.461-4.568c2.512,0,4.568,2.057,4.568,4.568v43.782l45.605-46.754
			c1.028-0.913,2.057-1.596,3.546-1.596c2.397,0,4.341,2.168,4.341,4.453c0,1.26-0.568,2.285-1.488,3.203l-28.344,28.119
			l30.4,37.491c0.807,1.028,1.261,1.94,1.261,3.312c0,2.403-2.057,4.571-4.573,4.571c-1.711,0-2.858-0.913-3.654-2.052
			l-29.831-37.152l-17.263,17.259v17.373c0,2.521-2.057,4.571-4.568,4.571c-2.404,0-4.461-2.051-4.461-4.571V26.995z"/>
		<path d="M282.63,104.376c-16.229,0-29.49-12.462-29.49-30.749v-0.229c0-17.028,12.006-30.741,28.348-30.741
			c17.491,0,27.435,14.288,27.435,29.946c0,2.397-1.942,4.112-4.112,4.112h-42.752c1.256,12.804,10.289,20.007,20.801,20.007
			c7.32,0,12.688-2.86,17.032-6.858c0.693-0.574,1.488-1.029,2.518-1.029c2.176,0,3.887,1.716,3.887,3.771
			c0,1.031-0.455,2.057-1.371,2.855C299.32,100.832,292.689,104.376,282.63,104.376z M300.122,70.199
			c-0.914-10.744-7.087-20.117-18.861-20.117c-10.29,0-18.059,8.572-19.205,20.117H300.122z"/>
		<path d="M347.438,104.376c-16.229,0-29.486-12.462-29.486-30.749v-0.229c0-17.028,12-30.741,28.345-30.741
			c17.487,0,27.435,14.288,27.435,29.946c0,2.397-1.943,4.112-4.115,4.112h-42.752c1.263,12.804,10.291,20.007,20.804,20.007
			c7.317,0,12.688-2.86,17.028-6.858c0.692-0.574,1.488-1.029,2.517-1.029c2.179,0,3.89,1.716,3.89,3.771
			c0,1.031-0.455,2.057-1.369,2.855C364.126,100.832,357.501,104.376,347.438,104.376z M364.925,70.199
			c-0.916-10.744-7.086-20.117-18.856-20.117c-10.285,0-18.062,8.572-19.207,20.117H364.925z"/>
		<path d="M386.417,47.801c0-2.402,1.938-4.46,4.342-4.46c2.513,0,4.454,1.945,4.454,4.46v6.398
			c3.893-6.398,10.062-11.545,20.232-11.545c14.287,0,22.635,9.604,22.635,23.659v32.806c0,2.515-1.949,4.456-4.348,4.456
			c-2.512,0-4.461-1.941-4.461-4.456V68.483c0-10.969-5.938-17.824-16.342-17.824c-10.172,0-17.719,7.427-17.719,18.513v29.947
			c0,2.515-1.828,4.456-4.342,4.456c-2.518,0-4.454-1.941-4.454-4.456V47.801H386.417z"/>
		<path d="M487.678,26.995c0-2.512,2.057-4.568,4.457-4.568c2.516,0,4.57,2.057,4.57,4.568v72.009c0,2.521-2.057,4.571-4.57,4.571
			c-2.4,0-4.457-2.051-4.457-4.571V26.995z"/>
		<path d="M512.102,63.228v-0.229c0-22.056,16.574-41.373,40.916-41.373c24.35,0,40.691,19.085,40.691,41.146v0.228
			c0,22.062-16.57,41.377-40.92,41.377C528.449,104.376,512.102,85.287,512.102,63.228z M584.338,63.228v-0.229
			c0-18.172-13.262-33.029-31.547-33.029c-18.281,0-31.312,14.629-31.312,32.803v0.227c0,18.176,13.258,33.035,31.541,33.035
			C571.311,96.033,584.338,81.399,584.338,63.228z"/>
	</g>
</g>
</svg>
